<svg xmlns="http://www.w3.org/2000/svg" viewBox="0 0 752 1080"><defs><style>.a{isolation:isolate;}.b{fill:#aede00;}.c,.h,.l,.m{fill:none;}.c,.d,.e,.f,.g,.h,.j,.k,.l,.m,.p,.q{stroke:#000;}.c,.d,.e,.f,.g,.m,.p,.q{stroke-linecap:round;}.c,.d,.e,.f,.g,.p,.q{stroke-linejoin:round;}.c,.d,.e,.f,.g,.j,.k,.l,.m,.p,.q{stroke-width:5px;}.d{fill:#ccc9b9;}.e{fill:#ccc;}.f,.j,.n{fill:#fff;}.g{fill:#9cd9e2;}.h,.j,.k,.l,.m{stroke-miterlimit:10;}.h{stroke-width:3px;}.i,.o{fill:#e6e6e6;}.i{mix-blend-mode:multiply;}.p{fill:#f66c00;}.q{fill:#ff0;}</style></defs><title>q4-base</title><g class="a"><path class="b" d="M581.53,523.82H566.34c-4.49-60.25-55.19-108.17-116.54-108.17H182.53c-64.27,0-116.86,52.59-116.86,116.86h0c0,48,29.33,89.48,71,107.41a134.71,134.71,0,0,0-1.45,19.69h0c0,74.68,61.11,135.79,135.79,135.79H581.53c74.68,0,135.78-61.11,135.78-135.79h0C717.31,584.93,656.21,523.82,581.53,523.82Z"/><line class="c" x1="681.83" y1="698.91" x2="686.62" y2="708.49"/><line class="c" x1="707.63" y1="698.91" x2="702.84" y2="708.49"/><line class="c" x1="694.73" y1="708.49" x2="694.73" y2="698.17"/><path class="d" d="M635.55,403.43c-156,49.65-298.12,166.84-377.14,267.29C177.54,773.53,126.17,858.49,126.17,858.49L423.75,898S495,771.54,544.38,690.17C600.5,597.74,664.49,437.86,704,413"/><line class="c" x1="196.63" y1="414.43" x2="201.42" y2="424.01"/><line class="c" x1="222.43" y1="414.43" x2="217.64" y2="424.01"/><line class="c" x1="209.53" y1="424.01" x2="209.53" y2="413.69"/><line class="c" x1="656.57" y1="573.37" x2="661.36" y2="582.95"/><line class="c" x1="682.36" y1="573.37" x2="677.57" y2="582.95"/><line class="c" x1="669.46" y1="582.95" x2="669.46" y2="572.63"/><line class="c" x1="164.64" y1="562.45" x2="169.43" y2="572.03"/><line class="c" x1="190.44" y1="562.45" x2="185.65" y2="572.03"/><line class="c" x1="177.54" y1="572.03" x2="177.54" y2="561.71"/><line class="c" x1="587.6" y1="776.92" x2="592.39" y2="786.5"/><line class="c" x1="613.39" y1="776.92" x2="608.6" y2="786.5"/><line class="c" x1="600.5" y1="786.5" x2="600.5" y2="776.18"/><line class="c" x1="491.34" y1="913.74" x2="496.13" y2="923.32"/><line class="c" x1="517.13" y1="913.74" x2="512.34" y2="923.32"/><line class="c" x1="504.23" y1="923.32" x2="504.23" y2="913"/><line class="c" x1="184.39" y1="685.38" x2="189.18" y2="694.96"/><line class="c" x1="210.18" y1="685.38" x2="205.39" y2="694.96"/><line class="c" x1="197.29" y1="694.96" x2="197.29" y2="684.64"/><path class="e" d="M372.32,858.87c-32.2-8.2-76.42-13.27-125.22-13.27s-93,5.07-125.22,13.27H68.74v32.79c0,25.43,79.85,46.05,178.36,46.05s178.36-20.62,178.36-46.05V858.87Z"/><ellipse class="f" cx="247.1" cy="858.87" rx="178.36" ry="46.05"/><path class="g" d="M603.61,402.65C621,423.88,659.2,477.63,652.8,533a11.26,11.26,0,0,1-.27,2.26s0,0,0,.07h0a11.9,11.9,0,0,1-23.21,0,11.71,11.71,0,0,1,.1-5.62h0l0-.06c.06-.21.13-.43.2-.64,1.59-6.38,2.73-44.49-32.5-88.89"/><path class="h" d="M636.14,525.19c0,.73,2.06,11.41-2.1,16.67"/><path class="h" d="M643.84,526s1.8,15.4-2.63,19"/><path class="i" d="M532,664.2c.15,11-51.28,20.61-114.87,21.49s-115.27-7.29-115.42-18.28S353,646.81,416.6,645.93,531.86,653.22,532,664.2Z"/><rect class="j" x="447.49" y="660.32" width="38.96" height="7.73" transform="translate(-9.24 6.6) rotate(-0.8)"/><line class="h" x1="458.92" y1="620.65" x2="491.89" y2="620.19"/><path class="k" d="M468.6,620.51c.17,6,.3,12,.39,18,0,0-23.4-1.23-21.51,22.12l38.95-.54-.55-39.78Z"/><rect class="j" x="330.68" y="661.95" width="38.96" height="7.73" transform="translate(-9.24 4.94) rotate(-0.8)"/><line class="h" x1="344.31" y1="622.25" x2="377.28" y2="621.79"/><path class="k" d="M351.75,622.14c.17,6,.31,12,.39,18,0,0-23.4-1.24-21.51,22.12l39-.55L369,621.9Z"/><path class="g" d="M604.23,392.88c-1.45-104-86.94-187.16-191-185.71s-187.16,87-185.71,191q.08,5.25.44,10.43l-.29-.22s-47.89,82-23.28,149.37a12.08,12.08,0,0,0,.79,2.13l0,.06h0A11.9,11.9,0,1,0,226.42,549h0l0,0-.34-.59c-3-5.83-13-42.62,10.88-94A188.89,188.89,0,0,0,349.55,571.83c.71,12.42,1.64,30.9,2.2,50.31L369,621.9l-.61-44.08a189.41,189.41,0,0,0,98.35-.93c.64,11.92,1.36,27.44,1.83,43.62l17.28-.24-.69-49.58A188.42,188.42,0,0,0,604.23,392.88Z"/><path class="j" d="M367.26,335.2c1.17,5.16-4.4,10.81-12.42,12.63s-15.48-.91-16.64-6.07,4.39-10.81,12.42-12.62S366.1,330,367.26,335.2Z"/><path class="j" d="M437.34,342.25c-1.69,5-9.38,6.95-17.18,4.33s-12.75-8.82-11.06-13.83,9.38-6.95,17.18-4.33S439,337.24,437.34,342.25Z"/><path class="l" d="M409.63,395.59l-61,.85a10,10,0,0,1-10.11-9.83h0a10,10,0,0,1,9.83-10.1l61-.85"/><path d="M368,362.75a7.45,7.45,0,1,1-7.56-7.35A7.46,7.46,0,0,1,368,362.75Z"/><path d="M423.56,362a7.45,7.45,0,1,1-7.55-7.34A7.45,7.45,0,0,1,423.56,362Z"/><path class="h" d="M392.14,426.77a7.45,7.45,0,0,1-14.9.21"/><path class="h" d="M407,426.56a7.45,7.45,0,1,1-14.9.21"/><line class="l" x1="367.12" y1="416.5" x2="416.86" y2="415.81"/><path class="h" d="M218.74,546.27c.18.7.66,11.57,5.93,15.72"/><path class="h" d="M211.45,548.89s1.84,15.39,7,17.87"/><path class="m" d="M355.1,573.83A188.74,188.74,0,0,1,232.85,440.07"/><path class="m" d="M462.62,578a189.72,189.72,0,0,1-93.25.06"/><path class="m" d="M476.6,573.86q-6.89,2.34-14,4.15"/><path class="m" d="M227.56,398.13c-1.45-104,81.7-189.51,185.71-191s189.51,81.7,191,185.71A188.41,188.41,0,0,1,488.46,569.37"/><path class="n" d="M511.16,401.88a27.64,27.64,0,1,1-28-27.25A27.64,27.64,0,0,1,511.16,401.88Z"/><path class="n" d="M319.13,404.56a27.64,27.64,0,1,1-28-27.26A27.65,27.65,0,0,1,319.13,404.56Z"/><path class="o" d="M340.13,852.61c.14,10.62-41.39,19.8-92.76,20.52s-93.15-7.31-93.3-17.92,41.38-19.8,92.76-20.52S340,842,340.13,852.61Z"/><circle class="p" cx="209.36" cy="728.94" r="83.05" transform="translate(-334.67 200.53) rotate(-29.81)"/><polygon points="170.93 750.48 179.03 736.72 202.08 751.53 186.68 709.16 201.94 703.64 218.74 750.45 229.88 718.06 245.02 723.37 231 763.3 231 850.89 196 850.89 196 765.57 170.93 750.48"/><line class="q" x1="254.62" y1="733.89" x2="237.88" y2="765.89"/><line class="p" x1="207.74" y1="689.8" x2="219.72" y2="722.89"/><line class="p" x1="182.59" y1="769.89" x2="157.41" y2="749.89"/><circle class="p" cx="292.36" cy="728.94" r="83.05" transform="translate(-481.87 597) rotate(-58.47)"/><polygon points="330.93 750.48 322.76 736.72 299.67 751.53 315.06 709.16 299.8 703.64 282.99 750.45 271.85 718.06 256.84 723.37 271 763.3 271 850.89 306 850.89 306 765.57 330.93 750.48"/><line class="q" x1="247.1" y1="733.89" x2="263.84" y2="765.89"/><line class="p" x1="293.98" y1="689.8" x2="282" y2="722.89"/><line class="p" x1="319.13" y1="769.89" x2="344.31" y2="749.89"/></g></svg>