<svg xmlns="http://www.w3.org/2000/svg" viewBox="0 0 307.22 57.01"><defs><style>.a{fill:#f66c00;}</style></defs><title>result-0</title><path class="a" d="M71.88,28.34a3.2,3.2,0,0,1,.68,2c0,1.36-.68,1.93-2.67,2.27-3.74.62-7.08,1.19-10.88,1.59v1.13L75.67,33.9c1.25-.17,2.16,1.07,2.16,2.89,0,1.36-.57,2.15-1.65,2.26L59,40.58v1.31L79.47,40A2.67,2.67,0,0,1,82,42.8a2.6,2.6,0,0,1-1,2.15c1.47.79,1.93,1.42,1.93,2.55a9.12,9.12,0,0,1-1.19,4.42c-1.25,2.16-2.67,2.55-14.91,2.55-14.91,0-16.16-.62-16.16-6.57L35.54,49.26c-1.81.17-2.78-.91-2.78-3.4,0-1,.68-1.59,2.21-1.7l15.76-1.48v-1.3l-13,1.19c-1.3.11-2.27-1.19-2.27-3.06a2,2,0,0,1,2-2.21l13.21-1.19V35c-.11,0-8.16.68-9.63.68a2.36,2.36,0,0,1-2.67-2.32,7.86,7.86,0,0,1-2.55.45c-2.44,0-3.91-1.19-3.91-3.23V28.06c0-3.74,1-4.76,4.76-4.76H78.17c3.68,0,4.7,1,4.7,4.76v2.72C82.82,32.82,81.46,34,79,34c-3.91,0-3.91-2.15-3.91-4.7,0-.74-.23-.91-.91-.91ZM53,4.82c0-2.33,1.3-3.63,4.31-3.63s4.31,1.3,4.31,3.63H80.89c1.42,0,2.21,1,2.21,2.77s-.79,2.78-2.21,2.78H34.29c-1.41,0-2.21-1-2.21-2.78s.8-2.77,2.21-2.77ZM37.24,15.13c0-2.72.74-3.46,3.46-3.46H74.37c2.72,0,3.46.74,3.46,3.46v3.52c0,2.72-.74,3.46-3.46,3.46H40.7c-2.72,0-3.46-.74-3.46-3.46ZM41,28.34c-.91,0-.91.23-.91,2.49,1.65-.22,5.22-.28,7.49-.39a175.07,175.07,0,0,0,19.73-2.1ZM46.14,15.7c-.62,0-.62.06-.62,1,0,.57,0,.63.62.63h23c.62,0,.62-.06.62-1,0-.56,0-.62-.62-.62ZM59.06,47.16c.23.79.29,1.08,9.64,1.08,1.82,0,4.08-.11,5.56-.23s1.36-.11,1.87-2a2.81,2.81,0,0,1,.17-.46Z"/><path class="a" d="M132.87,36.9a3.21,3.21,0,0,1,1.53,2.72c0,1.25-1.42,3.23-4.2,5.78,2,.63,2.61.68,11.34,1.7,3.57.51,4.48,1.19,4.48,3.63,0,3-1.25,4.31-4.14,4.31a57.79,57.79,0,0,1-19.39-4.59c-4.64,2.32-12.47,4.48-16.15,4.48-2.33,0-3.69-1.25-3.69-3.4a5.58,5.58,0,0,1,.29-1.59c-2.67,1.87-5.11,3-6.75,3-2,0-3.63-1.87-3.63-4.26,0-1.53.68-2.49,2.61-3.51,6-3.23,7.88-4.65,11.17-8.22H95.68c-1.64,0-2.55-1.13-2.55-3.17s.91-3.18,2.55-3.18h14.91c1.42-2.49,2-2.95,3.91-2.95a3.73,3.73,0,0,1,3.91,2.95h12.42c-1.36-1.19-1.42-1.25-1.42-2a3.13,3.13,0,0,1,.23-1.19,14.42,14.42,0,0,1-3,.4c-2,0-3.34-1.42-3.34-3.63,0-2,.9-2.61,4.76-3.17a59.85,59.85,0,0,0,12.58-3.29,5.66,5.66,0,0,1,2-.51c1.42,0,2.77,1.7,2.77,3.4,0,2.95-3.11,3.74-10.14,5.55,2.38,1.7,3.12,2.5,3.12,3.57a4.08,4.08,0,0,1-.17.91h5.72c1.59,0,2.5,1.14,2.5,3.18s-.91,3.17-2.5,3.17ZM119.15,21.25a6.58,6.58,0,0,0,.85,1,4.15,4.15,0,0,1,1.19,2.61c0,1.64-1.76,3.06-3.74,3.06-.91,0-1.53-.4-2.38-1.48a151.63,151.63,0,0,1-18.09,2c-1.53,0-2.21-.73-2.21-2.49s.57-2.61,3.75-2.38a18.7,18.7,0,0,0,1.7-2.33H94.77c-1,0-1.58-.67-1.58-2s.56-2,1.58-2h3V7.37c0-3.8,1-4.76,4.76-4.76h16.38c1.08,0,1.7.79,1.7,2.15s-.56,2.1-1.7,2.1h-12.3c-1,0-1.19.28-1.19,1.19h12.93c.85,0,1.36.62,1.36,1.7s-.51,1.7-1.36,1.7H105.43v1.19H118.3c.91,0,1.36.62,1.36,1.7s-.45,1.7-1.36,1.7H105.43v1.19H121.7c1.08,0,1.64.74,1.64,2s-.56,2-1.64,2Zm-7.77,21.32A73,73,0,0,1,105.43,48c2.55-.34,7.37-1,9.75-2A36,36,0,0,1,111.38,42.57Zm-3.74-21.32c-.4.57-1,1.37-1.36,1.88a59.49,59.49,0,0,0,6.46-.57,1.87,1.87,0,0,1,.46-1.31Zm8.11,15.82a31,31,0,0,0,6.69,5.22A29.83,29.83,0,0,0,127,38.15c.63-.74.91-1.08,1.08-1.25H115.86ZM143.69,4.36c0,2-.73,2.55-4.87,3.91-4.48,1.48-10.26,2.78-12.53,2.78s-3.23-1.13-3.23-3.63c0-2.21,1-2.83,5.5-3.34,3.29-.4,5.73-1.13,10.54-2.66a6.73,6.73,0,0,1,1.7-.29C142.56,1.13,143.69,2.44,143.69,4.36Zm.57,8.22c0,2-1.42,2.89-6.86,4.25a67.21,67.21,0,0,1-10.94,2.1c-1.7,0-2.83-1.47-2.83-3.63s.91-2.6,5.5-3.23a52.34,52.34,0,0,0,10.71-2.61,6,6,0,0,1,1.59-.34C143,9.12,144.26,10.6,144.26,12.58Z"/><path class="a" d="M165.18,32.65v-6h-6.92c-1.81,0-2.78-1.25-2.78-3.46s1-3.4,2.78-3.4h6.92V15.64c-1.42,1.42-3.4,2.61-4.6,2.61-2,0-3.85-2.1-3.85-4.42,0-1.36.45-2,2.32-3.46a29.21,29.21,0,0,0,6-6.35c1.25-1.81,1.93-2.27,3.46-2.27,2.32,0,4.42,1.76,4.42,3.8a3.47,3.47,0,0,1-.11,1h31.4C206,6.52,207,7.76,207,10s-1,3.46-2.78,3.46H201v6.35h4.76c1.76,0,2.72,1.25,2.72,3.4s-1,3.46-2.72,3.46H201v6h3.69c1.81,0,2.83,1.25,2.83,3.57s-1,3.57-2.83,3.57H160c-1.87,0-2.89-1.3-2.89-3.57s1-3.57,2.89-3.57ZM168.75,45c0,1.07-.29,1.75-1.31,3.62-2.38,4.14-4,5.67-5.83,5.67-2.5,0-5.05-2.21-5.05-4.36,0-.85.23-1.36,1.47-2.78.74-.85.74-.91,3.12-4.65a2.94,2.94,0,0,1,2.55-1.41C166.37,41.1,168.75,43,168.75,45Zm12,3.57c0,.85.11,1.19.11,1.47,0,2.16-1.93,3.46-5.16,3.46-2.55,0-3.23-.85-3.4-4.48,0-.74-.51-3.85-.51-4.53,0-1.87,1.93-3.18,4.54-3.18C179.91,41.32,180.08,42.68,180.71,48.58Zm-8.33-28.8h2.49V13.43h-2.49Zm0,12.87h2.49v-6h-2.49Zm9.29-19.22v6.35h2.5V13.43Zm0,13.21v6h2.5v-6Zm2.89,22.28a19,19,0,0,0-.68-2.61,7.71,7.71,0,0,1-.45-1.87c0-1.7,2.44-3.29,5-3.29s2.95,1.19,4.2,5.1a9.44,9.44,0,0,1,.68,3.07c0,2.49-2.15,3.91-5.1,3.91C186.09,53.23,185.24,52.21,184.56,48.92ZM191,13.43v6.35h2.6V13.43Zm0,13.21v6h2.6v-6ZM204,43.48c2.72,4.7,2.83,5.61,2.83,6.4,0,2-2.38,4-4.93,4-1.24,0-1.81-.45-2.55-1.93s-1.76-3.17-2.89-5a4.58,4.58,0,0,1-1-2.49c0-2,2.32-3.86,4.87-3.86C201.91,40.58,202.7,41.21,204,43.48Z"/><path class="a" d="M223.05,31.4a2.24,2.24,0,0,1-.91.12,5.19,5.19,0,0,1-5-4.88c0-.85.39-1.7,1.64-3.34a52.57,52.57,0,0,0,7.2-15.25c1.36-5.1,1.7-6.52,4.65-6.52s5,1.7,5,4.08a15.5,15.5,0,0,1-1.07,4.53c-.8,2.39-1.82,5.11-2.89,7.71V51.58c0,2.21-1.53,3.46-4.31,3.46s-4.31-1.25-4.31-3.46Zm41.72,4.25c2.84,0,4.65,1.7,4.65,4.31,0,.62-.06,1.19-1,7.82-.68,4.88-2.78,6.64-7.77,6.64-4.08,0-5.27-.74-5.27-3.35,0-2.15,1.08-3.68,2.67-3.68.28,0,1.47.17,1.75.17.63,0,.85-.29,1-1.25s.68-4.53.68-4.59c0-.51-.29-.57-1.08-.57A28.66,28.66,0,0,1,253,50.73c-3.24,3-5.16,4.25-6.52,4.25a3.14,3.14,0,0,1-3-3c0-1.36.4-1.76,3.52-3.74a34.06,34.06,0,0,0,6.91-7.09h-2.21c-2.89,4-11.34,10.77-14.51,10.77-1.47,0-2.55-1.36-2.55-3.23,0-1.19.74-1.87,3.57-3.12a29.52,29.52,0,0,0,6.41-4.42H242.1c-3.12,2.27-5.28,3.4-6.58,3.4a3.35,3.35,0,0,1-3.06-3.4c0-1.64.57-2.21,3.4-3.29,1.42-.56,2.55-1.41,5.78-3.85H234.9c-1.48,0-2.27-1.08-2.27-2.89s.79-2.89,2.27-2.89h33.39c1.41,0,2.26,1.07,2.26,2.89S269.7,34,268.29,34H249.35c-.28.45-.79,1.13-1.19,1.64Zm-26.7-17.34a4.6,4.6,0,0,1-3.8-4.2c0-1.24.12-1.41,2.5-4.19A16.42,16.42,0,0,0,239,6.4c2.15-4.65,2.38-4.87,4.48-4.87,2.32,0,4.13,1.25,4.36,3.06h19.05c1.53,0,2.32,1,2.32,3s-.79,2.89-2.32,2.89h-21c-.29.4-.57,1-.85,1.3h16.15c3.8,0,4.82,1,4.82,4.82V22c0,3.8-1,4.82-4.82,4.82H242.89c-3.8,0-4.82-1-4.82-4.82ZM257.91,18a3.63,3.63,0,0,0-.11-1.3c-.12-.17-.34-.23-.8-.23H246.86c-.91,0-.91.17-.91,1.53ZM257,22.84c.91,0,.91-.11.91-1.42H246a2.81,2.81,0,0,0,.11,1.2c.12.22.34.22.8.22Z"/></svg>