<svg xmlns="http://www.w3.org/2000/svg" viewBox="0 0 752 1080"><defs><style>.a,.b{fill:#fff;stroke:#000;stroke-width:5px;}.a{stroke-miterlimit:10;}.b{stroke-linecap:round;stroke-linejoin:round;}</style></defs><title>hurt-4</title><path class="a" d="M413.27,207.17a188,188,0,0,0-147,73.9l332.86,70.77C579.22,267.86,503.17,205.92,413.27,207.17Z"/><line class="b" x1="282.37" y1="262.66" x2="591.97" y2="328.49"/><line class="b" x1="302.77" y1="244.9" x2="580.54" y2="303.95"/><line class="b" x1="437.17" y1="273.47" x2="537.17" y2="251.39"/><line class="b" x1="387.04" y1="262.43" x2="513.65" y2="234.48"/><line class="b" x1="483.29" y1="283.27" x2="556.18" y2="269.83"/><line class="b" x1="463.4" y1="213.11" x2="465.41" y2="245.13"/><line class="b" x1="440.65" y1="209.94" x2="442.66" y2="248.3"/><line class="b" x1="414.89" y1="209.94" x2="416.9" y2="255.75"/><line class="b" x1="386.04" y1="209.94" x2="388.04" y2="262.43"/><line class="b" x1="359.52" y1="215.43" x2="361.52" y2="256.93"/><line class="b" x1="332.89" y1="226.61" x2="335.18" y2="248.45"/></svg>