<svg xmlns="http://www.w3.org/2000/svg" viewBox="0 0 752 1080"><defs><style>.a{isolation:isolate;}.b{fill:#aede00;}.c,.h,.l,.m{fill:none;}.c,.d,.e,.f,.g,.h,.j,.k,.l,.m,.p{stroke:#000;}.c,.d,.e,.f,.g,.m,.p{stroke-linecap:round;}.c,.d,.e,.f,.g,.p{stroke-linejoin:round;}.c,.d,.e,.f,.g,.j,.k,.l,.m,.p{stroke-width:5px;}.d{fill:#ccc9b9;}.e{fill:#ccc;}.f,.j,.n{fill:#fff;}.g{fill:#9cd9e2;}.h,.j,.k,.l,.m{stroke-miterlimit:10;}.h{stroke-width:3px;}.i,.o{fill:#e6e6e6;}.i{mix-blend-mode:multiply;}.p{fill:#f66c00;}</style></defs><title>q3-base</title><g class="a"><path class="b" d="M581.53,523.82H566.34c-4.49-60.25-55.19-108.17-116.54-108.17H182.53c-64.27,0-116.86,52.59-116.86,116.86h0c0,48,29.33,89.48,71,107.41a134.71,134.71,0,0,0-1.45,19.69h0c0,74.68,61.11,135.79,135.79,135.79H581.53c74.68,0,135.78-61.11,135.78-135.79h0C717.31,584.93,656.21,523.82,581.53,523.82Z"/><line class="c" x1="681.83" y1="698.91" x2="686.62" y2="708.49"/><line class="c" x1="707.63" y1="698.91" x2="702.84" y2="708.49"/><line class="c" x1="694.73" y1="708.49" x2="694.73" y2="698.17"/><path class="d" d="M635.55,403.43c-156,49.65-298.12,166.84-377.14,267.29C177.54,773.53,126.17,858.49,126.17,858.49L423.75,898S495,771.54,544.38,690.17C600.5,597.74,664.49,437.86,704,413"/><line class="c" x1="196.63" y1="414.43" x2="201.42" y2="424.01"/><line class="c" x1="222.43" y1="414.43" x2="217.64" y2="424.01"/><line class="c" x1="209.53" y1="424.01" x2="209.53" y2="413.69"/><line class="c" x1="656.57" y1="573.37" x2="661.36" y2="582.95"/><line class="c" x1="682.36" y1="573.37" x2="677.57" y2="582.95"/><line class="c" x1="669.46" y1="582.95" x2="669.46" y2="572.63"/><line class="c" x1="164.64" y1="562.45" x2="169.43" y2="572.03"/><line class="c" x1="190.44" y1="562.45" x2="185.65" y2="572.03"/><line class="c" x1="177.54" y1="572.03" x2="177.54" y2="561.71"/><line class="c" x1="587.6" y1="776.92" x2="592.39" y2="786.5"/><line class="c" x1="613.39" y1="776.92" x2="608.6" y2="786.5"/><line class="c" x1="600.5" y1="786.5" x2="600.5" y2="776.18"/><line class="c" x1="491.34" y1="913.74" x2="496.13" y2="923.32"/><line class="c" x1="517.13" y1="913.74" x2="512.34" y2="923.32"/><line class="c" x1="504.23" y1="923.32" x2="504.23" y2="913"/><line class="c" x1="184.39" y1="685.38" x2="189.18" y2="694.96"/><line class="c" x1="210.18" y1="685.38" x2="205.39" y2="694.96"/><line class="c" x1="197.29" y1="694.96" x2="197.29" y2="684.64"/><path class="e" d="M372.32,858.87c-32.2-8.2-76.42-13.27-125.22-13.27s-93,5.07-125.22,13.27H68.74v32.79c0,25.43,79.85,46.05,178.36,46.05s178.36-20.62,178.36-46.05V858.87Z"/><ellipse class="f" cx="247.1" cy="858.87" rx="178.36" ry="46.05"/><path class="g" d="M603.61,402.65C621,423.88,659.2,477.63,652.8,533a11.26,11.26,0,0,1-.27,2.26s0,0,0,.07h0a11.9,11.9,0,0,1-23.21,0,11.71,11.71,0,0,1,.1-5.62h0l0-.06c.06-.21.13-.43.2-.64,1.59-6.38,2.73-44.49-32.5-88.89"/><path class="h" d="M636.14,525.19c0,.73,2.06,11.41-2.1,16.67"/><path class="h" d="M643.84,526s1.8,15.4-2.63,19"/><path class="i" d="M532,664.2c.15,11-51.28,20.61-114.87,21.49s-115.27-7.29-115.42-18.27S353,646.81,416.6,645.93,531.86,653.22,532,664.2Z"/><rect class="j" x="447.49" y="660.32" width="38.96" height="7.73" transform="translate(-9.24 6.6) rotate(-0.8)"/><line class="h" x1="458.92" y1="620.65" x2="491.89" y2="620.19"/><path class="k" d="M468.6,620.51c.17,6,.3,12,.39,18,0,0-23.4-1.23-21.51,22.12l38.95-.54-.55-39.78Z"/><rect class="j" x="330.68" y="661.95" width="38.96" height="7.73" transform="translate(-9.24 4.94) rotate(-0.8)"/><line class="h" x1="344.31" y1="622.25" x2="377.28" y2="621.79"/><path class="k" d="M351.75,622.14c.17,6,.31,12,.39,18,0,0-23.4-1.24-21.51,22.12l39-.55L369,621.9Z"/><path class="g" d="M604.23,392.88c-1.45-104-86.94-187.16-191-185.71s-187.16,87-185.71,191q.08,5.25.44,10.43l-.29-.22s-47.89,82-23.28,149.37a12.08,12.08,0,0,0,.79,2.13l0,.06h0A11.9,11.9,0,1,0,226.42,549h0l0,0-.34-.59c-3-5.83-13-42.62,10.88-94A188.89,188.89,0,0,0,349.55,571.83c.71,12.42,1.64,30.9,2.2,50.31L369,621.9l-.61-44.08a189.41,189.41,0,0,0,98.35-.93c.64,11.92,1.36,27.45,1.83,43.62l17.28-.24-.69-49.58A188.42,188.42,0,0,0,604.23,392.88Z"/><path class="j" d="M367.26,335.2c1.17,5.16-4.4,10.81-12.42,12.63s-15.48-.91-16.64-6.07,4.39-10.81,12.42-12.62S366.1,330,367.26,335.2Z"/><path class="j" d="M437.34,342.25c-1.69,5-9.38,6.95-17.18,4.33s-12.75-8.82-11.06-13.83,9.38-6.95,17.18-4.33S439,337.24,437.34,342.25Z"/><path class="l" d="M409.63,395.59l-61,.85a10,10,0,0,1-10.11-9.83h0a10,10,0,0,1,9.83-10.1l61-.85"/><path d="M368,362.75a7.45,7.45,0,1,1-7.56-7.35A7.46,7.46,0,0,1,368,362.75Z"/><path d="M423.56,362a7.45,7.45,0,1,1-7.55-7.34A7.45,7.45,0,0,1,423.56,362Z"/><path class="h" d="M392.14,426.77a7.45,7.45,0,0,1-14.9.21"/><path class="h" d="M407,426.56a7.45,7.45,0,1,1-14.9.21"/><line class="l" x1="367.12" y1="416.5" x2="416.86" y2="415.81"/><path class="h" d="M218.74,546.27c.18.7.66,11.57,5.93,15.72"/><path class="h" d="M211.45,548.89s1.84,15.39,7,17.87"/><path class="m" d="M355.1,573.83A188.74,188.74,0,0,1,232.85,440.07"/><path class="m" d="M462.62,578a189.72,189.72,0,0,1-93.25.06"/><path class="m" d="M476.6,573.86q-6.89,2.34-14,4.15"/><path class="m" d="M227.56,398.13c-1.45-104,81.7-189.51,185.71-191s189.51,81.7,191,185.71A188.41,188.41,0,0,1,488.46,569.37"/><path class="n" d="M511.16,401.88a27.64,27.64,0,1,1-28-27.25A27.64,27.64,0,0,1,511.16,401.88Z"/><path class="n" d="M319.13,404.56a27.64,27.64,0,1,1-28-27.26A27.65,27.65,0,0,1,319.13,404.56Z"/><path class="o" d="M340,852.61c.15,10.62-41.38,19.81-92.76,20.52s-93.15-7.31-93.3-17.92,41.39-19.8,92.76-20.52S339.85,842,340,852.61Z"/><rect class="f" x="176.5" y="651.37" width="131" height="169"/><rect class="f" x="183.5" y="660.37" width="117" height="151"/><path d="M230.26,726q-.44,12.12,11.09,12.87V717.25c-2.36-.73-4.66-1.56-6.88-2.49a26.46,26.46,0,0,1-6.42-3.49,17,17,0,0,1-6.29-13.7q.09-8.55,6-13.05a21.5,21.5,0,0,1,13.63-4.45v-7H245v7q8.06,0,13.41,4.19,5.43,4.41,5.52,13.22h-9.86q-.08-9.3-9.07-9.38V707a39.31,39.31,0,0,1,14.2,6.1,15.52,15.52,0,0,1,4.7,5.46,18.7,18.7,0,0,1,1.65,8.29q-.09,9.9-5.88,14.83T245,746.91v7h-3.66v-7q-9.51-.25-15.14-5.63T220.41,726Zm11.09-37.92q-9.65-.18-9.73,8.77a7,7,0,0,0,3.12,6.15,18.56,18.56,0,0,0,6.61,3ZM245,738.89a13.56,13.56,0,0,0,7.77-2.88q2.92-2.49,2.92-7.77a11.67,11.67,0,0,0-.76-4.41,9,9,0,0,0-2.5-2.75,10.07,10.07,0,0,0-3.31-1.87c-1.34-.41-2.71-.8-4.12-1.18Z"/><rect x="239.37" y="672.33" width="7.6" height="82.27"/><path d="M215,770.89h-8.21v-5.06h22.45v5.06H221v22.34h-6Z"/><path d="M239.85,765.83H246l10.24,27.4H250l-2.07-6.1H237.7l-2.15,6.1h-6.1Zm-.58,16.81h7.1l-3.45-10.06h-.08Z"/><path d="M265.37,778.88l-8.83-13h7l5.37,8.75,5.57-8.75h6.6l-8.79,13.08,9.55,14.32h-7.17l-6-9.48-6.1,9.48h-6.79Z"/><path class="p" d="M264.08,821.23v17h1.72a15.72,15.72,0,0,1,15.68,15.67h-34V821.23Z"/><path class="p" d="M235.26,821.23v17H237a15.71,15.71,0,0,1,15.67,15.67h-34V821.23Z"/></g></svg>