<svg xmlns="http://www.w3.org/2000/svg" viewBox="0 0 307.22 57.01"><defs><style>.a{fill:#f66c00;}</style></defs><title>result-2</title><path class="a" d="M40.18,31.71a2.42,2.42,0,0,1-.91.11A5.18,5.18,0,0,1,34.22,27c0-.85.4-1.7,1.65-3.35a52.59,52.59,0,0,0,7.2-15.25c1.36-5.1,1.7-6.51,4.65-6.51s5,1.7,5,4.08a15.73,15.73,0,0,1-1.08,4.53c-.79,2.38-1.81,5.1-2.89,7.71V51.89c0,2.21-1.53,3.46-4.31,3.46s-4.3-1.25-4.3-3.46ZM81.9,36c2.83,0,4.65,1.7,4.65,4.31,0,.62-.06,1.19-1,7.82-.67,4.88-2.77,6.63-7.76,6.63-4.08,0-5.27-.73-5.27-3.34,0-2.15,1.07-3.68,2.66-3.68.28,0,1.48.17,1.76.17.62,0,.85-.29,1-1.25s.68-4.54.68-4.59c0-.51-.28-.57-1.07-.57A28.72,28.72,0,0,1,70.16,51c-3.23,3-5.16,4.25-6.52,4.25a3.14,3.14,0,0,1-3-3c0-1.36.4-1.76,3.51-3.74a34.34,34.34,0,0,0,6.92-7.09H68.86c-2.89,4-11.34,10.77-14.51,10.77-1.48,0-2.55-1.36-2.55-3.23,0-1.19.73-1.87,3.57-3.12a29.6,29.6,0,0,0,6.4-4.42H59.22c-3.12,2.27-5.27,3.4-6.57,3.4a3.36,3.36,0,0,1-3.06-3.4c0-1.64.56-2.21,3.4-3.29,1.41-.56,2.55-1.41,5.78-3.85H52c-1.47,0-2.26-1.08-2.26-2.89s.79-2.89,2.26-2.89H85.41c1.42,0,2.27,1.07,2.27,2.89s-.85,2.89-2.27,2.89H66.48c-.29.45-.8,1.13-1.19,1.64ZM55.2,18.62a4.61,4.61,0,0,1-3.8-4.2c0-1.25.11-1.42,2.49-4.19A16,16,0,0,0,56.1,6.71c2.16-4.65,2.39-4.87,4.48-4.87,2.33,0,4.14,1.24,4.37,3.06H84c1.53,0,2.33,1,2.33,2.94s-.8,2.9-2.33,2.9H63c-.28.39-.56,1-.85,1.3H78.27c3.8,0,4.82,1,4.82,4.82V22.3c0,3.8-1,4.82-4.82,4.82H60c-3.8,0-4.82-1-4.82-4.82ZM75,18.33a3.63,3.63,0,0,0-.11-1.3c-.12-.17-.35-.23-.8-.23H64c-.9,0-.9.17-.9,1.53Zm-.91,4.82c.91,0,.91-.11.91-1.42h-12a2.78,2.78,0,0,0,.11,1.19c.11.23.34.23.79.23Z"/><path class="a" d="M117.61,23.21c0-2.38,1.64-3.63,4.59-3.63a6.11,6.11,0,0,1,2.83.57c.68-.51,2.38-1.87,4.2-3.41,3-2.49,3.34-2.83,3.34-3.4s-.28-.62-.85-.62H102c-2.1,0-3.23-1.42-3.23-4s1.19-4,3.23-4h38.15c3.57,0,5.56,1.53,5.56,4.37,0,2.6-1.76,5.32-6.58,10a114.8,114.8,0,0,1-12.3,10.26V48c0,4.81-2.38,6.46-9.41,6.46s-9-1-9-4.71c0-2.83,1.14-4.42,3.23-4.42,1,0,3.12.28,4.09.28,1.3,0,1.87-.62,1.87-2Z"/><path class="a" d="M190.39,12.32a42.49,42.49,0,0,1-2.84,5.05V51.44c0,2.26-1.53,3.51-4.36,3.51s-4.36-1.25-4.36-3.51V27.68c-3.69,3.75-13.27,11.85-17.63,11.85-2.27,0-4.26-2.32-4.26-5,0-1.82.85-2.84,3.69-4.2,7.37-3.51,16.1-11.39,19.9-18H161.31c-2,0-3.17-1.41-3.17-4s1.13-4,3.17-4h44.16c2,0,3.17,1.41,3.17,4s-1.13,4-3.17,4Zm6.41,9.24a44.85,44.85,0,0,0,9.35,7.71c2.61,1.53,3.4,2.5,3.4,4.14,0,2.72-2.1,5.1-4.54,5.1-1.53,0-2.83-.56-5.1-2.21a61.75,61.75,0,0,1-9.24-7.88c-1.64-1.7-2.21-2.78-2.21-4.08a5,5,0,0,1,4.82-4.7C194.58,19.64,195.43,20.09,196.8,21.56Z"/><path class="a" d="M236.53,11.93c0,1.7-2,7.88-8.39,16.38-1.7,2.21-2.78,3-4.31,3-2.27,0-4.48-2-4.48-4,0-1.53.57-2.67,2.89-5.73A39.49,39.49,0,0,0,227,13.74c2-4.65,2.32-5.33,4.87-5.33S236.53,9.89,236.53,11.93ZM264,29.73c0,1.58-1.19,4.47-3.18,7.65-4.25,6.8-10.43,11.45-19.05,14.28-5.61,1.82-13.71,3.63-16.49,3.63-2.27,0-3.63-1.7-3.63-4.48,0-2.43,1.19-3.68,3.8-4.14,19.61-3.06,25.73-7.25,30.44-17.28,1.13-2.5,2-3.18,3.85-3.18C262.21,26.21,264,27.68,264,29.73ZM242.82,5c0-2.09,1.48-3.28,4.14-3.28S251.1,2.86,251.1,5V29.5c0,5.78-2.5,8.11-8.73,8.11s-8-1-8-4.54c0-3,1.3-4.53,3.79-4.53.85,0,2.33.17,3.12.17,1.25,0,1.53-.34,1.53-2ZM266.8,15c1.7,2.38,5.73,8.34,5.78,10.55a4.58,4.58,0,0,1-4.36,4.19c-1.65,0-2.1-.73-4.08-3.51-2.55-3.63-4.94-7.43-7.88-11.34a5.62,5.62,0,0,1-1-2.55c0-2,2.38-4,4.71-4C262,8.35,262.32,8.75,266.8,15Z"/></svg>