<svg xmlns="http://www.w3.org/2000/svg" viewBox="0 0 243.58 191.87"><defs><style>.a{isolation:isolate;}.b{fill:#333;}.b,.g{mix-blend-mode:multiply;}.c,.m{fill:#f66c00;}.c,.d,.e,.f,.h,.i,.j,.l,.m,.n{stroke:#000;}.c,.d,.e,.j,.m,.n{stroke-linecap:round;}.c,.d,.e,.m,.n{stroke-linejoin:round;}.c,.d{stroke-width:5px;}.d,.h,.k{fill:#fff;}.e,.l{fill:#9cd9e2;}.e,.f,.h,.i,.j,.l,.m,.n{stroke-width:2px;}.f,.j,.n{fill:none;}.f,.h,.i,.j,.l{stroke-miterlimit:10;}.g{fill:#e6e6e6;}</style></defs><title>figure-5</title><g class="a"><rect class="b" x="-1359.13" y="-560.57" width="1920" height="1080"/><rect class="c" x="-1141.1" y="-450.57" width="1500" height="841.88" rx="38.55" ry="38.55"/><rect class="d" x="-627.69" y="-388.69" width="927.4" height="621.73" rx="42.06" ry="42.06"/><path class="e" d="M195.73,87c6.53,8,20.89,28.17,18.49,49a4.71,4.71,0,0,1-.1.85v0h0a4.47,4.47,0,0,1-8.72,0,4.3,4.3,0,0,1,0-2.11h0v0c0-.08,0-.16.07-.24.6-2.4,1-16.72-12.21-33.4"/><path class="f" d="M208,133c0,.28.77,4.29-.79,6.27"/><path class="f" d="M210.85,133.32s.68,5.79-1,7.15"/><path class="g" d="M172.57,183c.06,4.54-21.2,8.52-47.5,8.88s-47.66-3-47.72-7.55,21.2-8.52,47.5-8.89S172.51,178.42,172.57,183Z"/><rect class="h" x="137.08" y="183.78" width="14.64" height="2.9" transform="translate(-2.58 2.04) rotate(-0.8)"/><line class="f" x1="141.37" y1="168.87" x2="153.76" y2="168.7"/><path class="i" d="M145,168.82c.06,2.24.11,4.5.14,6.75,0,0-8.79-.47-8.08,8.31l14.64-.2-.21-15Z"/><rect class="h" x="93.19" y="184.39" width="14.64" height="2.9" transform="translate(-2.58 1.42) rotate(-0.8)"/><line class="f" x1="98.31" y1="169.47" x2="110.7" y2="169.3"/><path class="i" d="M101.1,169.43c.07,2.24.12,4.5.15,6.75,0,0-8.79-.46-8.08,8.31l14.63-.2-.2-14.95Z"/><path class="e" d="M196,83.29a70.77,70.77,0,1,0-141.53,2c0,1.32.08,2.62.17,3.92l-.12-.08s-18,30.82-8.74,56.12a3.66,3.66,0,0,0,.3.8v0h0A4.47,4.47,0,1,0,54,142h0v0l-.13-.22c-1.14-2.19-4.89-16,4.09-35.32a71,71,0,0,0,42.32,44.13c.26,4.66.61,11.61.82,18.9l6.5-.09-.23-16.56a71.2,71.2,0,0,0,36.95-.35c.24,4.48.51,10.31.69,16.39l6.49-.09-.26-18.63A70.79,70.79,0,0,0,196,83.29Z"/><path class="h" d="M106.93,61.62c.44,1.94-1.65,4.06-4.67,4.74S96.45,66,96,64.08s1.65-4.06,4.67-4.74S106.49,59.68,106.93,61.62Z"/><path class="h" d="M133.26,64.27c-.63,1.88-3.52,2.61-6.45,1.62s-4.79-3.31-4.16-5.19,3.53-2.61,6.46-1.63S133.9,62.39,133.26,64.27Z"/><ellipse class="f" cx="100.2" cy="74.52" rx="11.14" ry="10.64"/><ellipse class="f" cx="129.08" cy="74.52" rx="11.14" ry="10.64"/><rect x="111.34" y="74.52" width="6.78" height="1.9"/><path d="M107.2,72a2.8,2.8,0,1,1-2.84-2.76A2.81,2.81,0,0,1,107.2,72Z"/><path d="M128.09,71.68a2.8,2.8,0,1,1-2.84-2.76A2.81,2.81,0,0,1,128.09,71.68Z"/><path class="f" d="M116.28,96a2.8,2.8,0,0,1-5.6.07"/><path class="f" d="M121.88,96a2.8,2.8,0,0,1-5.6.08"/><line class="f" x1="106.88" y1="92.17" x2="125.57" y2="91.91"/><path class="f" d="M51.12,140.92c.07.27.25,4.35,2.24,5.91"/><path class="f" d="M48.39,141.91s.69,5.78,2.62,6.71"/><path class="j" d="M102.36,151.28A70.91,70.91,0,0,1,56.43,101"/><path class="j" d="M142.76,152.85a71.27,71.27,0,0,1-35,0"/><path class="j" d="M148,151.29q-2.58.89-5.25,1.56"/><path class="j" d="M54.44,85.26a70.77,70.77,0,1,1,98,64.34"/><path class="k" d="M161,86.67a10.39,10.39,0,1,1-10.53-10.24A10.39,10.39,0,0,1,161,86.67Z"/><path class="k" d="M88.85,87.68A10.39,10.39,0,1,1,78.32,77.44,10.39,10.39,0,0,1,88.85,87.68Z"/><path class="l" d="M118.12,84.31l-18.2.32a3.76,3.76,0,0,1-3.8-3.69h0a3.77,3.77,0,0,1,3.7-3.8l18.55-.32"/><path class="m" d="M221.81,58.38,210.66,73.65a7,7,0,0,0,1.7,9.67l7.69,5.62c-.17.46-.34.93-.53,1.43a67,67,0,0,1-9.08,17.8,67.38,67.38,0,0,1-14.22,14.09l-1.17.92-5.16-3.77-2.54-1.85a7,7,0,0,0-9.73,1.33l-11.15,15.26a7,7,0,0,0,1.69,9.68l4.33,3.14.08-.12a22,22,0,0,0,5.89,2.23,23.07,23.07,0,0,0,5.7.51c14.72-.51,26.9-9.18,42-29.89,20.91-28.64,15.93-48.32,15.7-49.17a21.94,21.94,0,0,0-2.24-5.28,21.66,21.66,0,0,0-3.89-4.92l.06-.09-4.28-3.19A7,7,0,0,0,221.81,58.38Z"/><line class="n" x1="233.09" y1="58.2" x2="214.57" y2="83.01"/><line class="n" x1="187.66" y1="119.04" x2="169.14" y2="143.85"/></g></svg>