<svg xmlns="http://www.w3.org/2000/svg" viewBox="0 0 940 1080"><defs><style>.a{isolation:isolate;}.b{fill:#aede00;}.c,.f{fill:#9cd9e2;}.c,.d{stroke:#1a1a1a;}.c,.d,.f,.n{stroke-linejoin:round;}.c,.d,.f,.i,.j,.k,.l,.n{stroke-width:6.79px;}.d,.i,.m{fill:#fff;}.e{fill:#1a1a1a;}.f,.g,.i,.j,.k,.l,.n{stroke:#000;}.f,.l,.n{stroke-linecap:round;}.g,.k,.l,.n{fill:none;}.g,.i,.j,.k,.l{stroke-miterlimit:10;}.g{stroke-width:4.07px;}.h{fill:#e6e6e6;mix-blend-mode:multiply;}</style></defs><title>result-base</title><g class="a"><path class="b" d="M748.89,409.86H577.76A117.91,117.91,0,0,0,476.62,467.6a117.38,117.38,0,0,0-86.24-37.84H219.25c-64.72,0-117.66,52.94-117.66,117.65s52.94,117.66,117.66,117.66h65.37A117.91,117.91,0,0,0,387,724.93H558.12c51.47,0,95.48-33.49,111.35-79.75h79.42c64.72,0,117.66-52.94,117.66-117.66S813.61,409.86,748.89,409.86Z"/><polygon class="c" points="776.59 464.33 839.87 464.33 848.69 464.33 889.14 464.33 889.14 383.41 776.59 383.41 776.59 464.33"/><polygon class="c" points="776.59 355.4 776.59 383.41 889.14 383.41 848.69 355.4 776.59 355.4"/><polygon class="d" points="817.05 464.33 736.13 464.33 736.13 383.41 776.59 355.4 817.05 383.41 817.05 464.33"/><rect class="e" x="766.86" y="416.16" width="19.45" height="44.28"/><rect class="e" x="844.99" y="401.73" width="19.45" height="19.45"/><path class="f" d="M676.9,402.74c17.4,21.26,55.68,75.1,49.28,130.52a11.27,11.27,0,0,1-.28,2.26.15.15,0,0,1,0,.07h0a11.92,11.92,0,1,1-23.16-5.65h0a.14.14,0,0,1,0-.06c.06-.21.13-.43.2-.64,1.59-6.39,2.73-44.57-32.56-89"/><path class="g" d="M709.49,525.47c0,.74,2.06,11.43-2.11,16.7"/><path class="g" d="M717.2,526.32s1.8,15.43-2.63,19"/><path class="f" d="M677.53,393c-1.46-104.18-87.09-187.46-191.27-186S298.8,294,300.26,398.21c0,3.51.2,7,.43,10.44l-.29-.22s-48,82.16-23.32,149.61a11.92,11.92,0,0,0,.8,2.14l0,.06h0a11.92,11.92,0,1,0,21.2-10.89h0l0-.05c-.11-.2-.22-.39-.34-.58-3-5.85-13.05-42.7,10.9-94.17a189.15,189.15,0,0,0,112.8,117.64c.71,12.43,1.64,30.94,2.2,50.39l17.31-.24-.61-44.15a190,190,0,0,0,98.5-.93c.64,11.93,1.37,27.49,1.84,43.69l17.31-.24-.7-49.67A188.71,188.71,0,0,0,677.53,393Z"/><path class="h" d="M629,664.38c.24,16.83-61.85,31.33-138.68,32.4S351,685.08,350.76,668.26s61.86-31.34,138.69-32.41S628.74,647.55,629,664.38Z"/><rect class="i" x="520.53" y="660.82" width="39.02" height="7.74" transform="translate(-9.24 7.62) rotate(-0.8)"/><line class="g" x1="531.98" y1="621.09" x2="565.01" y2="620.63"/><path class="j" d="M541.68,621c.17,6,.3,12,.39,18,0,0-23.44-1.23-21.55,22.16l39-.54L559,620.71Z"/><rect class="i" x="403.54" y="662.45" width="39.03" height="7.74" transform="translate(-9.24 5.96) rotate(-0.8)"/><line class="g" x1="417.19" y1="622.69" x2="450.21" y2="622.22"/><path class="j" d="M424.64,622.58c.17,6,.31,12,.39,18,0,0-23.43-1.23-21.54,22.16l39-.54L442,622.34Z"/><path class="i" d="M440.18,335.18c1.16,5.17-4.41,10.83-12.45,12.64s-15.5-.9-16.66-6.07,4.4-10.83,12.44-12.64S439,330,440.18,335.18Z"/><path class="i" d="M510.37,342.24c-1.69,5-9.39,7-17.2,4.33s-12.77-8.83-11.08-13.85,9.39-7,17.2-4.33S512.06,337.22,510.37,342.24Z"/><path class="k" d="M482.61,395.67l-61.12.85a10,10,0,0,1-10.12-9.84h0a10,10,0,0,1,9.85-10.13l61.12-.85"/><path d="M440.88,362.77a7.46,7.46,0,1,1-7.56-7.35A7.46,7.46,0,0,1,440.88,362.77Z"/><path d="M496.35,362.77a7.46,7.46,0,1,1-7.56-7.35A7.47,7.47,0,0,1,496.35,362.77Z"/><path class="g" d="M465.1,426.9a7.46,7.46,0,0,1-14.92.21"/><path class="g" d="M480,426.69a7.46,7.46,0,0,1-14.92.21"/><line class="k" x1="440.04" y1="416.61" x2="489.86" y2="415.92"/><path class="g" d="M291.42,546.58c.18.71.66,11.59,5.94,15.75"/><path class="g" d="M284.11,549.21s1.85,15.42,7,17.9"/><path class="l" d="M428,574.19a189,189,0,0,1-122.45-134"/><path class="l" d="M535.68,578.38a190.28,190.28,0,0,1-93.39.06"/><path class="l" d="M549.69,574.22q-6.88,2.34-14,4.16"/><path class="l" d="M300.26,398.21C298.8,294,382.08,208.4,486.26,207s189.81,81.82,191.27,186a188.71,188.71,0,0,1-116,176.77"/><path class="m" d="M584.31,402a27.69,27.69,0,1,1-28.07-27.3A27.69,27.69,0,0,1,584.31,402Z"/><path class="m" d="M392,404.65a27.69,27.69,0,1,1-28.07-27.3A27.69,27.69,0,0,1,392,404.65Z"/><line class="n" x1="756.97" y1="606.44" x2="763.47" y2="619.44"/><line class="n" x1="791.97" y1="606.44" x2="785.47" y2="619.44"/><line class="n" x1="774.47" y1="619.44" x2="774.47" y2="605.44"/><line class="n" x1="179.76" y1="436.78" x2="186.26" y2="449.78"/><line class="n" x1="214.76" y1="436.78" x2="208.26" y2="449.78"/><line class="n" x1="197.26" y1="449.78" x2="197.26" y2="435.77"/><line class="n" x1="50.86" y1="548.46" x2="57.36" y2="561.46"/><line class="n" x1="85.86" y1="548.46" x2="79.36" y2="561.46"/><line class="n" x1="68.36" y1="561.46" x2="68.36" y2="547.46"/><line class="n" x1="224.3" y1="606.95" x2="230.8" y2="619.94"/><line class="n" x1="259.3" y1="606.95" x2="252.8" y2="619.94"/><line class="n" x1="241.8" y1="619.94" x2="241.8" y2="605.94"/></g></svg>