<svg xmlns="http://www.w3.org/2000/svg" viewBox="0 0 307.22 57.01"><defs><style>.a{fill:#f66c00;}</style></defs><title>result-3</title><path class="a" d="M40.57,18.36c3.86,3.06,4.82,3.85,4.82,5.84a4.64,4.64,0,0,1-4.31,4.42c-.9,0-1.41-.28-2.6-1.36A46.13,46.13,0,0,0,34,23.75,3.3,3.3,0,0,1,32.41,21a4.63,4.63,0,0,1,4.37-4.53C38,16.49,38.76,16.89,40.57,18.36Zm5.16,19.39c0,1.64-.79,4.7-3.91,12.47-1.47,3.68-2.21,4.42-4.36,4.42-2.5,0-4.94-1.93-4.94-3.85,0-.69.35-1.71,1.48-4a68,68,0,0,0,3.06-8.17c.85-3.62,1.7-4.59,3.91-4.59C43.75,34.06,45.73,35.59,45.73,37.75ZM42.45,5.32C45.22,7.7,45.79,8.5,45.79,10a4.94,4.94,0,0,1-4.42,4.42c-1,0-1.53-.34-2.89-1.81A19,19,0,0,0,35.19,9.8,2.93,2.93,0,0,1,33.6,7.19a4.57,4.57,0,0,1,4.25-4.48C39.16,2.71,39.78,3.05,42.45,5.32ZM76.8,44.55a2.59,2.59,0,0,1-1,.23c-1,0-1.36-.63-2.21-3.29C72.49,44.27,71.92,45,71,45a2.52,2.52,0,0,1-1.76-.79v7.54c0,1.93-1.3,3-3.68,3s-3.75-1-3.75-3V44.89a2.32,2.32,0,0,1-1,.23c-1,0-1.64-.91-2.44-3.46-1,2.72-1.81,3.8-2.66,3.8a2.1,2.1,0,0,1-1.3-.51v6.68c0,1.93-1.36,3-3.8,3s-3.74-1.08-3.74-3V27.49c0-4,1.24-5.28,5.27-5.28h9.63V20.34h-4c-3.74,0-4.82-1.07-4.82-4.81V12.18h-3.8c-1.7,0-2.66-1.19-2.66-3.29s1-3.28,2.66-3.28h3.8c0-1.48,0-3.8,3.86-3.8s3.85,2.32,3.85,3.8h9.81c0-1.48,0-3.8,3.85-3.8s3.91,2.32,3.91,3.8h5.33c1.7,0,2.61,1.19,2.61,3.28s-.91,3.29-2.61,3.29H78.21v3.35c0,3.74-1.07,4.81-4.81,4.81H69.2v1.87h10c4,0,5.27,1.25,5.27,5.28V48.91A5.93,5.93,0,0,1,83,53.11c-1,1.08-2,1.36-4.82,1.36-3.06,0-5.78,0-5.78-3.4,0-2,1.07-3.8,2.32-3.8.34,0,1,.23,1.59.23.39,0,.51-.23.51-.91Zm-15-16H55.6c-1,0-1.19.22-1.19,1.19v1.87c.22-1,.73-1.48,1.64-1.48h1.81c1.65,0,2.16.51,2.27,2.61a23.59,23.59,0,0,0,1.64,6.63ZM54.41,41c.79-1.36,2.49-5.1,2.49-6.18,0-.17-.11-.17-.85-.17-.91,0-1.42-.45-1.64-1.47ZM69.26,14.56c1.19,0,1.19-.22,1.19-2.38H60.64c0,2.16,0,2.38,1.19,2.38ZM69.2,31.63c.23-1.08.74-1.54,1.65-1.54h2c1.24,0,1.92.91,2.21,2.67a24.17,24.17,0,0,0,1.7,6.18V29.7c0-1-.23-1.19-1.19-1.19H69.2Zm0,10.08A26.36,26.36,0,0,0,72,34.91c0-.28-.12-.28-1.19-.28-.91,0-1.42-.45-1.65-1.53Z"/><path class="a" d="M131.5,40.52C122,47.55,103.1,53.9,100,53.9c-1.88,0-3.46-2.27-3.46-4.87,0-2,.9-3,3.57-3.57a106,106,0,0,0,22-8c-4.82.46-12.07,1-18.71,1.25-1.64.11-3.34.17-4,.17-3,0-4.31-1.13-4.31-3.74s1.36-3.74,4.25-3.74c.85,0,1.48.06,2.21.11v-20c0-4.08,1.25-5.27,5.27-5.27h6.75a14.56,14.56,0,0,0,1.19-2.61c.51-1.25,1.53-1.82,3.17-1.82,2.84,0,5.11,1.42,5.11,3.24a3.61,3.61,0,0,1-.23,1.19h11.56c4.08,0,5.33,1.19,5.33,5.27V23.41c1-1,1.36-2.05,3.35-2.05,2.32,0,4.53,1.82,4.53,3.8,0,2.27-2.89,4.76-7.88,9v11.5c0,6.12-.9,9-8.44,9-7.15,0-9.36-.23-9.36-4.65,0-2.27,1.31-3.8,3.23-3.8.91,0,3.12.34,4.48.34,1.53,0,1.82-.45,1.82-2.66ZM110.8,12.8c-1.24,0-1.24.23-1.24,2.5H131.5c0-2.27,0-2.5-1.25-2.5Zm20.7,7.66H109.56v2.32H131.5Zm0,7.25H109.56v3.63c7.2-.28,15.36-.79,21.94-1.59Z"/><path class="a" d="M189.2,46.31c3.52.22,9.75.28,12.64.28h3.86c3.28,0,4.36,1,4.36,4,0,2.66-1.53,3.68-5.55,3.63h-4.6c-11.62,0-22.56,0-29.53-7A25.53,25.53,0,0,1,168,50.5c-2.38,2.89-4,4-5.78,4a4.43,4.43,0,0,1-4.37-4.26c0-1.3.4-1.87,2.1-3.4a23.43,23.43,0,0,0,6-9.18c1.25-3.68,1.59-4.14,3.63-4.14,2.49,0,4.7,1.76,4.7,3.8a8,8,0,0,1-.57,2.72,17.62,17.62,0,0,0,7.37,4.59V32.42H161.25c-1.81,0-2.83-1.25-2.83-3.57s1-3.57,2.83-3.57h45.07c1.81,0,2.83,1.3,2.83,3.57s-1,3.57-2.83,3.57H189.2v3.23h11.45c1.76,0,2.78,1.25,2.78,3.51s-1,3.52-2.78,3.52H189.2ZM164.54,8.5c0-4.08,1.19-5.28,5.27-5.28h28.35c4.08,0,5.27,1.2,5.27,5.28v9.69c0,4.08-1.19,5.27-5.27,5.27H169.81c-4.08,0-5.27-1.19-5.27-5.27Zm30.84,2.83c0-2.1,0-2.32-1.25-2.32H174.06c-1.24,0-1.24.22-1.24,2.32Zm-1.25,6.92c1.25,0,1.25-.23,1.25-2.38H172.82c0,2.15,0,2.38,1.24,2.38Z"/><path class="a" d="M225.08,31.63a2.42,2.42,0,0,1-.91.11,5.18,5.18,0,0,1-5-4.88c0-.85.39-1.7,1.64-3.34A52.57,52.57,0,0,0,228,8.27c1.36-5.1,1.7-6.52,4.65-6.52s5,1.7,5,4.08a15.6,15.6,0,0,1-1.07,4.54c-.8,2.38-1.82,5.1-2.89,7.71V51.8c0,2.22-1.53,3.46-4.31,3.46s-4.31-1.24-4.31-3.46Zm41.72,4.25c2.84,0,4.65,1.7,4.65,4.3,0,.63-.06,1.2-1,7.83-.68,4.87-2.78,6.63-7.77,6.63-4.08,0-5.27-.74-5.27-3.34,0-2.16,1.08-3.69,2.66-3.69.29,0,1.48.17,1.76.17.63,0,.85-.28,1-1.25s.68-4.53.68-4.59c0-.51-.29-.56-1.08-.56A28.86,28.86,0,0,1,255.07,51c-3.23,3-5.16,4.25-6.52,4.25a3.15,3.15,0,0,1-3-3c0-1.36.4-1.76,3.52-3.74A34.25,34.25,0,0,0,256,41.38h-2.21c-2.89,4-11.33,10.77-14.51,10.77-1.47,0-2.55-1.36-2.55-3.24,0-1.19.74-1.87,3.57-3.11a30.24,30.24,0,0,0,6.41-4.42h-2.55c-3.12,2.26-5.28,3.4-6.58,3.4a3.36,3.36,0,0,1-3.06-3.4c0-1.65.57-2.22,3.4-3.29,1.42-.57,2.55-1.42,5.78-3.86h-6.74c-1.48,0-2.27-1.07-2.27-2.89s.79-2.89,2.27-2.89h33.38c1.42,0,2.27,1.08,2.27,2.89s-.85,2.89-2.27,2.89H251.38a20.24,20.24,0,0,1-1.19,1.65ZM240.1,18.53a4.6,4.6,0,0,1-3.8-4.19c0-1.25.12-1.42,2.5-4.2A16.1,16.1,0,0,0,241,6.63c2.15-4.65,2.38-4.88,4.48-4.88,2.32,0,4.13,1.25,4.36,3.06h19c1.53,0,2.32,1,2.32,3s-.79,2.89-2.32,2.89h-21c-.29.4-.57,1-.85,1.3h16.15c3.8,0,4.82,1,4.82,4.82v5.44c0,3.8-1,4.82-4.82,4.82H244.92c-3.8,0-4.82-1-4.82-4.82Zm19.84-.28a3.7,3.7,0,0,0-.11-1.31c-.12-.17-.34-.22-.8-.22H248.89c-.91,0-.91.17-.91,1.53ZM259,23.07c.91,0,.91-.12.91-1.42H248a2.78,2.78,0,0,0,.11,1.19c.12.23.34.23.8.23Z"/></svg>