<svg xmlns="http://www.w3.org/2000/svg" viewBox="0 0 326.76 255.17"><defs><style>.a{isolation:isolate;}.b{fill:#333;mix-blend-mode:multiply;}.c{fill:#f66c00;}.c,.d,.e,.f{stroke:#000;stroke-linecap:round;stroke-linejoin:round;}.c,.d,.e{stroke-width:5px;}.d,.f{fill:#fff;}.e{fill:none;}.f{stroke-width:3px;}.g{fill:#1a1a1a;}</style></defs><title>figure-4</title><g class="a"><rect class="b" x="-1258.05" y="-471.47" width="1920" height="1080"/><rect class="c" x="-1040.02" y="-361.47" width="1500" height="841.88" rx="38.55" ry="38.55"/><rect class="d" x="-526.61" y="-299.59" width="927.4" height="621.73" rx="42.06" ry="42.06"/><path class="e" d="M265.22,191.44A115.72,115.72,0,0,1,111,240.27"/><path class="e" d="M278.09,124.47a116.52,116.52,0,0,1,.68,12.6,115.24,115.24,0,0,1-6.74,39"/><path class="e" d="M203.67,28.77A116,116,0,0,1,261.33,76"/><path class="e" d="M131.93,25.75a116.26,116.26,0,0,1,71.74,3"/><path class="e" d="M55.58,94.71a116.08,116.08,0,0,1,49-57.3"/><path class="e" d="M59.56,188.39a114.86,114.86,0,0,1-11.86-46"/><rect class="f" x="117.37" y="1.5" width="92.97" height="41.77"/><path d="M145.78,21.08A16.24,16.24,0,0,1,144,26.35a8.11,8.11,0,0,0,2.68,2.23A5.48,5.48,0,0,0,145.58,30a8.91,8.91,0,0,1-2.51-2.2,9.33,9.33,0,0,1-2.77,2.3,7.49,7.49,0,0,0-1.08-1.36,7.84,7.84,0,0,0,2.92-2.36,13.85,13.85,0,0,1-1.33-3,10.08,10.08,0,0,1-.73,1,8.86,8.86,0,0,0-1-1.3v7h-1.65V26.4a10.83,10.83,0,0,0-3,1.29,6.33,6.33,0,0,0-.65-1.52,1,1,0,0,0,.52-1V18.42h1.64v6.84l1.49-.45V17.13h1.65v5.52a12.34,12.34,0,0,0,2.07-5.74l1.7.28c-.14.78-.3,1.57-.49,2.31h4.27v1.58Zm-3.94,0c0,.13-.1.25-.14.38A14.9,14.9,0,0,0,143,24.82a13,13,0,0,0,1.09-3.74Z"/><path d="M153.82,27.2l2.68-.44.08,1.42c-2.45.48-5.1,1-7,1.29l-.36-1.54c.84-.11,1.89-.28,3-.46V25.56h-2.55V24.12h2.55V22.87h1.58v1.25h2.53v1.44h-2.53Zm-4.46-9.47h7.28v1.43h-2a15.47,15.47,0,0,1,2,3l-1.26.82c-.08-.21-.2-.44-.32-.7-3.87.32-4.47.39-4.88.56-.09-.33-.36-1.08-.53-1.51a1.4,1.4,0,0,0,.65-.59,11,11,0,0,0,.86-1.57h-1.77Zm4.9,3.27c-.27-.41-.55-.8-.81-1.15l1.17-.69h-1.68a15.22,15.22,0,0,1-1.22,2Zm4.47,5.67h-1.54V18.21h1.54Zm2.76-9.61V27.9c0,.89-.17,1.31-.7,1.57a6.18,6.18,0,0,1-2.43.31,6.65,6.65,0,0,0-.56-1.6c.74,0,1.5,0,1.74,0s.32-.08.32-.32V17.06Z"/><path d="M175.62,28.35c.23,0,.28-.18.33-1.51a3.59,3.59,0,0,0,1.43.64c-.17,1.88-.58,2.4-1.56,2.4h-.95c-1.28,0-1.54-.51-1.54-2v-2.8h-.72c-.19,2.22-.75,3.95-3.08,4.95a4.61,4.61,0,0,0-1-1.28c1.92-.76,2.29-2,2.44-3.67h-.88V21.33a4,4,0,0,1-.32.28c-.13-.16-.34-.4-.58-.64v1.44h-1.44v.21c.35.34,1.42,1.6,1.64,1.89l-.94,1.35c-.14-.35-.42-.9-.7-1.42V30h-1.51V24.82a12.92,12.92,0,0,1-1.38,3,10,10,0,0,0-.77-1.65,14.51,14.51,0,0,0,1.71-3.76h-1.5V20.86h1.94v-1.7c-.46.09-.93.17-1.36.23a5.86,5.86,0,0,0-.46-1.29A18.14,18.14,0,0,0,168.51,17l1,1.36a11.67,11.67,0,0,1-1.7.52v2h1.33a6,6,0,0,0-.49-.45,9,9,0,0,0,2.72-3.28l1.54.49a13.19,13.19,0,0,1-2.09,3h5a26.48,26.48,0,0,0-2.34-2.92l1.16-.79a22.38,22.38,0,0,1,3,3.65l-1.26.91-.21-.36v4h-1.12V27.9c0,.41,0,.45.22.45Zm-3.92-4.69h2.71V22.1H171.7Z"/><path d="M192.52,28.21h-5.45V30h-1.7V28.21H180V26.78h5.33v-.73h-4V20.8h9.94v5.25h-4.24v.73h5.45Zm-6.65-7.95h-5V17.45h5Zm-1.55-1.81h-2v.81h2ZM183,22.83h2.37v-.74H183Zm2.37,2V24H183v.76Zm6.38-4.52h-5V17.45h5Zm-2.15,1.83h-2.53v.74h2.53Zm0,1.93h-2.53v.76h2.53Zm.6-5.57h-2v.81h2Z"/><rect class="f" x="232.29" y="87.99" width="92.97" height="41.77"/><path d="M260.68,105.26v8.29h-1.74v-.67h-3.11v3.58h-1.75v-3.58h-3v.74h-1.66v-8.36h4.7v-1.88h1.75v1.88ZM251,106.85v1.42h3v-1.42Zm3,4.43v-1.49h-3v1.49Zm1.75-4.43v1.42h3.11v-1.42Zm3.11,4.43v-1.49h-3.11v1.49Z"/><path d="M268.9,107h-5v-1.31h2.13a13.64,13.64,0,0,0-.66-1.84l1.4-.41a16.19,16.19,0,0,1,.75,1.87l-1.1.38h2.44Zm-.4,3.77h-4.2V109.5h4.2Zm0,4.94h-2.8v.57H264.3v-4.8h4.22Zm-4.2-8.11h4.2v1.27h-4.2Zm1.4,5.2v1.61h1.35v-1.61ZM276.25,115c0,.7-.13,1.07-.62,1.28a4.86,4.86,0,0,1-2,.22,5.36,5.36,0,0,0-.43-1.32c.51,0,1.1,0,1.27,0s.24-.06.24-.21v-.59h-3.8a5,5,0,0,1-1,2.23,5.59,5.59,0,0,0-1.18-1,5.1,5.1,0,0,0,.91-3.39v-2.5h6.63Zm.67-7.07v1.19H269v-1.19h3.11v-.62h-2.55v-1.1h2.55v-.56h-2.9v-1.2h2.9v-1h1.61v1h3.05v1.2h-3.05v.56h2.77v1.1h-2.77v.62Zm-2.21,5.39v-.67h-3.59c0,.22,0,.45,0,.67Zm-3.59-2.41v.66h3.59v-.66Z"/><path d="M291.56,112a7,7,0,0,1-2,2.37,18.91,18.91,0,0,0,2.89.6,6.74,6.74,0,0,0-1,1.47,14.74,14.74,0,0,1-3.53-1.09,17.24,17.24,0,0,1-4.05,1.22,5,5,0,0,0-.76-1.39,16,16,0,0,0,3.21-.73,10.5,10.5,0,0,1-1-.77,8.31,8.31,0,0,1-1,.63,9.38,9.38,0,0,0-1.12-1.05,6.7,6.7,0,0,0,1.11-.62,9.21,9.21,0,0,1-.76-1.06l1.21-.44a4,4,0,0,0,.58.73,6.7,6.7,0,0,0,.8-.89h-1.23v-3.58l-.38.4a8,8,0,0,0-.8-.63,15.48,15.48,0,0,1-1.06,1.62v7.69h-1.7v-5.64c-.36.37-.71.72-1.06,1a13.25,13.25,0,0,0-.81-1.72,12.67,12.67,0,0,0,3.19-3.65l1.16.49-.22-.15a8,8,0,0,0,2.28-3.42l1.53.39c-.1.3-.23.59-.36.89h5.47V106h-6.2l-.38.59h5.81V111h-3.53c-.11.19-.22.37-.35.56h2.8l.27-.06Zm-8-8a14.43,14.43,0,0,1-3.46,3.59,13.9,13.9,0,0,0-.84-1.42,9.55,9.55,0,0,0,2.69-2.77Zm2.8,8.76a10.22,10.22,0,0,0,1.55.92,5.89,5.89,0,0,0,1.32-1h-2.8Zm0-4.53h3.45v-.57h-3.45Zm0,1.6h3.45v-.59h-3.45Z"/><path d="M297.09,109.53a10.28,10.28,0,0,1-1.46.7,7,7,0,0,0-1.06-1.33,10.72,10.72,0,0,0,4.15-2.5H295V105h5.35v-1.57H302V105h5.46v1.44H303.9a33.27,33.27,0,0,1,3.58,2.47l-1.06,1.2a36.25,36.25,0,0,0-4.44-3.18v2h-1.65V106.8a12.51,12.51,0,0,1-2.89,2.52h7.76V114h-8.11Zm-2,5.1h12.25v1.45H295.07Zm3.67-3.53h4.71v-.69h-4.71Zm0,1.78h4.71v-.73h-4.71Z"/><rect class="f" x="30.72" y="186.18" width="92.97" height="41.77"/><path d="M52.12,205.23a18.93,18.93,0,0,1-1.5,2.14v7.31H49v-5.47c-.39.37-.77.72-1.15,1a15,15,0,0,0-1.13-1.44,13.58,13.58,0,0,0,3.85-4.19Zm-.52-3a18.94,18.94,0,0,1-3.85,3.69,8.85,8.85,0,0,0-.93-1.36,12.28,12.28,0,0,0,3.17-3Zm8.24,5.58H57.92v4.91c0,.9-.17,1.36-.79,1.62a7.74,7.74,0,0,1-2.73.28,7.16,7.16,0,0,0-.5-1.7c.8,0,1.72,0,2,0s.35-.06.35-.27v-4.87H52.09v-1.58h7.75ZM59.49,204H52.68v-1.59h6.81Z"/><path d="M74.48,205.68a16.32,16.32,0,0,1-1.62,5.39,6.82,6.82,0,0,0,2.62,2.16,6.24,6.24,0,0,0-1.14,1.42,7.72,7.72,0,0,1-2.51-2.12A9,9,0,0,1,69,214.7a6.39,6.39,0,0,0-.94-1.47,7.05,7.05,0,0,0,2.85-2.18A15.27,15.27,0,0,1,69.75,208a8.24,8.24,0,0,1-.49.69,9.32,9.32,0,0,0-.77-.76V208h-1.6v2.87l2-.42L69,212c-2.29.53-4.77,1.06-6.57,1.47l-.29-1.7.73-.12v-6h1.5v5.7l.89-.17V204h-2.8v-1.6h6.42V204h-2v2.45h1.6v.35a14.21,14.21,0,0,0,1.73-5.22l1.66.25c-.13.78-.31,1.55-.51,2.29h4v1.55Zm-3.68.18a16.34,16.34,0,0,0,1.06,3.53,13.69,13.69,0,0,0,.94-3.71H70.87Z"/><path d="M82.93,205.21H77.69V203.9h2.2a14.56,14.56,0,0,0-.71-1.91l1.41-.4a13.3,13.3,0,0,1,.8,1.89l-1.27.42h2.81Zm-4.68,1.89v-1.26h4.11v1.26ZM82.39,209H78.25v-1.26h4.14Zm6-.26c.82.72,1.85,1.59,2.36,2.14l-1,1.22c-.33-.38-.85-.9-1.41-1.43v4H86.85v-7.14H85.22v.11c0,2.13-.23,5.2-1.59,7a6.69,6.69,0,0,0-1.24-1v.23H79.73v.59H78.31v-4.84h4.08v3.83c1.09-1.67,1.19-4,1.19-5.87V203a26.29,26.29,0,0,0,5.22-1.33l1.46,1.2a29.7,29.7,0,0,1-5,1.26V206h5.37v1.55H88.44ZM81,211H79.73v1.57H81Z"/><path d="M98.52,205.21H93.08V203.9h2.4a17,17,0,0,0-.87-1.77l1.37-.56a16.39,16.39,0,0,1,1,1.86l-1,.47h2.51Zm-.41,8.69h-3v.59H93.67v-4.84h4.44ZM98,207.1H93.71v-1.26H98Zm-4.33.62H98V209H93.71ZM95.1,211v1.57h1.57V211Zm6.71-8.81a18.9,18.9,0,0,1-2.13,6.42,11.63,11.63,0,0,0-1.36-.94,14.74,14.74,0,0,0,1.9-5.74Zm2.21,7.09c.64,1.49,1.51,3.5,1.88,4.68l-1.52.62a10.85,10.85,0,0,0-.33-1.12c-3.64.43-4.25.56-4.67.75a9.43,9.43,0,0,0-.53-1.5c.34-.11.58-.49.9-1.13a28,28,0,0,0,1.83-5.17l1.66.42a32.58,32.58,0,0,1-2.19,5.55l2.51-.25c-.31-.8-.62-1.64-.93-2.36Zm.39-7.34a12.13,12.13,0,0,0,2,5.44,7.76,7.76,0,0,0-1.26,1.3,14.1,14.1,0,0,1-2-5.23h-1.05v-1.51Z"/><rect class="f" x="1.5" y="87.99" width="92.97" height="41.77"/><path d="M23.48,105.72c-.53.47-1.14.92-1.65,1.29a10.15,10.15,0,0,0,2,.78,6.12,6.12,0,0,0-1,1.32,9.85,9.85,0,0,1-1.59-.67v1.2c0,.34,0,.45.21.45h.68a3.38,3.38,0,0,0,.72-.07c0,.33,0,.81.11,1.13a2.78,2.78,0,0,1-.81.09h-.87c-1.18,0-1.4-.48-1.4-1.61v-.82H18.59a3.27,3.27,0,0,1-1.54,2.78,6.24,6.24,0,0,0-.84-.9v.42H13.43c0,.32-.09.66-.14,1h2.92l0,.57c-.15,1.89-.32,2.8-.69,3.17a1.48,1.48,0,0,1-1.12.46,15.5,15.5,0,0,1-1.85,0,3,3,0,0,0-.47-1.38c.7,0,1.38.07,1.69.07a.68.68,0,0,0,.51-.14c.17-.16.29-.61.39-1.56H11.7c.19-.91.42-2.3.54-3.4h2.48v-1h-2v-.23a10.83,10.83,0,0,1-1.27.55,6.74,6.74,0,0,0-.9-1.22,9.12,9.12,0,0,0,2.35-1.08,13.16,13.16,0,0,0-1.3-.84l.95-.88a9.69,9.69,0,0,1,1.47.88,6.87,6.87,0,0,0,.82-.89H12.05v-1.31H15.7l.28-.07,1,.51a7.92,7.92,0,0,1-2.64,3.32h1.84v2.78a2,2,0,0,0,1-1.87v-1h2.68a9.63,9.63,0,0,1-2.83-3.71l1.33-.39a6.12,6.12,0,0,0,.8,1.32,13.39,13.39,0,0,0,1.31-1.29l1.19.85c-.57.48-1.17,1-1.7,1.36.23.22.49.43.74.63a12.13,12.13,0,0,0,1.55-1.46Zm-1,6.19a6.18,6.18,0,0,1-1.55,2.49c.64.35,1.21.7,1.63,1l-.84,1.11c-.48-.34-1.15-.77-1.91-1.22a10.36,10.36,0,0,1-3.12,1.21,4.6,4.6,0,0,0-.7-1.21,9,9,0,0,0,2.49-.78c-.68-.38-1.34-.76-1.94-1.08l.56-.68h-.34v-1.1h4.55l.26,0Zm-4.65.82c.58.31,1.23.64,1.86,1a5.52,5.52,0,0,0,.88-1Z"/><path d="M34.87,112.72a8.38,8.38,0,0,0,.17,1.11c-1.9.52-2.69.75-3.08.91.52,0,1.11.05,1.71.05a47.9,47.9,0,0,0,5.66-.36,6.1,6.1,0,0,0-.48,1.71c-1.16.07-3.63.17-5.27.17a7.77,7.77,0,0,1-4-.74c-.58-.33-1.08-.79-1.38-.79s-.81,1-1.16,1.75L25.89,115a5.82,5.82,0,0,1,1.52-1.36,15.54,15.54,0,0,0,.71-2.41H26.4c.33-.84.71-2,1.05-3H26.16v-1.48h3.32c-.3,1-.66,2.11-1,3.08H29l.25-.06.7.25a18.31,18.31,0,0,1-.55,2.24,13.47,13.47,0,0,0,3.35-1H30.66V108.6h7.2v2.58h-.3l.79.5c-.4.28-.83.58-1.25.82.59.35,1.13.68,1.5.94l-.81,1c-.77-.62-2.37-1.61-3.51-2.31l.76-.87,1,.6c.34-.22.69-.48,1-.7H34.73a8.47,8.47,0,0,1-1.68,1.12v.88Zm-7.23-6.47c-.15-.63-.53-1.64-.77-2.4l1.48-.44c.26.75.63,1.69.82,2.31Zm4,6.65a11.88,11.88,0,0,1-1.44.42,5.62,5.62,0,0,0-.83-1.09,9.37,9.37,0,0,1-.49,1.35c.24.15.51.35.86.56a5.07,5.07,0,0,0,1.81.56,3.2,3.2,0,0,0-.41-.87.75.75,0,0,0,.5-.81Zm7.27-4.73H29.55V107h9.38Zm-.64-1.58h-8v-2.82h8Zm-5.78-1.9h-.86v1h.86Zm-.31,5.57h4v-.73h-4Zm2.46-5.57h-.89v1h.89Zm2.15,0h-.9v1h.9Z"/><path d="M54,104v12.54H52.3v-.59H43.59v.59H42V104ZM52.3,114.44v-9H50.57a4.79,4.79,0,0,1,1.17.81l-.56.59h.67v1.18h-2.5c.07.78.15,1.51.26,2.14a8.91,8.91,0,0,0,.66-1.75l1.28.25a10.87,10.87,0,0,1-1.47,3.21c.18.42.39.69.64.74s.27-.49.32-1.3a5.76,5.76,0,0,0,1,.78c-.23,1.73-.95,2.26-1.88,1.84a2,2,0,0,1-1.05-.93,7.92,7.92,0,0,1-1.46,1.19,6.49,6.49,0,0,0-.91-1,5,5,0,0,0,.45-.29l-3.14.48-.15-1.22c1-.11,2.48-.28,3.94-.47l0,.7a5.79,5.79,0,0,0,.7-.7,21.13,21.13,0,0,1-.6-3.67H44.11v-1.18H47.9c0-.39,0-.78-.07-1.19h1.38c0,.41,0,.8,0,1.19h1.52a6.86,6.86,0,0,0-1.08-.74l.66-.66H43.59v9Zm-4.72-3.12H44.46v-2.66h3.12Zm-1.12-1.78h-.94v.9h.94Z"/><path d="M68.14,114.84c.22,0,.28-.19.32-1.52a3.75,3.75,0,0,0,1.43.65c-.17,1.87-.58,2.39-1.56,2.39h-1c-1.27,0-1.54-.5-1.54-2v-2.8h-.71c-.2,2.23-.76,4-3.09,5a5,5,0,0,0-1-1.29c1.92-.76,2.28-2,2.44-3.67h-.89v-3.78l-.32.28a8.5,8.5,0,0,0-.57-.65v1.45H60.29v.21c.35.33,1.42,1.59,1.64,1.89L61,112.34c-.14-.35-.42-.89-.7-1.41v5.55H58.78v-5.17a12.84,12.84,0,0,1-1.37,3,11.31,11.31,0,0,0-.77-1.65,15,15,0,0,0,1.71-3.75h-1.5v-1.56h1.93v-1.69c-.46.08-.92.17-1.36.22a6.25,6.25,0,0,0-.46-1.29A18.7,18.7,0,0,0,61,103.45l1,1.36a10.26,10.26,0,0,1-1.7.51v2h1.33c-.18-.18-.35-.33-.49-.45a9,9,0,0,0,2.72-3.27l1.54.49a13.64,13.64,0,0,1-2.08,3h5a26.39,26.39,0,0,0-2.34-2.91l1.17-.8a21.91,21.91,0,0,1,3,3.66l-1.26.91a2.42,2.42,0,0,0-.21-.37v4H67.45v2.79c0,.4,0,.45.23.45Zm-3.92-4.7h2.7v-1.55h-2.7Z"/><path d="M84.77,108.94s0,.48,0,.67c-.14,4.06-.29,5.65-.71,6.18a1.47,1.47,0,0,1-1.07.6,9.14,9.14,0,0,1-1.75.06,4.58,4.58,0,0,0-.33-1.36H77.57v.82H76v-4.7h5.52v3.72h.54a.49.49,0,0,0,.47-.19c.23-.28.39-1.42.49-4.36H75.27a12.27,12.27,0,0,1-1.82,5.73,6.15,6.15,0,0,0-1.34-1c1.54-2.18,1.68-5.38,1.68-7.61V104h9.94v4h-8.3c0,.28,0,.59-.05.9Zm-9.34-3.5v1.2h6.64v-1.2ZM80,112.53H77.57v1.24H80Z"/><rect class="f" x="198.66" y="186.18" width="92.97" height="41.77"/><path d="M218.89,209.46v3.26c0,.77-.12,1.18-.55,1.43a3.48,3.48,0,0,1-1.93.32,5.53,5.53,0,0,0-.43-1.53,10.65,10.65,0,0,0,1.16,0c.17,0,.24-.05.24-.23V209.9l-1.29.37-.38-1.61c.48-.1,1-.25,1.67-.41v-2.48h-1.52v-1.54h1.52v-2.65h1.51v2.65h1.4v1.54h-1.4v2.08l1.26-.34.23,1.5Zm6.37,3.53c.33,0,.63,0,1,0s2.22,0,2.82,0a5,5,0,0,0-.45,1.46h-2.44c-1.83,0-3.24-.33-4.2-2a6.07,6.07,0,0,1-1.47,2.2,8,8,0,0,0-1.22-1,6.24,6.24,0,0,0,1.95-4.39l1.51.18a13.37,13.37,0,0,1-.26,1.42,3.12,3.12,0,0,0,1.22,1.64v-3.66h-3.3V207.5h8.28v1.34h-3.42v1.23h2.68v1.31h-2.68Zm2.72-6.14h-6.89V202H228Zm-1.59-3.67h-3.77v.7h3.77Zm0,1.78h-3.77v.71h3.77Z"/><path d="M235.62,212.41a9.09,9.09,0,0,0,2.8.31c1.07,0,4.78,0,6-.06a5.89,5.89,0,0,0-.63,1.66h-5.41c-2.59,0-4.25-.35-5.36-1.92a9.65,9.65,0,0,1-.65,2.46,14.1,14.1,0,0,0-1.4-.71c.69-1.42.83-3.75.86-6.15l1.52.11c0,.62,0,1.23-.07,1.81a4.38,4.38,0,0,0,.78,1.48v-4.21h-2.72v-1.46h2.36v-1.3h-2V203h2v-1.35h1.57V203h1.87v1.45h-1.87v1.3h2.2v1.46h-1.89v1.51h1.78v1.44h-1.78Zm4.55-.33c-1.57,0-2.07-.48-2.07-2.26v-7.69h5.41v5.32h-3.8v2.37c0,.65.09.76.67.76h1.81c.53,0,.63-.32.72-1.81a4.52,4.52,0,0,0,1.45.64c-.18,2-.63,2.67-2,2.67Zm-.46-8.49V206h2.2v-2.42Z"/><path d="M251.88,205.21h-5.24V203.9h2.2a13.36,13.36,0,0,0-.72-1.91l1.42-.41a13.78,13.78,0,0,1,.79,1.9l-1.27.42h2.82Zm-4.68,1.89v-1.26h4.1v1.26Zm4.13,1.88H247.2v-1.26h4.13Zm6-.27c.83.73,1.85,1.6,2.37,2.15l-.95,1.22c-.34-.38-.86-.9-1.42-1.43v4H255.8v-7.14h-1.64v.11c0,2.13-.23,5.2-1.58,7a7.12,7.12,0,0,0-1.25-1v.23h-2.66v.58h-1.42v-4.83h4.08v3.83c1.09-1.67,1.19-4,1.19-5.87V203a26.29,26.29,0,0,0,5.22-1.33l1.46,1.2a29.46,29.46,0,0,1-5,1.26V206h5.38v1.56h-2.16ZM250,211h-1.31v1.57H250Z"/><path d="M267.35,209.72v3.56c0,.6-.09.94-.48,1.15a3.2,3.2,0,0,1-1.54.22,4.88,4.88,0,0,0-.41-1.24h.9c.14,0,.18,0,.18-.17v-3.53h-1.46v-5.08h1.25c0-.35.1-.73.14-1.08H264v4c0,2.1-.14,5.1-1,7a5.24,5.24,0,0,0-1.17-.85,17,17,0,0,0,.77-6.1v-5.42h6.17v1.43h-1.26q-.17.57-.33,1.08h1.64v5.08Zm-1.53.83a10.22,10.22,0,0,1-1,2.95,7.48,7.48,0,0,0-1.12-.61,7.38,7.38,0,0,0,.86-2.59Zm1.68-4.76h-1.68v.85h1.68Zm-1.68,2.77h1.68v-.85h-1.68Zm2.38,4.31a15.32,15.32,0,0,0-.74-2.24l1.05-.37a13.63,13.63,0,0,1,.81,2.19Zm3.57-.08a9.75,9.75,0,0,1-2.58,1.89,12.36,12.36,0,0,0-1-1,7.34,7.34,0,0,0,2.31-1.68Zm-.71-8.28c.05-.32.1-.66.12-1H269v-1.4H275v1.4h-2.16l-.29,1h2.14v7.41h-5.25v-7.41Zm2.14,1.22h-2.39v.9h2.39Zm0,2h-2.39v.9h2.39Zm0,2.05h-2.39v.91h2.39Zm.2,2.2a16.64,16.64,0,0,1,1.9,1.8l-1.24.84a17,17,0,0,0-1.85-1.89Z"/><polygon class="g" points="56.48 148.8 47.57 133.38 38.67 148.8 56.48 148.8"/><polygon class="g" points="265.42 164.23 270.03 181.43 282.62 168.83 265.42 164.23"/><polygon class="g" points="119.93 234.07 102.12 234.07 111.02 249.5 119.93 234.07"/><polygon class="g" points="104.39 48.25 112.24 32.27 94.47 33.46 104.39 48.25"/><polygon class="g" points="250.03 75.22 266.01 83.08 264.82 65.31 250.03 75.22"/></g></svg>