<svg xmlns="http://www.w3.org/2000/svg" viewBox="0 0 796.06 745.73"><defs><style>.a{isolation:isolate;}.b,.d,.k,.n{fill:#fff;}.b,.c,.d,.f,.h,.i,.k,.l,.m,.o{stroke:#000;}.b,.c,.d,.f,.h,.m,.o{stroke-linecap:round;}.b,.c,.d,.f,.h,.o{stroke-linejoin:round;}.b,.o{stroke-width:5px;}.c{fill:#ffc900;}.c,.d,.f,.h,.i,.k,.l,.m{stroke-width:3px;}.e{fill:#1a1a1a;}.f,.i,.m{fill:none;}.g,.o{fill:#f66c00;}.h{fill:#9cd9e2;}.i,.k,.l,.m{stroke-miterlimit:10;}.j{fill:#e6e6e6;mix-blend-mode:multiply;}</style></defs><title>formula-2</title><g class="a"><rect class="b" x="-58.44" y="-293.23" width="927.4" height="1116.66" rx="42.06" ry="42.06"/><rect class="c" x="209.88" y="104.57" width="372.44" height="80" rx="19" ry="19"/><rect class="d" x="686.62" y="104.57" width="80" height="80" rx="20" ry="20"/><circle class="d" cx="118.72" cy="144.57" r="40"/><path class="e" d="M101.14,145.69c-.18,2.75-.64,5.76-1.87,7.81a12.32,12.32,0,0,0-2.14-1.65c1.41-2.53,1.5-6.23,1.5-9.09v-7.94h0a37.79,37.79,0,0,0,7.46-1.56l1.67,2.22a37,37,0,0,1-6.56,1.3v1.56h5.66v7.35Zm.08-5v2.69h3.13v-2.69Zm16.75,2h-2v10.54h-2.6V142.7h-2.29c-.09,3.49-.83,8-3.91,10.76a12.48,12.48,0,0,0-2-1.79c3-2.73,3.3-6.82,3.3-10v-6.84A35.87,35.87,0,0,0,116,133.1l1.69,2.27a36.14,36.14,0,0,1-6.58,1.45v3.35H118Z"/><path class="e" d="M126.7,138.65a24.14,24.14,0,0,1-1.91,2.77v12h-2.53v-9.13a21.19,21.19,0,0,1-2,1.78,19.61,19.61,0,0,0-1.26-2.71,19.65,19.65,0,0,0,5.39-5.65Zm-.37-4.78a23.32,23.32,0,0,1-5.77,5.53,15.22,15.22,0,0,0-1.3-2.23,15.58,15.58,0,0,0,4.58-4.31Zm13.38,13.8h-3v3.12c0,1.21-.22,1.83-1.08,2.2a8.56,8.56,0,0,1-3.41.38,9.09,9.09,0,0,0-.81-2.33c.92,0,2,0,2.24,0s.4-.11.4-.35v-3.06h-4.62a22.7,22.7,0,0,1,2.51,2.75l-2,1.39a18.72,18.72,0,0,0-2.53-3.06l1.63-1.08H126v-2.22H134v-1.26H126.5v-2.13h12.74v2.13h-2.55v1.26h3Zm-1.19-6.58H127.63v-7.61h10.89Zm-2.64-5.79h-5.72v1.1h5.72Zm0,2.82h-5.72v1.14h5.72Z"/><path class="e" d="M248.52,150.66c.75,0,.91-.39,1-2.81a8.41,8.41,0,0,0,2.38,1c-.28,3.23-1,4.13-3.14,4.13h-3c-2.64,0-3.3-.77-3.3-3.12V145.8h-.35c-1.14,3.23-3.54,5.9-9.09,7.44a8.07,8.07,0,0,0-1.47-2.2c4.51-1.15,6.62-3,7.68-5.24h-5.5v-4.91a6.4,6.4,0,0,1-.71.55,7.89,7.89,0,0,0-1.84-2,18.65,18.65,0,0,0,6.18-6.71l2.82.53c-.18.33-.38.68-.6,1H244l.44-.11,1.83,1.17a23,23,0,0,1-2.07,3h5.94v7.48H245.2v4c0,.75.13.84,1,.84ZM240,143.47a23.42,23.42,0,0,0,.37-2.84h-4v2.84Zm-1.87-7a21.77,21.77,0,0,1-1.61,1.89h4.58a16.67,16.67,0,0,0,1.38-1.89Zm5,4.2a28.16,28.16,0,0,1-.39,2.84h4.6v-2.84Z"/><path class="e" d="M271.12,150.82c.35,0,.44-.29.51-2.38a5.74,5.74,0,0,0,2.24,1c-.26,3-.9,3.76-2.44,3.76h-1.5c-2,0-2.42-.79-2.42-3.08v-4.4h-1.12c-.31,3.5-1.19,6.21-4.84,7.79a7.61,7.61,0,0,0-1.52-2c3-1.19,3.59-3.19,3.83-5.77h-1.39v-5.94a6.57,6.57,0,0,1-.5.44,10.14,10.14,0,0,0-.91-1v2.27H258.8v.33c.55.52,2.22,2.5,2.57,3l-1.47,2.11c-.22-.55-.66-1.41-1.1-2.22v8.71h-2.38v-8.12a20.51,20.51,0,0,1-2.16,4.71,16.24,16.24,0,0,0-1.21-2.6,22.91,22.91,0,0,0,2.69-5.89h-2.36V139h3v-2.66c-.73.13-1.45.27-2.13.35a9.11,9.11,0,0,0-.73-2,29.76,29.76,0,0,0,6.38-1.78l1.52,2.13a19.31,19.31,0,0,1-2.66.82V139h2.09c-.29-.28-.55-.52-.77-.7a14.22,14.22,0,0,0,4.27-5.15l2.42.77a21.06,21.06,0,0,1-3.28,4.75h7.79a41.14,41.14,0,0,0-3.68-4.57l1.83-1.26a35.35,35.35,0,0,1,4.64,5.75l-2,1.43c-.09-.18-.2-.36-.33-.58v6.25H270v4.38c0,.64,0,.71.35.71ZM265,143.44h4.25V141H265Z"/><path class="e" d="M284.45,146.59h.07v6.78h-2.29v-.55h-2.86v.57h-2.18V147c-.27.11-.53.22-.79.31a9,9,0,0,0-1.26-2.07,15,15,0,0,0,3.81-1.69c-.4-.25-.77-.47-1.15-.68l1.46-1.52,1.45.79a8.14,8.14,0,0,0,1.23-1.45h-2.66a10.07,10.07,0,0,1-2.42,2.46,5.61,5.61,0,0,0-1.28-1.72,7.59,7.59,0,0,0,3.17-4.07l2,.4a9.94,9.94,0,0,1-.37,1h2.77l.37-.07,0,0v-1.68h-5.92V139h-1.9v-4h3.88c-.16-.48-.33-1-.49-1.38l2.09-.73c.27.64.58,1.43.84,2.11h3.52v4h-1.72l.95.68a12.56,12.56,0,0,1-2.18,3.61c1.19.68,2.36,1.38,3.1,1.91Zm-.75,0c-.72-.53-1.69-1.14-2.73-1.78a14,14,0,0,1-2.79,1.78Zm-1.47,4.2v-2.17h-2.86v2.17ZM292.55,149a25,25,0,0,1,3.58,2.58l-1.49,1.78a26.54,26.54,0,0,0-3.66-2.88l1.3-1.48H289l1.57,1.63a26.84,26.84,0,0,1-4.73,2.84,13.48,13.48,0,0,0-1.08-1.91,21.07,21.07,0,0,0,4.16-2.56h-2.38V137.44h2.79c.09-.49.18-1,.25-1.52H286v-2.2h9.84v2.2H292c-.13.53-.31,1.06-.46,1.52h3.79V149Zm-3.68-8.31h3.94v-1.28h-3.94Zm0,3.16h3.94v-1.31h-3.94Zm0,3.15h3.94v-1.3h-3.94Z"/><path class="e" d="M315.47,144.26h-6.69V151h-2.24v-6.69h-6.69V142h6.69v-6.69h2.24V142h6.69Z"/><path class="e" d="M339.8,141.49v2.83H319.56v-2.83Z"/><path class="e" d="M361.45,142.52a15.13,15.13,0,0,1-2.95,6.71,12.89,12.89,0,0,0,3.68,1.74,9.4,9.4,0,0,0-1.68,2.18,13.24,13.24,0,0,1-3.87-2.11,13.31,13.31,0,0,1-4.31,2.2,9,9,0,0,0-1.47-2.05,1.81,1.81,0,0,1-1,1.56,8,8,0,0,1-3.39.4,8.61,8.61,0,0,0-.68-2.22c.92,0,2,0,2.31,0s.42-.11.42-.44v-6.38l-3.46.37a25.52,25.52,0,0,1-1.69,8.89,10.1,10.1,0,0,0-2-1.32,21.26,21.26,0,0,0,1.39-7.35l-1.21.13-.22-2.37,1.5-.09v-7.28h2.29a17.69,17.69,0,0,0,.59-2.36l2.64.31-.84,2h3.35v6.66l.44,0,0,2.05-.48.06v6.69c0,.22,0,.42,0,.62a13.93,13.93,0,0,0,4-1.78,16.35,16.35,0,0,1-2.86-4.67l1.39-.42h-1.54V142h7.68L360,142Zm-14.7,6.58a25.23,25.23,0,0,0-1.69-3.37l1.63-.79a21.43,21.43,0,0,1,1.78,3.19Zm-1.6-6.84,3.39-.27v-4.82h-3.39v1.37l1.49-.75a20,20,0,0,1,1.7,2.93l-1.67.92a23.55,23.55,0,0,0-1.52-2.9v3.52Zm9.7-5.33c0,1.72-.31,3.72-2,4.89a12.74,12.74,0,0,0-1.92-1.65,3.46,3.46,0,0,0,1.54-3.3v-3h7.29v4.27c0,.59,0,.81.28.81h.81a3.49,3.49,0,0,0,1-.15c0,.64.09,1.47.17,2.07a3.46,3.46,0,0,1-1.21.15h-1.07c-2.05,0-2.45-.88-2.45-2.92v-2h-2.46Zm-.42,7.37a11.3,11.3,0,0,0,2.27,3.41,9.55,9.55,0,0,0,1.85-3.41Z"/><path class="e" d="M371.5,144.87c-.83.25-1.67.47-2.53.71v4.91c0,1.32-.24,2-1,2.37a7,7,0,0,1-3.37.49,8.89,8.89,0,0,0-.77-2.49c.86,0,1.76,0,2.05,0s.42-.11.42-.41v-4.21l-2.53.69-.53-2.56c.86-.17,1.94-.42,3.06-.68V139h-2.77v-2.42h2.77v-3.7H369v3.7h2.18V139H369v4.09l2.23-.59Zm11.33-10.23v17.91h-2.75v-1.67h-5.3v1.85h-2.62V134.64Zm-2.75,13.78V137.13h-5.3v11.29Z"/><path class="e" d="M393,134.56c-.55,1.87-1.23,4.09-1.83,5.8a7.66,7.66,0,0,1,1.52,4.54c0,1.45-.29,2.37-1,2.9a2.47,2.47,0,0,1-1.21.49,10.33,10.33,0,0,1-1.41.06,5,5,0,0,0-.55-2.27,4.35,4.35,0,0,0,.93,0,.83.83,0,0,0,.55-.18,1.71,1.71,0,0,0,.37-1.32,6.52,6.52,0,0,0-1.39-4c.4-1.34.82-3.15,1.15-4.6h-1.74v17.29h-2.29V133.7h4.8l.37-.09Zm3.91,12.71a20.23,20.23,0,0,1-3.19,4.87,15.82,15.82,0,0,0-1.93-1.43,12.64,12.64,0,0,0,2.84-4.07Zm3.83-1.34v4.73c0,1.19-.22,1.83-1,2.25a8,8,0,0,1-3.3.44,8.84,8.84,0,0,0-.86-2.38c1,0,1.92,0,2.25,0s.39-.09.39-.37v-4.69H393v-2.38h5.23v-1.8h-3.54v-1.52a8.7,8.7,0,0,1-.9.55,9.15,9.15,0,0,0-1.7-1.91,16.4,16.4,0,0,0,6.8-6.3l2.18.84a9.77,9.77,0,0,1-.53.88,18.73,18.73,0,0,0,5.79,4.29,7.5,7.5,0,0,0-1.72,2.11c-.33-.19-.68-.41-1-.66v1.72h-2.82v1.8h4.93v2.38Zm2.09-6.42a25.5,25.5,0,0,1-3.61-3.41,20.72,20.72,0,0,1-3.54,3.41Zm.46,7a22.27,22.27,0,0,1,2.95,4.27l-2.07,1.17a23.32,23.32,0,0,0-2.81-4.47Z"/><path class="e" d="M416.45,146.59h.07v6.78h-2.29v-.55h-2.86v.57h-2.18V147c-.27.11-.53.22-.79.31a9,9,0,0,0-1.26-2.07,15,15,0,0,0,3.81-1.69c-.4-.25-.77-.47-1.15-.68l1.46-1.52,1.45.79a8.14,8.14,0,0,0,1.23-1.45h-2.66a10.07,10.07,0,0,1-2.42,2.46,5.61,5.61,0,0,0-1.28-1.72,7.59,7.59,0,0,0,3.17-4.07l2,.4a9.94,9.94,0,0,1-.37,1h2.77l.37-.07,0,0v-1.68h-5.92V139h-1.9v-4h3.88c-.16-.48-.33-1-.49-1.38l2.09-.73c.27.64.58,1.43.84,2.11h3.52v4h-1.72l.95.68a12.56,12.56,0,0,1-2.18,3.61c1.19.68,2.36,1.38,3.1,1.91Zm-.75,0c-.72-.53-1.69-1.14-2.73-1.78a14,14,0,0,1-2.79,1.78Zm-1.47,4.2v-2.17h-2.86v2.17ZM424.55,149a25,25,0,0,1,3.58,2.58l-1.49,1.78a26.54,26.54,0,0,0-3.66-2.88l1.3-1.48H421l1.57,1.63a26.84,26.84,0,0,1-4.73,2.84,13.48,13.48,0,0,0-1.08-1.91,21.07,21.07,0,0,0,4.16-2.56h-2.38V137.44h2.79c.09-.49.18-1,.25-1.52H418v-2.2h9.84v2.2H424c-.13.53-.31,1.06-.46,1.52h3.79V149Zm-3.68-8.31h3.94v-1.28h-3.94Zm0,3.16h3.94v-1.31h-3.94Zm0,3.15h3.94v-1.3h-3.94Z"/><path class="e" d="M447.47,144.26h-6.69V151h-2.24v-6.69h-6.69V142h6.69v-6.69h2.24V142h6.69Z"/><path class="e" d="M459.72,145.91l-2.11.55v6.93h-2.48v-6.32l-2.91.75-.64-2.66c1-.17,2.22-.44,3.55-.7v-4.84h-1.28a19.22,19.22,0,0,1-.79,2.92c-.44-.2-1.37-.55-1.85-.7a28.07,28.07,0,0,0,1.32-7.31l2,.31c-.07.77-.16,1.52-.26,2.29h.88v-4.27h2.48v4.27h1.89v2.49h-1.89v4.29l1.83-.42Zm12,0h-2.11v4.6c0,1.3-.25,2-1.13,2.4a9.16,9.16,0,0,1-3.67.46,11.34,11.34,0,0,0-.79-2.59c1,0,2.22,0,2.57,0s.42-.09.42-.37v-4.54h-7v-2.39h7v-1.54h2.6v1.54h2.11Zm-7.48-8.69h-4.14V134.8h4.14v-2h2.59v2h4.4v2.37h-4.4V139h3.65v2.42h-9.57V139h3.33ZM463,145.93a20.06,20.06,0,0,1,2.64,3.3l-2.07,1.34a19.29,19.29,0,0,0-2.51-3.45Z"/><path class="e" d="M483.79,143.31s0,.64,0,.95c-.22,5.3-.44,7.41-1.06,8.16a2.3,2.3,0,0,1-1.65.82,16.52,16.52,0,0,1-2.66.06,5.2,5.2,0,0,0-.66-2.26,17.75,17.75,0,0,0,2.16.11.78.78,0,0,0,.72-.29c.33-.37.53-1.78.69-5.26h-2.45c-.5,3-1.54,5.83-3.87,7.81a6.75,6.75,0,0,0-1.74-1.91c2.88-2.38,3.33-6.34,3.5-10h-2.2v-7.66h9v7.66H479.3c0,.59-.09,1.21-.13,1.8Zm-6.86-4.13h4.13v-3h-4.13Zm10.87,8.71h-2.56V135.5h2.56ZM493,133.28v16.94c0,1.54-.31,2.27-1.21,2.69a11.89,11.89,0,0,1-4.38.5,9.33,9.33,0,0,0-.9-2.7c1.43,0,2.84,0,3.3,0s.6-.13.6-.53V133.28Z"/><path class="e" d="M503.5,144.87c-.83.25-1.67.47-2.53.71v4.91c0,1.32-.24,2-1,2.37a7,7,0,0,1-3.37.49,8.89,8.89,0,0,0-.77-2.49c.86,0,1.76,0,2.05,0s.42-.11.42-.41v-4.21l-2.53.69-.53-2.56c.86-.17,1.94-.42,3.06-.68V139h-2.77v-2.42h2.77v-3.7H501v3.7h2.18V139H501v4.09l2.23-.59Zm11.33-10.23v17.91h-2.75v-1.67h-5.3v1.85h-2.62V134.64Zm-2.75,13.78V137.13h-5.3v11.29Z"/><path class="e" d="M525,134.56c-.55,1.87-1.23,4.09-1.83,5.8a7.66,7.66,0,0,1,1.52,4.54c0,1.45-.29,2.37-1,2.9a2.47,2.47,0,0,1-1.21.49,10.33,10.33,0,0,1-1.41.06,5,5,0,0,0-.55-2.27,4.35,4.35,0,0,0,.93,0,.83.83,0,0,0,.55-.18,1.71,1.71,0,0,0,.37-1.32,6.52,6.52,0,0,0-1.39-4c.4-1.34.82-3.15,1.15-4.6h-1.74v17.29h-2.29V133.7h4.8l.37-.09Zm3.91,12.71a20.23,20.23,0,0,1-3.19,4.87,15.82,15.82,0,0,0-1.93-1.43,12.64,12.64,0,0,0,2.84-4.07Zm3.83-1.34v4.73c0,1.19-.22,1.83-1,2.25a8,8,0,0,1-3.3.44,8.84,8.84,0,0,0-.86-2.38c1,0,1.92,0,2.25,0s.39-.09.39-.37v-4.69H525v-2.38h5.23v-1.8h-3.54v-1.52a8.7,8.7,0,0,1-.9.55,9.15,9.15,0,0,0-1.7-1.91,16.4,16.4,0,0,0,6.8-6.3l2.18.84a9.77,9.77,0,0,1-.53.88,18.73,18.73,0,0,0,5.79,4.29,7.5,7.5,0,0,0-1.72,2.11c-.33-.19-.68-.41-1-.66v1.72h-2.82v1.8h4.93v2.38Zm2.09-6.42a25.5,25.5,0,0,1-3.61-3.41,20.72,20.72,0,0,1-3.54,3.41Zm.46,7a22.27,22.27,0,0,1,3,4.27l-2.07,1.17a23.32,23.32,0,0,0-2.81-4.47Z"/><path class="e" d="M548.45,146.59h.07v6.78h-2.29v-.55h-2.86v.57h-2.18V147c-.27.11-.53.22-.79.31a9,9,0,0,0-1.26-2.07,15,15,0,0,0,3.81-1.69c-.4-.25-.77-.47-1.15-.68l1.46-1.52,1.45.79a8.14,8.14,0,0,0,1.23-1.45h-2.66a10.07,10.07,0,0,1-2.42,2.46,5.61,5.61,0,0,0-1.28-1.72,7.59,7.59,0,0,0,3.17-4.07l2,.4a9.94,9.94,0,0,1-.37,1h2.77l.37-.07,0,0v-1.68h-5.92V139h-1.9v-4h3.88c-.16-.48-.33-1-.49-1.38l2.09-.73c.27.64.58,1.43.84,2.11h3.52v4h-1.72l.95.68a12.56,12.56,0,0,1-2.18,3.61c1.19.68,2.36,1.38,3.1,1.91Zm-.75,0c-.72-.53-1.69-1.14-2.73-1.78a14,14,0,0,1-2.79,1.78Zm-1.47,4.2v-2.17h-2.86v2.17ZM556.55,149a25,25,0,0,1,3.58,2.58l-1.49,1.78a26.54,26.54,0,0,0-3.66-2.88l1.3-1.48H553l1.57,1.63a26.84,26.84,0,0,1-4.73,2.84,13.48,13.48,0,0,0-1.08-1.91,21.07,21.07,0,0,0,4.16-2.56h-2.38V137.44h2.79c.09-.49.18-1,.25-1.52H550v-2.2h9.84v2.2H556c-.13.53-.31,1.06-.46,1.52h3.79V149Zm-3.68-8.31h3.94v-1.28h-3.94Zm0,3.16h3.94v-1.31h-3.94Zm0,3.15h3.94v-1.3h-3.94Z"/><polyline class="f" points="65.17 93.82 43.95 93.82 43.95 195.31 65.17 195.31"/><polyline class="f" points="602.97 195.31 624.19 195.31 624.19 93.82 602.97 93.82"/><path class="e" d="M723.08,150.82c.35,0,.44-.29.51-2.38a5.74,5.74,0,0,0,2.24,1c-.26,3-.9,3.76-2.44,3.76h-1.5c-2,0-2.42-.79-2.42-3.08v-4.4h-1.12c-.31,3.5-1.19,6.21-4.84,7.79a7.61,7.61,0,0,0-1.52-2c3-1.19,3.59-3.19,3.83-5.77h-1.39v-5.94a6.57,6.57,0,0,1-.5.44,11.23,11.23,0,0,0-.9-1v2.27h-2.27v.33c.55.52,2.22,2.5,2.57,3l-1.47,2.11c-.22-.55-.66-1.41-1.1-2.22v8.71h-2.38v-8.12a20.52,20.52,0,0,1-2.15,4.71,17.16,17.16,0,0,0-1.21-2.6,23.25,23.25,0,0,0,2.68-5.89h-2.35V139h3v-2.66c-.72.13-1.45.27-2.13.35a9.11,9.11,0,0,0-.73-2,29.43,29.43,0,0,0,6.38-1.78l1.52,2.13a18.89,18.89,0,0,1-2.66.82V139h2.09c-.29-.28-.55-.52-.77-.7a14.22,14.22,0,0,0,4.27-5.15l2.42.77a20.43,20.43,0,0,1-3.28,4.75h7.79a42.21,42.21,0,0,0-3.67-4.57l1.82-1.26a35.35,35.35,0,0,1,4.64,5.75l-2,1.43a4.57,4.57,0,0,0-.33-.58v6.25H722v4.38c0,.64,0,.71.36.71Zm-6.16-7.38h4.25V141h-4.25Z"/><path class="e" d="M740.88,145.87a8.13,8.13,0,0,0-.42-1.08c-5.26.53-6.09.66-6.64.9a15.68,15.68,0,0,0-.71-2.09c-1.45.77-3,1.56-4.29,2.18l-1.25-2.09c1.38-.51,3.45-1.39,5.48-2.23l.48,1.92-.4.22a5,5,0,0,0,1.87-1.12c.33-.27,1-.8,1.74-1.54a9.16,9.16,0,0,0-2.51.37c-.13-.46-.46-1.47-.7-2.05a2.11,2.11,0,0,0,1-.74c.2-.25.66-.82,1.17-1.57h-7.5V134.6h8.18c-.24-.44-.51-.9-.75-1.26l2.66-.61a10.12,10.12,0,0,1,1.21,1.87h7.84V137h-9.09a17.09,17.09,0,0,1-1.52,2l2-.06a18,18,0,0,0,1.4-1.79l2,1.19a38,38,0,0,1-5,4.89l2.31-.18a11.74,11.74,0,0,0-.75-1.1l1.92-.68c.33.44.7.92,1,1.43l1.45-1.15a27.83,27.83,0,0,1,4.38,2.8l-1.89,1.58a22.59,22.59,0,0,0-3.52-2.53,10.19,10.19,0,0,1,.86,1.78Zm6.78,3.47H739v4h-2.79v-4h-8.61v-2.42h8.61v-1.47H739v1.47h8.63Zm-16.22-8a18.65,18.65,0,0,0-3.23-2.48l1.71-1.39a18.92,18.92,0,0,1,3.37,2.33Zm10.3-1.23a18.17,18.17,0,0,0,2.81-2.73l2.18,1.26a24.13,24.13,0,0,1-3.06,2.68Z"/><line class="f" x1="646.64" y1="135.37" x2="665.02" y2="153.76"/><line class="f" x1="665.02" y1="135.37" x2="646.64" y2="153.76"/><line class="f" x1="192.51" y1="144.57" x2="174.48" y2="144.57"/><line class="f" x1="26.21" y1="136.23" x2="8.18" y2="136.23"/><line class="f" x1="26.21" y1="151.45" x2="8.18" y2="151.45"/><line class="f" x1="485.88" y1="539.73" x2="467.85" y2="539.73"/><line class="f" x1="485.88" y1="547.84" x2="467.85" y2="547.84"/><line class="f" x1="485.88" y1="524.85" x2="467.85" y2="518.6"/><line class="f" x1="485.88" y1="524.85" x2="467.85" y2="531.1"/><path class="g" d="M205.55,704.57l1-.05,0,2.09-.94.07a19,19,0,0,1-2.38,9.89,30.62,30.62,0,0,1,3,2.88l-1.63,1.71a32.36,32.36,0,0,0-2.65-2.74,17.52,17.52,0,0,1-5,4.06,9.33,9.33,0,0,0-1.61-1.71,15.67,15.67,0,0,0,4.89-3.91c-1.36-1.2-2.78-2.4-4-3.38.53-1.68,1-3.94,1.51-6.29l-2.16.12-.24-2.21L198,705c.24-1.54.43-3,.55-4.39l2.35.12c-.14,1.32-.36,2.71-.57,4.15l3-.17v-1.15h2.18Zm-2.18,2.26L200,707c-.41,2.07-.84,4.11-1.3,5.81.89.67,1.83,1.44,2.76,2.21A16.74,16.74,0,0,0,203.37,706.83ZM216.16,703v18.55H214V720.1h-4.61v1.78h-2.09V703ZM214,718V705.1h-4.61V718Z"/><path class="g" d="M233.34,715.08a23.58,23.58,0,0,0,8.26,4.68,11.64,11.64,0,0,0-1.54,1.9,25.62,25.62,0,0,1-8.44-5.62v6.46h-2.36v-6.34a23.11,23.11,0,0,1-8.47,5.62,10.7,10.7,0,0,0-1.49-1.85,21.74,21.74,0,0,0,8.24-4.85h-7.61v-2h9.33v-1.77h-7v-9.65h16.49v9.65h-7.12V713h9.31v2Zm-8.78-9.55h4.7v-2h-4.7Zm4.7,3.84v-2.09h-4.7v2.09Zm7.08-5.88h-4.72v2h4.72Zm0,3.79h-4.72v2.09h4.72Z"/><path class="g" d="M255.28,715.59h-7.15l-1.76,5h-3L250,702.89h3.51l6.65,17.71h-3.07Zm-.62-2.16-.89-2.47c-.65-2-1.35-3.92-2-5.91h-.1c-.64,2-1.34,4-2,5.91l-.91,2.47Z"/><path class="g" d="M266.39,711.27a18,18,0,0,0-4.42-2.59l1.18-1.69a20.69,20.69,0,0,1,4.49,2.43Zm2.33,3.31c-1.18,2.5-2.69,5.35-4,7.58l-1.92-1.43a73.61,73.61,0,0,0,4.27-7.61Zm-1.06-9.6a19.29,19.29,0,0,0-4.34-2.74l1.22-1.63a17.55,17.55,0,0,1,4.39,2.54Zm15.08,7.1a14.12,14.12,0,0,1-4.28,6.27,19.54,19.54,0,0,0,5.76,2.11,8.61,8.61,0,0,0-1.46,2,19.73,19.73,0,0,1-6.24-2.74,23.7,23.7,0,0,1-7.25,2.74,7.51,7.51,0,0,0-1.1-2,20.92,20.92,0,0,0,6.53-2.16,15.79,15.79,0,0,1-3.32-4.25l1.37-.48h-2.88v-2h11l.41-.1Zm-8.6-7.46a14,14,0,0,1-3.81,6.58,11.33,11.33,0,0,0-1.9-1.42c2.47-1.95,3.74-5.23,4.23-9.34l2.28.29c-.1.62-.2,1.25-.32,1.85h8s0,.6,0,.89c-.29,4-.6,5.71-1.2,6.38a2.32,2.32,0,0,1-1.76.72,25.94,25.94,0,0,1-3,0,5.61,5.61,0,0,0-.65-2.07c1.13.1,2.25.12,2.71.12a1.11,1.11,0,0,0,.84-.21c.34-.32.6-1.4.79-3.82Zm-.64,9a12,12,0,0,0,3.07,3.51,11.34,11.34,0,0,0,3.07-3.51Z"/><path class="g" d="M294.71,705.56c-.41.81-.82,1.63-1.27,2.4h11.35v11.95c0,1.2-.24,1.87-1.1,2.21a12.41,12.41,0,0,1-4.18.36,8.6,8.6,0,0,0-.69-2.16c1.41.07,2.85.07,3.26,0s.53-.12.53-.47v-2.07h-9.68a8.66,8.66,0,0,1-2.52,4.85,7.67,7.67,0,0,0-1.6-1.75c2-1.85,2.2-4.47,2.2-6.7v-2.83a18.26,18.26,0,0,1-3.48,3.21,11.77,11.77,0,0,0-1.46-1.72,19.53,19.53,0,0,0,6.17-7.32H286.6v-2.09h6.57a25.21,25.21,0,0,0,1-3l2.28.52c-.26.82-.53,1.66-.86,2.48h11.95v2.09Zm7.9,10.39v-2.09h-9.36v.41c0,.53,0,1.1-.08,1.68Zm0-6h-9.36V712h9.36Z"/><path class="g" d="M320.56,717.32a12.18,12.18,0,0,0,.22,2.08c-6.77,1.78-7.78,2.09-8.41,2.5a7.45,7.45,0,0,0-1.05-1.87,2.25,2.25,0,0,0,1.05-2V700.49h2.31v7.2h5.74v2.19h-5.74v8.85Zm8.14,2.54c1,0,1.17-.84,1.34-4.2a6.47,6.47,0,0,0,2.09,1c-.29,3.93-.87,5.37-3.24,5.37h-3.7c-2.52,0-3.21-.82-3.21-3.77V700.47h2.3v7.22h6.19v2.19h-6.19v8.42c0,1.35.17,1.56,1.2,1.56Z"/><path class="g" d="M337,702.89h6.22c4.23,0,6.87,1.15,6.87,4.37a3.89,3.89,0,0,1-2.76,3.84v.12c2.35.41,3.84,1.85,3.84,4.2,0,3.6-2.62,5.18-7.42,5.18H337Zm6,7.42c2.9,0,4.27-.84,4.27-2.64s-1.35-2.62-4.13-2.62h-3.36v5.26Zm.55,8.11c3.21,0,4.82-.82,4.82-3.14,0-2-1.51-2.86-4.87-2.86h-3.72v6Z"/><path class="g" d="M366.47,709.42c1.63,5,4.66,9.05,9.19,10.94a8.91,8.91,0,0,0-1.65,2.09c-4.49-2.09-7.39-6-9.27-11.06a16.57,16.57,0,0,1-9.26,11.06,7.68,7.68,0,0,0-1.71-1.87,14.94,14.94,0,0,0,9-11.16h-8.53v-2.3h8.93a58.88,58.88,0,0,0,.29-6.63h2.43a61.84,61.84,0,0,1-.34,6.63h9.67v2.3Z"/><path class="g" d="M380.08,714.82c1.85-.7,2.93-1.8,3.05-3.24a1.83,1.83,0,0,1-.34,0,1.87,1.87,0,0,1-2-1.92,1.9,1.9,0,0,1,2-1.92c1.51,0,2.3,1.18,2.3,3a5.84,5.84,0,0,1-4.42,5.62Z"/><path class="g" d="M393.76,714.34a20.72,20.72,0,0,1-2.4,6,13.69,13.69,0,0,0-1.59-1.05,14.65,14.65,0,0,0,2.12-5.38Zm7.1-9.07H390v-2h4.8a19.53,19.53,0,0,0-.93-2.42l2-.46a23.57,23.57,0,0,1,1.2,2.88h3.74Zm-4.17,7.65v7.35c0,.91-.15,1.46-.77,1.75a6.58,6.58,0,0,1-2.74.34,6.72,6.72,0,0,0-.62-1.85c.79,0,1.56,0,1.8,0s.34-.07.34-.31v-7.3h-3.51v-6H400v6Zm-3.56-1.75h4.78v-2.52h-4.78Zm5.84,2.5a18.05,18.05,0,0,1,1.8,4.2l-1.71.77a16.5,16.5,0,0,0-1.68-4.25Zm10.32,6.62a.93.93,0,0,0,.57-.12c.15,0,.24-.26.32-.65a22.22,22.22,0,0,0,.09-2.61,5.14,5.14,0,0,0,1.75.93,16.93,16.93,0,0,1-.28,2.86,1.81,1.81,0,0,1-.84,1,3.4,3.4,0,0,1-1.4.27H408a2.6,2.6,0,0,1-1.56-.48c-.38-.34-.55-.77-.55-2.36V711c-.65,4.47-2,8.67-5.11,11.52a6.81,6.81,0,0,0-1.61-1.36c3.36-3,4.54-7.68,4.94-12.56h-3v-2h3.07c.12-2.07.12-4.13.12-6.08h2.12c0,2,0,4-.17,6.08h5.28v2h-5.4c-.05.53-.12,1.06-.17,1.59h1.82v9.14c0,.46,0,.75.15.84a1,1,0,0,0,.48.12Zm.14-14.3a17.48,17.48,0,0,0-2.4-3.67l1.47-.84A16.16,16.16,0,0,1,411,705Z"/><path class="g" d="M423.83,715.71c-3.26,1.49-6.79,3-9.46,4.13l-.81-2.33c.91-.34,2-.77,3.26-1.25l-.45-14.43,2.33-.09.4,13.58c1.4-.57,2.81-1.17,4.2-1.77Zm10.25,6.74a53,53,0,0,0-5-6.07,17.16,17.16,0,0,1-7.8,6.17,11.17,11.17,0,0,0-1.8-2c8-3,10.47-8.74,11.45-18.84l2.45.24c-.55,5-1.44,9.07-3.05,12.29a59.78,59.78,0,0,1,5.59,6.38ZM425,710.24a23.48,23.48,0,0,0-3.65-5.88l2.05-1a22.87,22.87,0,0,1,3.76,5.71Z"/><path class="g" d="M440.63,702.89h6.22c4.22,0,6.86,1.15,6.86,4.37A3.88,3.88,0,0,1,451,711.1v.12c2.35.41,3.84,1.85,3.84,4.2,0,3.6-2.61,5.18-7.41,5.18h-6.75Zm6,7.42c2.91,0,4.27-.84,4.27-2.64s-1.34-2.62-4.12-2.62h-3.36v5.26Zm.55,8.11c3.22,0,4.83-.82,4.83-3.14,0-2-1.51-2.86-4.87-2.86h-3.72v6Z"/><path class="g" d="M478.74,713.28s0,.6-.07.89c-.41,4.8-.84,6.8-1.56,7.54a2.27,2.27,0,0,1-1.65.72,22.37,22.37,0,0,1-2.91,0,4.52,4.52,0,0,0-.58-2,22.47,22.47,0,0,0,2.5.12,1.09,1.09,0,0,0,.84-.26c.46-.41.82-1.83,1.13-5.12H462.21a25.39,25.39,0,0,1-3.82,2.45,12.13,12.13,0,0,0-1.18-1.89,23.54,23.54,0,0,0,9.65-9.17h-8.11v-2h4.42a18.91,18.91,0,0,0-1.68-3.28l1.89-.75a14.69,14.69,0,0,1,1.92,3.51l-1.25.52h3.89a28.6,28.6,0,0,0,1.68-4.15l2.23.63c-.43,1.2-.91,2.37-1.43,3.52h4.79c-.26,1.42-.55,3.08-.86,4.35h2.74c-.22,1.42-.53,3.07-.82,4.34Zm-20.61,7.9a8.64,8.64,0,0,0,2.71-4.87l1.89.62a9.83,9.83,0,0,1-2.85,5.38Zm7.68-4.25a16.61,16.61,0,0,1,.67,4.37l-2,.27a17.58,17.58,0,0,0-.5-4.4Zm.76-6.07a27.68,27.68,0,0,1-2.18,2.42h9.84c.17-.72.34-1.56.48-2.42Zm2.76,5.66a17.45,17.45,0,0,1,1.28,3.84l-1.8.48a21.07,21.07,0,0,0-1.18-3.91Zm.05-9.93c-.43.81-.91,1.58-1.41,2.35h4.36c.17-.7.34-1.51.49-2.35Zm3.32,13.1a14.08,14.08,0,0,0-1.59-3.26l1.54-.53a13.15,13.15,0,0,1,1.7,3.12Z"/><path class="g" d="M491.85,706.25h-9.92v-1.77h4.44a21.87,21.87,0,0,0-1.72-3.24l1.75-.89a21.87,21.87,0,0,1,1.8,3.14l-1.78,1h5.43ZM483,709.42v-1.75h7.87v1.75Zm7.8,3.14H483v-1.72h7.8Zm.09,8.55H485v1.08h-1.92v-8.11h7.75ZM485,715.88v3.43h3.89v-3.43Zm18.22-5.12h-4.71V722.5h-2.3V710.76H491.8v-2.18h4.44v-7.66h2.3v7.66h4.71Z"/><path class="g" d="M527.18,703.73h-3.7a8.76,8.76,0,0,1,1.32,1.61l-1.37.6h1.2v9h-2.85v1.8h5.28v1.8h-5.28v3.94h-2.31v-3.94h-5.93c-.6,1.51-2.13,3-5.64,4.06a8.82,8.82,0,0,0-1.39-1.66c2.57-.62,3.84-1.51,4.51-2.4h-5.28v-1.8h5.88v-1.8h-3.07v-9H512a9.59,9.59,0,0,0-.92-1.63l1.68-.56h-3.31a20.57,20.57,0,0,1-2.78,3.32,17.8,17.8,0,0,0-1.44-1.75,14,14,0,0,0,3.74-5l2,.65c-.17.38-.36.72-.55,1.1h6.1v1.68H513a10.32,10.32,0,0,1,1,1.64l-1.58.55h5a14.18,14.18,0,0,0-1.73-.94,10.64,10.64,0,0,0,3.36-4.7l2.13.53a12.6,12.6,0,0,1-.55,1.24h6.53Zm-4.9,3.63H510.81v1.12h11.47Zm0,2.44H510.81V711h11.47Zm0,2.52H510.81v1.2h11.47Zm-2.81,2.62h-5.59v1.8h5.59Zm3.41-9a9.17,9.17,0,0,0-1.3-1.66l1.23-.55h-3.17a12.81,12.81,0,0,1-1.83,2.21Z"/><path class="g" d="M536.44,714.05c-.31-.72-.89-1.94-1.49-3.07V722.5h-2V711.34a25.87,25.87,0,0,1-2.71,6.41,12.1,12.1,0,0,0-1.08-2.23,26.94,26.94,0,0,0,3.5-8.45h-2.9V705h3.19v-4.51h2V705h2.5v2.07H535v1.17c.65.84,2.4,3.6,2.81,4.28Zm5.25,3.46a15.56,15.56,0,0,1-3.43,4.41,14.34,14.34,0,0,0-1.68-1.19,11.77,11.77,0,0,0,3.15-3.77Zm-.11-14.21h-4.11v-1.8h13.44v1.8h-4.27v1.34h3.84v5.69H538v-5.69h3.61Zm3.55,13v6.22h-2v-6.22h-5.59v-1.77H551v1.77ZM539,713.14v-1.75h10.44v1.75Zm.81-4.46h1.76V706.3h-1.76ZM545,703.3h-1.75v1.34H545Zm-1.75,5.38H545V706.3h-1.75Zm4.85,8.25a21.06,21.06,0,0,1,3.12,3.84l-1.73,1a19.79,19.79,0,0,0-3-4Zm-1.44-10.63v2.38h1.92V706.3Z"/><path class="g" d="M557.1,707.93a22,22,0,0,0-3.79-1.85l1.13-1.51a22.59,22.59,0,0,1,3.77,1.61,16,16,0,0,0,4.65-5.86L565,701a20.46,20.46,0,0,1-1.15,2H567c-.22-.6-.53-1.25-.77-1.78l2.11-.55a22,22,0,0,1,1.16,2.33h4.6v1.7h-5.06v1.51h4.22v1.47h-4.22v1.41h4.27v1.47h-4.27v1.58h5.45v1.78H563.05v1h-2.18v-8.12c-.36.34-.7.68-1.06,1a15.18,15.18,0,0,0-1.68-1.34Zm18,10.13h-9.72v4.46h-2.28v-4.46h-9.5v-2h9.5v-1.66h2.28v1.66h9.72Zm-21.22-4.73a52.51,52.51,0,0,0,4.73-4.89l1.23,1.51c-1.37,1.68-2.93,3.5-4.4,5.06Zm4.88-9.26a18.13,18.13,0,0,0-3.75-2l1.15-1.53a18.43,18.43,0,0,1,3.8,1.82Zm8.16.62h-3.92v1.51H567Zm0,3h-3.92v1.41H567Zm0,2.88h-3.92v1.58H567Z"/><path class="g" d="M587.68,712.49a47.78,47.78,0,0,1-4.87,6.51l10.82-.7a44.43,44.43,0,0,0-2.93-3.84l2-.91a40,40,0,0,1,5.5,7.63L596,722.33a18.81,18.81,0,0,0-1.11-2c-12.53,1-14,1.08-15,1.49a15.06,15.06,0,0,0-.77-2.21,4.18,4.18,0,0,0,1.78-1.49,34.91,34.91,0,0,0,4-5.59h-7.2v-2.23h9.52v-4h-7.65V704h7.65v-3.55h2.36V704h7.87v2.24h-7.87v4h9.62v2.23Z"/><path class="g" d="M609.93,713.07l-2.93.86v6c0,1.2-.27,1.8-1,2.14a7.85,7.85,0,0,1-3.39.41,9.5,9.5,0,0,0-.69-2.12c1,0,2,0,2.3,0s.46-.1.46-.46v-5.37l-3,.88-.52-2.18c1-.24,2.2-.55,3.55-.91v-5.57h-3.24v-2.06h3.24v-4.23H607v4.23h2.64v2.06H607v5l2.64-.75ZM622,702.46v19.13h-2.33v-1.92h-6.62v2.11h-2.24V702.46Zm-2.33,15.1v-13h-6.62v13Z"/><path class="g" d="M633.25,702.17c-.69,2-1.53,4.37-2.3,6.22a7.58,7.58,0,0,1,2,5.09,3.57,3.57,0,0,1-1,2.92,3.18,3.18,0,0,1-1.32.48,12.13,12.13,0,0,1-1.63,0,4.94,4.94,0,0,0-.48-1.95,5.11,5.11,0,0,0,1.27,0,1,1,0,0,0,.7-.24c.36-.21.48-.81.48-1.53a6.78,6.78,0,0,0-2-4.64c.6-1.53,1.22-3.57,1.68-5.16h-2.54v19h-1.95v-21h5.26l.31-.08Zm4.25,13.66a21.92,21.92,0,0,1-3.5,5.25,18.11,18.11,0,0,0-1.66-1.19,15.75,15.75,0,0,0,3.19-4.61Zm4-1.61v5.86c0,1.1-.22,1.68-1,2a9.22,9.22,0,0,1-3.51.39,11.65,11.65,0,0,0-.74-2c1.2,0,2.28,0,2.64,0s.46-.13.46-.44v-5.83h-6v-2h6v-2.52h-4V708c-.46.29-.92.6-1.37.86a7.35,7.35,0,0,0-1.49-1.63,18.36,18.36,0,0,0,7.46-7l1.9.72c-.17.32-.36.63-.55.94a21.55,21.55,0,0,0,6.38,5,6.57,6.57,0,0,0-1.49,1.75c-.45-.29-.91-.58-1.36-.89v1.85h-3.39v2.52h5.64v2Zm3.27-6.5a24.81,24.81,0,0,1-4.54-4.23,23.13,23.13,0,0,1-4.39,4.23Zm-.51,7.36a28,28,0,0,1,3.34,4.81l-1.78,1a27,27,0,0,0-3.26-5Z"/><rect class="e" x="195.38" y="730.95" width="452" height="2.32"/><polygon class="e" points="424.01 667.98 436.03 647.16 411.99 647.16 424.01 667.98"/><rect class="e" x="419.54" y="628.05" width="8.94" height="24.28"/><path class="h" d="M281.59,493.69c11.91-2.45,40.08-10.28,53.33-31.12a5.08,5.08,0,0,0,.54-.85l0,0h0a5.27,5.27,0,0,0-8-6.48,5.22,5.22,0,0,0-1.54,2h0v0a2.33,2.33,0,0,0-.11.28c-1.24,2.64-11.49,16.08-36,21.52"/><path class="i" d="M327,460.6c.2-.26,3.89-3.36,3.93-6.33"/><path class="i" d="M329.91,462.45s4.91-4.8,4.4-7.27"/><path class="h" d="M305.36,492.13a83.27,83.27,0,0,1-49.64,51.78c-.31,5.47-.73,13.62-1,22.18l-7.62-.11.27-19.43a83.58,83.58,0,0,1-43.35-.41c-.28,5.25-.6,12.1-.81,19.23l-7.62-.11.31-21.85a83,83,0,1,1,113.56-76.07c0,1.54-.09,3.08-.19,4.6a63.44,63.44,0,0,1-3.94,20.19"/><path class="j" d="M164.82,584.48c-.1,7.41,27.22,13.79,61,14.26s61.3-5.15,61.4-12.55-27.22-13.79-61-14.26S164.93,577.08,164.82,584.48Z"/><rect class="k" x="195.37" y="582.92" width="17.18" height="3.41" transform="translate(399.72 1172.03) rotate(-179.2)"/><line class="i" x1="207.51" y1="565.43" x2="192.97" y2="565.23"/><path class="l" d="M203.24,565.37c-.07,2.62-.13,5.28-.17,7.91,0,0,10.31-.54,9.48,9.75l-17.17-.23.24-17.54Z"/><rect class="k" x="246.86" y="583.63" width="17.18" height="3.41" transform="translate(502.72 1174.18) rotate(-179.2)"/><line class="i" x1="258.03" y1="566.13" x2="243.5" y2="565.93"/><path class="l" d="M254.75,566.09c-.08,2.62-.14,5.28-.17,7.91,0,0,10.31-.54,9.48,9.75l-17.17-.24.24-17.53Z"/><path class="k" d="M247.91,439.6c-.51,2.28,1.94,4.77,5.48,5.57s6.82-.4,7.33-2.68-1.94-4.76-5.47-5.56S248.42,437.33,247.91,439.6Z"/><path class="k" d="M217,442.71c.74,2.21,4.13,3.06,7.57,1.91s5.62-3.89,4.88-6.1-4.14-3.06-7.57-1.91S216.28,440.5,217,442.71Z"/><path class="i" d="M229.24,466.22l26.89.38a4.41,4.41,0,0,0,4.46-4.34h0a4.41,4.41,0,0,0-4.33-4.45l-26.9-.38"/><path d="M247.6,451.74a3.29,3.29,0,1,0,3.33-3.23A3.28,3.28,0,0,0,247.6,451.74Z"/><path d="M222.43,451.74a3.28,3.28,0,1,0,3.33-3.23A3.27,3.27,0,0,0,222.43,451.74Z"/><path class="i" d="M237,480a3.28,3.28,0,1,0,6.56.09"/><path class="i" d="M230.38,479.88A3.29,3.29,0,0,0,237,480"/><line class="i" x1="247.97" y1="475.44" x2="226.05" y2="475.13"/><path class="m" d="M253.27,544.79a83.2,83.2,0,0,0,53.89-59"/><path class="m" d="M205.88,546.64a83.83,83.83,0,0,0,41.1,0"/><path class="m" d="M199.72,544.8q3,1,6.16,1.84"/><path class="m" d="M309.49,467.34a83,83,0,1,0-115,75.49"/><path class="n" d="M184.48,469a12.19,12.19,0,1,0,12.35-12A12.18,12.18,0,0,0,184.48,469Z"/><path class="n" d="M269.13,470.18a12.19,12.19,0,1,0,12.35-12A12.18,12.18,0,0,0,269.13,470.18Z"/><rect class="c" x="16.39" y="491.74" width="424.29" height="80" rx="20.41" ry="20.41"/><path class="e" d="M59.4,537.83c.75,0,.9-.39,1-2.81a8.17,8.17,0,0,0,2.38,1c-.29,3.23-1,4.13-3.15,4.13h-3c-2.64,0-3.3-.76-3.3-3.12V533H53c-1.15,3.23-3.55,5.9-9.09,7.44a8.3,8.3,0,0,0-1.47-2.2c4.51-1.15,6.62-3,7.67-5.24h-5.5v-4.91a7.36,7.36,0,0,1-.7.55,8.11,8.11,0,0,0-1.85-2,18.48,18.48,0,0,0,6.18-6.71l2.82.53c-.18.33-.37.68-.59,1h4.37l.45-.11,1.82,1.17a22.07,22.07,0,0,1-2.07,3H61V533h-4.9v4c0,.74.13.83,1,.83Zm-8.54-7.19a23.41,23.41,0,0,0,.38-2.84h-4v2.84Zm-1.87-7a21.64,21.64,0,0,1-1.6,1.89H52a16.74,16.74,0,0,0,1.39-1.89Zm5,4.2a28.14,28.14,0,0,1-.4,2.84h4.6V527.8Z"/><path class="e" d="M82,538c.36,0,.44-.29.51-2.38a5.74,5.74,0,0,0,2.24,1c-.26,3-.9,3.77-2.44,3.77H80.81c-2,0-2.42-.8-2.42-3.09v-4.4H77.26c-.3,3.5-1.18,6.21-4.84,7.79a7.4,7.4,0,0,0-1.52-2c3-1.19,3.59-3.19,3.83-5.77H73.35V527a6.66,6.66,0,0,1-.51.44,11.23,11.23,0,0,0-.9-1v2.27H69.67V529c.55.53,2.22,2.51,2.58,3l-1.48,2.11c-.22-.55-.66-1.41-1.1-2.22v8.71H67.3v-8.12a20.74,20.74,0,0,1-2.16,4.71,17.16,17.16,0,0,0-1.21-2.6,22.91,22.91,0,0,0,2.68-5.89H64.26v-2.44h3v-2.67c-.73.13-1.46.27-2.14.35a9.6,9.6,0,0,0-.72-2,29.19,29.19,0,0,0,6.38-1.78l1.51,2.13a17.66,17.66,0,0,1-2.66.82v3.17h2.09a9,9,0,0,0-.77-.71,14,14,0,0,0,4.27-5.15l2.42.77a20.7,20.7,0,0,1-3.28,4.76h7.79a41.36,41.36,0,0,0-3.67-4.58l1.82-1.26A36,36,0,0,1,85,525.8l-2,1.43c-.09-.18-.2-.35-.33-.58v6.25H80.92v4.38c0,.64,0,.71.35.71Zm-6.16-7.37h4.25v-2.45H75.83Z"/><path class="e" d="M95.32,533.76h.07v6.78H93.1V540H90.24v.57H88.06V534.2c-.26.11-.52.22-.79.31A8.85,8.85,0,0,0,86,532.44a14.13,14.13,0,0,0,3.8-1.69l-1.14-.68,1.45-1.52,1.45.79a8.19,8.19,0,0,0,1.24-1.45H90.15a9.56,9.56,0,0,1-2.42,2.46,5.53,5.53,0,0,0-1.27-1.71,7.76,7.76,0,0,0,3.17-4.07l2,.39a8,8,0,0,1-.38,1H94l.38-.06,0,0v-1.67H88.48v1.89H86.59v-4h3.87c-.15-.49-.33-1-.48-1.39l2.09-.73c.26.64.57,1.43.83,2.12h3.52v4H94.71l.94.68a12.31,12.31,0,0,1-2.17,3.61c1.18.68,2.35,1.38,3.1,1.91Zm-.74,0c-.73-.53-1.7-1.14-2.73-1.78a14.42,14.42,0,0,1-2.8,1.78ZM93.1,538v-2.17H90.24V538Zm10.32-1.76a25.75,25.75,0,0,1,3.59,2.58l-1.5,1.78a26.41,26.41,0,0,0-3.65-2.88l1.3-1.48H99.88l1.56,1.63a26.48,26.48,0,0,1-4.73,2.84,11.77,11.77,0,0,0-1.08-1.91,20.78,20.78,0,0,0,4.16-2.56H97.42V524.61h2.79c.09-.49.18-1,.24-1.52H96.87v-2.2h9.83v2.2h-3.87c-.13.53-.31,1.06-.46,1.52h3.78V536.2Zm-3.67-8.31h3.94v-1.28H99.75Zm0,3.17h3.94v-1.32H99.75Zm0,3.14h3.94v-1.3H99.75Z"/><path class="e" d="M126.35,531.43h-6.69v6.69h-2.25v-6.69h-6.69v-2.24h6.69V522.5h2.25v6.69h6.69Z"/><path class="e" d="M150.68,528.66v2.84H130.44v-2.84Z"/><path class="e" d="M172.33,529.69a15.35,15.35,0,0,1-3,6.71,12.83,12.83,0,0,0,3.67,1.74,9.09,9.09,0,0,0-1.67,2.18,13.24,13.24,0,0,1-3.87-2.11,13.52,13.52,0,0,1-4.31,2.2,8.78,8.78,0,0,0-1.48-2,1.79,1.79,0,0,1-1,1.56,8,8,0,0,1-3.39.4,7.9,7.9,0,0,0-.68-2.22c.93,0,2,0,2.31,0s.42-.11.42-.44v-6.38l-3.45.37a25.75,25.75,0,0,1-1.7,8.89,10,10,0,0,0-2-1.32,21.49,21.49,0,0,0,1.39-7.35l-1.21.14-.23-2.38,1.5-.09V522.3H156a17.69,17.69,0,0,0,.59-2.36l2.64.31c-.3.75-.59,1.43-.83,2h3.34V529l.44-.05,0,2.05-.49.06v6.69c0,.22,0,.42,0,.62a13.85,13.85,0,0,0,4-1.78,16.13,16.13,0,0,1-2.86-4.67l1.38-.42h-1.54v-2.28h7.68l.42-.07Zm-14.7,6.58a25.37,25.37,0,0,0-1.7-3.37l1.63-.79a21.43,21.43,0,0,1,1.78,3.19ZM156,529.43l3.39-.27v-4.82H156v1.37l1.5-.75a20.44,20.44,0,0,1,1.69,2.93l-1.67.92a23.55,23.55,0,0,0-1.52-2.9v3.52Zm9.71-5.33c0,1.72-.31,3.72-2,4.89a12.65,12.65,0,0,0-1.91-1.65,3.46,3.46,0,0,0,1.54-3.3v-3h7.28v4.27c0,.6,0,.81.29.81h.81a3.43,3.43,0,0,0,1-.15c0,.64.09,1.47.18,2.07a3.49,3.49,0,0,1-1.21.15h-1.08c-2,0-2.44-.88-2.44-2.92v-2h-2.46Zm-.42,7.37a11.46,11.46,0,0,0,2.26,3.41,9.39,9.39,0,0,0,1.85-3.41Z"/><path class="e" d="M182.38,532.05l-2.53.7v4.91c0,1.32-.24,2-1,2.37a7,7,0,0,1-3.37.49,9.61,9.61,0,0,0-.77-2.49c.86,0,1.76,0,2.05,0s.41-.11.41-.41v-4.21l-2.53.69-.52-2.56c.85-.17,1.93-.41,3-.68v-4.75h-2.77v-2.42h2.77V520h2.69v3.7H182v2.42h-2.18v4.09l2.22-.59Zm11.33-10.24v17.92H191v-1.68h-5.3v1.85H183V521.81ZM191,535.59V524.3h-5.3v11.29Z"/><path class="e" d="M203.87,521.73c-.55,1.87-1.23,4.09-1.82,5.8a7.64,7.64,0,0,1,1.51,4.54c0,1.45-.28,2.37-1,2.9a2.47,2.47,0,0,1-1.21.49,10.47,10.47,0,0,1-1.41.06,5.08,5.08,0,0,0-.55-2.26,4.89,4.89,0,0,0,.92,0,.79.79,0,0,0,.55-.18,1.67,1.67,0,0,0,.38-1.32,6.67,6.67,0,0,0-1.39-4c.4-1.34.81-3.15,1.14-4.6H199.3v17.29H197V520.87h4.79l.38-.09Zm3.92,12.71a20.23,20.23,0,0,1-3.19,4.87,15.94,15.94,0,0,0-1.94-1.43,12.64,12.64,0,0,0,2.84-4.07Zm3.83-1.34v4.73c0,1.19-.22,1.83-1,2.25a8.07,8.07,0,0,1-3.31.44,8.49,8.49,0,0,0-.85-2.38c1,0,1.91,0,2.24,0s.4-.09.4-.37V533.1h-5.24v-2.37h5.24v-1.81h-3.55V527.4a7.75,7.75,0,0,1-.9.55A9.35,9.35,0,0,0,203,526a16.56,16.56,0,0,0,6.8-6.29l2.18.83c-.18.31-.33.6-.53.88a18.71,18.71,0,0,0,5.78,4.29,7.64,7.64,0,0,0-1.71,2.11c-.33-.19-.68-.41-1-.66v1.72h-2.81v1.81h4.93v2.37Zm2.09-6.42a25.5,25.5,0,0,1-3.61-3.41,21.08,21.08,0,0,1-3.54,3.41Zm.46,7a22.27,22.27,0,0,1,3,4.27l-2.07,1.17a23.91,23.91,0,0,0-2.82-4.47Z"/><path class="e" d="M227.32,533.76h.07v6.78H225.1V540h-2.86v.57h-2.18V534.2c-.26.11-.52.22-.79.31a8.85,8.85,0,0,0-1.25-2.07,14.13,14.13,0,0,0,3.8-1.69l-1.14-.68,1.45-1.52,1.45.79a8.19,8.19,0,0,0,1.24-1.45h-2.67a9.56,9.56,0,0,1-2.42,2.46,5.53,5.53,0,0,0-1.27-1.71,7.76,7.76,0,0,0,3.17-4.07l2,.39a8,8,0,0,1-.38,1H226l.38-.06,0,0v-1.67h-5.92v1.89h-1.89v-4h3.87c-.15-.49-.33-1-.48-1.39l2.09-.73c.26.64.57,1.43.83,2.12h3.52v4h-1.71l.94.68a12.31,12.31,0,0,1-2.17,3.61c1.18.68,2.35,1.38,3.1,1.91Zm-.74,0c-.73-.53-1.7-1.14-2.73-1.78a14.42,14.42,0,0,1-2.8,1.78ZM225.1,538v-2.17h-2.86V538Zm10.32-1.76a25.75,25.75,0,0,1,3.59,2.58l-1.5,1.78a26.41,26.41,0,0,0-3.65-2.88l1.3-1.48h-3.28l1.56,1.63a26.48,26.48,0,0,1-4.73,2.84,11.77,11.77,0,0,0-1.08-1.91,20.78,20.78,0,0,0,4.16-2.56h-2.37V524.61h2.79c.09-.49.18-1,.24-1.52h-3.58v-2.2h9.83v2.2h-3.87c-.13.53-.31,1.06-.46,1.52h3.78V536.2Zm-3.67-8.31h3.94v-1.28h-3.94Zm0,3.17h3.94v-1.32h-3.94Zm0,3.14h3.94v-1.3h-3.94Z"/><path class="e" d="M258.35,531.43h-6.69v6.69h-2.25v-6.69h-6.69v-2.24h6.69V522.5h2.25v6.69h6.69Z"/><path class="e" d="M266,535.65a12.44,12.44,0,0,1-2.13,4,14.64,14.64,0,0,0-1.67-1.21,9.08,9.08,0,0,0,1.82-3.27Zm3.22-.88v5.62h-2.49v-5.62h-3.85v-1.95h3.85v-1h-4.18v-1.91h2.46a6.91,6.91,0,0,0-.79-1.7l1.56-.52h-3v-1.92h3.66c-.14-.33-.27-.66-.4-1l1.89-.48h-1v-.73h-4.2v-2.06H267V520h2.6v1.5h2.6v2.06h-2.6v.73h-.88c.22.44.46,1,.66,1.43h3.36v1.92h-3.14l1.89.46c-.29.63-.55,1.23-.79,1.76h2.4v1.91h-3.85v1h3.63v1.95Zm-2.95-7.12a8,8,0,0,1,1,2.13l-.24.09h1.41a18.45,18.45,0,0,0,.72-2.22Zm4.95,7.19a19,19,0,0,1,1.58,2.77l-1.76,1.08a21.69,21.69,0,0,0-1.49-2.9Zm11.29-2.42h-2.23v8h-2.46v-8h-1.72c0,2.62-.41,6-2,8.12a10.55,10.55,0,0,0-1.81-1.67c1.37-2,1.48-4.73,1.48-6.93v-5.88a33.19,33.19,0,0,0,6.66-1.61l1.9,1.87a39.42,39.42,0,0,1-6.19,1.41v2.45h6.41Zm-7-8.85H273v-2.06h2.57V520h2.6v1.5h4.24v2.06h-4.24v1.17h-2.6Z"/><path class="e" d="M298.25,523.93c1.19,1.16,3.52,1.71,6.49,1.87a8.59,8.59,0,0,0-1.45,2.09,10.43,10.43,0,0,1-5.76-2.23c-.84,1-2.66,1.83-6.36,2.25a7.59,7.59,0,0,0-.88-1.43h-5.83v-2h6.64v1.34c4.2-.44,4.76-1.43,4.76-2.25v-.33h-1.32a10,10,0,0,1-1.55,1.9,12,12,0,0,0-1.93-1.35,8.82,8.82,0,0,0,2.57-3.91l2.29.5c-.11.33-.24.66-.37,1h6.25l.39-.11,1.78.55a19.43,19.43,0,0,1-2,3.48l-2-.75a13.93,13.93,0,0,0,.77-1.28h-2.45v.69Zm.6,12.93c2,.75,4.18,1.63,5.48,2.27L302,540.54a40.59,40.59,0,0,0-5.72-2.6l1.34-1.08h-6.2l1.91.88a28.42,28.42,0,0,1-6.86,2.87,17.61,17.61,0,0,0-1.94-1.92,25.33,25.33,0,0,0,6-1.83h-3.17v-8.93h14.72v8.93ZM290.6,523H285v-1.91h5.64Zm-.73,7.44h9.53v-1h-9.53Zm0,2.42h9.53v-1h-9.53Zm0,2.46h9.53v-1h-9.53Z"/><path class="e" d="M314.6,533.08l-2.11.55v6.93H310v-6.31l-2.9.74-.64-2.66c1-.17,2.22-.44,3.54-.7v-4.84h-1.28a18.12,18.12,0,0,1-.79,2.92c-.44-.19-1.36-.55-1.85-.7a27.26,27.26,0,0,0,1.32-7.31l2,.31c-.06.77-.15,1.52-.26,2.29H310V520h2.49v4.27h1.89v2.49h-1.89v4.29l1.82-.42Zm12,0H324.5v4.59c0,1.3-.24,2-1.12,2.4a9.21,9.21,0,0,1-3.68.46,11.49,11.49,0,0,0-.79-2.59c1,0,2.22,0,2.58,0s.41-.09.41-.37V533h-7v-2.4h7V529.1h2.6v1.54h2.11Zm-7.48-8.7H315V522h4.14v-2h2.6v2h4.4v2.37h-4.4v1.88h3.65v2.42h-9.57v-2.42h3.32Zm-1.27,8.76a20.6,20.6,0,0,1,2.64,3.3l-2.07,1.34a19.8,19.8,0,0,0-2.51-3.45Z"/><path class="e" d="M338.67,530.48s0,.64,0,.95c-.22,5.3-.43,7.41-1.05,8.16a2.32,2.32,0,0,1-1.65.82,16.6,16.6,0,0,1-2.66.06,5.49,5.49,0,0,0-.66-2.26,17.69,17.69,0,0,0,2.15.11.81.81,0,0,0,.73-.29c.33-.37.53-1.78.68-5.26h-2.44c-.51,3-1.54,5.83-3.87,7.81a7.05,7.05,0,0,0-1.74-1.91c2.88-2.38,3.32-6.34,3.5-10h-2.2V521h9v7.66h-4.29c-.05.59-.09,1.21-.13,1.8Zm-6.87-4.13h4.14v-3H331.8Zm10.87,8.71h-2.55V522.67h2.55Zm5.22-14.61v16.94c0,1.54-.31,2.27-1.21,2.69a11.93,11.93,0,0,1-4.38.5,9.65,9.65,0,0,0-.9-2.7c1.43,0,2.83,0,3.3,0s.59-.13.59-.53V520.45Z"/><path class="e" d="M358.38,532.05l-2.53.7v4.91c0,1.32-.24,2-1,2.37a7,7,0,0,1-3.37.49,9.61,9.61,0,0,0-.77-2.49c.86,0,1.76,0,2.05,0s.41-.11.41-.41v-4.21l-2.53.69-.52-2.56c.85-.17,1.93-.41,3.05-.68v-4.75h-2.77v-2.42h2.77V520h2.69v3.7H358v2.42h-2.18v4.09l2.22-.59Zm11.33-10.24v17.92H367v-1.68h-5.3v1.85H359V521.81ZM367,535.59V524.3h-5.3v11.29Z"/><path class="e" d="M379.87,521.73c-.55,1.87-1.23,4.09-1.82,5.8a7.64,7.64,0,0,1,1.51,4.54c0,1.45-.28,2.37-1,2.9a2.47,2.47,0,0,1-1.21.49,10.47,10.47,0,0,1-1.41.06,5.08,5.08,0,0,0-.55-2.26,4.89,4.89,0,0,0,.92,0,.79.79,0,0,0,.55-.18,1.67,1.67,0,0,0,.38-1.32,6.67,6.67,0,0,0-1.39-4c.4-1.34.81-3.15,1.14-4.6H375.3v17.29H373V520.87h4.79l.38-.09Zm3.92,12.71a20.23,20.23,0,0,1-3.19,4.87,15.94,15.94,0,0,0-1.94-1.43,12.64,12.64,0,0,0,2.84-4.07Zm3.83-1.34v4.73c0,1.19-.22,1.83-1,2.25a8.07,8.07,0,0,1-3.31.44,8.49,8.49,0,0,0-.85-2.38c1,0,1.91,0,2.24,0s.4-.09.4-.37V533.1h-5.24v-2.37h5.24v-1.81h-3.55V527.4a7.75,7.75,0,0,1-.9.55A9.35,9.35,0,0,0,379,526a16.56,16.56,0,0,0,6.8-6.29l2.18.83c-.18.31-.33.6-.53.88a18.71,18.71,0,0,0,5.78,4.29,7.64,7.64,0,0,0-1.71,2.11c-.33-.19-.68-.41-1-.66v1.72h-2.81v1.81h4.93v2.37Zm2.09-6.42a25.5,25.5,0,0,1-3.61-3.41,21.08,21.08,0,0,1-3.54,3.41Zm.46,7a22.27,22.27,0,0,1,2.95,4.27l-2.07,1.17a23.91,23.91,0,0,0-2.82-4.47Z"/><path class="e" d="M403.32,533.76h.07v6.78H401.1V540h-2.86v.57h-2.18V534.2c-.26.11-.52.22-.79.31a8.85,8.85,0,0,0-1.25-2.07,14.13,14.13,0,0,0,3.8-1.69l-1.14-.68,1.45-1.52,1.45.79a8.19,8.19,0,0,0,1.24-1.45h-2.67a9.56,9.56,0,0,1-2.42,2.46,5.53,5.53,0,0,0-1.27-1.71,7.76,7.76,0,0,0,3.17-4.07l2,.39a8,8,0,0,1-.38,1H402l.38-.06,0,0v-1.67h-5.92v1.89h-1.89v-4h3.87c-.15-.49-.33-1-.48-1.39l2.09-.73c.26.64.57,1.43.83,2.12h3.52v4h-1.71l.94.68a12.31,12.31,0,0,1-2.17,3.61c1.18.68,2.35,1.38,3.1,1.91Zm-.74,0c-.73-.53-1.7-1.14-2.73-1.78a14.42,14.42,0,0,1-2.8,1.78ZM401.1,538v-2.17h-2.86V538Zm10.32-1.76a25.75,25.75,0,0,1,3.59,2.58l-1.5,1.78a26.41,26.41,0,0,0-3.65-2.88l1.3-1.48h-3.28l1.56,1.63a26.48,26.48,0,0,1-4.73,2.84,11.77,11.77,0,0,0-1.08-1.91,20.78,20.78,0,0,0,4.16-2.56h-2.37V524.61h2.79c.09-.49.18-1,.24-1.52h-3.58v-2.2h9.83v2.2h-3.87c-.13.53-.31,1.06-.46,1.52h3.78V536.2Zm-3.67-8.31h3.94v-1.28h-3.94Zm0,3.17h3.94v-1.32h-3.94Zm0,3.14h3.94v-1.3h-3.94Z"/><rect class="h" x="105.68" y="481.23" width="37.35" height="16.01" rx="8" ry="8"/><line class="i" x1="118.13" y1="480.67" x2="118.13" y2="496.32"/><line class="i" x1="130.58" y1="480.67" x2="130.58" y2="496.32"/><circle class="l" cx="331.07" cy="401.97" r="48"/><path class="n" d="M336.38,409.07h-9.77l-2.1,6.6H319l9.26-25.94h6.52l9.43,25.94h-5.69Zm-1.08-4-1-2.9c-.88-2.72-1.89-5.76-2.76-8.52h-.14c-.84,2.83-1.82,5.83-2.69,8.52l-1,2.9Z"/><rect class="l" x="326.64" y="423.67" width="8.95" height="56.67" rx="4.47" ry="4.47"/><path class="h" d="M598.07,493.69c-11.91-2.45-40.08-10.28-53.33-31.12a5.08,5.08,0,0,1-.54-.85l0,0h0a5.27,5.27,0,1,1,9.53-4.51h0v0a2.33,2.33,0,0,1,.11.28c1.24,2.64,11.49,16.08,36,21.52"/><path class="i" d="M552.64,460.6c-.2-.26-3.89-3.36-3.93-6.33"/><path class="i" d="M549.75,462.45s-4.91-4.8-4.4-7.27"/><circle class="l" cx="548.59" cy="401.97" r="48"/><path class="n" d="M538.52,389.73H548c6.1,0,10.26,1.57,10.26,6.46a5.81,5.81,0,0,1-3.84,5.62V402c3.18.66,5.34,2.69,5.34,6.11,0,5.27-4.15,7.61-11,7.61H538.52ZM548,400.35c3.35,0,5.17-1.12,5.17-3.39,0-2.44-1.75-3.28-5-3.28h-4.4v6.67Zm.73,11.34c3.88,0,5.94-1.05,5.94-3.94,0-2.52-2-3.56-6-3.56h-5v7.5Z"/><rect class="l" x="544.07" y="423.67" width="8.95" height="56.67" rx="4.47" ry="4.47" transform="translate(1097.09 904.01) rotate(180)"/><path class="h" d="M579.58,492.13a83.28,83.28,0,0,0,49.65,51.78c.31,5.47.72,13.62,1,22.18l7.62-.11-.28-19.43a83.62,83.62,0,0,0,43.36-.41c.28,5.25.6,12.1.8,19.23l7.62-.11-.3-21.85a83,83,0,1,0-113.57-76.07c0,1.54.09,3.08.2,4.6a63.6,63.6,0,0,0,3.93,20.19"/><path class="j" d="M720.12,584.48c.11,7.41-27.22,13.79-61,14.26s-61.3-5.15-61.41-12.55,27.23-13.79,61-14.26S720,577.08,720.12,584.48Z"/><rect class="k" x="672.4" y="582.92" width="17.18" height="3.41" transform="translate(-8.11 9.58) rotate(-0.8)"/><line class="i" x1="677.44" y1="565.43" x2="691.97" y2="565.23"/><path class="l" d="M681.7,565.37c.08,2.62.14,5.28.18,7.91,0,0-10.32-.54-9.49,9.75l17.18-.23-.25-17.54Z"/><rect class="k" x="620.91" y="583.63" width="17.18" height="3.41" transform="translate(-8.09 8.83) rotate(-0.8)"/><line class="i" x1="626.92" y1="566.13" x2="641.45" y2="565.93"/><path class="l" d="M630.2,566.09c.07,2.62.13,5.28.17,7.91,0,0-10.31-.54-9.48,9.75l17.17-.24L637.82,566Z"/><path class="k" d="M637,439.6c.52,2.28-1.93,4.77-5.47,5.57s-6.82-.4-7.34-2.68,1.94-4.76,5.48-5.56S636.52,437.33,637,439.6Z"/><path class="k" d="M667.93,442.71c-.75,2.21-4.14,3.06-7.58,1.91s-5.62-3.89-4.87-6.1,4.13-3.06,7.57-1.91S668.67,440.5,667.93,442.71Z"/><path class="i" d="M655.71,466.22l-26.9.38a4.4,4.4,0,0,1-4.45-4.34h0a4.4,4.4,0,0,1,4.33-4.45l26.9-.38"/><path d="M637.35,451.74a3.29,3.29,0,1,1-3.33-3.23A3.28,3.28,0,0,1,637.35,451.74Z"/><path d="M662.52,451.74a3.29,3.29,0,1,1-3.33-3.23A3.28,3.28,0,0,1,662.52,451.74Z"/><path class="i" d="M648,480a3.29,3.29,0,0,1-6.57.09"/><path class="i" d="M654.57,479.88A3.29,3.29,0,0,1,648,480"/><line class="i" x1="636.97" y1="475.44" x2="658.9" y2="475.13"/><path class="m" d="M631.67,544.79a83.16,83.16,0,0,1-53.88-59"/><path class="m" d="M679.07,546.64a83.87,83.87,0,0,1-41.11,0"/><path class="m" d="M685.23,544.8c-2,.69-4.08,1.3-6.16,1.84"/><path class="m" d="M575.45,467.34a83,83,0,1,1,115,75.49"/><path class="n" d="M700.47,469a12.19,12.19,0,1,1-12.36-12A12.19,12.19,0,0,1,700.47,469Z"/><path class="n" d="M615.82,470.18a12.19,12.19,0,1,1-12.36-12A12.19,12.19,0,0,1,615.82,470.18Z"/><rect class="d" x="517.72" y="491.74" width="276.84" height="80" rx="18.98" ry="18.98"/><path class="e" d="M558.42,532.49a13.1,13.1,0,0,0,4.29,2.55,9.11,9.11,0,0,0-1.74,2,14.67,14.67,0,0,1-3.45-2.31v1.63h-4v1.43h7.18V540H543.94v-2.16h6.91v-1.43H547V535a15.39,15.39,0,0,1-3.5,2.24,10.08,10.08,0,0,0-1.67-2,13.52,13.52,0,0,0,4.44-2.77H542v-2.14h4.21v-6.56h-3v-2.11h3V520h2.61v1.65h6.89V520h2.69v1.65h3v2.11h-3v6.56h4.07v2.14ZM557,534.31a14.11,14.11,0,0,1-1.58-1.82h-6.21a13.93,13.93,0,0,1-1.56,1.82h3.17V533h2.66v1.36Zm-8.23-10.52v1h6.89v-1Zm0,3.74h6.89v-1H548.8Zm0,2.82h6.89v-1H548.8Z"/><path class="e" d="M578.35,526.94a18.82,18.82,0,0,0,6.18,8,10.64,10.64,0,0,0-2.06,2.28,14.63,14.63,0,0,1-2.34-2.26v1.91H575.6v3.72h-2.77v-3.72h-4.62v-2a17.72,17.72,0,0,1-2.49,2.42,11.81,11.81,0,0,0-1.91-2.13,19.07,19.07,0,0,0,6.16-8.23h-5.39v-2.66h8.25V520h2.77v4.25h8.3v2.66Zm-5.52,7.24v-7.24h-.16a27,27,0,0,1-3.89,7.24Zm6.69,0a27.69,27.69,0,0,1-3.83-7.24h-.09v7.24Z"/><path class="e" d="M606.16,537.37v2.57H586.38v-2.57h8.49V533h-6v-2.53h6v-3.87h-4.55a18.48,18.48,0,0,1-2.05,3.19,21.82,21.82,0,0,0-2.35-1.57,19,19,0,0,0,3.89-7.87l2.71.59c-.31,1.06-.66,2.09-1,3.1h3.39v-4h2.75v4H605v2.56h-7.42v3.87h6.58V533h-6.58v4.42Z"/><path class="e" d="M612.14,530.62c-.9-.64-2.79-1.68-4.09-2.38l1.41-1.94c1.21.6,3.17,1.54,4.13,2.14Zm-3.78,7.92a66.24,66.24,0,0,0,4.18-6.93l1.91,1.76c-1.16,2.31-2.55,4.81-3.89,7Zm4.73-13.93a44,44,0,0,0-4-2.42l1.48-1.89c1.23.61,3.14,1.58,4.09,2.2Zm9.74,4.29v2.77h4.49v8.78h-2.48v-.79h-6.63v.9h-2.35v-8.89h4.49V528.9H614.5v-2.51h5.85v-2.57c-1.45.22-2.91.37-4.29.5a9,9,0,0,0-.73-2.24A43.54,43.54,0,0,0,625.61,520l2,2.07a28.11,28.11,0,0,1-4.8,1.3v3h5.59v2.51Zm2,5.15h-6.63v3.23h6.63Z"/><path class="e" d="M645.3,537.22c1.8.61,3.58,1.27,4.75,1.8l-1.91,1.56a50.84,50.84,0,0,0-6.25-2.53l.83-.83h-5.37L639,538a27.79,27.79,0,0,1-6.89,2.65,13.55,13.55,0,0,0-1.89-1.9,27.29,27.29,0,0,0,5.74-1.49H633v-6.54c-.5.11-1,.22-1.63.31a9.09,9.09,0,0,0-1.25-2,11.38,11.38,0,0,0,5.13-1.54h-3.55a36.43,36.43,0,0,0,.64-4h4.2v-.88h-5V521h5v-1H639v1h2.44v-1h2.49v1h4.66v3.94h-4.66v1H650s0,.41,0,.68c-.11,1.36-.24,2.13-.62,2.53a1.75,1.75,0,0,1-1.25.53l-.35,0v7.57Zm-11-11.33h2.09a4.46,4.46,0,0,0,.15-1h-2.09Zm1.27,4.37v.88h9.46v-.88Zm0,2.27v.9h9.46v-.9Zm0,3.21h9.46v-.92h-9.46Zm2.84-8.34a4.69,4.69,0,0,1-1,1.39h4V527.4Zm3-2.48H639c0,.33,0,.66-.09,1h2.53ZM639,523.4h2.44v-.88H639Zm4.93-.88v.88h2.29v-.88Zm0,4.88v1.39h2a3.49,3.49,0,0,0-.31-.73,6.69,6.69,0,0,0,1.23.07.55.55,0,0,0,.46-.13,1.25,1.25,0,0,0,.16-.6Z"/><path class="e" d="M655.42,532.22l-3.61-5.9h3.47l1.24,2.21c.35.68.72,1.38,1.1,2.06h.08c.29-.68.62-1.38.91-2.06l1-2.21H663l-3.6,6.28,3.85,6h-3.48l-1.36-2.25c-.4-.72-.8-1.47-1.19-2.18h-.11c-.35.71-.68,1.43-1,2.18l-1.14,2.25h-3.35Z"/><path class="e" d="M682.76,529.63c-.88.68-1.87,1.38-2.83,2a9.08,9.08,0,0,0,5.14,5.79,9.29,9.29,0,0,0-1.73,2.13,11,11,0,0,1-5.46-6.6c-.22.16-.46.29-.68.42.61,2.64.09,5.17-1,6.09a3.22,3.22,0,0,1-2.62,1c-.48,0-1.14,0-1.78,0a5.86,5.86,0,0,0-.7-2.49,17.22,17.22,0,0,0,2,.11,1.21,1.21,0,0,0,1.19-.53,3.22,3.22,0,0,0,.64-2.22,34.38,34.38,0,0,1-8.89,4.22,10.62,10.62,0,0,0-1.37-2.17,25.73,25.73,0,0,0,9.88-4.49q-.13-.41-.33-.84a36.52,36.52,0,0,1-7.92,3.59,11.41,11.41,0,0,0-1.3-2,27.47,27.47,0,0,0,8.23-3.23l-.62-.73a28.76,28.76,0,0,1-6.11,2.31,11.9,11.9,0,0,0-1.34-2,26.73,26.73,0,0,0,7.08-2.42H668.4v-2.23h12.3v2.23h-4.89a10.66,10.66,0,0,1-1.32,1,8.52,8.52,0,0,1,1.94,2.66,29,29,0,0,0,4.16-3.32Zm-15-2.91h-2.57v-5h8a10,10,0,0,0-.52-1.17l2.77-.79a10.68,10.68,0,0,1,.94,2h7.84v5h-2.69v-2.6H667.71Z"/><path class="e" d="M704.35,525.82V535h-2.69v-1.1H691.47a12.85,12.85,0,0,1-3.25,6.8,10.42,10.42,0,0,0-2-1.78c2.86-2.91,3.13-7.24,3.13-10.45v-6.38a74.66,74.66,0,0,0,12.45-2l2.07,2A74.28,74.28,0,0,1,692,524v1.83Zm-2.69,5.63v-3.21H692v.22c0,.9-.05,1.94-.13,3Z"/><path class="e" d="M719.88,520c0,.93-.07,2.11-.16,3.43.31,3,1.65,11.27,9.33,14.66a7,7,0,0,0-1.91,2.27c-4.89-2.34-7.33-6.63-8.6-10.41a18,18,0,0,1-8.1,10.54,8.39,8.39,0,0,0-2.18-2.14c8.93-4.77,8.51-14.63,8.6-18.35Z"/><path class="e" d="M749.25,522.17v17.91h-2.88v-1.74H734.7v1.78H732v-18Zm-2.88,13.46v-10.8H734.7v10.8Z"/><path class="e" d="M771.38,526.3a29.8,29.8,0,0,1-1.89,8.3,9.41,9.41,0,0,0,3.47,3.89,7,7,0,0,0-1.47,1.79,10.58,10.58,0,0,1-3.19-3.48,12.51,12.51,0,0,1-3.94,3.89,8.06,8.06,0,0,0-1-1.58L762,540.32a23.34,23.34,0,0,0-2.84-1.52,23.05,23.05,0,0,1-6.16,1.63,6.53,6.53,0,0,0-.94-1.67,27.32,27.32,0,0,0,4.64-1c-1-.4-2-.75-2.93-1a10.78,10.78,0,0,0,1-1.27l-2,.11-.2-1.74,3.39-.15a13.5,13.5,0,0,0,.77-1.37h-3.23v-4h3.94v-.62H754v-2.31h-1.67v-1.85H754v-2.22h3.35V520h2v1.34h3.54v2.22h1.5v1.85h-1.5v2.31h-3.54v.62h4V530c1.45-2.36,2.18-6.1,2.58-9.88l2.2.28c-.16,1.23-.33,2.47-.57,3.65h5.21v2.29Zm-15.8,4.45h1.81v-.82h-1.81Zm.62-7.75v.71h1.19V523Zm1.19,3.08v-.79H756.2v.79Zm-.6,9.86c.73.24,1.48.51,2.2.79a3.72,3.72,0,0,0,1.54-1.56l-3.34.18Zm6-.9a4.69,4.69,0,0,1-1.68,2.59c.8.36,1.5.71,2.12,1a9.74,9.74,0,0,0,3.91-4.21,33.26,33.26,0,0,1-1.3-4.37,10.47,10.47,0,0,1-.83,1.6,13.54,13.54,0,0,0-1.61-1.6v2.26H759c-.22.42-.46.84-.7,1.28l2.57-.13v-.77h2v.68l.7,0,0,1.65Zm-3.41-12v.71h1.27V523Zm1.27,3.08v-.79h-1.27v.79Zm-1.27,3.85v.82h1.76v-.82Zm7.74-3.63a37.76,37.76,0,0,0,1.12,5.28,28.5,28.5,0,0,0,.95-5.28Z"/><rect class="h" x="741.64" y="481.23" width="37.35" height="16.01" rx="8" ry="8"/><line class="i" x1="754.09" y1="480.67" x2="754.09" y2="496.32"/><line class="i" x1="766.54" y1="480.67" x2="766.54" y2="496.32"/><rect class="o" x="2.5" y="277.83" width="135.66" height="57.12" rx="24.04" ry="24.04"/><path class="n" d="M30.17,309.68a19.1,19.1,0,0,1-2,4.1,14.43,14.43,0,0,0-1.57-1.08,14.3,14.3,0,0,0,1.77-3.54Zm2.8-1.16v6.64h-2.3v-6.64H27v-2h3.72V305H26.83v-2h1.94a12,12,0,0,0-.58-2.08l1.64-.4h-2.7V298.6h3.42c-.18-.54-.4-1.1-.6-1.58l2.38-.58c.3.66.66,1.48.9,2.16h2.86v1.94h-2.5l1.62.32c-.3.76-.6,1.54-.9,2.16h2.08v2H33v1.54h3.1v2Zm-2.88-8a9.9,9.9,0,0,1,.66,2.08l-1.44.4h2.88a22.75,22.75,0,0,0,.86-2.48Zm15.22,4.86H43.45v9.82H41.13V305.4H39.27v.24c0,2.94-.26,7.06-2,9.62a8.88,8.88,0,0,0-1.84-1.42,7.83,7.83,0,0,0,.9-1.94l-1.42.88a24.16,24.16,0,0,0-1.56-3l1.56-.84a19.77,19.77,0,0,1,1.5,2.62,21.62,21.62,0,0,0,.62-5.92v-7.12a28.39,28.39,0,0,0,6.06-1.7L45,298.56a31,31,0,0,1-5.68,1.5v3.14h6Z"/><path class="n" d="M55.41,312.38c-.48-.78-1.3-2-2.08-3A11.71,11.71,0,0,1,50.27,315a8.77,8.77,0,0,0-1.7-1.62c2-1.78,2.76-4.42,3-6.9H48.83V304.3h2.9c0-.42,0-.84,0-1.22v-1.3h-2.6v-2.1h2.6v-2.86H54v2.86h2.5v2.1H54v1.32c0,.38,0,.78,0,1.2h2.82v2.16h-3l0,.44c.8.8,2.78,3.18,3.26,3.76Zm9.76.48c.28,0,.36-.18.42-1.36a5.75,5.75,0,0,0,1.92.82c-.24,2-.8,2.6-2.08,2.6H64.07c-1.76,0-2.14-.64-2.14-2.62v-3.48h-.82c-.34,3-1.22,5.18-4.74,6.52a5.45,5.45,0,0,0-1.3-1.78c2.92-1,3.54-2.6,3.82-4.74h-1.5v-11.5h8.88v11.5H64.13v3.46c0,.52,0,.58.34.58ZM59.59,300.6H64v-1.18H59.59Zm0,3.06H64v-1.18H59.59Zm0,3.06H64v-1.2H59.59Z"/><path class="n" d="M81.25,312.5a17.62,17.62,0,0,0,2.36.14c1.06,0,4.36,0,5.72,0a7.91,7.91,0,0,0-.86,2.42h-5c-3.74,0-6.48-.62-8.3-3.52a10.2,10.2,0,0,1-2.68,3.84,11.71,11.71,0,0,0-1.94-1.58c2.16-1.62,3.16-4.4,3.52-7.8l2.42.22c-.1.84-.26,1.66-.42,2.42a5.47,5.47,0,0,0,2.68,3.2V305H74.51v-2.28h11V305H81.25v2.36h5.48v2.24H81.25Zm-7.44-8.76H71.46v-5h7.43a15.29,15.29,0,0,0-.7-1.66l2.4-.66a12.52,12.52,0,0,1,1,2.32h6.94v5H86.11V301H73.81Z"/><path class="n" d="M110.81,308.28c-.34,3.88-.68,5.56-1.3,6.2a2.13,2.13,0,0,1-1.5.74,17.27,17.27,0,0,1-2.38,0,5.2,5.2,0,0,0-.64-2.12,15.66,15.66,0,0,0,1.94.1.86.86,0,0,0,.66-.22c.32-.32.58-1.32.82-3.6H96.51c-.32.24-.66.46-1,.68l1.82.58A8.36,8.36,0,0,1,95,315.2L93.11,314a7.22,7.22,0,0,0,2.16-3.78c-.48.3-1,.56-1.48.82A14.7,14.7,0,0,0,92.54,309a18.2,18.2,0,0,0,7.67-6.86H93.79V300h3.36a16.64,16.64,0,0,0-1.26-2.54l2.06-.8a13.8,13.8,0,0,1,1.54,2.92l-1,.42h2.9a22.65,22.65,0,0,0,1.38-3.42l2.38.66q-.51,1.41-1.14,2.76h3.92c-.2,1.2-.5,2.56-.76,3.66h2.28c-.22,1.2-.48,2.6-.72,3.68h2.14Zm-10.88,2.38a13.89,13.89,0,0,1,.54,3.68l-2.06.26a13.75,13.75,0,0,0-.4-3.7Zm.5-4.9a18.93,18.93,0,0,1-1.5,1.62h7.64c.12-.48.24-1,.36-1.62Zm2.46,4.54a15.88,15.88,0,0,1,1,3.24L102,314a17.42,17.42,0,0,0-.92-3.32Zm0-8.18c-.3.54-.62,1.06-1,1.58H105c.12-.48.24-1,.34-1.58ZM105.15,313a11.33,11.33,0,0,0-1.18-2.7l1.64-.56a10.39,10.39,0,0,1,1.3,2.64Z"/><rect class="o" x="2.5" y="2.5" width="243.61" height="57.12" rx="24.04" ry="24.04"/><path class="n" d="M35.25,34.32c-2.64,1.18-5.6,2.45-7.87,3.39l-.8-2.55c.76-.26,1.67-.58,2.67-1l-.4-11.68,2.48-.1.36,10.83c1-.42,2-.84,3-1.24ZM43.53,40a35,35,0,0,0-3.74-4.82A14.28,14.28,0,0,1,33.71,40a14,14,0,0,0-1.9-2.1c6.34-2.4,8.4-7.25,9.14-15.47l2.62.24a30.91,30.91,0,0,1-2.44,10.16A44.45,44.45,0,0,1,45.57,38ZM36,29.68a20.38,20.38,0,0,0-3-5l2.16-1.08a20.39,20.39,0,0,1,3.16,4.8Z"/><path class="n" d="M51.15,31.9c-.5.5-1,1-1.5,1.41a16.45,16.45,0,0,0-1.15-2.47,17.69,17.69,0,0,0,4.61-5.14l2.1.84A24.47,24.47,0,0,1,53.61,29V40H51.15Zm3.7-9.72A19.8,19.8,0,0,1,50,27.24a16.1,16.1,0,0,0-1.21-2,13.94,13.94,0,0,0,3.84-3.9Zm12.4,15v2.26H54.59V37.13h5.28V33.05h-4V30.78h4V27.26H55.21V25h5.1a15.66,15.66,0,0,0-1.4-3.06l2.2-.74a15,15,0,0,1,1.56,3.1l-1.92.7h6v2.26H62.35v3.52h3.78v2.27H62.35v4.08Z"/><path class="n" d="M77.05,22.06a30.31,30.31,0,0,1-1.9,4.1V39.93H72.87V29.7c-.44.6-.91,1.14-1.34,1.62a16.23,16.23,0,0,0-1.28-2.48,21.2,21.2,0,0,0,4.54-7.48Zm7.08,5V37.31c0,1.14-.2,1.8-.92,2.2a6.3,6.3,0,0,1-2.94.48,8.13,8.13,0,0,0-.82-2.4c.84,0,1.68,0,2,0s.36-.08.36-.34V27.06H79.45a17,17,0,0,1-1.88,3.06,16.71,16.71,0,0,0-1.92-1.56,17.73,17.73,0,0,0,3.4-7.2l2.32.52a30.32,30.32,0,0,1-.94,3h6.88l.38-.08,1.68.32c-.24,1.62-.58,3.48-.86,4.64l-2-.34c.1-.62.22-1.46.32-2.34Zm-3.32,3.6a20.6,20.6,0,0,1-2.72,6.69,14.72,14.72,0,0,0-2-1.28,14.57,14.57,0,0,0,2.44-5.89ZM87,30a24.85,24.85,0,0,1,2.18,6.52l-2.28.79a25.25,25.25,0,0,0-2-6.59Z"/><path class="n" d="M110.85,24.36s0,.8,0,1.08c-.26,9-.48,12.13-1.3,13.19a2.67,2.67,0,0,1-1.92,1.1,22.42,22.42,0,0,1-3.14,0,5.6,5.6,0,0,0-.78-2.32c1.28.12,2.46.12,3,.12a1.07,1.07,0,0,0,.88-.34c.58-.65.84-3.65,1.06-10.71h-4.28a17.25,17.25,0,0,1-1.76,3.16A14.86,14.86,0,0,0,101,28.56V37.9H95.69v1.47H93.53V24.5h2.26a21.45,21.45,0,0,0,.58-3.22l2.6.36c-.34,1-.7,2-1,2.86H101v3.24a20.69,20.69,0,0,0,2.7-6.44l2.26.52a23.21,23.21,0,0,1-.78,2.54Zm-12,2.22H95.69v3.24h3.18Zm0,9.23V31.88H95.69v3.93Zm6.64-1.08a42.85,42.85,0,0,0-2.78-4.63L104.59,29a47,47,0,0,1,2.94,4.45Z"/><path class="n" d="M130.79,37.63c.32,0,.4-.26.46-2.16a5.44,5.44,0,0,0,2,.92c-.24,2.68-.82,3.42-2.22,3.42h-1.36c-1.82,0-2.2-.72-2.2-2.81V33h-1c-.28,3.19-1.08,5.65-4.4,7.09a7,7,0,0,0-1.38-1.85c2.74-1.08,3.26-2.9,3.48-5.24h-1.26V27.6c-.16.14-.3.28-.46.4a9.46,9.46,0,0,0-.82-.92v2.06h-2.06v.3c.5.48,2,2.29,2.34,2.71l-1.34,1.92c-.2-.5-.6-1.29-1-2V40h-2.16V32.58a18.08,18.08,0,0,1-2,4.29,14.6,14.6,0,0,0-1.09-2.37,21.08,21.08,0,0,0,2.44-5.36h-2.14V26.92h2.76V24.5c-.66.12-1.32.24-1.94.32a9.69,9.69,0,0,0-.66-1.84,26.35,26.35,0,0,0,5.8-1.62L122,23.3a16.34,16.34,0,0,1-2.42.74v2.88h1.9a8.94,8.94,0,0,0-.7-.64,12.84,12.84,0,0,0,3.88-4.68l2.2.7a18.9,18.9,0,0,1-3,4.32H131a38,38,0,0,0-3.34-4.16l1.66-1.14a32.22,32.22,0,0,1,4.22,5.22l-1.8,1.3c-.08-.16-.18-.32-.3-.52V33h-1.6v4c0,.58,0,.64.32.64Zm-5.6-6.71h3.86V28.7h-3.86Z"/><path class="n" d="M147.43,37.39c.52,0,1.06.06,1.6.06,1.12,0,5,0,6.38-.06a8.09,8.09,0,0,0-.8,2.28h-5.7c-3.66,0-6.14-.52-7.82-2.85a9,9,0,0,1-2.8,3.19,9.59,9.59,0,0,0-1.8-1.66,8.47,8.47,0,0,0,3.72-6.07l2.38.37c-.14.63-.3,1.24-.46,1.82A4.43,4.43,0,0,0,145,37V31.88h-7.8v-2.1h17.64v2.1h-7.42v1.51h6.16v2.06h-6.16ZM153,28.9h-13.9V22H153Zm-2.42-5.28h-9.16v1h9.16Zm0,2.58h-9.16v1h9.16Z"/><path class="n" d="M164.53,30.86a17.13,17.13,0,0,1-1.68,5c.3.18.66.4,1.12.66,1.38.77,3.28.9,5.56.9a65.41,65.41,0,0,0,8.12-.55,9.92,9.92,0,0,0-.72,2.53c-1.62.12-5.16.24-7.5.24-2.62,0-4.32-.22-5.78-1-.84-.44-1.52-1-1.94-1S160.51,38.9,160,40l-1.55-2.3a7.73,7.73,0,0,1,1.9-1.69A11.87,11.87,0,0,0,162,32.4h-2.8c.52-1.18,1.12-2.78,1.64-4.34h-2V25.94h5c-.48,1.42-1.06,3-1.58,4.4h.52l.36-.06Zm-3.42-5.46c-.34-.92-1-2.38-1.48-3.46l2.06-.76c.5,1.1,1.16,2.44,1.54,3.3Zm15.94-.06H164.33V23.5h5.3a15,15,0,0,0-.86-1.7l2.3-.72a16.87,16.87,0,0,1,1.18,2.16l-.8.26h5.6Zm-11.5,6h10v5.07h-10Zm9.82-3.5h-9.6V26.12h9.6Zm-9.6.9h9.6v1.68h-9.6Zm2,6h5.44V33h-5.44Z"/><path class="n" d="M186.65,33.66c-.24-.58-.66-1.48-1.1-2.34V40h-2.16V32.47a17,17,0,0,1-1.82,3.93,11.64,11.64,0,0,0-1-2.09,20.14,20.14,0,0,0,2.68-6.71H181V25.4h2.4V21.28h2.16V25.4h2v2.2h-2v.88c.54.74,2,2.94,2.32,3.48Zm5.44.83A8.24,8.24,0,0,1,188,39.65a9.68,9.68,0,0,0-1.22-1.52,6.43,6.43,0,0,0,2.78-2.5h-2.18V34h3.12l.34-.05Zm7.14-1c-1,.72-2,1.47-2.94,2a9.13,9.13,0,0,0,3.32,2.16,9.06,9.06,0,0,0-1.4,1.74,9.82,9.82,0,0,1-3.68-3.21v1.57c0,1-.18,1.52-.86,1.84a6.62,6.62,0,0,1-2.76.34,6.44,6.44,0,0,0-.6-1.94c.7,0,1.46,0,1.68,0s.32-.06.32-.28V33.34H189V31.73h4.8a27.73,27.73,0,0,0-2.82-1l.58-.64h-4.08V28.32h4.76v-.78h-3.48V25.92h3.48v-.74h-4.2V23.5h2.12a12.36,12.36,0,0,0-.9-1.58l1.74-.64a11.68,11.68,0,0,1,1.22,2l-.52.22H195l-.4-.14a18.33,18.33,0,0,0,1-2.08l2.1.6-1.2,1.62H199v1.68h-4.4v.74h3.92v1.62h-3.92v.78h4.74v1.74h-5a15.89,15.89,0,0,1,2.5,1.09l-1.26,1.42c-.28-.17-.62-.34-1-.53v1a7.69,7.69,0,0,0,.72,1.24,22,22,0,0,0,2.24-2.06Z"/><path class="n" d="M221.09,24.26h-2.68a7.79,7.79,0,0,1,1,1.18l-1.14.5h.9v7.69h-2.3v1.21h4.22v1.89h-4.22v3.2h-2.46v-3.2h-4.5c-.54,1.28-1.9,2.46-4.94,3.28a8.78,8.78,0,0,0-1.48-1.74,7.07,7.07,0,0,0,3.6-1.54H203V34.84h4.77V33.63h-2.44V25.94h2.78a6.54,6.54,0,0,0-.7-1.18l1.4-.48h-2.44A16,16,0,0,1,204,27a15.17,15.17,0,0,0-1.54-1.86,11.22,11.22,0,0,0,3.17-4l2.16.68c-.12.26-.24.5-.38.76h4.76v1.68a9.19,9.19,0,0,0,2-3.12l2.28.54c-.12.3-.26.6-.4.88h5.06Zm-13.36,3.8h8.88v-.7h-8.88Zm0,2.06h8.88v-.74h-8.88Zm0,2.08h8.88v-.74h-8.88Zm1.8-7.92a7.8,7.8,0,0,1,.72,1.18l-1.38.48H213a18.29,18.29,0,0,0-1.74-.9,6,6,0,0,0,.84-.76Zm4.84,9.35h-4.2v1.21h4.2Zm2.9-7.69a8.23,8.23,0,0,0-1-1.24l1.06-.44H215a12,12,0,0,1-1.4,1.68Z"/></g></svg>