<svg xmlns="http://www.w3.org/2000/svg" viewBox="0 0 752 1080"><defs><style>.a,.c{fill:#fff;}.a,.b,.c{stroke:#000;stroke-width:5px;}.a,.b{stroke-miterlimit:10;}.b{fill:none;}.c{stroke-linecap:round;stroke-linejoin:round;}</style></defs><title>hurt-1</title><path class="a" d="M406.44,395.59l-61,.85a10,10,0,0,1-10.11-9.83h0a10,10,0,0,1,9.83-10.1l61-.85"/><line class="b" x1="353.8" y1="377.3" x2="338.12" y2="392.98"/><line class="b" x1="371.45" y1="375.8" x2="350.5" y2="396.75"/><line class="b" x1="386.47" y1="375.8" x2="365.53" y2="396.75"/><line class="b" x1="401.5" y1="375.8" x2="380.55" y2="396.75"/><line class="b" x1="393.82" y1="383.47" x2="400.96" y2="395.67"/><path class="c" d="M382.46,370.45l4.92-14.3a3.16,3.16,0,0,0-3-4.19h-9.84a3.17,3.17,0,0,0-3,4.19l4.92,14.3A3.16,3.16,0,0,0,382.46,370.45Z"/><path class="c" d="M386.85,373.86l12.68-8.25a3.17,3.17,0,0,0,.22-5.14L392,354.42a3.16,3.16,0,0,0-4.93,1.46l-4.92,14.31A3.16,3.16,0,0,0,386.85,373.86Z"/></svg>