<svg xmlns="http://www.w3.org/2000/svg" viewBox="0 0 460.97 130.55"><defs><style>.a{fill:#fff;stroke:#000;stroke-linecap:round;stroke-linejoin:round;stroke-width:3px;}.b{fill:#1a1a1a;}</style></defs><title>flow-4-m</title><rect class="a" x="1.5" y="1.5" width="120.23" height="54.01"/><path d="M38.23,25.32A20.73,20.73,0,0,1,36,32.13,10.19,10.19,0,0,0,39.45,35,7.8,7.8,0,0,0,38,36.79,11.39,11.39,0,0,1,34.74,34a12.17,12.17,0,0,1-3.59,3,9.42,9.42,0,0,0-1.39-1.76,10.11,10.11,0,0,0,3.76-3,20,20,0,0,1-1.72-3.95,11.69,11.69,0,0,1-.94,1.3,10.94,10.94,0,0,0-1.3-1.68v9.09H27.42V32.21c-2.88,1-3.48,1.34-3.88,1.66a7.87,7.87,0,0,0-.83-2,1.32,1.32,0,0,0,.67-1.29V21.88H25.5v8.84l1.92-.58V20.22h2.14v7.13c1.41-1.75,2.24-4.51,2.68-7.42l2.19.36c-.18,1-.38,2-.63,3h5.52v2Zm-5.09,0c0,.17-.12.33-.18.49a19.53,19.53,0,0,0,1.72,4.35,17.11,17.11,0,0,0,1.42-4.84Z"/><path d="M48.64,33.24c1.14-.2,2.32-.4,3.46-.58l.11,1.85c-3.17.61-6.59,1.23-9.06,1.66l-.47-2c1.09-.14,2.45-.36,3.91-.6V31.12H43.3V29.25h3.29V27.64h2v1.61H51.9v1.87H48.64ZM42.86,21h9.42v1.84H49.73a20.14,20.14,0,0,1,2.51,3.86l-1.63,1.07c-.11-.27-.25-.58-.41-.91-5,.42-5.78.51-6.31.73-.12-.44-.47-1.4-.68-2a1.74,1.74,0,0,0,.83-.76,13.93,13.93,0,0,0,1.12-2h-2.3Zm6.34,4.22c-.34-.53-.71-1-1.05-1.49l1.52-.89H47.5a21.44,21.44,0,0,1-1.58,2.56ZM55,32.55H53V21.61h2Zm3.57-12.42v14c0,1.14-.22,1.68-.91,2a7.81,7.81,0,0,1-3.13.4,8.78,8.78,0,0,0-.73-2.06c1,0,1.94,0,2.25,0s.42-.1.42-.41v-14Z"/><path d="M76.83,34.73c.29,0,.36-.24.42-2a4.74,4.74,0,0,0,1.85.83c-.22,2.43-.75,3.1-2,3.1H75.85c-1.64,0-2-.65-2-2.54V30.54h-.92c-.26,2.88-1,5.11-4,6.41a6,6,0,0,0-1.25-1.66c2.48-1,3-2.63,3.15-4.75H69.71V25.65c-.14.13-.27.25-.41.36-.17-.21-.44-.52-.75-.83v1.87H66.69v.27c.45.43,1.83,2.06,2.12,2.44L67.59,31.5c-.18-.45-.54-1.16-.9-1.83v7.17h-2V30.16A16.54,16.54,0,0,1,63,34a13.12,13.12,0,0,0-1-2.14,19.07,19.07,0,0,0,2.21-4.85H62.23V25h2.5V22.84c-.6.11-1.19.22-1.75.29a7.91,7.91,0,0,0-.6-1.66A23.77,23.77,0,0,0,67.63,20l1.25,1.76a14.8,14.8,0,0,1-2.19.67V25h1.72c-.24-.23-.45-.43-.63-.57a11.71,11.71,0,0,0,3.51-4.24l2,.63a16.73,16.73,0,0,1-2.7,3.91H77A34.06,34.06,0,0,0,74,21l1.5-1a29.35,29.35,0,0,1,3.82,4.73l-1.63,1.18a4.94,4.94,0,0,0-.27-.47v5.14H75.94v3.61c0,.52,0,.58.29.58Zm-5.07-6.07h3.5v-2h-3.5Z"/><path d="M98.68,34.54h-7v2.3H89.43v-2.3H82.55V32.7h6.88v-1H84.27V25H97.11v6.79H91.64v1h7Zm-8.6-10.28H83.62V20.63h6.46Zm-2-2.34H85.53v1h2.54Zm-1.7,5.67h3.06v-1H86.37Zm3.06,2.52v-1H86.37v1Zm8.26-5.85h-6.5V20.63h6.5ZM94.9,26.63H91.64v1H94.9Zm0,2.5H91.64v1H94.9Zm.78-7.21H93.09v1h2.59Z"/><rect class="a" x="169.75" y="1.5" width="120.23" height="54.01"/><path d="M206.47,22.34V33.06h-2.25v-.87h-4v4.64h-2.26V32.19H194v1h-2.15V22.34h6.09V19.91h2.26v2.43ZM194,24.4v1.83h3.94V24.4Zm3.94,5.72V28.2H194v1.92Zm2.26-5.72v1.83h4V24.4Zm4,5.72V28.2h-4v1.92Z"/><path d="M217.09,24.58h-6.41v-1.7h2.75a17,17,0,0,0-.85-2.37l1.81-.53a22.69,22.69,0,0,1,1,2.41l-1.43.49h3.15Zm-.51,4.87h-5.43V27.82h5.43Zm0,6.4H213v.72h-1.83V30.38h5.45Zm-5.43-10.49h5.43V27h-5.43ZM213,32.08v2.08h1.76V32.08Zm13.62,2.81c0,.9-.16,1.37-.8,1.65a6.62,6.62,0,0,1-2.59.29,6.23,6.23,0,0,0-.56-1.71c.67,0,1.43,0,1.65,0s.31-.07.31-.27v-.76H219.7A6.5,6.5,0,0,1,218.38,37a7.89,7.89,0,0,0-1.53-1.36A6.61,6.61,0,0,0,218,31.25V28h8.57Zm.87-9.15v1.54H217.18V25.74h4v-.8h-3.29V23.51h3.29v-.72h-3.75V21.25h3.75V19.93h2.08v1.32h3.95v1.54h-3.95v.72h3.59v1.43h-3.59v.8Zm-2.86,7v-.86H220l-.06.86ZM220,29.6v.85h4.64V29.6Z"/><path d="M246.41,31a9,9,0,0,1-2.65,3.06,22.16,22.16,0,0,0,3.73.78,9.14,9.14,0,0,0-1.3,1.9,19.25,19.25,0,0,1-4.57-1.41,22,22,0,0,1-5.23,1.57,6.53,6.53,0,0,0-1-1.79,21.33,21.33,0,0,0,4.15-.94,13.51,13.51,0,0,1-1.29-1A11.06,11.06,0,0,1,237,34a12.58,12.58,0,0,0-1.45-1.36,8.71,8.71,0,0,0,1.43-.8,12.53,12.53,0,0,1-1-1.37l1.56-.56a6.66,6.66,0,0,0,.76.94,10.18,10.18,0,0,0,1-1.16h-1.59V25.09l-.49.51a12,12,0,0,0-1-.82,20.47,20.47,0,0,1-1.38,2.1v10h-2.19v-7.3a18.5,18.5,0,0,1-1.38,1.32,17.07,17.07,0,0,0-1.05-2.23,16.24,16.24,0,0,0,4.13-4.71l1.5.64a3.09,3.09,0,0,0-.29-.2,10.44,10.44,0,0,0,3-4.42l2,.5a10.28,10.28,0,0,1-.47,1.15h7.08V23.3h-8l-.49.76h7.52v5.65h-4.57q-.21.38-.45.72h3.62l.34-.07ZM236,20.74a18.68,18.68,0,0,1-4.48,4.64,17.18,17.18,0,0,0-1.08-1.83A12.42,12.42,0,0,0,233.94,20Zm3.62,11.32a12,12,0,0,0,2,1.2,8.37,8.37,0,0,0,1.7-1.27h-3.62Zm0-5.85h4.45v-.74h-4.45Zm0,2.07h4.45v-.76h-4.45Z"/><path d="M253.55,27.86a13.56,13.56,0,0,1-1.88.91,9.47,9.47,0,0,0-1.38-1.72,13.86,13.86,0,0,0,5.36-3.23h-4.83V22h6.92v-2h2.13v2h7.07v1.86h-4.59A42.4,42.4,0,0,1,267,27l-1.38,1.56a45,45,0,0,0-5.74-4.11v2.6h-2.13V24.33A15.84,15.84,0,0,1,254,27.59h10v6H253.55Zm-2.61,6.59h15.83v1.89H250.94Zm4.75-4.56h6.08V29h-6.08Zm0,2.3h6.08v-.94h-6.08Z"/><rect class="b" x="129.17" y="26.09" width="18.13" height="5.8"/><polygon class="b" points="162.43 29.73 144.73 19.52 144.73 39.95 162.43 29.73"/><rect class="a" x="339.24" y="1.5" width="120.23" height="54.01"/><path d="M364.11,30.11v4.22c0,1-.16,1.52-.7,1.84a4.4,4.4,0,0,1-2.5.42,7,7,0,0,0-.57-2c.67,0,1.29,0,1.51,0s.31-.08.31-.31V30.69l-1.67.47L360,29.07c.62-.12,1.34-.32,2.16-.52V25.34h-2v-2h2V19.93h1.95v3.42h1.81v2h-1.81V28l1.63-.43.29,1.94Zm8.24,4.56c.42,0,.82.06,1.27.06.62,0,2.86,0,3.64,0a6.35,6.35,0,0,0-.58,1.88h-3.15c-2.37,0-4.2-.43-5.43-2.63a8,8,0,0,1-1.9,2.85,11.1,11.1,0,0,0-1.58-1.29c1.5-1.19,2.25-3.2,2.52-5.67l1.95.24a17.6,17.6,0,0,1-.34,1.83A4.1,4.1,0,0,0,370.32,34V29.31h-4.25V27.57h10.7v1.74h-4.42V30.9h3.46v1.69h-3.46Zm3.52-7.93H367V20.49h8.91ZM373.8,22h-4.87v.91h4.87Zm0,2.3h-4.87v.93h4.87Z"/><path d="M385.75,33.93a11.86,11.86,0,0,0,3.62.4c1.38,0,6.18,0,7.81-.08a7.43,7.43,0,0,0-.82,2.14h-7c-3.35,0-5.51-.45-6.94-2.48a13,13,0,0,1-.83,3.19,18.12,18.12,0,0,0-1.81-.93c.89-1.83,1.07-4.85,1.1-8l2,.15c0,.79-.06,1.59-.09,2.33a5.67,5.67,0,0,0,1,1.92V27.17h-3.51V25.29h3.06V23.6h-2.55V21.74h2.55V20h2v1.76h2.41V23.6h-2.41v1.69h2.84v1.88h-2.44v2h2.3V31h-2.3Zm5.88-.44c-2,0-2.68-.61-2.68-2.91V20.63h7v6.89H391v3.06c0,.83.11,1,.87,1h2.33c.69,0,.82-.42.93-2.34a6,6,0,0,0,1.88.83c-.24,2.57-.82,3.44-2.63,3.44Zm-.59-11v3.13h2.84V22.52Z"/><path d="M406.77,24.62H400v-1.7h2.85a17.28,17.28,0,0,0-.93-2.47l1.83-.52a18,18,0,0,1,1,2.44l-1.65.55h3.64Zm-6,2.44V25.43H406v1.63Zm5.34,2.43h-5.34V27.86h5.34Zm7.83-.34c1.06.94,2.39,2.06,3.06,2.77l-1.24,1.57c-.43-.49-1.1-1.16-1.82-1.84v5.18h-2.05V27.59h-2.12v.14c0,2.76-.29,6.72-2.05,9.11a8.17,8.17,0,0,0-1.61-1.28v.29h-3.44v.76h-1.83V30.36h5.27V35.3c1.41-2.15,1.54-5.21,1.54-7.58v-6A34.28,34.28,0,0,0,414.36,20l1.88,1.56a38.35,38.35,0,0,1-6.52,1.63v2.41h6.95v2h-2.78Zm-9.57,2.93h-1.7v2h1.7Z"/><path d="M426.77,30.45v4.6c0,.78-.11,1.21-.61,1.49a4.18,4.18,0,0,1-2,.29,6.24,6.24,0,0,0-.52-1.62c.49,0,1,0,1.16,0s.23,0,.23-.22V30.45h-1.88V23.88h1.61c.06-.46.13-.95.18-1.4h-2.48v5.14c0,2.72-.18,6.6-1.3,9a7.23,7.23,0,0,0-1.52-1.11c.94-2.21,1-5.41,1-7.88v-7h8v1.85H427c-.14.49-.29,1-.43,1.4h2.11v6.57Zm-2,1.07a13.19,13.19,0,0,1-1.25,3.82,10.6,10.6,0,0,0-1.45-.8,9.25,9.25,0,0,0,1.1-3.35ZM427,25.36H424.8v1.11H427ZM424.8,29H427V27.84H424.8Zm3.08,5.58a19.56,19.56,0,0,0-1-2.9l1.36-.49A18,18,0,0,1,429.33,34Zm4.62-.11a12.48,12.48,0,0,1-3.34,2.44,13.84,13.84,0,0,0-1.34-1.3,9.33,9.33,0,0,0,3-2.18Zm-.93-10.71c.08-.41.13-.85.17-1.26H429V20.63h7.68v1.82h-2.79l-.38,1.26h2.77v9.58h-6.79V23.71Zm2.77,1.58h-3.09v1.16h3.09Zm0,2.62h-3.09v1.16h3.09Zm0,2.65h-3.09v1.18h3.09Zm.26,2.84a22.38,22.38,0,0,1,2.46,2.34l-1.61,1.09a20,20,0,0,0-2.39-2.45Z"/><rect class="b" x="298.66" y="26.09" width="18.13" height="5.8"/><polygon class="b" points="331.92 29.73 314.22 19.52 314.22 39.95 331.92 29.73"/><rect class="a" x="105.92" y="75.04" width="120.23" height="54.01"/><path d="M133.6,98.17a24.39,24.39,0,0,1-1.94,2.77v9.46H129.5v-7.08c-.51.49-1,.94-1.48,1.34a21.39,21.39,0,0,0-1.47-1.87,17.7,17.7,0,0,0,5-5.41Zm-.68-3.86a24.18,24.18,0,0,1-5,4.77,12.65,12.65,0,0,0-1.19-1.76,16.13,16.13,0,0,0,4.09-3.86Zm10.66,7.21h-2.49v6.36c0,1.16-.21,1.76-1,2.08a9.86,9.86,0,0,1-3.53.37,8.92,8.92,0,0,0-.65-2.2c1,.06,2.22.06,2.55,0s.45-.07.45-.34v-6.31h-5.34v-2h10Zm-.46-5h-8.8v-2h8.8Z"/><path d="M162.51,98.75a20.82,20.82,0,0,1-2.1,7,8.75,8.75,0,0,0,3.39,2.78,8.2,8.2,0,0,0-1.47,1.85,9.84,9.84,0,0,1-3.24-2.75,11.69,11.69,0,0,1-3.7,2.81,8.47,8.47,0,0,0-1.21-1.91,9.06,9.06,0,0,0,3.69-2.8,20.79,20.79,0,0,1-1.48-4,9.25,9.25,0,0,1-.63.89,11.85,11.85,0,0,0-1-1v.16H152.7v3.72l2.55-.55.18,2c-3,.69-6.18,1.38-8.49,1.9l-.38-2.19.94-.16V98.77h1.94v7.37l1.15-.22V96.6H147V94.53h8.3V96.6H152.7v3.17h2.06v.45A18.2,18.2,0,0,0,157,93.46l2.13.33c-.16,1-.4,2-.65,3h5.14v2Zm-4.76.24a21.72,21.72,0,0,0,1.37,4.56,17.53,17.53,0,0,0,1.22-4.8h-2.5Z"/><path d="M173.44,98.15h-6.77v-1.7h2.84a18.35,18.35,0,0,0-.92-2.46l1.83-.53a18,18,0,0,1,1,2.45l-1.65.54h3.64Zm-6.05,2.45V99h5.31v1.63Zm5.35,2.43h-5.35V101.4h5.35Zm7.82-.35c1.07.94,2.39,2.07,3.06,2.77L182.39,107c-.43-.49-1.1-1.16-1.83-1.85v5.18h-2.05v-9.24H176.4v.15c0,2.75-.29,6.72-2.05,9.11a8.84,8.84,0,0,0-1.61-1.29v.29H169.3v.76h-1.83V103.9h5.27v4.94c1.41-2.15,1.54-5.22,1.54-7.59v-6A34.16,34.16,0,0,0,181,93.52l1.89,1.55a39.56,39.56,0,0,1-6.52,1.64v2.4h6.95v2h-2.79ZM171,105.62h-1.7v2H171Z"/><path d="M193.59,98.15h-7v-1.7h3.09a21.8,21.8,0,0,0-1.12-2.28l1.78-.72a19.74,19.74,0,0,1,1.28,2.4l-1.25.6h3.24Zm-.52,11.23h-3.9v.76h-1.84V103.9h5.74ZM193,100.6h-5.6V99H193Zm-5.6.8H193V103h-5.6Zm1.79,4.22v2h2v-2Zm8.68-11.4a24,24,0,0,1-2.75,8.3,13.62,13.62,0,0,0-1.76-1.21,19.06,19.06,0,0,0,2.46-7.43Zm2.86,9.17c.83,1.92,2,4.53,2.43,6l-2,.8a14.55,14.55,0,0,0-.43-1.45c-4.71.56-5.49.72-6,1a13.07,13.07,0,0,0-.69-1.93c.43-.15.74-.64,1.16-1.47a36.09,36.09,0,0,0,2.37-6.68l2.14.54a42.17,42.17,0,0,1-2.83,7.17l3.24-.32c-.39-1-.79-2.12-1.19-3Zm.51-9.49c.4,2.7,1.27,5.49,2.52,7a10,10,0,0,0-1.63,1.68,18.24,18.24,0,0,1-2.56-6.76h-1.36V93.9Z"/><rect class="b" x="65.33" y="99.63" width="18.13" height="5.8"/><polygon class="b" points="98.59 103.27 80.89 93.05 80.89 113.49 98.59 103.27"/><rect class="a" x="275.41" y="75.04" width="120.23" height="54.01"/><path d="M303,96.47a23.18,23.18,0,0,1-2.14,1.67,13.16,13.16,0,0,0,2.59,1,8.11,8.11,0,0,0-1.29,1.7,11.48,11.48,0,0,1-2.06-.87v1.56c0,.44,0,.58.27.58h.89a4,4,0,0,0,.92-.09c0,.44.07,1,.15,1.47a3.67,3.67,0,0,1-1.06.11H300.1c-1.52,0-1.81-.62-1.81-2.09v-1h-1.67a4.2,4.2,0,0,1-2,3.59,7.66,7.66,0,0,0-1.09-1.16v.54H290c-.07.42-.13.85-.18,1.25h3.76s0,.49,0,.75c-.2,2.44-.42,3.62-.89,4.09a1.9,1.9,0,0,1-1.45.6,20.27,20.27,0,0,1-2.39,0,4.2,4.2,0,0,0-.61-1.79c.9.07,1.79.09,2.19.09a.83.83,0,0,0,.65-.18c.22-.2.38-.78.51-2h-3.81c.26-1.18.55-3,.71-4.4h3.2v-1.27H289v-.29a15.77,15.77,0,0,1-1.65.71,8.13,8.13,0,0,0-1.16-1.58,11.78,11.78,0,0,0,3-1.39,19.34,19.34,0,0,0-1.68-1.09l1.23-1.14a12.75,12.75,0,0,1,1.9,1.14,8.21,8.21,0,0,0,1.05-1.16h-3.56V94.1h4.72l.36-.09,1.33.65A10.24,10.24,0,0,1,291.17,99h2.37v3.61a2.62,2.62,0,0,0,1.29-2.43V98.84h3.46a12.54,12.54,0,0,1-3.66-4.8l1.72-.5a7.71,7.71,0,0,0,1,1.7,17,17,0,0,0,1.71-1.67l1.54,1.11c-.75.61-1.52,1.27-2.21,1.75.31.29.63.56,1,.82a15.24,15.24,0,0,0,2-1.88Zm-1.33,8a8,8,0,0,1-2,3.22c.82.45,1.56.91,2.1,1.27l-1.08,1.43c-.62-.44-1.49-1-2.47-1.58a13.14,13.14,0,0,1-4,1.56,6.26,6.26,0,0,0-.9-1.56,11.68,11.68,0,0,0,3.22-1c-.89-.49-1.74-1-2.52-1.4l.73-.87h-.44v-1.43h5.89l.33,0Zm-6,1.06c.76.4,1.59.82,2.41,1.27a6.9,6.9,0,0,0,1.14-1.27Z"/><path d="M317.68,105.53a11.33,11.33,0,0,0,.22,1.43c-2.47.67-3.48,1-4,1.17.67.06,1.43.08,2.21.08a60.81,60.81,0,0,0,7.32-.47,8.33,8.33,0,0,0-.62,2.21c-1.5.09-4.69.21-6.81.21-2.39,0-3.93-.2-5.23-1-.74-.41-1.4-1-1.78-1s-1.05,1.23-1.5,2.26l-1.43-2a7.26,7.26,0,0,1,2-1.76,21.25,21.25,0,0,0,.92-3.12h-2.23c.44-1.08.93-2.51,1.36-3.93h-1.67V97.68h4.3c-.38,1.29-.85,2.74-1.29,4h.65l.33-.07.9.32a25.53,25.53,0,0,1-.7,2.9,17.88,17.88,0,0,0,4.33-1.29h-2.7V100.2h9.31v3.33h-.38l1,.66c-.51.36-1.07.74-1.61,1,.76.45,1.47.88,1.94,1.21l-1.05,1.32c-1-.79-3.06-2.08-4.53-3l1-1.12,1.3.78c.44-.29.89-.62,1.25-.91H317.5a10.52,10.52,0,0,1-2.17,1.45v1.14Zm-9.35-8.37c-.2-.82-.68-2.12-1-3.1l1.9-.58c.34,1,.81,2.19,1.07,3Zm5.2,8.6a17.24,17.24,0,0,1-1.86.55,8,8,0,0,0-1.07-1.42,13.66,13.66,0,0,1-.64,1.74c.31.2.66.45,1.11.73a6.5,6.5,0,0,0,2.34.72,4,4,0,0,0-.53-1.12,1,1,0,0,0,.65-1Zm9.4-6.12H310.8V98.15h12.13Zm-.83-2H311.7V94h10.4Zm-7.48-2.44h-1.11V96.4h1.11Zm-.4,7.19h5.18v-.94h-5.18Zm3.19-7.19h-1.16V96.4h1.16Zm2.77,0H319V96.4h1.16Z"/><path d="M342.36,94.22v16.21h-2.14v-.76H329v.76h-2V94.22Zm-2.14,13.53V96.16H338a6.21,6.21,0,0,1,1.52,1l-.73.76h.87v1.52H336.4c.09,1,.2,2,.34,2.78a11,11,0,0,0,.86-2.27l1.64.33a13.74,13.74,0,0,1-1.9,4.15c.24.54.51.88.83,1s.35-.64.42-1.69a7.79,7.79,0,0,0,1.34,1c-.29,2.22-1.23,2.91-2.43,2.37a2.58,2.58,0,0,1-1.35-1.2,10.7,10.7,0,0,1-1.89,1.54,8.31,8.31,0,0,0-1.18-1.3c.2-.11.4-.24.58-.36-1.44.21-2.86.41-4.05.61l-.2-1.57c1.32-.15,3.2-.37,5.09-.62l0,.91a8.69,8.69,0,0,0,.91-.91,25.83,25.83,0,0,1-.78-4.75h-5V98h4.9c0-.5,0-1-.09-1.54h1.78c0,.53,0,1,.07,1.54h2a9.58,9.58,0,0,0-1.4-1l.85-.85H329v11.59Zm-6.1-4h-4v-3.44h4Zm-1.45-2.3h-1.22v1.16h1.22Z"/><path d="M360.7,108.26c.29,0,.36-.23.41-2a4.88,4.88,0,0,0,1.85.83c-.22,2.43-.74,3.1-2,3.1h-1.23c-1.65,0-2-.66-2-2.54v-3.62h-.93c-.25,2.88-1,5.1-4,6.41a6.35,6.35,0,0,0-1.25-1.67c2.48-1,2.95-2.62,3.15-4.74h-1.14V99.19c-.14.12-.27.25-.42.36a7,7,0,0,0-.74-.83v1.86h-1.86v.27c.45.44,1.82,2.07,2.11,2.45L351.46,105a20,20,0,0,0-.9-1.83v7.17h-2V103.7a17.06,17.06,0,0,1-1.78,3.87,13.38,13.38,0,0,0-1-2.13,19.5,19.5,0,0,0,2.21-4.86H346.1v-2h2.5V96.38c-.6.11-1.2.22-1.76.29a7.46,7.46,0,0,0-.6-1.67,23.89,23.89,0,0,0,5.26-1.46l1.25,1.75a15.17,15.17,0,0,1-2.19.67v2.61h1.72c-.24-.23-.46-.43-.64-.58a11.56,11.56,0,0,0,3.52-4.24l2,.64a17.25,17.25,0,0,1-2.7,3.91h6.41a34.16,34.16,0,0,0-3-3.77l1.5-1a28.93,28.93,0,0,1,3.82,4.73l-1.63,1.17c-.07-.14-.16-.29-.27-.47v5.15h-1.45v3.6c0,.53,0,.58.29.58Zm-5.07-6.07h3.49v-2h-3.49Z"/><path d="M382.21,100.64s0,.61,0,.87c-.18,5.25-.38,7.29-.92,8a1.86,1.86,0,0,1-1.38.78,11.87,11.87,0,0,1-2.26.07,5.77,5.77,0,0,0-.44-1.75H372.9v1.07h-2v-6.09H378v4.82h.71a.64.64,0,0,0,.6-.26c.3-.36.5-1.82.63-5.63H369.93a16,16,0,0,1-2.36,7.41,7.93,7.93,0,0,0-1.74-1.36c2-2.82,2.18-7,2.18-9.83V94.3h12.86v5.18H370.13c0,.36,0,.76-.06,1.16Zm-12.08-4.53v1.56h8.58V96.11Zm5.9,9.16H372.9v1.61H376Z"/><rect class="b" x="234.82" y="99.63" width="18.13" height="5.8"/><polygon class="b" points="268.08 103.27 250.38 93.05 250.38 113.49 268.08 103.27"/></svg>