<svg xmlns="http://www.w3.org/2000/svg" viewBox="0 0 202.08 212.33"><defs><style>.a{isolation:isolate;}.b{fill:#333;}.b,.i{mix-blend-mode:multiply;}.c,.e,.q{fill:#f66c00;}.c,.d,.g,.j,.k,.l,.m,.n,.p,.q{stroke:#000;}.c,.d,.g,.h,.m,.n,.q{stroke-linecap:round;}.c,.d,.g,.h,.m,.q{stroke-linejoin:round;}.c,.d{stroke-width:5px;}.d,.j,.o{fill:#fff;}.f{fill:#1a1a1a;}.g,.h,.k,.n{fill:none;}.g{stroke-width:3px;}.h{stroke:#ea0c2c;stroke-width:10px;}.i{fill:#e6e6e6;}.j,.k,.l,.n,.p{stroke-miterlimit:10;}.j,.k,.l,.m,.n,.p,.q{stroke-width:2px;}.m,.p{fill:#9cd9e2;}</style></defs><title>notice</title><g class="a"><rect class="b" x="-813.57" y="-233.55" width="1920" height="1080"/><rect class="c" x="-595.55" y="-123.55" width="1500" height="841.88" rx="38.55" ry="38.55"/><rect class="d" x="-82.13" y="-61.67" width="927.4" height="621.73" rx="42.06" ry="42.06"/><path class="e" d="M28.51,49.37v4.8H-7.84v-4.8H6.48V19.25h5.11V30.69H25.71v4.84H11.59V49.37Z"/><path class="e" d="M38.44,45.61a46,46,0,0,1-1.68,9.72,14.81,14.81,0,0,0-3.32-1.16A37,37,0,0,0,35,45.05Zm31.67,5.84c0,2.12-.36,3.2-1.6,3.88s-3,.8-5.56.8a16.07,16.07,0,0,0-1.16-4c1.36.08,2.88.08,3.4.08s.68-.2.68-.72V24.57H53v31.6H48.8V42.05l-3.16,1.36c-.12-.48-.24-1.08-.44-1.68-7.84,1.28-9.16,1.68-10,2A25.56,25.56,0,0,0,33.84,40c1-.24,1.84-1.2,3-2.72.48-.6,1.44-1.84,2.56-3.56-3.08.36-4,.6-4.52.88a39.87,39.87,0,0,0-1.32-3.8c.76-.2,1.4-1,2.16-2.16a48.76,48.76,0,0,0,4.56-9.76l3.8,1.6a61.51,61.51,0,0,1-5.24,9.76l2.8-.2c1-1.8,2-3.72,2.84-5.64L48,26.61a73.16,73.16,0,0,1-8.12,12.44l4.36-.6c-.32-1-.64-1.92-1-2.72l3-1.16a67.46,67.46,0,0,1,2.52,7.12V20.45H70.11ZM42.44,44.77a73.79,73.79,0,0,1,1,8.32L40.16,54a82.87,82.87,0,0,0-.84-8.4Zm4-1.16a53.46,53.46,0,0,1,2.28,7.48l-3.08,1.2a63.78,63.78,0,0,0-2.08-7.68Zm16,2a11.14,11.14,0,0,0,2.32-.24c.08,1,.16,2.32.28,3.2a7.66,7.66,0,0,1-2.48.24H59.19c-3.4,0-4.08-1.28-4.08-4.48V41.93H54V38.37h4c-.28-.84-.68-1.84-1-2.6l2.4-.76H53.75V31.45h2.16a20.91,20.91,0,0,0-1.48-5.2l2.68-.88a21.88,21.88,0,0,1,1.72,5.28l-2.32.8H60a48,48,0,0,0,1.4-6l3.2.84c-.56,1.72-1.12,3.64-1.6,5.16h2V35H60.39a17,17,0,0,1,1.2,2.76l-1.6.6h4.88v3.56h-6v2.4c0,.88.12,1.24.76,1.24Z"/><path class="e" d="M112.11,24.49c-.84,8.72-2.76,15.6-5.76,21a22,22,0,0,0,7.24,6.48,17.27,17.27,0,0,0-3.28,3.92,25.23,25.23,0,0,1-6.88-6.12,27.4,27.4,0,0,1-7.12,6.12,19,19,0,0,0-2.64-3.48v3.76H89.08v-6.4c-4.6.8-9.28,1.52-13,2.08l-.92-4.76c1.08-.12,2.32-.24,3.68-.4V25.41H76.16V21H96.23v2.84h12l.8-.12Zm-28.71.92v3.8h5.68v-3.8Zm0,12.08h5.68v-4H83.4Zm0,8.6c1.84-.24,3.76-.52,5.68-.76v-3.6H83.4Zm10.27,5.64a21.69,21.69,0,0,0,6.92-6.36A56.36,56.36,0,0,1,95.2,29.53l4.55-.92a48.24,48.24,0,0,0,3.68,11.84,45.37,45.37,0,0,0,3.44-11.92H95.08V25.41H93.67Z"/><path class="e" d="M123.08,48.69v3.12H119V21.89h11.36v26.8Zm0-22.64v7.08h3V26.05Zm3,18.52V37.21h-3v7.36Zm26.23-3a19.82,19.82,0,0,1-4.6,8.52,30.81,30.81,0,0,0,7.68,2.16,15.72,15.72,0,0,0-2.8,3.88,30.51,30.51,0,0,1-8.44-3.08,27.82,27.82,0,0,1-7.56,3.12,15.51,15.51,0,0,0-2.55-3.52,24.57,24.57,0,0,0,6.51-2.2,16.7,16.7,0,0,1-3-3.24,20.33,20.33,0,0,1-7.39,8.8,12.55,12.55,0,0,0-3.08-3.44c5.28-3.24,7.36-8.36,8.24-13.48h-4.8V35.29h5.31c0-.64.09-1.28.17-1.88h-4.32V29.69h2.44c-.36-1.24-1-3-1.48-4.32l3.6-1c.64,1.48,1.43,3.4,1.8,4.6l-2.25.72h4.6a47.17,47.17,0,0,0-.84-5l3.68-.64c.44,1.56.92,3.6,1.12,4.84l-3.76.84h5a43.3,43.3,0,0,0,3.12-6.44,158,158,0,0,1-16.83,1.12,13.69,13.69,0,0,0-1-3.52c7-.24,15.19-.84,20.11-1.92l2.72,3.56c-1.52.28-3.2.52-5,.76l4.4,1.28c-1.12,1.76-2.28,3.6-3.28,5.16h3.76v3.72H140.51c0,.64-.08,1.24-.16,1.88h14.12v3.84h-14.6c-.12.52-.2,1-.32,1.56H149l.76-.12Zm-12.24,2.52a14.63,14.63,0,0,0,4,4,12.87,12.87,0,0,0,3-4Z"/><path class="e" d="M181.15,51c1,.08,2.12.12,3.2.12,2.24,0,9.92,0,12.76-.12a16.18,16.18,0,0,0-1.6,4.56h-11.4c-7.32,0-12.27-1-15.63-5.68a18,18,0,0,1-5.6,6.36,19.18,19.18,0,0,0-3.6-3.32c4.08-2.52,6.52-6.76,7.44-12.12l4.76.72c-.28,1.28-.6,2.48-.92,3.64a8.81,8.81,0,0,0,5.76,5V40h-15.6v-4.2H196V40H181.15v3h12.32v4.12H181.15Zm11-17H164.4V20.13h27.79Zm-4.84-10.56H169v2h18.31Zm0,5.16H169v2.08h18.31Z"/><path class="e" d="M225.87,31.69c4.28,3.08,10.44,7.68,13.32,10.84l-4,3.64c-2.48-3-7.92-7.52-12.23-10.84V56.05h-5.2V36.53A47.78,47.78,0,0,1,205,46.37a28.58,28.58,0,0,0-3.28-4.32A42,42,0,0,0,219,26.33H203V21.45h34.67v4.88H225.23A42.46,42.46,0,0,1,222.92,30v4.16Z"/><path class="f" d="M-.92,131.84c-.34-.7-1-2-1.69-3V140H-4.82V129.37a27,27,0,0,1-3,6.29A16,16,0,0,0-9,133.29a26.75,26.75,0,0,0,3.56-7.61H-8.54v-2.24h3.72v-3.72c-1,.21-1.92.39-2.83.52a7.59,7.59,0,0,0-.68-1.9,36,36,0,0,0,7.41-2.1l1.43,2a21.17,21.17,0,0,1-3.12,1v4.24H.2v2.24H-2.61v.46c.62.65,2.65,3.15,3.09,3.77Zm13.34,5.69c.49,0,.57-.39.65-3a6.22,6.22,0,0,0,2.08.93c-.23,3.36-.83,4.22-2.44,4.22h-2c-2,0-2.5-.7-2.5-2.94v-5.85H6.28c-.39,4.13-1.5,7.3-5.8,9.15a6.88,6.88,0,0,0-1.37-1.87c3.66-1.41,4.49-4,4.81-7.28H2.1v-7.26c-.26.26-.55.52-.78.76a17.09,17.09,0,0,0-1.77-1.72,17.26,17.26,0,0,0,4.86-6.21l2.24.7A24.21,24.21,0,0,1,2.72,123h10a42.81,42.81,0,0,0-4.47-5.72l1.69-1.14a39.11,39.11,0,0,1,5.41,6.89l-1.85,1.33a7.16,7.16,0,0,0-.68-1.2v7.75H10.52v5.82c0,.68.08.78.55.78Zm-8.06-8.71h6v-3.66h-6Z"/><path class="f" d="M26.69,129.34c-1.06.31-2.15.6-3.25.91v7c0,1.27-.26,1.9-1,2.26a8.78,8.78,0,0,1-3.69.42,9.77,9.77,0,0,0-.71-2.19,25.43,25.43,0,0,0,2.55,0c.37,0,.5-.13.5-.49v-6.32l-3.1.86-.65-2.32c1.07-.23,2.34-.57,3.75-.93v-5.13H17.67v-2.23h3.41v-5.07h2.36v5.07h3.2v2.23h-3.2v4.5c1-.26,2-.54,2.94-.83Zm13.65,8c0,1.23-.26,1.88-1.06,2.24a10.74,10.74,0,0,1-3.93.39,8.93,8.93,0,0,0-.7-2.24c1.19.06,2.42.06,2.76,0s.49-.1.49-.44v-2.55c-2.65.7-5.36,1.4-7.52,1.95l-.83-2.26a11.92,11.92,0,0,1-2.31,5.72,8.52,8.52,0,0,0-2-1.4c2.05-2.53,2.28-6.06,2.28-8.66v-4.58H40.34Zm-.75-13.49H28.12v-6.89H39.59Zm-9.7,6.29a25.61,25.61,0,0,1-.34,4.29c2.16-.36,5.25-1,8.35-1.71v-5.13h-8Zm1.28-1.32a26.41,26.41,0,0,1,6,1.79l-1,1.85a26.83,26.83,0,0,0-6-1.95Zm6-9.91H30.38v3h6.84Z"/><path class="f" d="M49.39,127c.75.78,2.81,3.17,3.28,3.82l-1.28,2c-.39-.8-1.25-2.21-2-3.38V140H47.13V129.71a26.54,26.54,0,0,1-3,5.95,12.38,12.38,0,0,0-1.09-2.37,26.64,26.64,0,0,0,3.77-7.61H43.57v-2.24h3.56v-3.67c-1,.21-1.93.39-2.86.52a8.35,8.35,0,0,0-.63-2A31.46,31.46,0,0,0,51,116.26l1.3,2a18.77,18.77,0,0,1-2.86,1v4.19h2.76v2.24H49.39Zm12.53-2.63c-2.13,0-2.62-.52-2.62-2.26v-1.43h-.21c-.55,1.48-1.82,2.83-4.6,3.9h1.4v1.51a56.19,56.19,0,0,0,8.32-1.15l1.43,1.38a61.28,61.28,0,0,1-9.75,1.22v.29c0,.67.18.93,1.15.93h6.05a20,20,0,0,0,2.94-.18c0,.63.13,1.28.21,1.77a17.13,17.13,0,0,1-3,.18H56.83c-2.5,0-3.12-.8-3.12-2.75v-2.94c-.21.05-.42.13-.63.18a7.11,7.11,0,0,0-.93-1.87c2.44-.7,3.74-1.56,4.44-2.47H52.51v-1.8h4.78a3.26,3.26,0,0,0,0-.54v-2.21h2.13v2.75h3.88a24.85,24.85,0,0,0-2.73-1.66l1.24-1.2a26.15,26.15,0,0,1,3.44,2l-.83.85h2.34v1.8H61.33v1.4c0,.5.13.57.83.57h2.39c.57,0,.68-.18.75-1.5a6.2,6.2,0,0,0,1.77.67c-.21,2-.75,2.55-2.29,2.55Zm-8.21,7.15h12v8.37H63.33v-.73H56v.79H53.71ZM56,133.11v1.41h7.33v-1.41Zm7.33,4.37v-1.43H56v1.43Z"/><path class="f" d="M76,122.09c-.49,1-1.09,2.08-1.71,3.12v14.72H72.09V128.41a26.2,26.2,0,0,1-1.9,2.23,19.84,19.84,0,0,0-1.35-2.18,24.58,24.58,0,0,0,5.07-7.13Zm-.41-5.23A26,26,0,0,1,70.35,123a18.16,18.16,0,0,0-1.25-1.85,19.36,19.36,0,0,0,4.31-5Zm16.8,6.48a34.75,34.75,0,0,1-2.5,10.24A10.05,10.05,0,0,0,93.67,138a8.72,8.72,0,0,0-1.54,1.9,11.36,11.36,0,0,1-3.45-4.1,14.92,14.92,0,0,1-4.22,4.31,10.64,10.64,0,0,0-1.55-1.61,14.55,14.55,0,0,0,1.45-1c-2.86.45-5.82.84-8.06,1.12l-.52-1.92,3.59-.37v-2.34h-3.8v-1.82h3.8v-1.74c-1,.13-2.11.21-3.07.29a4.86,4.86,0,0,0-.55-1.56,49.66,49.66,0,0,0,7.57-1.25l1.22,1.59a28.76,28.76,0,0,1-3.12.65v2h3.85v1.82H81.42v2.11l3.3-.36.06,1.37a12.87,12.87,0,0,0,2.86-3.66,37.62,37.62,0,0,1-1.54-6c-.26.52-.54,1-.83,1.48a17.25,17.25,0,0,0-1.48-1.79h-8v-2h8.87v.28a32.84,32.84,0,0,0,2.16-9.25l2.21.33c-.24,1.67-.49,3.28-.86,4.84h5.12v2.06Zm-7.68.26H76.14v-5.85h1.69v4h1.62v-5.67h1.82v5.67H83v-4h1.71Zm2.89-.26c-.08.31-.18.59-.26.88a37.41,37.41,0,0,0,1.43,6.58,35.85,35.85,0,0,0,1.51-7.46Z"/><path class="f" d="M101.49,130.25a26.86,26.86,0,0,0-1.24-2.83V140H98.17V128.69a28.9,28.9,0,0,1-2.14,5.8,12.35,12.35,0,0,0-1-2.42,29.86,29.86,0,0,0,3-8.84h-2.4V121h2.53v-4.89h2.08V121h2v2.23h-2v1.43c.59.86,2,3.28,2.36,3.9Zm16.1,1.85a14.59,14.59,0,0,1-3,4,3.19,3.19,0,0,0,2.24,1.45c.49.06.81-.88,1-2.73a6.57,6.57,0,0,0,1.56,1.23c-.54,3-1.45,3.92-2.55,3.87a5.18,5.18,0,0,1-3.92-2.44,19.22,19.22,0,0,1-4.34,2.34,10.8,10.8,0,0,0-1.28-1.56,16.44,16.44,0,0,0,4.63-2.52,24.07,24.07,0,0,1-1.38-4.5h-4a7.13,7.13,0,0,1,0,.8,34,34,0,0,1,3.44,3l-1.49,1.46a23.07,23.07,0,0,0-2.31-2.21,9.8,9.8,0,0,1-3.69,5.67,7.54,7.54,0,0,0-1.61-1.43,8.65,8.65,0,0,0,3.64-7.28h-1.82v-1.9h7.46a103.29,103.29,0,0,1-1.09-13.11h2a88.64,88.64,0,0,0,1.11,13.11h3.12a17.28,17.28,0,0,0-1.87-1.41l1.07-1a7.56,7.56,0,0,0-1.85.47,16.87,16.87,0,0,0-.6-1.77c.42-.1.81-.52,1.28-1.17a22.77,22.77,0,0,0,1.4-2.1,6.43,6.43,0,0,0-2.36.49,14.81,14.81,0,0,0-.6-1.72c.31-.07.6-.41.91-.88a18.09,18.09,0,0,0,1.71-4l1.8.5a27.53,27.53,0,0,1-2.13,4.13l1.53-.16a14.94,14.94,0,0,0,.83-1.71l1.8.65a37.48,37.48,0,0,1-3.64,5.64l2.1-.26c-.18-.44-.36-.94-.52-1.35l1.41-.39a29.29,29.29,0,0,1,1.35,3.79l-1.51.52c-.08-.31-.18-.7-.29-1.11l-2.34.36a17.19,17.19,0,0,1,2.4,1.77l-.68.65h2.11v1.9h-6a22.12,22.12,0,0,0,.94,3,12,12,0,0,0,2-2.92Zm-9.67-4c0-.29-.11-.63-.19-1-3.45.47-4,.62-4.42.83a12.79,12.79,0,0,0-.59-1.74c.41-.08.85-.52,1.32-1.17a21.36,21.36,0,0,0,1.46-2.13,7.58,7.58,0,0,0-2.45.52,15.7,15.7,0,0,0-.57-1.72,1.81,1.81,0,0,0,1-.93,18.37,18.37,0,0,0,2-4.35l1.79.52a30.56,30.56,0,0,1-2.41,4.53l1.61-.16c.31-.54.6-1.12.86-1.69l1.74.65a40.44,40.44,0,0,1-3.77,5.62l2.08-.26c-.16-.5-.34-1-.49-1.43l1.45-.39a23.66,23.66,0,0,1,1.25,3.77Z"/><path class="f" d="M131.92,129.26c.46.91,1,2.14,1.27,2.81l-1,.39h.34v2.39c0,2-.47,3.83-3.72,5a5.45,5.45,0,0,0-1.09-1.38,4.28,4.28,0,0,0,2.71-1.82h-3.23v-3.74h1.56v2.31h2.06v-2.73h1.06c-.07-.23-.18-.47-.26-.73-3.82.39-4.47.52-4.83.68a12.32,12.32,0,0,0-.47-1.48,3,3,0,0,0,1.38-.68,14.21,14.21,0,0,0,1.37-1.19,8.65,8.65,0,0,0-2.18.31,8.52,8.52,0,0,0-.49-1.51,1.82,1.82,0,0,0,.83-.47,11.57,11.57,0,0,0,1.74-2.16h-4V140h-2.29V117.12h9.65v8.11h-2.71l1,.5a17.05,17.05,0,0,1-1.93,2.18l1.69-.08c.37-.41.73-.83,1.07-1.27l1.27.88a28.47,28.47,0,0,1-3.66,3.33l2.15-.18c-.15-.34-.31-.68-.44-1Zm-7-10.42v1.61H130v-1.61Zm0,4.7H130V122h-5.1Zm19.24,13.52c0,1.25-.21,2-1,2.34a8,8,0,0,1-3.56.47,8.86,8.86,0,0,0-.7-2.36c1,0,2.13,0,2.44,0s.47-.13.47-.49V125.23h-5.36l1,.52a19.11,19.11,0,0,1-1.87,2.16l1.64-.08a12.67,12.67,0,0,0,1.11-1.3l1.28.89A32.08,32.08,0,0,1,136,130.8l2.13-.18a8.22,8.22,0,0,0-.47-.94l1.2-.42a19.8,19.8,0,0,1,1.35,2.84l-1.24.49c-.08-.23-.21-.52-.34-.86-3.82.42-4.47.55-4.87.73a7,7,0,0,0-.44-1.45,3.38,3.38,0,0,0,1.38-.76,14.75,14.75,0,0,0,1.35-1.19,6.79,6.79,0,0,0-2.18.33c-.11-.33-.31-1.09-.5-1.5a1.79,1.79,0,0,0,.84-.47,9.55,9.55,0,0,0,1.74-2.19h-1.61v-8.11h9.85Zm-6.37.32v-.76h-2.08v3H134v-7.13h1.74v2.73h2.08v-2.31h1.64v4.5Zm-1.2-18.54v1.61h5.26v-1.61Zm5.26,4.7V122h-5.26v1.53Z"/><path class="f" d="M158.36,126a14.43,14.43,0,0,1-1,1.12A17,17,0,0,0,156,126v6.42h-2.05V126a22.29,22.29,0,0,1-1.62,1.61,9.38,9.38,0,0,0-1-1c-.05,4.06-.49,9.65-2.39,13.42a8.63,8.63,0,0,0-1.85-1.41c1.88-3.74,2-9.1,2-12.92V118h10.14a13.85,13.85,0,0,0-1-1.75l2.1-.62a15.43,15.43,0,0,1,1.46,2.37H171v2h-6.08a11.07,11.07,0,0,1,1.4,2l-.63.28h4.53v1.51H166V125h3.54v1.3H166v1.22h3.59v1.3H166v1.28h4.6v1.56H160.36v.52l.34-.32a19.52,19.52,0,0,1,4.18,2.53l-1.45,1.45a21,21,0,0,0-4.14-2.68l.78-.72h-1.71ZM151,138.26a10,10,0,0,0,2.81-4.52l1.95.67a10.3,10.3,0,0,1-2.92,5Zm6.55-17.66a16.67,16.67,0,0,1-1.56,2.71v2.18a17.71,17.71,0,0,0,3.72-5.48h-8.35v5.59a18.2,18.2,0,0,0,4.19-5.57Zm6.16,17.25c.81,0,1-.24,1-2.08a6.62,6.62,0,0,0,1.95.77c-.23,2.63-.88,3.25-2.75,3.25h-3.82c-2.5,0-3.1-.57-3.1-2.6v-3.27h2.21v3.25c0,.6.18.68,1.17.68Zm.58-15.53a14.3,14.3,0,0,0-1.17-1.74l1.45-.57h-4.68l1.85.52a15.69,15.69,0,0,1-.89,1.79Zm-.29,1.51h-3.64V125H164Zm0,2.47h-3.64v1.22H164Zm0,2.52h-3.64v1.28H164Zm3.51,4.63a20.1,20.1,0,0,1,3.61,4.91l-1.92,1a20.93,20.93,0,0,0-3.46-5Z"/><path class="f" d="M196.89,136.73v2.36h-23v-2.36H184V131h-7.72v-2.34H184v-5.17h-9V121.1h10.92a29.93,29.93,0,0,0-4.18-3.61l2-1.38a28.65,28.65,0,0,1,4.86,4.08l-1.27.91h8.27v2.37h-9v5.17h7.81V131h-7.81v5.75Z"/><path class="f" d="M222.71,122s0,.83,0,1.12c-.28,10.74-.52,14.43-1.35,15.55a2.3,2.3,0,0,1-1.85,1.11,17.33,17.33,0,0,1-3.19,0,6.66,6.66,0,0,0-.68-2.29c1.19.11,2.26.11,2.73.11a1,1,0,0,0,.94-.42c.57-.73.83-4,1-13h-3.07c-.34,6.91-1.51,12.43-6,15.86a8.06,8.06,0,0,0-1.75-1.8A3.91,3.91,0,0,0,210,138c-3.74.44-7.49.83-10.27,1.09l-.31-2c1.51-.11,3.38-.26,5.43-.45v-2h-4.73V132.8h4.73v-1.33h-4.65v-7.82h4.65V122.3h-5.35v-1.8h5.35v-1.45c-1.58.13-3.17.2-4.62.26a7.05,7.05,0,0,0-.58-1.75,81.1,81.1,0,0,0,11.16-1.27l1.14,1.82a47.56,47.56,0,0,1-4.89.73v1.66h5.26V122H215c0-1.77,0-3.61,0-5.57h2.32c0,1.93,0,3.8,0,5.57Zm-20.54,4.81h2.67v-1.59h-2.67Zm2.67,3.07V128.3h-2.67v1.59Zm2.21,6.45c1.62-.16,3.28-.32,4.92-.5,2.13-2.94,2.78-6.86,3-11.59H212.2v-2h-5.15v1.35h4.84v7.82h-4.84v1.33h4.89v1.77h-4.89Zm2.79-9.52v-1.59h-2.79v1.59Zm-2.79,1.48v1.59h2.79V128.3Z"/><path class="f" d="M4.54,176.88a20.83,20.83,0,0,0,3.72.26c1.14,0,5.49,0,7,0a7.13,7.13,0,0,0-.89,2.44H8.13c-5.12,0-8.84-.86-11.21-5A13.73,13.73,0,0,1-6.77,180a12.51,12.51,0,0,0-1.92-1.64C-5.86,176.26-4.53,172.62-4,168l2.44.26a30.44,30.44,0,0,1-.6,3.28A7.76,7.76,0,0,0,2,176.21V166.3H-4V164H10.68v2.29H4.54v3.77H12v2.26H4.54Zm-9.7-12H-7.52v-6h9.8a21.57,21.57,0,0,0-1-2.37l2.39-.7a20.64,20.64,0,0,1,1.46,3.07h9.1v6H11.72V161.2H-5.16Z"/><path class="f" d="M41,174.31H35v3.2c0,1.14-.24,1.76-1.17,2.1a14.66,14.66,0,0,1-4.27.32,7.88,7.88,0,0,0-.75-2.08c1.43.05,2.91.05,3.3,0s.52-.13.52-.44v-3.12H24a20.53,20.53,0,0,1,3.54,2.83l-1.77,1.56a21.36,21.36,0,0,0-4.08-3.38l1.17-1H17.62v-1.95H32.67V171c-5.2.13-10.24.24-13.93.29l-.08-1.82c2.49,0,5.82,0,9.44-.05v-1.23H20.35V161H28.1V159.8H18.35v-1.87H28.1v-1.82h2.36v1.82h9.6v1.87h-9.6V161h8v7.2H36.05a22.17,22.17,0,0,1,4,2.34l-1.43,1.3a13.35,13.35,0,0,0-1.35-1L35,171v1.41h6Zm-18.4-10.43H28.1v-1.3H22.64Zm5.46,2.84v-1.36H22.64v1.36Zm2.36-4.14v1.3h5.65v-1.3Zm5.65,2.78H30.46v1.36h5.65Zm-5.65,4.09,4.19-.06a13.47,13.47,0,0,0-1.59-.67l.6-.5h-3.2Z"/><path class="f" d="M56.57,156.16c0,1-.06,2.34-.19,3.87.37,3.25,1.95,13.63,11,17.66a7.15,7.15,0,0,0-1.77,2.05c-6.11-2.88-8.94-8.6-10.32-13.26-1.3,4.89-4.06,10.14-9.93,13.39a7.58,7.58,0,0,0-2-1.92c10.64-5.51,10.35-17.63,10.43-21.79Z"/><path class="f" d="M92.58,170s0,.65-.08,1c-.44,5.2-.91,7.36-1.69,8.16a2.41,2.41,0,0,1-1.79.78,23.94,23.94,0,0,1-3.15,0,5.15,5.15,0,0,0-.62-2.16,24.09,24.09,0,0,0,2.7.13,1.14,1.14,0,0,0,.91-.29c.49-.44.88-2,1.22-5.53H74.66a28.54,28.54,0,0,1-4.13,2.65,14.36,14.36,0,0,0-1.28-2.06,25.58,25.58,0,0,0,10.46-9.93H70.92v-2.16H75.7A19.06,19.06,0,0,0,73.88,157l2.06-.81A16.26,16.26,0,0,1,78,160l-1.35.57h4.21a33.49,33.49,0,0,0,1.82-4.49l2.42.67c-.47,1.3-1,2.58-1.57,3.82h5.2c-.28,1.54-.59,3.33-.93,4.71h3c-.23,1.53-.57,3.33-.88,4.71Zm-22.34,8.55a9.34,9.34,0,0,0,2.94-5.28l2,.68c-.54,2.18-1.4,4.44-3.09,5.82Zm8.32-4.6a17.88,17.88,0,0,1,.73,4.73l-2.13.29a18.24,18.24,0,0,0-.55-4.76Zm.83-6.58A32.38,32.38,0,0,1,77,170H87.69c.18-.78.36-1.69.52-2.63Zm3,6.14a18.74,18.74,0,0,1,1.38,4.16l-2,.52a22.07,22.07,0,0,0-1.27-4.24Zm.06-10.77a29.75,29.75,0,0,1-1.54,2.55h4.73c.19-.75.37-1.64.53-2.55ZM86,176.91a15.66,15.66,0,0,0-1.72-3.54L86,172.8a14.15,14.15,0,0,1,1.85,3.38Z"/><path class="f" d="M98.14,173.14a32.26,32.26,0,0,1-1.2,6.26c-.41-.18-1.32-.49-1.76-.64a25.49,25.49,0,0,0,1.09-5.93Zm5.1-7.36A22.43,22.43,0,0,1,105,170.9l-1.74.73a11.59,11.59,0,0,0-.26-1.17c-5.56.88-6.42,1.09-6.91,1.38a18.41,18.41,0,0,0-.73-2.11c.6-.15,1.14-.8,1.92-1.77a23.06,23.06,0,0,0,1.87-2.6,11.78,11.78,0,0,0-3.25.6,14.54,14.54,0,0,0-.7-2.08c.47-.13.91-.65,1.38-1.43A31.05,31.05,0,0,0,99.75,156l2,.89a42.74,42.74,0,0,1-3.67,6.68l2.29-.18a38.15,38.15,0,0,0,1.93-3.7l1.89,1.23a51.24,51.24,0,0,1-5.51,8.29l3.75-.49c-.29-.83-.58-1.61-.89-2.34Zm-2.5,6.89a50.13,50.13,0,0,1,.7,5.46l-1.79.44a47.9,47.9,0,0,0-.6-5.51Zm2.68-.7a40.86,40.86,0,0,1,1.48,4.94l-1.64.62a40.38,40.38,0,0,0-1.43-5Zm15,5.2c0,1.27-.24,2-1.07,2.34a10.67,10.67,0,0,1-4.08.44,7.76,7.76,0,0,0-.71-2.34c1.36.08,2.68,0,3,0s.54-.13.54-.52v-4.6a11.94,11.94,0,0,0-1.32,1.87,11.76,11.76,0,0,1-2.92-5.35,12.5,12.5,0,0,1-3.48,5.46,9.93,9.93,0,0,0-.88-1.82v7.23h-2.19V161.85h5.46c0-.93-.1-1.95-.1-3H107v-2.08h5.64c0,1.77.05,3.48.18,5h5.62Zm-10.87-4.86c1.87-1.62,3-4.24,3.56-7.52,0-.23-.08-.47-.1-.73h-3.46Zm5.46-8.25c.41,3.7,1.35,6.53,3.14,8.19v-8.19Z"/><path class="f" d="M129.08,171.84c-.34-.7-1-2-1.69-3V180h-2.21V169.37a27,27,0,0,1-3,6.29,16,16,0,0,0-1.2-2.37,26.75,26.75,0,0,0,3.56-7.61h-3.12v-2.24h3.72v-3.72c-1,.21-1.92.39-2.83.52a7.59,7.59,0,0,0-.68-1.9,36,36,0,0,0,7.41-2.1l1.43,1.95a21.17,21.17,0,0,1-3.12,1v4.24h2.81v2.24h-2.81v.46c.62.65,2.65,3.15,3.09,3.77Zm13.34,5.69c.49,0,.57-.39.65-3a6.22,6.22,0,0,0,2.08.93c-.23,3.36-.83,4.22-2.44,4.22h-2c-2,0-2.5-.7-2.5-2.94v-5.85h-1.9c-.39,4.13-1.5,7.3-5.8,9.15a6.88,6.88,0,0,0-1.37-1.87c3.66-1.41,4.49-4,4.81-7.28H132.1v-7.26c-.26.26-.55.52-.78.76a17.09,17.09,0,0,0-1.77-1.72,17.26,17.26,0,0,0,4.86-6.21l2.24.7a24.21,24.21,0,0,1-3.93,5.82h10a42.81,42.81,0,0,0-4.47-5.72l1.69-1.14a39.11,39.11,0,0,1,5.41,6.89l-1.85,1.33a7.16,7.16,0,0,0-.68-1.2v7.75h-2.26v5.82c0,.68.08.78.55.78Zm-8.06-8.71h6v-3.66h-6Z"/><path class="f" d="M161.29,166.3c-1.16.88-2.39,1.66-3.64,2.44h10.09v11.11h-2.49v-.71h-9.81V180h-2.39v-8.74c-1.45.68-2.94,1.31-4.42,1.88a13.13,13.13,0,0,0-1.48-2,46.18,46.18,0,0,0,10.17-4.78H147.8v-2.16h8.61v-2.91h-6.35v-2.11h6.35v-3h2.39v3h6.06v1.15a28.62,28.62,0,0,0,2.83-3.36l2.08,1.1a38.13,38.13,0,0,1-5.74,6.13h6.81v2.16Zm4,4.45h-9.81v2.15h9.81Zm0,6.34V174.8h-9.81v2.29Zm-4.76-13a37.12,37.12,0,0,0,3.4-2.91H158.8v2.91Z"/><path class="f" d="M180.79,170.12c-.31-.67-.88-1.84-1.48-2.88V180h-2.1V167.78a29.19,29.19,0,0,1-2.89,7,13.55,13.55,0,0,0-1.14-2.44,27.78,27.78,0,0,0,3.69-9.13h-3V161h3.38v-4.92h2.1V161h2.63v2.23h-2.63v1.25c.6.78,2.4,3.33,2.81,4Zm10.12,7.18H197v1.79H185.42V180h-2.16v-7.83c-.44.44-.88.91-1.32,1.3a11.68,11.68,0,0,0-1.22-2,14.71,14.71,0,0,0,3.92-4.94h-2.08v-5.09h6.14v5.09h-2.94l1,.34c-.26.52-.55,1.09-.86,1.61h2.86c-.13-.44-.29-.88-.44-1.27l2.08-.55c.21.55.47,1.23.68,1.82h5.48v1.59h-5.64v1.33h4.6V173h-4.6v1.32h4.6V176h-4.6ZM186,159.83h-4.34V158H186v-1.93h2.11V161H186ZM184.38,165h2.45v-2h-2.45Zm4.42,6.43v-1.33h-3.38v1.33Zm0,1.61h-3.38v1.32h3.38Zm-3.38,4.29h3.38V176h-3.38Zm10.71-10.77h-6.24v-5.09h6.24Zm1.1-8.52v1.82h-4.66v1.11h-2.1v-4.86h2.1V158Zm-3,5h-2.55v2h2.55Z"/><path class="f" d="M207.37,163.78h5V166h-5v.81c1.27,1.09,4,3.77,4.78,4.47l-1.38,2.06c-.73-.91-2.15-2.53-3.4-3.83v10.41H205v-10.3a26.35,26.35,0,0,1-4.47,6.91,15.46,15.46,0,0,0-1.28-2.36,25,25,0,0,0,5.28-8.17h-4.73v-2.23H205v-3.85c-1.59.31-3.17.55-4.66.73a8.5,8.5,0,0,0-.75-1.87,48.61,48.61,0,0,0,10.58-2.58l1.75,1.85a28,28,0,0,1-4.5,1.35Zm9.23,9.7h-2.39v-14.3h2.39Zm5.48-17.06v20.36c0,1.53-.36,2.24-1.27,2.62a14.51,14.51,0,0,1-4.84.47,9.42,9.42,0,0,0-.85-2.49c1.74.07,3.38.07,3.9.07s.67-.18.67-.67V156.42Z"/><line class="g" x1="-9.14" y1="73.79" x2="777.91" y2="73.79"/><rect class="d" x="-82.13" y="-61.67" width="927.4" height="621.73" rx="42.06" ry="42.06"/><rect class="h" x="-835.87" y="-333.87" width="1992.56" height="1251.42"/><path class="i" d="M130.46,203.41c.07,4.54-21.2,8.52-47.49,8.89s-47.66-3-47.73-7.56,21.21-8.52,47.5-8.88S130.4,198.87,130.46,203.41Z"/><rect class="j" x="94.97" y="201.23" width="14.64" height="2.9" transform="translate(-2.83 1.45) rotate(-0.8)"/><line class="k" x1="99.26" y1="186.33" x2="111.65" y2="186.15"/><path class="l" d="M102.9,186.28c.06,2.23.12,4.5.15,6.74,0,0-8.79-.46-8.09,8.31l14.64-.2-.21-14.94Z"/><rect class="j" x="51.08" y="201.84" width="14.64" height="2.9" transform="translate(-2.83 0.83) rotate(-0.8)"/><line class="k" x1="56.2" y1="186.93" x2="68.59" y2="186.75"/><path class="l" d="M59,186.89c.06,2.23.11,4.5.14,6.74,0,0-8.79-.46-8.08,8.32l14.64-.21-.21-14.94Z"/><path class="m" d="M153.86,100.75a70.77,70.77,0,0,0-141.53,2c0,1.31.08,2.62.17,3.92l-.11-.09s-18,30.82-8.75,56.13a5.48,5.48,0,0,0,.3.8v0H4a4.47,4.47,0,0,0,8.48-2,4.39,4.39,0,0,0-.53-2h0l0,0a1.59,1.59,0,0,0-.13-.22c-1.13-2.19-4.89-16,4.1-35.33A70.91,70.91,0,0,0,58.17,168c.27,4.67.62,11.61.83,18.91l6.49-.09-.23-16.57a71.06,71.06,0,0,0,36.95-.34c.24,4.47.52,10.31.69,16.39l6.49-.09-.26-18.64A70.78,70.78,0,0,0,153.86,100.75Z"/><path class="j" d="M64.82,79.07c.44,1.94-1.65,4.07-4.66,4.75s-5.82-.34-6.26-2.28,1.66-4.06,4.67-4.74S64.39,77.14,64.82,79.07Z"/><path class="j" d="M91.16,81.72c-.64,1.89-3.53,2.61-6.46,1.63s-4.79-3.32-4.15-5.2,3.52-2.61,6.45-1.62S91.79,79.84,91.16,81.72Z"/><ellipse class="k" cx="58.09" cy="91.97" rx="11.14" ry="10.64"/><ellipse class="k" cx="86.98" cy="91.97" rx="11.14" ry="10.64"/><rect x="69.23" y="91.97" width="6.78" height="1.9"/><path d="M65.09,89.42a2.8,2.8,0,1,1-2.84-2.76A2.8,2.8,0,0,1,65.09,89.42Z"/><path d="M86,89.13a2.8,2.8,0,1,1-2.84-2.76A2.8,2.8,0,0,1,86,89.13Z"/><path class="k" d="M74.17,113.48a2.8,2.8,0,1,1-5.59.08"/><path class="k" d="M79.77,113.4a2.8,2.8,0,1,1-5.6.08"/><line class="k" x1="64.77" y1="109.62" x2="83.46" y2="109.36"/><path class="k" d="M9,158.38c.07.26.25,4.35,2.23,5.91"/><path class="k" d="M6.28,159.36s.69,5.79,2.63,6.72"/><path class="n" d="M60.26,168.73a70.89,70.89,0,0,1-45.94-50.25"/><path class="n" d="M100.65,170.31a71.24,71.24,0,0,1-35,0"/><path class="n" d="M105.91,168.75q-2.59.87-5.26,1.56"/><path class="n" d="M12.33,102.72a70.77,70.77,0,1,1,98,64.34"/><path class="o" d="M118.89,104.13a10.39,10.39,0,1,1-10.53-10.24A10.39,10.39,0,0,1,118.89,104.13Z"/><path class="o" d="M46.74,105.13A10.39,10.39,0,1,1,36.21,94.89,10.39,10.39,0,0,1,46.74,105.13Z"/><path class="p" d="M76,101.76l-18.2.32A3.76,3.76,0,0,1,54,98.39h0a3.76,3.76,0,0,1,3.69-3.8l18.56-.32"/><path class="m" d="M136.72,114.06c9.39-4.25,31.21-16,38.28-35.69a4.75,4.75,0,0,0,.28-.8v0h0a4.47,4.47,0,1,0-8.73-2h0v0a2.17,2.17,0,0,0,0,.25c-.53,2.41-6.5,15.44-25.76,24.52"/><path class="k" d="M168.09,78.21c.12-.24,2.59-3.5,2.07-6"/><path class="k" d="M170.83,79.21s3.17-4.89,2.28-6.84"/><rect class="q" x="163.43" y="47.32" width="8.62" height="49.89" rx="4.31" ry="4.31"/><circle class="q" cx="168.06" cy="34.02" r="33.02"/><circle cx="168.06" cy="34.02" r="26.67"/><rect class="e" x="164.85" y="19.75" width="6.75" height="19.49" rx="3.37" ry="3.37"/><circle class="e" cx="168.1" cy="46.42" r="3.25"/></g></svg>