<svg xmlns="http://www.w3.org/2000/svg" viewBox="0 0 752 1080"><defs><style>.a{isolation:isolate;}.b{fill:#aede00;}.c{fill:#ccc9b9;}.c,.d,.e,.f,.h,.i,.j,.l,.m,.n,.o{stroke:#000;}.c,.d,.e,.f,.h,.i,.o{stroke-linecap:round;}.c,.d,.e,.f,.h,.i{stroke-linejoin:round;}.c,.d,.e,.f,.h,.i,.l,.m,.n,.o{stroke-width:5px;}.d,.j,.n,.o{fill:none;}.e{fill:#ccc;}.f,.l,.p{fill:#fff;}.g,.k{fill:#e6e6e6;}.h{fill:#f66c00;}.i{fill:#9cd9e2;}.j,.l,.m,.n,.o{stroke-miterlimit:10;}.j{stroke-width:3px;}.k{mix-blend-mode:multiply;}</style></defs><title>q5-base</title><g class="a"><path class="b" d="M566.14,523.82H551c-4.49-60.25-55.19-108.17-116.54-108.17H167.14c-64.27,0-116.86,52.59-116.86,116.86h0c0,48,29.34,89.48,71,107.41a134.71,134.71,0,0,0-1.44,19.69h0c0,74.68,61.1,135.79,135.78,135.79H566.14c74.68,0,135.79-61.11,135.79-135.79h0C701.93,584.93,640.82,523.82,566.14,523.82Z"/><path class="c" d="M620.16,403.43C464.21,453.08,322,570.27,243,670.72,162.15,773.53,110.78,858.49,110.78,858.49L408.37,898S479.59,771.54,529,690.17C585.11,597.74,649.1,437.86,688.61,413"/><line class="d" x1="181.24" y1="414.43" x2="186.03" y2="424.01"/><line class="d" x1="207.04" y1="414.43" x2="202.25" y2="424.01"/><line class="d" x1="194.14" y1="424.01" x2="194.14" y2="413.69"/><line class="d" x1="149.25" y1="562.45" x2="154.04" y2="572.03"/><line class="d" x1="175.05" y1="562.45" x2="170.26" y2="572.03"/><line class="d" x1="162.15" y1="572.03" x2="162.15" y2="561.71"/><line class="d" x1="572.21" y1="776.92" x2="577" y2="786.5"/><line class="d" x1="598" y1="776.92" x2="593.21" y2="786.5"/><line class="d" x1="585.11" y1="786.5" x2="585.11" y2="776.18"/><line class="d" x1="475.95" y1="913.74" x2="480.74" y2="923.32"/><line class="d" x1="501.74" y1="913.74" x2="496.95" y2="923.32"/><line class="d" x1="488.84" y1="923.32" x2="488.84" y2="913"/><line class="d" x1="169" y1="685.38" x2="173.79" y2="694.96"/><line class="d" x1="194.79" y1="685.38" x2="190" y2="694.96"/><line class="d" x1="181.9" y1="694.96" x2="181.9" y2="684.64"/><path class="e" d="M356.93,858.87c-32.2-8.2-76.42-13.27-125.22-13.27s-93,5.07-125.22,13.27H53.35v32.79c0,25.43,79.86,46.05,178.36,46.05s178.36-20.62,178.36-46.05V858.87Z"/><ellipse class="f" cx="231.71" cy="858.87" rx="178.36" ry="46.05"/><path class="g" d="M324.61,852.61c.15,10.62-41.38,19.8-92.76,20.52s-93.15-7.31-93.29-17.92,41.38-19.8,92.76-20.52S324.46,842,324.61,852.61Z"/><polygon class="h" points="289.85 784.09 292.42 761.4 272.5 794.16 295.83 794.16 290.2 826.92 313.12 784.09 289.85 784.09"/><path class="f" d="M301.62,676a69,69,0,0,0-126.15,16.55c-29.07,2.09-52,27.82-52,55.82h236C359.45,713.39,334.73,683.59,301.62,676Z"/><polygon class="h" points="226.41 769.38 231.05 728.35 195.04 787.58 237.22 787.58 227.03 846.82 268.48 769.38 226.41 769.38"/><path class="d" d="M236.9,713.49a29.69,29.69,0,0,1,46.29-24.62"/><path class="d" d="M193.2,718.22A32.26,32.26,0,0,1,239.76,699"/><line class="d" x1="665.4" y1="698.91" x2="670.19" y2="708.49"/><line class="d" x1="691.2" y1="698.91" x2="686.41" y2="708.49"/><line class="d" x1="678.3" y1="708.49" x2="678.3" y2="698.17"/><line class="d" x1="640.14" y1="573.37" x2="644.93" y2="582.95"/><line class="d" x1="665.93" y1="573.37" x2="661.14" y2="582.95"/><line class="d" x1="653.03" y1="582.95" x2="653.03" y2="572.63"/><path class="i" d="M603.61,400.74C621,422,659.2,475.72,652.8,531.05a11.45,11.45,0,0,1-.27,2.27s0,0,0,.06h0a11.89,11.89,0,0,1-23.21,0,11.71,11.71,0,0,1,.1-5.62h0s0,0,0,0c.06-.22.13-.44.2-.65,1.59-6.38,2.73-44.49-32.5-88.89"/><path class="j" d="M636.14,523.28c0,.73,2.06,11.41-2.1,16.68"/><path class="j" d="M643.84,524.13s1.8,15.4-2.63,19"/><path class="k" d="M532,662.3c.15,11-51.28,20.6-114.87,21.49s-115.27-7.3-115.42-18.28S353,644.91,416.6,644,531.86,651.32,532,662.3Z"/><rect class="l" x="447.49" y="658.41" width="38.96" height="7.73" transform="translate(-9.22 6.6) rotate(-0.8)"/><line class="j" x1="458.92" y1="618.74" x2="491.89" y2="618.28"/><path class="m" d="M468.6,618.61c.17,5.95.3,12,.39,17.95,0,0-23.4-1.23-21.51,22.12l38.95-.54-.55-39.77Z"/><rect class="l" x="330.68" y="660.04" width="38.96" height="7.73" transform="translate(-9.22 4.94) rotate(-0.8)"/><line class="j" x1="344.31" y1="620.34" x2="377.28" y2="619.88"/><path class="m" d="M351.75,620.24c.17,5.94.31,12,.39,18,0,0-23.4-1.23-21.51,22.12l39-.54L369,620Z"/><path class="i" d="M604.23,391c-1.45-104-86.94-187.15-191-185.7s-187.16,86.94-185.71,191q.08,5.25.44,10.43l-.29-.22s-47.89,82-23.28,149.37a12.18,12.18,0,0,0,.79,2.14l0,.06h0a11.9,11.9,0,1,0,21.17-10.87h0l0,0c-.11-.2-.23-.39-.34-.58-3-5.83-13-42.63,10.88-94A188.87,188.87,0,0,0,349.55,569.92c.71,12.42,1.64,30.9,2.2,50.32L369,620l-.61-44.09a189.55,189.55,0,0,0,98.35-.92c.64,11.91,1.36,27.44,1.83,43.62l17.28-.24-.69-49.59A188.41,188.41,0,0,0,604.23,391Z"/><path class="l" d="M367.26,333.3c1.17,5.16-4.4,10.81-12.42,12.62s-15.48-.9-16.64-6.06,4.39-10.81,12.42-12.63S366.1,328.14,367.26,333.3Z"/><path class="l" d="M437.34,340.35c-1.69,5-9.38,6.95-17.18,4.32s-12.75-8.82-11.06-13.83,9.38-6.95,17.18-4.32S439,335.34,437.34,340.35Z"/><path class="n" d="M409.63,393.69l-61,.85a10,10,0,0,1-10.11-9.83h0a10,10,0,0,1,9.83-10.11l61-.85"/><path d="M368,360.84a7.45,7.45,0,1,1-7.56-7.34A7.44,7.44,0,0,1,368,360.84Z"/><path d="M423.56,360.07a7.45,7.45,0,1,1-7.55-7.35A7.45,7.45,0,0,1,423.56,360.07Z"/><path class="j" d="M392.14,424.87a7.45,7.45,0,1,1-14.9.2"/><path class="j" d="M407,424.66a7.45,7.45,0,0,1-14.9.21"/><line class="n" x1="367.12" y1="414.6" x2="416.86" y2="413.9"/><path class="j" d="M218.74,544.36c.18.71.66,11.57,5.93,15.72"/><path class="j" d="M211.45,547s1.84,15.39,7,17.87"/><path class="o" d="M355.1,571.92A188.7,188.7,0,0,1,232.85,438.17"/><path class="o" d="M462.62,576.11a189.89,189.89,0,0,1-93.25,0"/><path class="o" d="M476.6,572q-6.89,2.34-14,4.16"/><path class="o" d="M227.56,396.22c-1.45-104,81.7-189.5,185.71-191S602.78,287,604.23,391A188.4,188.4,0,0,1,488.46,567.46"/><path class="p" d="M511.16,400a27.64,27.64,0,1,1-28-27.26A27.63,27.63,0,0,1,511.16,400Z"/><path class="p" d="M319.13,402.65a27.64,27.64,0,1,1-28-27.25A27.65,27.65,0,0,1,319.13,402.65Z"/></g></svg>