<svg xmlns="http://www.w3.org/2000/svg" viewBox="0 0 799.95 57.01"><defs><style>.a,.b{fill:#fff;stroke:#000;}.a,.b,.d{stroke-linecap:round;stroke-linejoin:round;}.a{stroke-width:5px;}.b{stroke-width:3px;}.c{fill:#1a1a1a;}.d{fill:none;stroke:#ea0c2c;stroke-width:10px;}</style></defs><title>flow-4-d</title><rect class="a" x="-75.87" y="-1161.72" width="927.4" height="1399.22" rx="42.06" ry="42.06"/><rect class="b" x="1.5" y="1.5" width="120.23" height="54.01"/><path d="M38.23,25.33A20.75,20.75,0,0,1,36,32.13,10.34,10.34,0,0,0,39.45,35,7.53,7.53,0,0,0,38,36.79,11.54,11.54,0,0,1,34.74,34a12.17,12.17,0,0,1-3.59,3,9.42,9.42,0,0,0-1.39-1.76,10.11,10.11,0,0,0,3.76-3,20,20,0,0,1-1.72-3.95,11.69,11.69,0,0,1-.94,1.3,10.94,10.94,0,0,0-1.3-1.68v9.09H27.42V32.21c-2.88,1-3.48,1.34-3.88,1.66a7.87,7.87,0,0,0-.83-2,1.32,1.32,0,0,0,.67-1.29V21.88H25.5v8.84l1.92-.58V20.22h2.14v7.13c1.41-1.75,2.24-4.51,2.68-7.42l2.19.36c-.18,1-.38,2-.63,3h5.52v2Zm-5.09,0c0,.16-.12.32-.18.48a19.53,19.53,0,0,0,1.72,4.35,17.14,17.14,0,0,0,1.42-4.83Z"/><path d="M48.64,33.24c1.14-.2,2.32-.4,3.46-.58l.11,1.85c-3.17.61-6.59,1.23-9.06,1.66l-.47-2c1.09-.14,2.45-.36,3.91-.6V31.12H43.3V29.26h3.29V27.64h2v1.62H51.9v1.86H48.64ZM42.86,21h9.42v1.84H49.73a20.14,20.14,0,0,1,2.51,3.86l-1.63,1.07c-.11-.27-.25-.58-.41-.91-5,.42-5.78.51-6.31.73-.12-.44-.47-1.4-.68-2a1.74,1.74,0,0,0,.83-.76,13.93,13.93,0,0,0,1.12-2h-2.3Zm6.34,4.22c-.34-.53-.7-1-1.05-1.49l1.52-.89H47.5a21.44,21.44,0,0,1-1.58,2.56ZM55,32.55H53V21.61h2Zm3.57-12.42v14c0,1.14-.22,1.68-.91,2a7.81,7.81,0,0,1-3.13.4,8.78,8.78,0,0,0-.73-2.06c1,0,1.94,0,2.25,0s.42-.11.42-.41v-14Z"/><path d="M76.83,34.73c.29,0,.36-.24.42-2a4.74,4.74,0,0,0,1.85.83c-.22,2.43-.75,3.1-2,3.1H75.85c-1.64,0-2-.65-2-2.54V30.54h-.92c-.26,2.88-1,5.11-4,6.41a6,6,0,0,0-1.25-1.66c2.48-1,3-2.63,3.15-4.75H69.71V25.65c-.14.13-.27.25-.41.36-.17-.21-.44-.52-.75-.83v1.87H66.69v.27c.45.43,1.83,2.06,2.12,2.44L67.59,31.5c-.18-.45-.54-1.16-.9-1.83v7.18h-2V30.16A16.54,16.54,0,0,1,63,34a13.12,13.12,0,0,0-1-2.14,19.07,19.07,0,0,0,2.21-4.85H62.23V25h2.5V22.84c-.6.11-1.19.22-1.75.29a7.91,7.91,0,0,0-.6-1.66A23.77,23.77,0,0,0,67.63,20l1.25,1.76a14.8,14.8,0,0,1-2.19.67V25h1.72c-.24-.23-.45-.43-.63-.57a11.71,11.71,0,0,0,3.51-4.24l2,.63a16.73,16.73,0,0,1-2.7,3.91H77A35.37,35.37,0,0,0,74,21l1.5-1a29.35,29.35,0,0,1,3.82,4.73l-1.62,1.18c-.08-.15-.17-.29-.28-.47v5.14H75.94v3.61c0,.52,0,.58.29.58Zm-5.07-6.07h3.5v-2h-3.5Z"/><path d="M98.68,34.54h-7v2.31H89.43V34.54H82.55V32.7h6.88v-.94H84.27V25H97.11v6.8H91.64v.94h7Zm-8.6-10.28H83.62V20.63h6.46Zm-2-2.34H85.54v1h2.53Zm-1.7,5.67h3.06v-1H86.37Zm3.06,2.52v-1H86.37v1Zm8.26-5.85h-6.5V20.63h6.5ZM94.9,26.63H91.64v1H94.9Zm0,2.5H91.64v1H94.9Zm.78-7.21H93.09v1h2.59Z"/><rect class="b" x="169.75" y="1.5" width="120.23" height="54.01"/><path d="M206.47,22.34V33.06h-2.25v-.87h-4v4.64h-2.26V32.19H194v1h-2.15V22.34h6.09V19.91h2.26v2.43ZM194,24.4v1.83h3.94V24.4Zm3.94,5.72V28.2H194v1.92Zm2.26-5.72v1.83h4V24.4Zm4,5.72V28.2h-4v1.92Z"/><path d="M217.09,24.58h-6.41v-1.7h2.75a17,17,0,0,0-.85-2.37l1.81-.53a22.69,22.69,0,0,1,1,2.41l-1.43.49h3.15Zm-.51,4.87h-5.43V27.82h5.43Zm0,6.4H213v.72h-1.83V30.38h5.45Zm-5.43-10.49h5.43V27h-5.43ZM213,32.08v2.08h1.76V32.08Zm13.62,2.81c0,.9-.16,1.38-.8,1.65a6.43,6.43,0,0,1-2.59.29,6.35,6.35,0,0,0-.56-1.71c.67,0,1.43,0,1.65,0s.31-.07.31-.27v-.76H219.7A6.5,6.5,0,0,1,218.38,37a7.89,7.89,0,0,0-1.53-1.36A6.61,6.61,0,0,0,218,31.25V28h8.57Zm.87-9.15v1.54H217.18V25.74h4v-.8h-3.29V23.51h3.29v-.72h-3.75V21.25h3.75V19.93h2.08v1.32h3.95v1.54h-3.95v.72h3.59v1.43h-3.59v.8Zm-2.86,7v-.86H220c0,.28,0,.58-.05.86ZM220,29.6v.85h4.64V29.6Z"/><path d="M246.41,31a9,9,0,0,1-2.65,3.06,23.19,23.19,0,0,0,3.73.78,9.14,9.14,0,0,0-1.3,1.9,19.25,19.25,0,0,1-4.57-1.41,22,22,0,0,1-5.23,1.57,6.53,6.53,0,0,0-1-1.79,21.33,21.33,0,0,0,4.15-.94,13.51,13.51,0,0,1-1.29-1A11.06,11.06,0,0,1,237,34a12.58,12.58,0,0,0-1.45-1.36,8.71,8.71,0,0,0,1.43-.8,12.53,12.53,0,0,1-1-1.37l1.56-.56a6.66,6.66,0,0,0,.76.94,9.39,9.39,0,0,0,1-1.16h-1.59V25.09l-.49.51a12,12,0,0,0-1-.82,20.47,20.47,0,0,1-1.38,2.1v10h-2.19v-7.3a18.5,18.5,0,0,1-1.38,1.32,17.07,17.07,0,0,0-1.05-2.23,16.24,16.24,0,0,0,4.13-4.71l1.5.64a3.09,3.09,0,0,0-.29-.2,10.44,10.44,0,0,0,3-4.42l2,.5a11.12,11.12,0,0,1-.47,1.15h7.08V23.3h-8l-.49.76h7.52v5.65h-4.57q-.21.38-.45.72h3.62l.34-.07ZM236,20.74a18.67,18.67,0,0,1-4.48,4.64,17.18,17.18,0,0,0-1.08-1.83A12.42,12.42,0,0,0,233.94,20Zm3.62,11.32a12,12,0,0,0,2,1.2,8.37,8.37,0,0,0,1.7-1.27h-3.62Zm0-5.85h4.45v-.74h-4.45Zm0,2.07h4.45v-.76h-4.45Z"/><path d="M253.55,27.86a13.56,13.56,0,0,1-1.88.91,9.47,9.47,0,0,0-1.38-1.72,13.86,13.86,0,0,0,5.36-3.23h-4.83V22h6.92v-2h2.13v2h7.07v1.86h-4.59A42.4,42.4,0,0,1,267,27l-1.38,1.56a45,45,0,0,0-5.74-4.11v2.6h-2.13V24.33A15.84,15.84,0,0,1,254,27.59h10v6H253.55Zm-2.61,6.59h15.83v1.89H250.94Zm4.75-4.56h6.08V29h-6.08Zm0,2.3h6.08v-.94h-6.08Z"/><rect class="c" x="129.17" y="26.09" width="18.13" height="5.8"/><polygon class="c" points="162.43 29.73 144.73 19.52 144.73 39.95 162.43 29.73"/><rect class="b" x="339.24" y="1.5" width="120.23" height="54.01"/><path d="M364.11,30.11v4.22c0,1-.16,1.52-.7,1.84a4.4,4.4,0,0,1-2.5.42,7,7,0,0,0-.57-2c.67,0,1.29,0,1.51,0s.31-.08.31-.31V30.69l-1.67.47L360,29.07c.62-.12,1.34-.32,2.16-.52V25.34h-2v-2h2V19.93h1.95v3.42h1.81v2h-1.81V28l1.63-.43.29,1.94Zm8.24,4.56c.42,0,.82.06,1.27.06.62,0,2.86,0,3.64,0a6.35,6.35,0,0,0-.58,1.88h-3.15c-2.37,0-4.2-.43-5.43-2.63a8.09,8.09,0,0,1-1.9,2.85,11.1,11.1,0,0,0-1.58-1.29c1.5-1.19,2.25-3.2,2.52-5.67l1.95.24a17.6,17.6,0,0,1-.34,1.83A4.1,4.1,0,0,0,370.32,34V29.31h-4.25V27.57h10.7v1.74h-4.42V30.9h3.46v1.69h-3.46Zm3.52-7.93H367V20.49h8.91ZM373.8,22h-4.87v.91h4.87Zm0,2.3h-4.87v.93h4.87Z"/><path d="M385.75,33.93a11.86,11.86,0,0,0,3.62.4c1.38,0,6.18,0,7.81-.08a7.43,7.43,0,0,0-.82,2.14h-7c-3.35,0-5.51-.45-6.94-2.48a13,13,0,0,1-.83,3.19c-.4-.25-1.36-.73-1.81-.93.89-1.82,1.07-4.85,1.1-8l2,.15c0,.8-.06,1.59-.09,2.33a5.86,5.86,0,0,0,1,1.92V27.17h-3.51V25.29h3.06V23.6h-2.55V21.74h2.55V20h2v1.76h2.41V23.6h-2.41v1.69h2.84v1.88h-2.44v2h2.3V31h-2.3Zm5.88-.44c-2,0-2.68-.61-2.68-2.91V20.63h7v6.89H391v3.06c0,.83.11,1,.87,1h2.33c.69,0,.82-.42.93-2.34a6,6,0,0,0,1.88.83c-.24,2.57-.82,3.44-2.63,3.44Zm-.59-11v3.13h2.84V22.52Z"/><path d="M406.77,24.62H400v-1.7h2.85a17.28,17.28,0,0,0-.93-2.47l1.83-.52a18,18,0,0,1,1,2.44l-1.65.55h3.64Zm-6,2.44V25.43H406v1.63Zm5.34,2.43h-5.34V27.86h5.34Zm7.83-.34c1.06.94,2.39,2.06,3.06,2.77l-1.24,1.57c-.43-.48-1.1-1.16-1.82-1.84v5.18h-2.05V27.59h-2.12v.14c0,2.76-.29,6.72-2.05,9.12a7.85,7.85,0,0,0-1.61-1.29v.29h-3.44v.76h-1.83V30.36h5.27V35.3c1.41-2.15,1.54-5.21,1.54-7.58v-6A34.28,34.28,0,0,0,414.36,20l1.88,1.56a38.11,38.11,0,0,1-6.52,1.63v2.41h6.95v2h-2.78Zm-9.57,2.93h-1.7v2h1.7Z"/><path d="M426.77,30.45v4.6c0,.78-.1,1.22-.61,1.49a4.16,4.16,0,0,1-2,.29,6.15,6.15,0,0,0-.53-1.62c.49,0,1,0,1.16,0s.23,0,.23-.21V30.45h-1.88V23.88h1.61c.06-.46.13-.95.18-1.4h-2.48v5.14c0,2.72-.18,6.6-1.3,9a7.23,7.23,0,0,0-1.52-1.11c.94-2.21,1-5.41,1-7.88v-7h8v1.85H427c-.14.49-.29,1-.43,1.4h2.11v6.57Zm-2,1.07a13.19,13.19,0,0,1-1.25,3.82,10.6,10.6,0,0,0-1.45-.8,9.38,9.38,0,0,0,1.11-3.35ZM427,25.36H424.8v1.11H427ZM424.8,29H427V27.84H424.8Zm3.08,5.58a19.56,19.56,0,0,0-1-2.9l1.36-.49A18,18,0,0,1,429.33,34Zm4.62-.11a12.48,12.48,0,0,1-3.34,2.44,13.84,13.84,0,0,0-1.34-1.3,9.33,9.33,0,0,0,3-2.18Zm-.93-10.71c.08-.41.13-.85.17-1.27H429V20.63h7.68v1.81h-2.79l-.38,1.27h2.77v9.58h-6.79V23.71Zm2.77,1.58h-3.09v1.16h3.09Zm0,2.63h-3.09v1.15h3.09Zm0,2.64h-3.09v1.18h3.09Zm.26,2.84a22.38,22.38,0,0,1,2.46,2.34l-1.61,1.09a20,20,0,0,0-2.39-2.45Z"/><rect class="c" x="298.66" y="26.09" width="18.13" height="5.8"/><polygon class="c" points="331.92 29.73 314.22 19.52 314.22 39.95 331.92 29.73"/><rect class="b" x="508.73" y="1.5" width="120.23" height="54.01"/><path d="M536.41,24.64a23.64,23.64,0,0,1-1.94,2.77v9.45h-2.15V29.78c-.51.49-1,.94-1.49,1.34a22.71,22.71,0,0,0-1.46-1.86,17.75,17.75,0,0,0,5-5.42Zm-.67-3.86a24.13,24.13,0,0,1-5,4.76,12.73,12.73,0,0,0-1.2-1.76,16,16,0,0,0,4.1-3.85ZM546.39,28h-2.48v6.36c0,1.15-.22,1.75-1,2.08a10.15,10.15,0,0,1-3.53.36,8.85,8.85,0,0,0-.65-2.19c1,0,2.23,0,2.55,0s.46-.07.46-.34V28h-5.35v-2h10Zm-.45-5h-8.81V21h8.81Z"/><path d="M565.33,25.22a20.92,20.92,0,0,1-2.1,7A8.75,8.75,0,0,0,566.61,35a7.69,7.69,0,0,0-1.46,1.85,9.69,9.69,0,0,1-3.25-2.76,11.25,11.25,0,0,1-3.69,2.81A8.55,8.55,0,0,0,557,35a9.15,9.15,0,0,0,3.69-2.81,20.05,20.05,0,0,1-1.48-4,8.66,8.66,0,0,1-.64.88,11.6,11.6,0,0,0-1-1v.16h-2.07V32l2.55-.54.19,2c-3,.69-6.18,1.38-8.5,1.9l-.38-2.19.94-.16V25.23h1.94v7.38l1.16-.22V23.06h-3.62V21h8.29v2.06h-2.57v3.17h2.07v.45a18.15,18.15,0,0,0,2.24-6.75l2.14.32c-.16,1-.4,2-.65,3h5.14v2Zm-4.77.23A21.41,21.41,0,0,0,561.94,30a17.37,17.37,0,0,0,1.21-4.8h-2.5Z"/><path d="M576.26,24.62h-6.77v-1.7h2.84a18.45,18.45,0,0,0-.92-2.47l1.82-.52a18,18,0,0,1,1,2.44l-1.65.55h3.64Zm-6,2.44V25.43h5.31v1.63Zm5.34,2.43h-5.34V27.86h5.34Zm7.83-.34c1.07.94,2.39,2.06,3.06,2.77l-1.23,1.57c-.44-.48-1.11-1.16-1.83-1.84v5.18h-2V27.59h-2.12v.14c0,2.76-.29,6.72-2.05,9.12a7.85,7.85,0,0,0-1.61-1.29v.29h-3.44v.76h-1.83V30.36h5.27V35.3c1.41-2.15,1.54-5.21,1.54-7.58v-6A34.28,34.28,0,0,0,583.85,20l1.88,1.56a38.11,38.11,0,0,1-6.52,1.63v2.41h7v2h-2.79Zm-9.57,2.93h-1.7v2h1.7Z"/><path d="M596.41,24.62h-7v-1.7h3.1a21.94,21.94,0,0,0-1.12-2.29l1.77-.72a20,20,0,0,1,1.29,2.41l-1.25.6h3.24Zm-.53,11.23H592v.76h-1.85V30.36h5.74Zm-.09-8.79H590.2V25.43h5.59Zm-5.59.8h5.59v1.63H590.2ZM592,32.08v2h2v-2Zm8.68-11.39A24.16,24.16,0,0,1,597.91,29a15.41,15.41,0,0,0-1.75-1.21,19.33,19.33,0,0,0,2.46-7.43Zm2.86,9.16c.83,1.92,2,4.53,2.42,6l-2,.8a12.53,12.53,0,0,0-.44-1.45c-4.71.56-5.48.72-6,1a11.76,11.76,0,0,0-.69-1.94c.44-.14.75-.63,1.16-1.47a34.91,34.91,0,0,0,2.38-6.68l2.13.54a41,41,0,0,1-2.82,7.17l3.24-.32c-.4-1-.8-2.12-1.2-3Zm.5-9.49c.4,2.7,1.27,5.49,2.52,7a10.38,10.38,0,0,0-1.63,1.68,18.36,18.36,0,0,1-2.55-6.75H601v-2Z"/><rect class="c" x="468.15" y="26.09" width="18.13" height="5.8"/><polygon class="c" points="501.41 29.73 483.71 19.52 483.71 39.95 501.41 29.73"/><rect class="b" x="678.23" y="1.5" width="120.23" height="54.01"/><path d="M705.76,22.93a23.18,23.18,0,0,1-2.14,1.67,12.79,12.79,0,0,0,2.59,1,7.88,7.88,0,0,0-1.28,1.71,13.66,13.66,0,0,1-2.07-.87V28c0,.43,0,.58.28.58H704a3.59,3.59,0,0,0,.93-.1c0,.44.07,1.05.14,1.47a3.6,3.6,0,0,1-1.05.11h-1.12c-1.52,0-1.81-.62-1.81-2.08v-1h-1.67a4.2,4.2,0,0,1-2,3.58,8.2,8.2,0,0,0-1.09-1.16v.55h-3.58c-.08.41-.13.85-.19,1.25h3.77l0,.74c-.2,2.45-.42,3.62-.89,4.09a1.92,1.92,0,0,1-1.45.6,17.94,17.94,0,0,1-2.39,0,4,4,0,0,0-.62-1.79c.91.07,1.8.09,2.19.09a.87.87,0,0,0,.66-.18c.21-.2.38-.78.5-2h-3.8c.25-1.17.54-3,.71-4.4h3.2V27.05h-2.62v-.29a15.68,15.68,0,0,1-1.65.7A8.5,8.5,0,0,0,689,25.89a11.81,11.81,0,0,0,3-1.4,17.17,17.17,0,0,0-1.68-1.08l1.23-1.15a13.91,13.91,0,0,1,1.9,1.15,10.38,10.38,0,0,0,1-1.16H691V20.56h4.73l.36-.09,1.32.65a10.17,10.17,0,0,1-3.4,4.3h2.37V29a2.62,2.62,0,0,0,1.29-2.43V25.31h3.46a12.61,12.61,0,0,1-3.66-4.8l1.72-.51a7.48,7.48,0,0,0,1,1.7A16.85,16.85,0,0,0,701.9,20l1.54,1.1c-.74.62-1.52,1.27-2.21,1.76.31.29.64.56,1,.81a15.24,15.24,0,0,0,2-1.88Zm-1.32,8a8,8,0,0,1-2,3.22c.81.46,1.55.91,2.1,1.27l-1.09,1.43c-.61-.43-1.48-1-2.46-1.57a13.77,13.77,0,0,1-4,1.56,5.69,5.69,0,0,0-.91-1.56,11.65,11.65,0,0,0,3.23-1c-.89-.49-1.74-1-2.52-1.39l.72-.87h-.43V30.58h5.89l.32-.06Zm-6,1.07c.76.4,1.59.81,2.41,1.27A7.24,7.24,0,0,0,702,32Z"/><path d="M720.5,32a9.42,9.42,0,0,0,.21,1.43c-2.46.67-3.47,1-4,1.18.67,0,1.43.07,2.21.07a60.94,60.94,0,0,0,7.32-.47,8.33,8.33,0,0,0-.62,2.21c-1.5.09-4.69.22-6.81.22-2.39,0-3.93-.2-5.23-1-.75-.42-1.4-1-1.78-1s-1.05,1.23-1.5,2.27l-1.43-2.05a7.57,7.57,0,0,1,2-1.76,19.64,19.64,0,0,0,.93-3.11h-2.23c.43-1.09.92-2.52,1.36-3.93h-1.67V24.15h4.29c-.38,1.28-.85,2.73-1.28,4h.65l.33-.07.9.33a27.67,27.67,0,0,1-.7,2.89A17.66,17.66,0,0,0,717.74,30H715V26.67h9.31V30H724l1,.65c-.51.36-1.07.74-1.61,1.05.76.45,1.46.89,1.93,1.21l-1,1.33c-1-.8-3.06-2.09-4.52-3l1-1.13,1.31.78c.43-.29.89-.61,1.25-.9h-2.95a11.16,11.16,0,0,1-2.18,1.45v1.14Zm-9.35-8.37c-.2-.81-.69-2.12-1-3.1l1.91-.58c.34,1,.81,2.2,1.07,3Zm5.2,8.61c-.62.21-1.23.39-1.87.54a7.44,7.44,0,0,0-1.06-1.41,17,17,0,0,1-.64,1.74c.31.19.65.45,1.11.72a6.31,6.31,0,0,0,2.33.72,4.31,4.31,0,0,0-.52-1.12,1,1,0,0,0,.65-1.05Zm9.4-6.13H713.61V24.62h12.14Zm-.83-2h-10.4V20.42h10.4Zm-7.48-2.45h-1.11v1.25h1.11ZM717,28.8h5.18v-.94H717Zm3.18-7.19h-1.15v1.25h1.15Zm2.78,0h-1.16v1.25H723Z"/><path d="M745.17,20.69V36.9H743v-.76H731.77v.76h-2V20.69ZM743,34.22V22.63h-2.25a5.78,5.78,0,0,1,1.52,1.05l-.72.76h.87V26h-3.24c.09,1,.2,2,.34,2.77a11.72,11.72,0,0,0,.85-2.26l1.65.32a13.87,13.87,0,0,1-1.9,4.15c.23.54.51.89.83,1s.35-.63.42-1.69a7.43,7.43,0,0,0,1.34,1c-.29,2.23-1.23,2.92-2.43,2.37A2.61,2.61,0,0,1,739,32.41,11.09,11.09,0,0,1,737.08,34a9,9,0,0,0-1.18-1.31,5.65,5.65,0,0,0,.58-.36c-1.45.22-2.86.42-4.06.62l-.2-1.58c1.33-.14,3.21-.36,5.09-.62l0,.91a7.82,7.82,0,0,0,.91-.91,25.86,25.86,0,0,1-.78-4.74h-5V24.44h4.91c0-.51-.05-1-.09-1.54H739c0,.52,0,1,.07,1.54h1.95a8.15,8.15,0,0,0-1.39-1l.85-.85h-8.75V34.22Zm-6.11-4h-4V26.74h4Zm-1.44-2.3h-1.22V29h1.22Z"/><path d="M763.51,34.73c.29,0,.37-.24.42-2a4.74,4.74,0,0,0,1.85.83c-.22,2.43-.74,3.1-2,3.1h-1.23c-1.65,0-2-.65-2-2.54V30.54h-.92c-.25,2.88-1,5.11-4,6.41a6.47,6.47,0,0,0-1.25-1.66c2.48-1,3-2.63,3.15-4.75H756.4V25.65c-.15.13-.27.25-.42.36a10.73,10.73,0,0,0-.74-.83v1.87h-1.87v.27c.45.43,1.83,2.06,2.12,2.44l-1.21,1.74c-.18-.45-.55-1.16-.91-1.83v7.18h-2V30.16A17,17,0,0,1,749.64,34a13.12,13.12,0,0,0-1-2.14,18.74,18.74,0,0,0,2.21-4.85h-1.93V25h2.5V22.84c-.6.11-1.2.22-1.76.29a7.38,7.38,0,0,0-.6-1.66A23.77,23.77,0,0,0,754.31,20l1.25,1.76a14.8,14.8,0,0,1-2.19.67V25h1.72a7.2,7.2,0,0,0-.63-.57A11.71,11.71,0,0,0,758,20.22l2,.63a17,17,0,0,1-2.69,3.91h6.41a34.16,34.16,0,0,0-3-3.76l1.51-1A29.91,29.91,0,0,1,766,24.69l-1.63,1.18c-.07-.15-.17-.29-.27-.47v5.14h-1.45v3.61c0,.52,0,.58.29.58Zm-5.07-6.07h3.5v-2h-3.5Z"/><path d="M785,27.1s0,.62,0,.87c-.18,5.25-.38,7.3-.93,8a1.86,1.86,0,0,1-1.37.78,12,12,0,0,1-2.27.07,5.8,5.8,0,0,0-.43-1.76h-4.28v1.07h-2V30h7.14v4.82h.7a.61.61,0,0,0,.6-.25c.31-.36.51-1.83.64-5.63H772.74a15.92,15.92,0,0,1-2.35,7.4A7.59,7.59,0,0,0,768.65,35c2-2.83,2.17-7,2.17-9.84V20.76h12.86v5.18H772.94c0,.36,0,.76-.05,1.16Zm-12.08-4.53v1.56h8.59V22.57Zm5.91,9.17h-3.14v1.61h3.14Z"/><rect class="c" x="637.64" y="26.09" width="18.13" height="5.8"/><polygon class="c" points="670.9 29.73 653.2 19.52 653.2 39.95 670.9 29.73"/><rect class="d" x="-403.97" y="-1337.04" width="1469.71" height="1829.63"/></svg>