<svg xmlns="http://www.w3.org/2000/svg" viewBox="0 0 409.36 718.15"><defs><style>.a{fill:#9cd9e2;}.a,.b,.c,.d,.e,.f,.k,.l{stroke:#000;}.a,.f,.k,.l{stroke-linecap:round;stroke-linejoin:round;}.a,.b,.d,.e,.f,.i,.k,.l{stroke-width:5px;}.b,.g,.k{fill:#fff;}.b,.c,.d,.e,.i{stroke-miterlimit:10;}.c,.e,.f,.i,.j{fill:none;}.c{stroke-width:3px;}.h{fill:#1a1a1a;}.i{stroke:#fff;}.l{fill:#ffc900;}</style></defs><title>correct</title><path class="a" d="M95.72,531.91,65,519.06l5-12c13.63,5.45,26.73,10.37,35.55,13.62"/><polygon class="b" points="28.84 503.88 40.2 476.7 48.57 480.3 37.22 507.48 28.84 503.88"/><line class="c" x1="72.17" y1="501.82" x2="62.56" y2="524.82"/><path class="d" d="M70,507c-4.18-1.67-8.4-3.4-12.57-5.14,0,0,7.9-15.85-8.86-21.57L37.22,507.48,65,519.06Z"/><path class="a" d="M121.55,370.22c-1.09-20.71-.34-70.56,28.31-101.43a8.76,8.76,0,0,1,1.18-1.25l0,0h0a9,9,0,0,1,14.14,10.4,8.88,8.88,0,0,1-2.57,3.38h0l0,0c-.13.11-.27.21-.41.31-3.82,3.17-21.56,25.89-19.95,68.71"/><path class="c" d="M156.54,281c.34-.44,3.85-7.87,8.74-9.22"/><path class="c" d="M152.23,277s5.79-10.19,10.1-10.41"/><circle class="a" cx="210.49" cy="460.15" r="142.4" transform="translate(-263.73 283.61) rotate(-45)"/><path class="b" d="M212.52,343.76c-1.3,3.78-7.13,5.2-13,3.18s-9.59-6.74-8.28-10.52,7.12-5.2,13-3.17S213.83,340,212.52,343.76Z"/><path class="b" d="M254.78,376.16c-3.08,2.56-8.8.74-12.77-4.05s-4.69-10.74-1.61-13.29,8.79-.74,12.76,4.05S257.85,373.61,254.78,376.16Z"/><path class="e" d="M215.75,399.44l-39.58-23.72a7.55,7.55,0,0,1-2.58-10.34h0a7.55,7.55,0,0,1,10.33-2.59l39.58,23.72"/><path d="M202,361.75a5.63,5.63,0,1,1-1.93-7.72A5.64,5.64,0,0,1,202,361.75Z"/><path d="M238.08,383.36a5.64,5.64,0,1,1-1.94-7.72A5.64,5.64,0,0,1,238.08,383.36Z"/><path class="c" d="M192.1,412.53a5.63,5.63,0,0,1-9.66-5.79"/><path class="c" d="M201.76,418.32a5.63,5.63,0,1,1-9.66-5.79"/><line class="e" x1="180.1" y1="395.98" x2="212.36" y2="415.31"/><path class="f" d="M67.35,574.38c.5,1,4.55,17.42,13.85,22.12"/><path class="f" d="M57.05,580.61s7.53,22.87,16.12,25.07"/><path class="f" d="M308.43,616.37c1.05-.43,17.69-3.35,23-12.32"/><path class="f" d="M313.94,627.07s23.33-6,26.11-14.38"/><path class="g" d="M278.53,443.86a20.9,20.9,0,1,1-7.18-28.67A20.89,20.89,0,0,1,278.53,443.86Z"/><path class="g" d="M161.55,372.47a20.9,20.9,0,1,1-7.18-28.67A20.9,20.9,0,0,1,161.55,372.47Z"/><path class="a" d="M305.54,466.55c16.15-13,52.78-46.83,56.65-88.77a8.24,8.24,0,0,0,.15-1.71.07.07,0,0,1,0-.05h0a9,9,0,1,0-18,.58h0v0c0,.17,0,.34.05.51.18,5-4.9,33.34-37.87,60.71"/><path class="c" d="M348.66,380.94c.1-.54,3.29-8.12,1-12.66"/><path class="c" d="M354.49,381.51s3.72-11.11,1-14.47"/><path class="a" d="M298.08,556l37.44-2-.69-13c-12.23.47-24,.71-33,.83"/><polygon class="b" points="372.94 552.24 371.38 522.82 363.99 522.98 365.55 552.39 372.94 552.24"/><line class="c" x1="334.44" y1="533.66" x2="335.76" y2="558.55"/><path class="d" d="M334.83,541c4.49-.17,9.05-.37,13.56-.61,0,0-2.12-17.59,15.6-17.35l1.56,29.42-30,1.59Z"/><path class="h" d="M208,178.44l21.38-37a6.67,6.67,0,0,0-5.78-10H180.79a6.68,6.68,0,0,0-5.79,10l21.39,37A6.67,6.67,0,0,0,208,178.44Z"/><rect x="60.21" y="54.38" width="283.92" height="105.55" rx="35.31" ry="35.31"/><path class="g" d="M211.54,105.81h-3.48v18.44c0,2.07-.48,3.07-1.76,3.67s-3.24.72-6.44.72a14.93,14.93,0,0,0-1.28-3.52c2.24.09,4.32,0,5,0s.92-.25.92-.92V105.81h-9.08v-2.28H189.5l3.12,1.12c-.8,1.52-1.64,3.08-2.4,4.44h4v3.08h-7v3.44h6.28v3h-6.28v3.56c2.68-.28,5.4-.6,8.08-1l.08,3.27c-7,1-14.36,1.84-19.48,2.52l-.52-3.48c2.32-.23,5.24-.55,8.4-1v-4h-6.16v-3h6.16v-3.44h-7v-3.08h4.8a18,18,0,0,0-2.84-4.36l2.24-1.2h-5.44v-3.08h5.76v-2l-2,1.32a21.33,21.33,0,0,0-3.44-5l2.28-1.52a21,21,0,0,1,3.12,4V92h3v8.48h2.52V92h3v5.6a36.3,36.3,0,0,0,3-4.24l3,1.64c-1.52,1.76-3.16,3.68-4.48,4.92L189.78,99v1.44h5.64v1.88h9V92h3.6v10.32h3.48Zm-24.68,3.28a40.38,40.38,0,0,0,2.52-5.56h-7.84a18.51,18.51,0,0,1,2.84,4.2L182,109.09Zm12.52,9.56a31,31,0,0,0-3.2-9l3.08-1.08a29.65,29.65,0,0,1,3.48,8.92Z"/><path class="g" d="M221.14,118.89v3.68h-2.92V94.77h9.36v24.12Zm0-21.16v18.16h3.52V97.73ZM231.38,121a52.76,52.76,0,0,1-2.16,7.31,11.78,11.78,0,0,0-2.2-.64,37.6,37.6,0,0,0,2.16-7.15Zm6-7.68a36.26,36.26,0,0,1,1.88,6.16L237,120c-.08-.44-.2-1-.36-1.6-5.88.8-6.92,1-7.56,1.32a15.81,15.81,0,0,0-.76-2.36c.68-.12,1.36-.8,2.28-1.88a38.9,38.9,0,0,0,2.36-3.12,14.17,14.17,0,0,0-3.68.48,14,14,0,0,0-.8-2.4c.56-.12,1-.6,1.52-1.32a29.05,29.05,0,0,0,3.16-6.2l2.64,1a33,33,0,0,1-3.64,6.12l2.28-.08a29.59,29.59,0,0,0,2-3.64l2.4,1.24a55.15,55.15,0,0,1-6.4,9.08l3.64-.4c-.24-.84-.56-1.72-.84-2.52Zm15.16-10.48H229.7V93.73h22.8Zm-18,18a51.22,51.22,0,0,1,.68,6.59l-2.32.32a44.15,44.15,0,0,0-.52-6.63Zm2-24.32h-3.68v3.6h3.68Zm1,23.68a57.56,57.56,0,0,1,1.68,6l-2.12.6a46.9,46.9,0,0,0-1.56-6.07Zm16.08,6.67H243.34v1.84h-2.88v-15l-.2.28a15.46,15.46,0,0,0-2.44-1.68A27.53,27.53,0,0,0,242.5,103l2.84.72c-.4,1.16-.84,2.36-1.28,3.48h3.24c-.36-1.08-.8-2.4-1.24-3.44l2.4-.72a41.34,41.34,0,0,1,1.56,4.16h3.36V110h-4v2.92h3.44v2.6h-3.44v2.92h3.44v2.6h-3.44v2.84h4.2Zm-10.8-30.35H239v3.6h3.8ZM246.7,110h-3.36v2.92h3.36Zm0,5.52h-3.36v2.92h3.36Zm-3.36,8.36h3.36v-2.84h-3.36Zm5.88-27.44h-3.88v3.6h3.88Z"/><path class="g" d="M263.9,122.29a3.64,3.64,0,0,1,7.28,0,3.64,3.64,0,0,1-7.28,0Zm.84-21.44-.12-5.28h5.88l-.12,5.28-1.2,14.72H265.9Z"/><circle class="i" cx="136.46" cy="109.94" r="20"/><rect class="j" width="409.36" height="718.15"/><path class="k" d="M368.21,320.16a5.93,5.93,0,1,1-5.92-5.93A5.92,5.92,0,0,1,368.21,320.16Z"/><circle class="k" cx="70.31" cy="273.13" r="8.95" transform="translate(-172.54 129.72) rotate(-45)"/><circle class="k" cx="281.31" cy="245.13" r="8.95" transform="translate(-90.94 270.71) rotate(-45)"/><rect class="l" x="201.01" y="230.45" width="19.71" height="28.81" transform="translate(-87.61 121.04) rotate(-26.74)"/><rect class="l" x="362.61" y="244.74" width="20.72" height="14.18" transform="translate(-54.77 391.69) rotate(-52.13)"/><rect class="l" x="26.83" y="339.14" width="22.87" height="15.64" transform="translate(-197.44 89.5) rotate(-36.18)"/><rect class="l" x="99.47" y="212.83" width="13" height="19" transform="translate(-88.69 71.45) rotate(-26.74)"/><rect class="l" x="299.47" y="296.83" width="13" height="19" transform="translate(-105.1 170.4) rotate(-26.74)"/></svg>