<svg xmlns="http://www.w3.org/2000/svg" xmlns:xlink="http://www.w3.org/1999/xlink" viewBox="0 0 240 160"><defs><style>.a,.i,.j,.m{fill:none;}.b{isolation:isolate;}.c{fill:#333;mix-blend-mode:multiply;}.d,.l{fill:#f66c00;}.d,.e,.g,.h,.i,.j,.l,.m{stroke:#000;}.d,.e,.g,.j,.l,.m{stroke-linecap:round;}.d,.e,.g,.l,.m{stroke-linejoin:round;}.d,.e{stroke-width:5px;}.e,.h,.k{fill:#fff;}.f{clip-path:url(#a);}.g{fill:#9cd9e2;}.g,.h,.i,.j,.l,.m{stroke-width:3px;}.h,.i,.j{stroke-miterlimit:10;}</style><clipPath id="a"><rect class="a" width="240" height="160"/></clipPath></defs><title>q3-step-1</title><g class="b"><rect class="c" x="-803.89" y="-414.4" width="1920" height="1080"/><rect class="d" x="-585.87" y="-304.4" width="1500" height="841.88" rx="38.55" ry="38.55"/><rect class="e" x="-72.45" y="-242.51" width="927.4" height="621.73" rx="42.06" ry="42.06"/><g class="f"><path class="g" d="M216.64,101A90.35,90.35,0,1,0,36,103.55c0,1.68.1,3.35.21,5l-.14-.11s-23,39.35-11.17,71.65a6,6,0,0,0,.38,1v0h0a5.71,5.71,0,1,0,10.15-5.21h0v0l-.17-.28c-1.45-2.79-6.25-20.44,5.22-45.1a90.61,90.61,0,0,0,54,56.35c.34,6,.78,14.82,1,24.13l8.29-.12-.29-21.14a90.71,90.71,0,0,0,47.17-.45c.31,5.72.66,13.17.88,20.93l8.29-.12-.33-23.78A90.37,90.37,0,0,0,216.64,101Z"/><path class="h" d="M103,73.37c.56,2.47-2.11,5.18-6,6s-7.42-.43-8-2.91,2.11-5.18,6-6.05S102.41,70.89,103,73.37Z"/><path class="h" d="M136.59,76.75c-.81,2.41-4.5,3.33-8.24,2.07s-6.12-4.23-5.31-6.63,4.5-3.33,8.24-2.07S137.4,74.35,136.59,76.75Z"/><path class="i" d="M123.29,102.34l-29.27.4A4.78,4.78,0,0,1,89.18,98h0a4.79,4.79,0,0,1,4.71-4.85l29.27-.41"/><path d="M103.31,86.58a3.58,3.58,0,1,1-3.62-3.52A3.57,3.57,0,0,1,103.31,86.58Z"/><path d="M130,86.21a3.58,3.58,0,1,1-3.62-3.52A3.57,3.57,0,0,1,130,86.21Z"/><path class="i" d="M114.9,117.29a3.57,3.57,0,1,1-7.14.1"/><path class="i" d="M122.05,117.19a3.58,3.58,0,1,1-7.15.1"/><line class="i" x1="102.9" y1="112.37" x2="126.76" y2="112.03"/><path class="j" d="M97.14,187.83A90.5,90.5,0,0,1,38.5,123.67"/><path class="j" d="M36,103.55A90.35,90.35,0,1,1,161.11,185.7"/><path class="k" d="M172,105.35a13.26,13.26,0,1,1-13.44-13.07A13.26,13.26,0,0,1,172,105.35Z"/><path class="k" d="M79.88,106.64A13.26,13.26,0,1,1,66.44,93.56,13.25,13.25,0,0,1,79.88,106.64Z"/><path class="l" d="M197.74,54.12,186.59,69.38a7,7,0,0,0,1.7,9.68L196,84.68l-.53,1.42a67,67,0,0,1-9.08,17.81A67.38,67.38,0,0,1,172.15,118l-1.17.92-5.16-3.77-2.53-1.86a7,7,0,0,0-9.74,1.34L142.4,129.89a7,7,0,0,0,1.7,9.68l4.32,3.14.08-.12a21.6,21.6,0,0,0,5.89,2.22,22.64,22.64,0,0,0,5.7.51c14.72-.51,26.91-9.17,42-29.89C223,86.79,218.06,67.12,217.84,66.27A23,23,0,0,0,215.6,61a21.86,21.86,0,0,0-3.9-4.91l.06-.09-4.28-3.2A7,7,0,0,0,197.74,54.12Z"/><line class="m" x1="209.03" y1="53.93" x2="190.5" y2="78.75"/><line class="m" x1="162.97" y1="115.62" x2="144.44" y2="140.43"/><path class="g" d="M212.51,147.92c-1.08,3.35-4.2,5.34-7,4.42h0c-2.82-.91-4.17-4.35-3.09-7.7l9.19-28.28c1.09-3.35,4.2-5.34,7-4.42h0c2.82.92,4.17,4.35,3.08,7.7Z"/><path class="g" d="M206.4,152.72c-13.21-6.69-26.61-17-34.26-32.9a5.68,5.68,0,0,1-.47-1l0,0h0a5.79,5.79,0,0,1,9.55-6,5.67,5.67,0,0,1,1.42,2.33h0s0,0,0,0,.06.21.08.32c.82,2.47,9,14.31,25.42,23.24"/><path class="i" d="M181,118.68c-.18-.3-3.81-4.15-3.46-7.4"/><path class="i" d="M177.63,120.33s-4.75-5.86-3.87-8.5"/><path class="g" d="M152.11,144.66s-1.5,10.45,4,17.36"/></g><rect class="a" width="240" height="160"/></g></svg>