<svg xmlns="http://www.w3.org/2000/svg" viewBox="0 0 243.62 101.23"><defs><style>.a{isolation:isolate;}.b{fill:#333;mix-blend-mode:multiply;}.c{fill:#f66c00;}.c,.d{stroke:#000;stroke-linecap:round;stroke-linejoin:round;stroke-width:5px;}.d{fill:#fff;}.e{fill:#1a1a1a;}</style></defs><title>contat</title><g class="a"><rect class="b" x="-1359.09" y="-459.27" width="1920" height="1080"/><rect class="c" x="-1141.06" y="-349.27" width="1500" height="841.88" rx="38.55" ry="38.55"/><rect class="d" x="-627.65" y="-287.39" width="927.4" height="621.73" rx="42.06" ry="42.06"/><path class="e" d="M75.75,35.75V53.19H74V49.26c-1.67.28-3.32.59-4.66.83L69,48.27l1.23-.18V35.75h-1V33.9h7.29v1.85Zm-1.72,0H71.87v2.72H74Zm0,4.42H71.87v2.77H74Zm0,7.35V44.63H71.87v3.2Zm7.64-7.77c.39,1.17.88,2.71,1.07,3.61l-1.27.42c-.07-.31-.16-.71-.27-1.1-3.72.46-4.27.59-4.62.77-.09-.42-.28-1.32-.44-1.81a3.13,3.13,0,0,0,1.28-1A18.77,18.77,0,0,0,78.65,39a5.85,5.85,0,0,0-1.91.35c-.07-.42-.31-1.34-.47-1.87a1.86,1.86,0,0,0,.88-.75,17.21,17.21,0,0,0,2-3.58l1.52.66a24,24,0,0,1-2.42,3.89l1.39-.06c.39-.6.79-1.28,1.12-1.92l1.39.73a34.41,34.41,0,0,1-3.74,5.17l2.46-.24c-.11-.47-.26-.88-.4-1.3Zm.39,4.09v3.33a6.26,6.26,0,0,1-3.89,6.16,6.08,6.08,0,0,0-1.1-1.41,5,5,0,0,0,3.08-3.06h-3v-5h1.67v3.3h1.52v-3.3Zm6.07-.2c-.08-.3-.22-.72-.33-1.16-3.69.57-4.26.73-4.62.92a17.71,17.71,0,0,0-.44-1.78,2.4,2.4,0,0,0,1.15-1,14.76,14.76,0,0,0,1.23-1.76,6.05,6.05,0,0,0-2.16.39c-.08-.39-.3-1.27-.46-1.76.29,0,.55-.31.86-.7a16.18,16.18,0,0,0,1.94-3.5l1.36.68a24,24,0,0,1-2.2,3.61l1.47-.09c.31-.55.64-1.16.91-1.76l1.36.71A35.08,35.08,0,0,1,85,41.51l2.35-.31c-.15-.46-.33-.9-.48-1.32L88,39.51a33.3,33.3,0,0,1,1.37,3.63ZM86.59,44h1.68v5.63H86.59v-.77H85.08v4.36H83.32v-9.4h1.76V47.1h1.51Z"/><path class="e" d="M97.33,46.46c-.07-.35-.15-.77-.24-1.21-4.29.66-5,.86-5.42,1.08-.11-.4-.41-1.34-.61-1.85.48-.11,1-.66,1.65-1.45a25,25,0,0,0,1.67-2.18,10.94,10.94,0,0,0-2.86.51c-.11-.4-.4-1.3-.59-1.81.35-.09.74-.53,1.23-1.16A29.63,29.63,0,0,0,95,33l1.82.77a38.34,38.34,0,0,1-3.34,5.63l2-.17c.57-.93,1.12-1.94,1.6-2.93l1.74,1A41.4,41.4,0,0,1,94,44.08l2.66-.37c-.18-.66-.37-1.32-.59-1.94l1.45-.39A28,28,0,0,1,98.89,46Zm-3.7,1a29.22,29.22,0,0,1-1,5.33A9,9,0,0,0,91,52.16a21.66,21.66,0,0,0,1-5Zm2.27-.35a39.35,39.35,0,0,1,.61,4.73l-1.58.29a38.89,38.89,0,0,0-.55-4.73Zm2.18-.55a27.88,27.88,0,0,1,1.21,4.09l-1.5.51A30.12,30.12,0,0,0,96.65,47Zm12.3-10.74a17,17,0,0,1-3.59,5.63,15.37,15.37,0,0,0,4.75,2.71,8.94,8.94,0,0,0-1.3,1.72l-.28-.11v7.32h-2V52.4h-5.39v.71h-1.92V45.82c-.2.11-.41.2-.61.29a6.64,6.64,0,0,0-1.21-1.58,19.26,19.26,0,0,0,5.21-3.13,15.8,15.8,0,0,1-2-2.68,16.46,16.46,0,0,1-1.92,1.91A10.17,10.17,0,0,0,98.6,39.2a14.76,14.76,0,0,0,4.74-6.27l2,.55c-.26.59-.55,1.19-.85,1.76h4.22l.37-.09Zm-1.63,9.35a15.77,15.77,0,0,1-3.35-2.4,20.87,20.87,0,0,1-3.41,2.4ZM108,50.6V47h-5.39V50.6Zm-4.8-13.34a14.57,14.57,0,0,0,2.18,2.86A13,13,0,0,0,107.69,37h-4.31Z"/><path class="e" d="M115.35,47.43a27.88,27.88,0,0,1-1,5.3c-.35-.15-1.12-.42-1.49-.55a21.42,21.42,0,0,0,.92-5Zm4.31-6.23a18.82,18.82,0,0,1,1.49,4.34l-1.47.61c0-.3-.13-.61-.22-1-4.71.75-5.43.93-5.85,1.17a15.25,15.25,0,0,0-.62-1.78c.51-.13,1-.68,1.63-1.5a20.51,20.51,0,0,0,1.58-2.2,9.33,9.33,0,0,0-2.75.51,11.36,11.36,0,0,0-.59-1.76c.4-.11.77-.55,1.17-1.21a26.94,26.94,0,0,0,2.68-5.46l1.72.75a36,36,0,0,1-3.11,5.65l1.94-.15a32,32,0,0,0,1.63-3.13l1.6,1a44.1,44.1,0,0,1-4.66,7l3.17-.42c-.24-.71-.49-1.36-.75-2ZM117.55,47a44,44,0,0,1,.59,4.62l-1.52.38a41.39,41.39,0,0,0-.5-4.67Zm2.26-.59a33.51,33.51,0,0,1,1.26,4.18l-1.39.53a35.3,35.3,0,0,0-1.21-4.25Zm12.68,4.4c0,1.08-.2,1.67-.91,2a9,9,0,0,1-3.45.37,6.78,6.78,0,0,0-.59-2c1.14.07,2.26,0,2.57,0s.46-.11.46-.44v-3.9a10.15,10.15,0,0,0-1.12,1.59A9.84,9.84,0,0,1,127,44,10.73,10.73,0,0,1,124,48.6a8.26,8.26,0,0,0-.75-1.54v6.11h-1.85V37.88h4.62c0-.79-.09-1.65-.09-2.51H122.8V33.61h4.78c0,1.5,0,3,.15,4.27h4.76Zm-9.2-4.11c1.58-1.37,2.55-3.59,3-6.36,0-.2-.06-.4-.08-.62h-2.93Zm4.62-7c.35,3.12,1.14,5.52,2.66,6.93V39.75Z"/><path class="e" d="M142,33.68a37.59,37.59,0,0,1-2.25,4.6V53.15h-2V41.27a20.25,20.25,0,0,1-1.93,2.29,11.55,11.55,0,0,0-1.15-2.07,23.45,23.45,0,0,0,5.37-8.43Zm3.87,13.13a30.55,30.55,0,0,1-3.57,5.37A9.24,9.24,0,0,0,140.69,51a21.13,21.13,0,0,0,3.3-4.8Zm3.3-1.45v7.86h-2V45.36H141V43.49h6.07V41.18h-4.53V34h11.38v7.17h-4.8v2.31h6v1.87Zm-4.67-6h7.42V35.81h-7.42Zm7.24,6.87a32.23,32.23,0,0,1,3.55,4.8l-1.65,1a29.76,29.76,0,0,0-3.44-5Z"/><path class="e" d="M176.46,35v4h-2.15V36.89H159.79V39h-2V35h8.67a7.47,7.47,0,0,0-.64-1.63l2.09-.46a13.06,13.06,0,0,1,.88,2.09Zm-13.9,11.15h11.88V53h-2.09v-.81h-9.79v.92h-2.09V38.52h13.2v5.83H162.56Zm0-5.83v2.29h9.06V40.3Zm0,7.64v2.48h9.79V47.94Z"/><path d="M195.8,3.41a5.72,5.72,0,0,1,5.71,5.72V78.77a5.71,5.71,0,0,1-5.71,5.71h-67l-.87,1.5-6,10.42L115.9,86l-.87-1.5H48a5.71,5.71,0,0,1-5.71-5.71V9.13A5.72,5.72,0,0,1,48,3.41H195.8m0-3H48a8.74,8.74,0,0,0-8.71,8.72V78.77A8.74,8.74,0,0,0,48,87.48H113.3l7.39,12.81a1.41,1.41,0,0,0,2.44,0l7.4-12.81H195.8a8.74,8.74,0,0,0,8.71-8.71V9.13A8.74,8.74,0,0,0,195.8.41Z"/></g></svg>