<svg xmlns="http://www.w3.org/2000/svg" viewBox="0 0 210.51 300.09"><defs><style>.a{isolation:isolate;}.b,.e,.i{fill:#fff;}.b,.d,.e,.f,.g,.h,.j{stroke:#000;}.b,.d,.h,.j,.k{stroke-linecap:round;stroke-linejoin:round;}.b{stroke-width:5px;}.c{fill:#e6e6e6;mix-blend-mode:multiply;}.d{fill:#9cd9e2;}.d,.e,.f,.g,.h,.j{stroke-width:3px;}.e,.f,.g{stroke-miterlimit:10;}.f,.j,.k{fill:none;}.h{fill:#ffc900;}.k{stroke:#ea0c2c;stroke-width:10px;}</style></defs><title>figure-4-1</title><g class="a"><rect class="b" x="-353.79" y="-818.26" width="927.4" height="1399.22" rx="42.06" ry="42.06"/><path class="c" d="M204.76,281.35c.13,9.55-44.56,17.91-99.83,18.68S4.76,293.69,4.63,284.14s44.56-17.9,99.82-18.67S204.62,271.81,204.76,281.35Z"/><path class="d" d="M79,237.93l-.68,22.94-9-.27c.15-10.11.08-19.74,0-26.22"/><polygon class="e" points="77.48 286.28 57.21 285.68 57.41 280.96 77.69 281.57 77.48 286.28"/><line class="f" x1="65.43" y1="260.49" x2="82.59" y2="261"/><path class="g" d="M69.31,260.6c0,3.1-.12,6.24-.21,9.35,0,0-12.14-1.18-11.69,11l20.28.61.61-20.7Z"/><path class="h" d="M117.84,27.27c-2.24-2.92-6-5-9.37-3.22,1.61-3.7-1.53-7.59-5.29-8.69,3.89-1.72,7-7.24,5.3-11.07,3.69,2.5,9,.85,12-2.79-.72,5.15,0,10.35,6.61,11.1-4.39,2.17-7.95,6.73-6.28,11.5Z"/><path class="d" d="M40.27,142.12c-5.67-10.76-17.5-37.49-9.82-61a6.36,6.36,0,0,1,.32-1v0h0a5.27,5.27,0,0,1,10.08,2.06,5.19,5.19,0,0,1-.54,2.43h0v0l-.15.26C38.92,87.59,35,104,46.41,126.45"/><path class="f" d="M37,86c.07-.31.12-5.13,2.4-7.05"/><path class="f" d="M33.73,85s.59-6.85,2.83-8"/><circle class="d" cx="109.88" cy="173.43" r="83.5" transform="translate(-90.45 128.5) rotate(-45)"/><path class="e" d="M93.5,107.17c-.17,2.33-3.26,4-6.9,3.75s-6.45-2.37-6.28-4.71,3.26-4,6.9-3.75S93.67,104.83,93.5,107.17Z"/><path class="e" d="M122.32,119.16c-1.36,1.91-4.87,1.74-7.84-.37s-4.28-5.38-2.92-7.29,4.88-1.74,7.85.37S123.68,117.25,122.32,119.16Z"/><path class="f" d="M103.72,138.23l-26-7.48a4.43,4.43,0,0,1-3-5.47h0a4.43,4.43,0,0,1,5.47-3l26,7.48"/><path d="M90.26,118.94A3.3,3.3,0,1,1,88,114.86,3.3,3.3,0,0,1,90.26,118.94Z"/><path d="M114,125.76a3.3,3.3,0,1,1-2.27-4.09A3.31,3.31,0,0,1,114,125.76Z"/><path class="f" d="M92.29,149.21a3.3,3.3,0,0,1-6.35-1.82"/><path class="f" d="M98.64,151a3.3,3.3,0,1,1-6.35-1.83"/><line class="f" x1="82.99" y1="141.64" x2="104.19" y2="147.74"/><path class="i" d="M146,153.94a12.26,12.26,0,1,1-8.39-15.16A12.26,12.26,0,0,1,146,153.94Z"/><path class="i" d="M68.94,131.11A12.26,12.26,0,1,1,60.55,116,12.25,12.25,0,0,1,68.94,131.11Z"/><polygon class="e" points="75.74 59.45 85.56 32.97 68.53 22 72.84 8.72 15.43 23.97 26.07 64.05 36.53 103.41 91.36 88.85 99.36 71.22 75.74 59.45"/><path d="M39.64,50l-4.49,1.2-.56-2.1L39.08,48l-.29-1.1,2.53-.67.29,1.1,2.27-.6.55,2.09-2.27.6.25.93L39.89,51ZM57.5,61c.28,1,.25,1.63-.33,2.15a6.13,6.13,0,0,1-2.58,1.08,7.46,7.46,0,0,0-1-1.53l-1,.56a6.05,6.05,0,0,0-.55-1c-3,1-6.11,2-8.36,2.8L43,63l3.91-1.22-.44-1.64-4.85,1.29,1.55,5.85-2.46.65L39.13,62l-.82.22-.55-2,.82-.22-.16-.6,2.46-.65.16.6L45.9,58l-.24-.91-6,1.59-1.82-6.87L52.43,48l1.82,6.86-6.13,1.63.24.91,7.64-2ZM41,53.85l3.5-.93-.26-1-3.5.93Zm4.18,1.62-.26-1-3.5.93.26,1ZM53.83,44l.55,2.1-4.6,1.22.25.93L47.51,49,47.26,48l-2.14.57-.55-2.1,2.13-.56-.29-1.11,2.53-.67.29,1.11Zm-3.55,6.31-3.54.94.26,1,3.54-.94ZM51,52.91l-3.54.94.26,1,3.54-.94Zm-.12,7.56a10.59,10.59,0,0,0-.76-.86l1.7-.93-2.88.76L49.31,61ZM54.78,62c.22-.06.26-.14.21-.35l-1-3.57-2.16.58a14.84,14.84,0,0,1,2.56,3.43Z"/><path d="M79.31,52.75l-5,1.33,1.22,4.62-2.65.7-1.23-4.62-9.71,2.58-.65-2.46L64.7,54l-1.5-5.66,6.3-1.67-.69-2.59L64.19,45.3A20.28,20.28,0,0,1,62.3,50a20.08,20.08,0,0,0-2.67-1.07,17.22,17.22,0,0,0,2.63-8.39l2.79,0a16.14,16.14,0,0,1-.24,2L77,39.24l.66,2.49-6.19,1.64L72.15,46l5.7-1.51.63,2.37-5.7,1.52.88,3.28,5-1.33ZM71,52.32,70.13,49l-3.74,1,.88,3.29Z"/><polyline class="f" points="70.95 14.38 21.45 27.53 39.95 97.21 94.09 82.84"/><polygon class="e" points="156.33 20.71 144.31 27.81 149.81 47.31 124.92 60.64 134.83 85.11 117.15 93.02 171.7 120.33 188.77 86.24 208.5 46.83 156.33 20.71"/><path d="M152.86,70.82c.32.16.53-.06,1.54-1.93A5.91,5.91,0,0,0,156,70.83c-1.58,2.56-2.53,3-3.93,2.3l-1.36-.68c-1.82-.91-1.84-1.81-.8-3.89l2-4-1-.51c-1.87,3-3.9,5.1-7.94,4.87a7.63,7.63,0,0,0-.46-2.52c3.28.29,4.71-1.27,6.1-3.5l-1.26-.63,2.7-5.39c-.23.06-.44.13-.66.17a10.58,10.58,0,0,0-.36-1.33l-1,2.06-2.05-1-.15.3c.25.73.87,3.29,1,3.87l-2.3,1.24c.05-.6.05-1.58,0-2.51l-4,7.9-2.16-1.08L142,59.11a21.08,21.08,0,0,1-4.1,3.29,16.76,16.76,0,0,0,.08-2.91,23.51,23.51,0,0,0,5.12-4.13L141,54.29l1.11-2.22,2.76,1.38L146.08,51c-.72-.21-1.44-.42-2.1-.65.16-.57,1.69-.8,1.69-1.45a16.35,16.35,0,0,0,5.17.56l.41,2.63a18,18,0,0,1-2.78-.47L147,54.53l1.89.95a10,10,0,0,0-.38-1,14.22,14.22,0,0,0,6.22-2.73l1.85,1.8a20.76,20.76,0,0,1-5.14,2.82l7.07,3.54a42.7,42.7,0,0,0-1.26-5.82l2.23-.31a36.08,36.08,0,0,1,1.61,7.32l-2.45.4c0-.2,0-.41,0-.67l-2.84,5.67-1.6-.8-2,4c-.29.58-.28.66,0,.8Zm-2.24-9.49,3.85,1.93L155.58,61l-3.85-1.93Z"/><path d="M177.06,82.69l-7.77-3.89L168,81.33l-2.43-1.22,1.27-2.53-7.59-3.8,1-2,7.59,3.8.52-1-5.69-2.85,3.75-7.49,14.15,7.09-3.74,7.49-6-3-.52,1,7.77,3.89Zm-3.8-16.1L166.13,63l2-4,7.13,3.57Zm-.93-3.68-2.8-1.4L169,62.67l2.8,1.4Zm-5,5.31,3.38,1.69.53-1.06-3.38-1.69Zm2,4.46.54-1.07-3.38-1.69L165.93,71Zm12.33-1.89-7.17-3.59,2-4,7.17,3.59Zm-4.38,1.08-3.6-1.8-.53,1.06,3.6,1.8Zm-1.38,2.76-3.6-1.8-.54,1.07,3.6,1.8Zm4.84-7.52-2.86-1.43-.58,1.16,2.86,1.43Z"/><polyline class="f" points="123.44 90.45 169.23 113.38 201.51 48.91 151.43 23.83"/><path class="d" d="M158.75,162.79c8-9.16,25.68-32.44,23.61-57a4.27,4.27,0,0,0-.09-1v0h0a5.28,5.28,0,0,0-10.29-.31,5.12,5.12,0,0,0,0,2.49h0v0c0,.09.05.19.08.28.62,2.85.59,19.76-15.64,38.94"/><path class="f" d="M174.87,109c0-.32,1.07-5-.7-7.42"/><path class="f" d="M178.3,108.68s1-6.8-.9-8.46"/><line class="j" x1="25.45" y1="48.91" x2="1.5" y2="55.19"/><line class="j" x1="28.07" y1="58.91" x2="11.62" y2="63.23"/><line class="j" x1="197.03" y1="90.63" x2="188.79" y2="84.34"/><line class="j" x1="192.93" y1="95.48" x2="184.68" y2="89.19"/><path class="d" d="M138.76,237.93l-.68,22.94-9-.27c.15-10.11.08-13.27,0-19.74"/><polygon class="e" points="137.26 286.58 116.98 285.98 117.19 280.96 137.47 281.57 137.26 286.58"/><line class="f" x1="125.22" y1="260.49" x2="142.38" y2="261"/><path class="g" d="M129.09,260.6c-.05,3.1-.11,6.24-.2,9.35,0,0-12.15-1.18-11.69,11l20.27.61.61-20.7Z"/><rect class="k" x="-681.89" y="-993.58" width="1469.71" height="1829.63"/></g></svg>