<svg xmlns="http://www.w3.org/2000/svg" viewBox="0 0 549.5 193.4"><defs><style>.a{fill:#f66c00;stroke:#000;stroke-linecap:round;stroke-linejoin:round;stroke-width:5px;}.b{fill:#fff;}.c,.d{fill:none;stroke-miterlimit:10;stroke-width:3px;}.c{stroke:#fff;}.d{stroke:#ff1d25;}</style></defs><title>home-title</title><rect class="a" x="2.5" y="2.5" width="544.5" height="188.4" rx="16.66" ry="16.66"/><path class="b" d="M104.61,90.75A2.87,2.87,0,0,1,102,92.4a5.37,5.37,0,0,1-5.16-5c0-1,.33-1.72,2-4.43a55.47,55.47,0,0,0,5.76-15.08h-3.44c-2.18,0-3.44-1.52-3.44-4.3s1.26-4.3,3.44-4.3h3.44V50.27c0-2.32,1.65-3.64,4.56-3.64s4.63,1.32,4.63,3.64v9.06c2.58,0,4.9,0,4.9,4.3s-2.38,4.3-4.9,4.3v2a5.21,5.21,0,0,1,1.59-.26c1.32,0,1.72.39,2.78,3,1.26,3.24,1.65,4.5,1.65,5.36a3.44,3.44,0,0,1-3.7,3.11,2.07,2.07,0,0,1-2.32-1.59v25.8c0,2.31-1.65,3.64-4.63,3.64s-4.56-1.33-4.56-3.64Zm40.88-6.82v2h8.73c1.19,0,1.85.8,1.85,2.39s-.66,2.31-1.85,2.31h-8.73V92.8h9.13c1.19,0,1.85.86,1.85,2.31s-.66,2.38-1.85,2.38h-9.13v2.39H156.4c1.79,0,2.78,1.25,2.78,3.5s-1,3.51-2.78,3.51H126.64c-4.9,0-6.29-1.33-6.29-6V91.94a6.58,6.58,0,0,1-1,.13c-2.32,0-4.7-2.51-4.7-5,0-1.32.53-2.12,3-4.5,2-1.85,2.58-2.71,5.09-7.14A5.85,5.85,0,0,1,123.79,74c-2.64-.07-3.7-1.13-3.7-3.71V64.88c0-2.91,1.25-4.16,4.1-4.16h3.5A3,3,0,0,1,125.25,58H118.9c-1.92,0-3-1.32-3-3.7s1.06-3.7,3-3.7h6.35c0-1,0-4,4.49-4s4.5,3,4.5,4H142c0-1.19,0-4,4.57-4s4.49,2.85,4.49,4h5.23c1.92,0,2.91,1.32,2.91,3.7s-1.06,3.7-3,3.7H151a3,3,0,0,1-2.18,2.72h3.44c2.91,0,4.1,1.19,4.1,4.16v5c0,3-1.19,4.16-4.1,4.16h-7.54a2.72,2.72,0,0,1,2,2.58,2.42,2.42,0,0,1-.06.66h9.26c1.65,0,2.64,1.19,2.64,3.38s-.92,3.3-2.64,3.3ZM127.36,66.07c-.79,0-.79.2-.79,1.79,0,.6.2.79.79.79H130c.79,0,.79-.19.79-1.78,0-.6-.2-.8-.79-.8Zm2,7.94c.66.4,2.25,1.52,2,3.24h6.22a4.67,4.67,0,0,0,.66-1c1.13-2.32,1.32-2.58,2.32-2.72a3.29,3.29,0,0,1-1.46-3.24V64.88c0-4.16,2.32-4.16,5.16-4.16A2.94,2.94,0,0,1,142,58h-7.74a3,3,0,0,1-2.45,2.72c3.18,0,5.63,0,5.63,4.16v5c0,2.91-1.26,4.16-4.1,4.16Zm7.07,9.92h-6.87v2h6.87Zm0,6.75h-6.87V92.8h6.87Zm0,6.81h-6.87c0,2.25,0,2.39,1.39,2.39h5.48Zm9.93-31.42c-.8,0-.8.2-.8,1.79,0,.6.2.79.8.79H149c.8,0,.8-.19.8-1.78,0-.6-.2-.8-.8-.8Z"/><path class="b" d="M183.72,87.18a43.92,43.92,0,0,1-5.82,6.74,5.55,5.55,0,0,1-4.1,1.79,4.79,4.79,0,0,1-4.7-4.83c0-1.79.6-2.65,3.58-5.16a61.1,61.1,0,0,0,9.19-11.31c.4-.6.46-.73.66-1H174c-2.32,0-3.64-1.66-3.64-4.57s1.32-4.56,3.64-4.56h9.72V59.46a45.14,45.14,0,0,1-6.94.73c-2.85,0-4.44-1.79-4.44-5s1.26-4,6.95-4.43a70.63,70.63,0,0,0,8.86-1.46,66.82,66.82,0,0,0,6.68-1.85,9.75,9.75,0,0,1,3.11-.59c2.32,0,4.17,2.38,4.17,5.42,0,3.57-3.24,4.37-9.06,5.62v6.42h6.68c2.31,0,3.64,1.65,3.64,4.56s-1.33,4.57-3.64,4.57h-6.68V76.2a4.63,4.63,0,0,1,2.51-.67c1.85,0,2.52.53,4.57,3.91C202.38,83,203,84.53,203,86.12a4.35,4.35,0,0,1-4.37,4.3c-2.45,0-3.37-1.46-5.62-5.69V104.9c0,2.45-1.65,3.77-4.63,3.77s-4.7-1.39-4.7-3.77ZM206,54.1c0-2.45,1.72-3.77,4.7-3.77s4.76,1.32,4.76,3.77V90c0,2.45-1.65,3.77-4.76,3.77S206,92.47,206,90Zm14.29-2.78c0-2.44,1.72-3.83,4.83-3.83S230,48.88,230,51.32V98.69c0,6.94-2.45,9.26-9.86,9.26-7.8,0-9.52-.93-9.52-5,0-3,1.25-4.57,3.9-4.57.66,0,3.51.27,4,.27,1.45,0,1.78-.33,1.78-1.65Z"/><path class="b" d="M291.48,88.56a26.78,26.78,0,0,1-4.9,6.49c14.75,3.9,15.28,4.49,15.28,7.34,0,3.24-1.52,5.49-3.7,5.49a10,10,0,0,1-2.78-.6c-3.51-1.25-7.08-2.64-10.78-4a46.3,46.3,0,0,0-6.48-2.12,49.41,49.41,0,0,1-14,4.76,87.13,87.13,0,0,1-15.28,1.59c-2.32,0-5,0-5-4.3,0-4.5,2.31-4.5,7.74-4.63a89.71,89.71,0,0,0,12.43-1.13l-4.3-.86c-4.43-.86-6.41-1.19-6.41-4.23,0-1.19.53-2,2.58-3.84h-9.59c-2.06,0-3.18-1.45-3.18-4s1.12-4,3.18-4H263a15.65,15.65,0,0,1,2.05-2.64H253.24c-3.9,0-5.35-1.46-5.35-5.36V65.35c0-3.91,1.45-5.36,5.35-5.36h9.33V57.48H246.63c-2.12,0-3.24-1.46-3.24-4s1.12-4,3.24-4h54c2.05,0,3.18,1.45,3.18,4s-1.13,4-3.18,4H284.86V60h9.46c3.9,0,5.36,1.45,5.36,5.36v7.21c0,3.9-1.46,5.36-5.36,5.36H270.24c1.72.72,2.78,1.78,3,2.64h27.32c2,0,3.17,1.39,3.17,4s-1.12,4-3.17,4ZM262.57,67.07h-3.64c-1.39,0-1.58.39-1.58,1.72s.33,1.58,1.58,1.58h3.64ZM268,88.56c-.4.4-1.2,1.13-1.2,1.39s.27.33.8.47c1.32.33,7.28,1.52,8.47,1.85a16.88,16.88,0,0,0,4-3.71ZM271.57,60h4.23V57.48h-4.23Zm0,7.08v3.3h4.23v-3.3Zm13.29,0v3.3h3.64c1.32,0,1.59-.39,1.59-1.72s-.33-1.58-1.59-1.58Z"/><path class="b" d="M318.4,56.68c0-5.82,1.39-7.21,7.21-7.21h42.67c5.82,0,7.21,1.39,7.21,7.21v42.2c0,5.76-1.39,7.15-7.21,7.15H325.61c-5.82,0-7.21-1.39-7.21-7.15Zm11.05,1.79c-1.13,0-1.46.33-1.46,1.45V95.58c0,1,.33,1.39,1.46,1.39h35c1.12,0,1.45-.34,1.45-1.39V59.92c0-1.12-.33-1.45-1.45-1.45Zm3.3,10.85c0-4.83,1.33-6.16,6.16-6.16h16.34c4.82,0,6.15,1.33,6.15,6.16v16.8c0,4.83-1.33,6.15-6.15,6.15H338.91c-4.83,0-6.16-1.32-6.16-6.15Zm10.46,2.51c-1.19,0-1.46.26-1.46,1.45v8.87c0,1.19.27,1.45,1.46,1.45h7.47c1.19,0,1.46-.26,1.46-1.45V73.28c0-1.19-.27-1.45-1.46-1.45Z"/><path class="b" d="M425.36,70.51a26,26,0,0,1-3,2.38,27.42,27.42,0,0,1,3,4.43,6.5,6.5,0,0,0,1,1.32,39.56,39.56,0,0,0,10.52-6.28c1.59-1.32,2.51-1.72,3.77-1.72,2.38,0,4.7,2.58,4.7,5.09,0,1.85-.73,2.91-3.11,4.7A48.52,48.52,0,0,1,433,85.92a52.35,52.35,0,0,0,11.64,8.27c4.23,2.18,4.9,2.84,4.9,5.29a5.18,5.18,0,0,1-5.16,5.49c-4.7,0-13.89-8.34-16-10.72,0,14.36-4.83,14.56-10.39,14.56-6.21,0-7.8-.93-7.8-4.57,0-2.71,1.52-4.63,3.57-4.63.53,0,3,.33,3.44.33,1.46,0,1.92-1.06,1.92-4.3-5.49,3.51-20.37,9.79-25.2,9.79-2.45,0-4.24-2.18-4.24-5.09,0-2.51,1.13-3.51,5.1-4.43a75.74,75.74,0,0,0,15.34-5,65.13,65.13,0,0,0,8.4-4.56c-.06-.6-.19-1.06-.26-1.53-7.08,4-17.66,7.74-22.29,7.74a3.85,3.85,0,0,1-3.84-4.16c0-3.11,1.79-3.44,5.62-4.24a60.56,60.56,0,0,0,17.47-6.08,3.93,3.93,0,0,0-.86-.93c-4.9,1.92-14.16,5-18.06,5-2.65,0-4-1.46-4-4.3,0-2.18.93-3.31,3.11-3.64,6.81-1.06,11.84-1.85,15.94-3.7h-5.95c-3.38,0-4.57-1-4.57-3.84,0-3.24,1.26-4.43,4.76-4.43h29.18c2.05,0,3.24,1.45,3.24,4.17s-1.19,4.1-3.24,4.1ZM414.12,51.65c0-1.85,0-5,5.22-5s5.3,3.17,5.3,5H442.3c4.63,0,6.08,1.46,6.08,6.09v6.09c0,3.83-2.51,4.69-5,4.69-3,0-4.56-1.52-4.56-4.63v-2c0-1.12-.33-1.45-1.46-1.45h-36c-1.13,0-1.46.33-1.46,1.45v3c0,2.32-1.72,3.71-4.69,3.71s-4.7-1.39-4.7-3.71V57.74c0-4.63,1.46-6.09,6.09-6.09Z"/><path class="b" d="M63.42,132.92H70.3a24.72,24.72,0,0,0,.85-2.69,1,1,0,0,1,.79-.73,2.84,2.84,0,0,1,1.35.26,1.11,1.11,0,0,1,.55,1,3.9,3.9,0,0,1-.17,1c-.1.37-.22.75-.35,1.14H87.2a1.67,1.67,0,0,1,1.09.3,1.42,1.42,0,0,1,.32,1.11,1.62,1.62,0,0,1-.29,1,1.32,1.32,0,0,1-1.12.46H72.29a21.85,21.85,0,0,1-1.43,2.82H83.69c1.56,0,2.34.9,2.34,2.69v12.8a1.91,1.91,0,0,1-.85,1.88,5.79,5.79,0,0,1-2.9.59,10,10,0,0,1-4.36-.74,1.55,1.55,0,0,1-.82-1.17c0-1,.44-1.55,1.32-1.61a4.42,4.42,0,0,1,.79.09,12.56,12.56,0,0,0,3.19.47.49.49,0,0,0,.44-.56v-2.7H70.3v5a1.32,1.32,0,0,1-.44,1.12,1.93,1.93,0,0,1-1.17.29,1.48,1.48,0,0,1-1.17-.38,1.5,1.5,0,0,1-.35-1V143.53a22.93,22.93,0,0,1-2.73,2.31,1.89,1.89,0,0,1-.91.41,1.75,1.75,0,0,1-1.43-.64,2.15,2.15,0,0,1-.35-1.2,1.23,1.23,0,0,1,.61-1.17,20.22,20.22,0,0,0,5.24-5.16A17.06,17.06,0,0,0,69,135.82H63.42a1.61,1.61,0,0,1-1.09-.32,1.56,1.56,0,0,1-.35-1.17,1.59,1.59,0,0,1,.35-1.11A1.73,1.73,0,0,1,63.42,132.92Zm6.88,10.52H82.84v-1.61c0-.33-.11-.5-.32-.5H70.92c-.42,0-.62.17-.62.5Zm0,4.48H82.84v-2H70.3Z"/><path class="b" d="M96.77,132.19h3.63v-1.4a1.49,1.49,0,0,1,.32-1.06,1.42,1.42,0,0,1,1.09-.32,1.82,1.82,0,0,1,1.17.29,1.54,1.54,0,0,1,.32,1.09v1.4h3.43a1.44,1.44,0,0,1,.94.27c.23.15.35.49.35,1a1.7,1.7,0,0,1-.21,1,1.34,1.34,0,0,1-1.08.41H103.3v2.69h4a1.27,1.27,0,0,1,1,.32c.22.16.32.53.32,1.12a1.66,1.66,0,0,1-.2.94,1.24,1.24,0,0,1-1.09.46h-.82l-.9,3.37h1.17a1.34,1.34,0,0,1,.94.3c.23.13.35.46.35,1a1.64,1.64,0,0,1-.21,1,1.26,1.26,0,0,1-1.08.47H103.3v2.93h4a1.61,1.61,0,0,1,1,.23c.22.16.32.51.32,1.06a1.67,1.67,0,0,1-.2,1,1.3,1.3,0,0,1-1.09.41h-4v3.64a1.32,1.32,0,0,1-.35,1.05,1.62,1.62,0,0,1-1.14.35,1.37,1.37,0,0,1-1.06-.35,1.32,1.32,0,0,1-.35-1.05v-3.64H95.92a1.27,1.27,0,0,1-.91-.32,1.18,1.18,0,0,1-.38-1,1.3,1.3,0,0,1,.38-1.09,1.57,1.57,0,0,1,.91-.2h4.48v-2.93H96.65a1.24,1.24,0,0,1-.94-.35,1.39,1.39,0,0,1-.35-1.09,1.21,1.21,0,0,1,.35-1,1.3,1.3,0,0,1,.94-.27h1.11L97,140.42H96a1.22,1.22,0,0,1-1.28-1.4,1.41,1.41,0,0,1,.35-1.14,1.24,1.24,0,0,1,.93-.3h4.37v-2.69H96.77a1.25,1.25,0,0,1-.94-.33c-.24-.17-.35-.53-.35-1.08a1.28,1.28,0,0,1,.35-1A1.4,1.4,0,0,1,96.77,132.19Zm3.69,11.6h2.4l.88-3.37H99.67Zm17.63-13.09a2.16,2.16,0,0,1,1.73.58,1.9,1.9,0,0,1,.62,1.53c0,.86,0,1.87-.09,3a7.65,7.65,0,0,1-.41,2.29,2.17,2.17,0,0,1-2,1.55,13.31,13.31,0,0,1-3.52-.32,1.47,1.47,0,0,1-1-1.29q0-1.26,1-1.41a4.68,4.68,0,0,1,.73.06,11.24,11.24,0,0,0,1.85.18c.35-.06.54-.37.55-.94s.06-1.19.06-2c0-.22-.16-.38-.49-.5H112c-.23,0-.35.08-.35.23v7.39h7.27a2.59,2.59,0,0,1,1.66.44,1.94,1.94,0,0,1,.53,1.58,16.47,16.47,0,0,1-1.84,7.29c-.24.43-.48.84-.74,1.23a18.79,18.79,0,0,0,2.82,2.49,1.26,1.26,0,0,1,.61.91,1.36,1.36,0,0,1-.7,1.15,1.76,1.76,0,0,1-1.06.29,1.6,1.6,0,0,1-1.17-.62,19.12,19.12,0,0,1-2.2-1.93,18,18,0,0,1-1.81,1.79,3.23,3.23,0,0,1-1.64.88,1.33,1.33,0,0,1-1.14-.47,1.27,1.27,0,0,1-.24-.82,1.43,1.43,0,0,1,.32-.94,21,21,0,0,0,2.7-2.58l-.21-.26a24.17,24.17,0,0,1-2.34-4.37,4.16,4.16,0,0,1-.26-.91,1,1,0,0,1,.46-.85,1.85,1.85,0,0,1,1.18-.32,1.17,1.17,0,0,1,1.05.82,22,22,0,0,0,1.85,3.52l0-.06a11.07,11.07,0,0,0,1.52-5.3.33.33,0,0,0-.32-.38h-6.33v12.07a1.43,1.43,0,0,1-2.84,0V132.43c0-1.16.51-1.73,1.55-1.73Z"/><path class="b" d="M137.27,129.73a1.55,1.55,0,0,1,1.17.44,1.66,1.66,0,0,1,0,2.26,18.83,18.83,0,0,1-3.31,1v4h1.64a1.7,1.7,0,0,1,1.2.36,1,1,0,0,1,.32.7,29.53,29.53,0,0,0,2.84-6.77,1.13,1.13,0,0,1,.94-.85,2.61,2.61,0,0,1,1.2.24,1.09,1.09,0,0,1,.53,1.05,5.8,5.8,0,0,1-.12.85,25.8,25.8,0,0,1-1.4,3.75h8.08a2,2,0,0,1,.65.09c-.37-1-.76-2.09-1.15-3.28a.78.78,0,0,0-.79-.56h-3.25a1.49,1.49,0,0,1-1-.35,1.69,1.69,0,0,1-.32-1.06,1.25,1.25,0,0,1,.35-1,1.2,1.2,0,0,1,.94-.32h4.1q1.65,0,2.58,2.46,1.2,3.36,2.46,6.32a2,2,0,0,1,.21.91,1.22,1.22,0,0,1-.35.85,1.68,1.68,0,0,1-1.15.44,1.54,1.54,0,0,1-1.08-.35c-.18-.39-.36-.84-.56-1.35v4.66c0,1.08-.55,1.61-1.67,1.61h-.79v7.62c0,.33.15.5.44.5h.59c.48-.08.78-.43.88-1.06a18.92,18.92,0,0,0,.17-2.69.89.89,0,0,1,.41-.68,2.92,2.92,0,0,1,.65-.14,5.12,5.12,0,0,1,.9.06,1.09,1.09,0,0,1,.62,1.11,16,16,0,0,1-.44,4.22,2.46,2.46,0,0,1-2,1.87h-3c-1.35-.1-2-.92-2-2.46V145.9h-1.67a19.2,19.2,0,0,1-.79,4.89,11.35,11.35,0,0,1-3.58,5.34,1.94,1.94,0,0,1-1.2.58,1.44,1.44,0,0,1-1.11-.5,1.6,1.6,0,0,1-.44-.9,1.1,1.1,0,0,1,.5-.94,11.27,11.27,0,0,0,3.05-3.93,13,13,0,0,0,.87-4.54h-.67a1.44,1.44,0,0,1-1.64-1.61v-3.37a1.54,1.54,0,0,1-.94.29,1.71,1.71,0,0,1-1.14-.38.78.78,0,0,1-.32-.46,2.23,2.23,0,0,1-.88.17h-1.64V142a1.84,1.84,0,0,1,.47-.06,2.63,2.63,0,0,1,.7.09,9.31,9.31,0,0,1,1.29,1.69,10.28,10.28,0,0,1,1.52,4,1.08,1.08,0,0,1-.32.82,1.53,1.53,0,0,1-1.08.32,1.14,1.14,0,0,1-.94-.58c-.49-1.18-1-2.33-1.64-3.46v10.63a1.3,1.3,0,0,1-.35,1,1.59,1.59,0,0,1-1.15.38,1.42,1.42,0,0,1-1.08-.38,1.4,1.4,0,0,1-.32-1v-9.25c-.94,2.89-1.72,4.64-2.35,5.27a1.56,1.56,0,0,1-1.17.35,1.49,1.49,0,0,1-.85-.38,1.39,1.39,0,0,1-.35-.91,3.34,3.34,0,0,1,.35-1.37,48.58,48.58,0,0,0,3.9-8.59h-2.49a1.83,1.83,0,0,1-1.17-.35,1.59,1.59,0,0,1-.35-1.17,1.76,1.76,0,0,1,.35-1.2,1.78,1.78,0,0,1,1.17-.36h3v-3.39a20.29,20.29,0,0,1-2.46.26q-1.5-.09-1.53-1.41a1.19,1.19,0,0,1,.91-1.29,50,50,0,0,0,7.24-1.67A2.8,2.8,0,0,1,137.27,129.73Zm11.25,13.51c.37,0,.55-.2.55-.59V140a.48.48,0,0,0-.55-.55h-4.93c-.41,0-.61.18-.61.55v2.61a.53.53,0,0,0,.61.59Z"/><path class="b" d="M166.84,129.73A2.14,2.14,0,0,1,168,130a1.08,1.08,0,0,1,.5.91,19.39,19.39,0,0,1-.67,2.58h1.84a1.88,1.88,0,0,1,2.11,2.14v2.81a21.19,21.19,0,0,0,2-3.72,17.72,17.72,0,0,0,1.2-3.92c.14-.79.52-1.18,1.15-1.18a2.7,2.7,0,0,1,1.08.18,1.32,1.32,0,0,1,.82,1.35,11.3,11.3,0,0,1-.47,2.14.16.16,0,0,0,0,.08h6.36c2.09,0,3.14,1.17,3.14,3.49q0,12.48-.42,15.56a4.88,4.88,0,0,1-1.05,3.13,4.25,4.25,0,0,1-3.08,1.17,14.56,14.56,0,0,1-6-1.05c-.65-.24-1-.82-1-1.76a1.49,1.49,0,0,1,.53-1,1.39,1.39,0,0,1,1-.42,2.14,2.14,0,0,1,.62.12,15.61,15.61,0,0,0,4.8.82c.73-.11,1.11-.76,1.15-1.93q.26-3.1.26-14.24a.84.84,0,0,0-.29-.76.92.92,0,0,0-.65-.18h-6.5a14.52,14.52,0,0,1-2.29,4.13,1.84,1.84,0,0,1-1.4.56,1.6,1.6,0,0,1-.91-.26.09.09,0,0,1-.06,0v12.83a1.88,1.88,0,0,1-2.11,2.14h-6.44a1.88,1.88,0,0,1-2.11-2.14v-17.9a1.88,1.88,0,0,1,2.11-2.14h1.17c.23-.84.52-1.77.85-2.78A1.59,1.59,0,0,1,166.84,129.73Zm-2.67,12.92h4.57V137c0-.3-.16-.44-.49-.44h-3.64a.39.39,0,0,0-.44.44Zm4.08,9.93c.33,0,.49-.15.49-.47V145.7h-4.57v6.41c0,.32.15.47.44.47Zm7.38-11.72a2,2,0,0,1,1.08.47,15.1,15.1,0,0,1,2.73,3.66,6,6,0,0,1,1,2.93,1.05,1.05,0,0,1-.35.85,1.49,1.49,0,0,1-1.17.44,1.31,1.31,0,0,1-.79-.2,1.61,1.61,0,0,1-.38-.53q-1-1.87-3.43-5.62a1.19,1.19,0,0,1-.21-.71,1.57,1.57,0,0,1,.12-.52,1.31,1.31,0,0,1,.65-.62A1.8,1.8,0,0,1,175.63,140.86Z"/><path class="b" d="M200.07,129.73a2.7,2.7,0,0,1,1.29.26,1.16,1.16,0,0,1,.62,1.15,12.31,12.31,0,0,1-.24,1.29,36.2,36.2,0,0,1-1.55,4.51v18.37a1.4,1.4,0,0,1-.44,1.14,1.58,1.58,0,0,1-1.2.38,1.4,1.4,0,0,1-1.08-.38,1.42,1.42,0,0,1-.41-1.14V143.5c-.18.31-.35.58-.5.79a1.61,1.61,0,0,1-1.29.56,2.08,2.08,0,0,1-1.32-.44,1.39,1.39,0,0,1-.44-1.09,2.25,2.25,0,0,1,.38-1A45.47,45.47,0,0,0,199,130.7,1.39,1.39,0,0,1,200.07,129.73Zm5.54,11.6a2.39,2.39,0,0,1,1,.18,1.24,1.24,0,0,1,.73,1.26,10.12,10.12,0,0,1-.41,2c-1.06,3.44-2.05,5.73-3,6.88a1.74,1.74,0,0,1-1.41.56,1.61,1.61,0,0,1-.87-.26,1.13,1.13,0,0,1-.65-1.15,1.78,1.78,0,0,1,.35-.82,21.67,21.67,0,0,0,2-3.8,14.85,14.85,0,0,0,1.09-3.7C204.57,141.72,205,141.33,205.61,141.33Zm1.06-11.48a2.29,2.29,0,0,1,1.25.29,1.26,1.26,0,0,1,.59,1.26,6.34,6.34,0,0,1-.47,1.9l-.44,1h10.32a3.13,3.13,0,0,1,1.72.35,1.5,1.5,0,0,1,.59,1.26,6.05,6.05,0,0,1-.23,1.35,11.56,11.56,0,0,1-1.24,3.25,1.56,1.56,0,0,1-1.34.56,2.45,2.45,0,0,1-1.17-.3,1.15,1.15,0,0,1-.33-.87,1.06,1.06,0,0,1,.21-.68,7.83,7.83,0,0,0,1-2.25H206.43a20.9,20.9,0,0,1-2,3.54,1.67,1.67,0,0,1-1.52.79,1.8,1.8,0,0,1-1.24-.44,1.21,1.21,0,0,1-.43-1,3.65,3.65,0,0,1,.58-1.29,37.33,37.33,0,0,0,3.9-7.85C205.88,130.16,206.2,129.85,206.67,129.85Zm4.54,8.9a1.33,1.33,0,0,1,1.52,1.44V154a2.41,2.41,0,0,1-.7,2,4.34,4.34,0,0,1-2.44.7,15.36,15.36,0,0,1-2.08-.17,12.83,12.83,0,0,1-1.9-.44,1.49,1.49,0,0,1-.85-1.29,2.25,2.25,0,0,1,.35-1.26,1.15,1.15,0,0,1,.85-.35l.71,0a23.34,23.34,0,0,0,2.57.29c.32,0,.47-.15.47-.44V140.19Q209.71,138.75,211.21,138.75Zm4.48,2.85a1.28,1.28,0,0,1,.91.44,78.31,78.31,0,0,1,3.72,7.88,5.11,5.11,0,0,1,.52,1.75,1.17,1.17,0,0,1-.49,1.06,1.49,1.49,0,0,1-1,.47,1.3,1.3,0,0,1-1.29-.85,79.67,79.67,0,0,0-3.51-8,3.48,3.48,0,0,1-.5-1.47,1.11,1.11,0,0,1,.56-1A2,2,0,0,1,215.69,141.6Z"/><path class="b" d="M228.77,132.92h2.78V131a1.49,1.49,0,0,1,.32-1.06,1.45,1.45,0,0,1,1.09-.35,1.57,1.57,0,0,1,1.17.33,1.48,1.48,0,0,1,.35,1.08v1.9h2.72a1.55,1.55,0,0,1,1,.27c.2.15.29.5.29,1a1.42,1.42,0,0,1-.26.94,1.21,1.21,0,0,1-1,.47h-2.72v3H236a18.07,18.07,0,0,0,4.13-6.1.68.68,0,0,1,.68-.55,2.9,2.9,0,0,1,1.17.2,1,1,0,0,1,.5,1,2.41,2.41,0,0,1-.24.85,21.13,21.13,0,0,1-2.75,4.63h2a1.43,1.43,0,0,1,1,.29,1.46,1.46,0,0,1,.26,1,1.66,1.66,0,0,1-.21,1,1.27,1.27,0,0,1-1.08.44H237a23.58,23.58,0,0,1-2.73,2.23h5.1c1.35,0,2,.63,2,1.9v9c0,1.07-.75,1.61-2.25,1.61h-8.06c-1.41,0-2.11-.54-2.11-1.61v-7.88a4,4,0,0,1-1.29.38,1.29,1.29,0,0,1-1.14-.56,1.88,1.88,0,0,1-.26-1,1,1,0,0,1,.44-1,34.34,34.34,0,0,0,6-3.17H228a1.33,1.33,0,0,1-1-.32,1.42,1.42,0,0,1-.32-1.08,1.1,1.1,0,0,1,1.28-1.29h3.52v-3h-2.78a1.32,1.32,0,0,1-1-.35,1.53,1.53,0,0,1-.29-1.06,1.57,1.57,0,0,1,.29-1A1.55,1.55,0,0,1,228.77,132.92Zm3.13,15.56h6.59v-2c0-.18-.12-.27-.38-.27h-5.83c-.25,0-.38.17-.38.5Zm.38,4.92h5.83c.26,0,.38-.07.38-.2v-2.26H231.9v2.26C231.9,153.33,232,153.4,232.28,153.4Zm19.43-22.7c1,0,1.52.61,1.52,1.84a23.05,23.05,0,0,1-1.85,7.77,12.73,12.73,0,0,1,2.46,7,5.56,5.56,0,0,1-.87,3.48,3.56,3.56,0,0,1-2.76,1.32,14.82,14.82,0,0,1-3.87-.55v4.1c-.05.72-.52,1.11-1.4,1.17s-1.37-.45-1.41-1.17V132.19c0-1,.39-1.49,1.17-1.49Zm-5.37,17.69a3.19,3.19,0,0,1,.71.21,10.28,10.28,0,0,0,2.2.5,1.28,1.28,0,0,0,1.28-1,5.21,5.21,0,0,0,.24-1.88,7.88,7.88,0,0,0-2-4.54,2.32,2.32,0,0,1-.5-1.29,2.23,2.23,0,0,1,.29-1,20.25,20.25,0,0,0,1.61-5.72.21.21,0,0,0-.23-.23h-3.64Z"/><path class="b" d="M260.8,134.89h9a1.16,1.16,0,0,1,1.41,1.4,1.48,1.48,0,0,1-.26,1,1.36,1.36,0,0,1-1.15.47h-9a1.22,1.22,0,0,1-1.38-1.44,1.59,1.59,0,0,1,.33-1.08A1.47,1.47,0,0,1,260.8,134.89Zm1.41,12.54h5.88a1.76,1.76,0,0,1,2,2v4.92a1.74,1.74,0,0,1-2,2h-5.88a1.74,1.74,0,0,1-2-2v-4.92A1.76,1.76,0,0,1,262.21,147.43Zm-.33-8.18h6.89a1.49,1.49,0,0,1,1,.27,1.35,1.35,0,0,1,.27,1,1.44,1.44,0,0,1-.24.88,1.25,1.25,0,0,1-1.05.41h-6.89a1.35,1.35,0,0,1-1-.32,1.26,1.26,0,0,1-.3-1,1.07,1.07,0,0,1,1.29-1.29Zm0,4.07h6.77a1.06,1.06,0,0,1,1.29,1.29,1.48,1.48,0,0,1-.23.91,1.31,1.31,0,0,1-1.06.38h-6.77a1.44,1.44,0,0,1-1-.29,1.31,1.31,0,0,1-.3-1,1.46,1.46,0,0,1,.3-1A1.4,1.4,0,0,1,261.88,143.32Zm.12-12.53h6.77a1.31,1.31,0,0,1,.94.26,1.19,1.19,0,0,1,.35,1,1.7,1.7,0,0,1-.21,1,1.29,1.29,0,0,1-1.08.41H262a1.37,1.37,0,0,1-.94-.32,1.81,1.81,0,0,1,0-2.14A1.42,1.42,0,0,1,262,130.79Zm4.69,23a.49.49,0,0,0,.56-.55v-2.58c0-.41-.19-.62-.56-.62h-3.08c-.37,0-.55.21-.55.62v2.58a.48.48,0,0,0,.55.55ZM279,129.5a1.79,1.79,0,0,1,1.18.32,1.36,1.36,0,0,1,.46,1.08v1.53h5a1.5,1.5,0,0,1,1.09.32,1.54,1.54,0,0,1,.29,1.08,2,2,0,0,1-.23,1.06,1.37,1.37,0,0,1-1.15.49h-6a1.5,1.5,0,0,1-.15.36,13.28,13.28,0,0,1-2.14,3.31,23,23,0,0,1-1.55,1.78c.6.57,1.18,1.16,1.73,1.76a4.56,4.56,0,0,0,.44-.44,21.63,21.63,0,0,0,3.78-4.69,1.22,1.22,0,0,1,1.05-.46,1.25,1.25,0,0,1,.73.26,1.29,1.29,0,0,1,.56,1.14,4,4,0,0,1-.29.88,13.38,13.38,0,0,1-2.7,3.69,35.55,35.55,0,0,1-7.21,6.57,1.81,1.81,0,0,1-1.05.35,1.54,1.54,0,0,1-1-.47,1.58,1.58,0,0,1-.38-1.06,1.15,1.15,0,0,1,.35-.82c1.27-.95,2.43-1.88,3.46-2.78q-1.69-1.75-3.81-3.55a1.7,1.7,0,0,1-.73-1.28,1.27,1.27,0,0,1,.44-.94,1.37,1.37,0,0,1,1-.47,2.71,2.71,0,0,1,1.52.5l.06.06a30.53,30.53,0,0,0,2.75-3.7h-4a1.42,1.42,0,0,1-1.06-.38,2,2,0,0,1,0-2.25,1.58,1.58,0,0,1,1.06-.32h4.8V130.9a1.56,1.56,0,0,1,.47-1.08A1.69,1.69,0,0,1,279,129.5Zm5.39,13.94a2,2,0,0,1,.94.27,1.35,1.35,0,0,1,.68,1.14,4.23,4.23,0,0,1-.85,1.93,28.77,28.77,0,0,1-3,3.49l.2.2a26.42,26.42,0,0,0,3.58,3.05,3.51,3.51,0,0,1,.76.61,1.33,1.33,0,0,1,.32.91,1.55,1.55,0,0,1-.5,1.15,1.82,1.82,0,0,1-1.23.52,1.63,1.63,0,0,1-1-.32,26.69,26.69,0,0,1-4.08-3.75,3.52,3.52,0,0,1-.35-.41,27.92,27.92,0,0,1-5.8,3.49,5.08,5.08,0,0,1-1.79.49,1.3,1.3,0,0,1-1-.35,1.39,1.39,0,0,1-.41-1.05,1.34,1.34,0,0,1,.61-1.06,39.13,39.13,0,0,0,6.92-4.33,21.14,21.14,0,0,0,4.89-5.48A1.38,1.38,0,0,1,284.38,143.44Z"/><path class="b" d="M296.85,129.73A2.16,2.16,0,0,1,298,130a1.15,1.15,0,0,1,.61,1.15,5.65,5.65,0,0,1-.35,1.64c-.08.21-.15.41-.23.58h7.73a1.36,1.36,0,0,1,1,.3,1.33,1.33,0,0,1,.38,1.11,1.7,1.7,0,0,1-.24,1,1.3,1.3,0,0,1-1.17.5h-3.54q-.09,3.14-.41,5.66h4.07a1.7,1.7,0,0,1,1,.26q.39.24.39,1.11a1.66,1.66,0,0,1-.24,1.06,1.42,1.42,0,0,1-1.17.47h-4.54c-.06.33-.13.64-.21.94a5,5,0,0,1,.59.82,39.62,39.62,0,0,0,4.51,5.59,6.14,6.14,0,0,1,.94,1.09,1.2,1.2,0,0,1,.32.84,1.36,1.36,0,0,1-.47,1,1.72,1.72,0,0,1-1.14.5,1.69,1.69,0,0,1-1.23-.53,37.4,37.4,0,0,1-4.63-5.8,20.86,20.86,0,0,1-3.87,6.33,2.41,2.41,0,0,1-1.64,1.05,1.76,1.76,0,0,1-1.29-.55,2.1,2.1,0,0,1-.49-1.12,1.32,1.32,0,0,1,.49-1,21.37,21.37,0,0,0,4.57-7.77,13.64,13.64,0,0,0,.44-1.4h-4a1.45,1.45,0,0,1-1-.35,1.85,1.85,0,0,1,0-2.32,1.69,1.69,0,0,1,1-.23h4.48c.2-1.62.33-3.51.41-5.66H297a15.64,15.64,0,0,1-1.26,2.61,1.54,1.54,0,0,1-1.43.79,1.72,1.72,0,0,1-1.11-.38,1.18,1.18,0,0,1-.41-.91,3.82,3.82,0,0,1,.41-1.11,33.88,33.88,0,0,0,2.78-6.71C296.09,130,296.4,129.73,296.85,129.73Zm13.24,3.08H317a1.63,1.63,0,0,1,1.85,1.84v18.2a1.63,1.63,0,0,1-1.85,1.84h-6.94a1.63,1.63,0,0,1-1.85-1.84v-18.2A1.63,1.63,0,0,1,310.09,132.81Zm5.16,19a.54.54,0,0,0,.61-.61V136.29c0-.37-.2-.55-.61-.55h-3.4c-.39,0-.59.18-.59.55v14.89a.53.53,0,0,0,.59.61Z"/><path class="b" d="M326.8,142.65H330c1.31,0,2,.59,2,1.76v7.26a1.92,1.92,0,0,0,1.37,1.32,21.21,21.21,0,0,0,6.13.65q4,0,7.38-.06,3-.06,5-.06a1.23,1.23,0,0,1,1.4,1.41,1.84,1.84,0,0,1-.38,1.34,1.87,1.87,0,0,1-1.23.44H340.19q-6.68,0-8.85-1.81a1.31,1.31,0,0,0-.67-.21.34.34,0,0,0-.27.15,17.27,17.27,0,0,1-1.93,1.43,1.49,1.49,0,0,1-.82.44,1.31,1.31,0,0,1-.82-.2,4,4,0,0,1-1-1.29,1.56,1.56,0,0,1-.11-.53,1.26,1.26,0,0,1,.7-1,15,15,0,0,0,2.31-1.53.67.67,0,0,0,.3-.47v-5.88q0-.21-.24-.21h-2a1.37,1.37,0,0,1-1.08-.44,1.5,1.5,0,0,1-.3-1.08,1.34,1.34,0,0,1,.33-1A1.36,1.36,0,0,1,326.8,142.65Zm.47-6.91a2,2,0,0,1,.85.17,30.94,30.94,0,0,1,3.84,2.73,2,2,0,0,1,.49,1.05,1.49,1.49,0,0,1-.38,1,1.63,1.63,0,0,1-1.05.67,1.73,1.73,0,0,1-.73-.14,4.15,4.15,0,0,1-.71-.47c-.91-.76-1.93-1.53-3-2.29a3.06,3.06,0,0,0-.3-.23,1.33,1.33,0,0,1-.49-1,1.44,1.44,0,0,1,.46-1A1.5,1.5,0,0,1,327.27,135.74Zm1.17-5.66a1.64,1.64,0,0,1,.76.18,29.07,29.07,0,0,1,3.49,2.05,2.22,2.22,0,0,1,.44,1.05,1.8,1.8,0,0,1-.32,1,1.75,1.75,0,0,1-1.06.67,2.06,2.06,0,0,1-.7-.11,3.4,3.4,0,0,1-.59-.35,27.1,27.1,0,0,0-2.78-1.76.88.88,0,0,1-.26-.24,1.26,1.26,0,0,1-.5-.91,1.45,1.45,0,0,1,.44-1.08A1.56,1.56,0,0,1,328.44,130.08Zm6.33,3h3.72a15.62,15.62,0,0,0-1.41-1.82.7.7,0,0,1-.2-.43,1.17,1.17,0,0,1,.58-1,2.33,2.33,0,0,1,1.06-.26,2.72,2.72,0,0,1,1.05.35,10.54,10.54,0,0,1,1.41,1.7,5.6,5.6,0,0,1,.88,1.49h2.37l.24-.29a12.2,12.2,0,0,0,1.2-1.5l.73-1a1.32,1.32,0,0,1,1.05-.62,2.4,2.4,0,0,1,1.21.35,1.44,1.44,0,0,1,.64,1.18,1.41,1.41,0,0,1-.23.7c-.32.37-.67.77-1.06,1.2h3.19a1.35,1.35,0,0,1,.91.26c.26.16.38.54.38,1.15a1.43,1.43,0,0,1-.23,1,1.26,1.26,0,0,1-1.06.41h-6.91l-.62,1.53h5.19a2.07,2.07,0,0,1,2.34,2.34v10.2a2.07,2.07,0,0,1-2.34,2.34h-12.1a2.07,2.07,0,0,1-2.34-2.34v-10.2a2.07,2.07,0,0,1,2.34-2.34h3.63l.62-1.53h-6.24a1.27,1.27,0,0,1-.91-.32,1.21,1.21,0,0,1-.38-1.05,1.48,1.48,0,0,1,.38-1.17A1.36,1.36,0,0,1,334.77,133Zm2.72,8.56h10.64v-.85a.62.62,0,0,0-.68-.71h-9.28a.62.62,0,0,0-.68.71Zm0,4.1h10.64v-1.64H337.49Zm10,3.84a.62.62,0,0,0,.68-.71v-.67H337.49v.67a.62.62,0,0,0,.68.71Z"/><path class="b" d="M364.84,129.73A2.14,2.14,0,0,1,366,130a1.08,1.08,0,0,1,.5.91,19.39,19.39,0,0,1-.67,2.58h1.84a1.88,1.88,0,0,1,2.11,2.14v2.81a21.19,21.19,0,0,0,2-3.72,17.72,17.72,0,0,0,1.2-3.92c.14-.79.52-1.18,1.15-1.18a2.7,2.7,0,0,1,1.08.18,1.32,1.32,0,0,1,.82,1.35,11.3,11.3,0,0,1-.47,2.14.16.16,0,0,0,0,.08h6.36c2.09,0,3.14,1.17,3.14,3.49q0,12.48-.42,15.56a4.88,4.88,0,0,1-1.05,3.13,4.25,4.25,0,0,1-3.08,1.17,14.56,14.56,0,0,1-6-1.05c-.65-.24-1-.82-1-1.76a1.49,1.49,0,0,1,.53-1,1.39,1.39,0,0,1,1-.42,2.14,2.14,0,0,1,.62.12,15.61,15.61,0,0,0,4.8.82c.73-.11,1.11-.76,1.15-1.93q.25-3.1.26-14.24a.84.84,0,0,0-.29-.76.9.9,0,0,0-.65-.18h-6.5a14.52,14.52,0,0,1-2.29,4.13,1.84,1.84,0,0,1-1.4.56,1.6,1.6,0,0,1-.91-.26.09.09,0,0,1-.06,0v12.83a1.88,1.88,0,0,1-2.11,2.14h-6.44a1.88,1.88,0,0,1-2.11-2.14v-17.9a1.88,1.88,0,0,1,2.11-2.14h1.17c.23-.84.52-1.77.85-2.78A1.59,1.59,0,0,1,364.84,129.73Zm-2.67,12.92h4.57V137c0-.3-.16-.44-.49-.44h-3.64a.39.39,0,0,0-.44.44Zm4.08,9.93c.33,0,.49-.15.49-.47V145.7h-4.57v6.41c0,.32.15.47.44.47Zm7.38-11.72a2,2,0,0,1,1.08.47,15.1,15.1,0,0,1,2.73,3.66,6,6,0,0,1,1,2.93,1.05,1.05,0,0,1-.35.85,1.49,1.49,0,0,1-1.17.44,1.31,1.31,0,0,1-.79-.2,1.61,1.61,0,0,1-.38-.53q-1-1.87-3.43-5.62a1.19,1.19,0,0,1-.21-.71,1.57,1.57,0,0,1,.12-.52,1.31,1.31,0,0,1,.65-.62A1.8,1.8,0,0,1,373.63,140.86Z"/><path class="b" d="M394.09,131.25h22.5a1.62,1.62,0,0,1,1.2.36,1.64,1.64,0,0,1,.32,1.2,1.7,1.7,0,0,1-.26,1,1.54,1.54,0,0,1-1.26.5H404.87l-1,5.24H412a3.2,3.2,0,0,1,2.4.65,3.48,3.48,0,0,1,.67,2.43v9.7h2.35a1.64,1.64,0,0,1,1.17.35,1.54,1.54,0,0,1,.35,1.2,1.68,1.68,0,0,1-.29,1.08,1.43,1.43,0,0,1-1.23.56H393.27a1.73,1.73,0,0,1-1.17-.38,1.79,1.79,0,0,1-.35-1.26,1.76,1.76,0,0,1,.35-1.2,1.78,1.78,0,0,1,1.17-.35h4.83l1.82-9.7h-4.54a1.38,1.38,0,0,1-1.14-.38,1.49,1.49,0,0,1-.36-1.17,1.62,1.62,0,0,1,.33-1.14,1.44,1.44,0,0,1,1.17-.39h5.1l1-5.24h-7.35A1.64,1.64,0,0,1,393,134a1.61,1.61,0,0,1-.36-1.17,1.76,1.76,0,0,1,.36-1.2A1.59,1.59,0,0,1,394.09,131.25Zm7.44,21.1h10.25v-8.79a.81.81,0,0,0-.93-.91h-7.53Z"/><path class="b" d="M431.45,129.73a2.82,2.82,0,0,1,1.29.26,1.19,1.19,0,0,1,.56,1.15,8.68,8.68,0,0,1-.21,1.29,37.89,37.89,0,0,1-1.78,4.77v18a1.43,1.43,0,0,1-.41,1.14,1.78,1.78,0,0,1-2.2,0,1.37,1.37,0,0,1-.44-1.14v-12a10.14,10.14,0,0,1-.7,1.08,1.6,1.6,0,0,1-1.29.56,2.08,2.08,0,0,1-1.32-.44,1.39,1.39,0,0,1-.44-1.09,2.64,2.64,0,0,1,.41-1,44.26,44.26,0,0,0,5.48-11.63A1.35,1.35,0,0,1,431.45,129.73Zm5.6,1a3,3,0,0,1,1.2.2,1.09,1.09,0,0,1,.56,1.09,8.36,8.36,0,0,1-.12,1,27.69,27.69,0,0,1-.73,2.84h3.57v-4.57a1.41,1.41,0,0,1,.44-1.08,1.33,1.33,0,0,1,1.09-.44,1.62,1.62,0,0,1,1.17.44,1.37,1.37,0,0,1,.44,1.08v4.57h5.15a1.47,1.47,0,0,1,1.15.33,1.52,1.52,0,0,1,.38,1.2,1.83,1.83,0,0,1-.24,1.08,1.42,1.42,0,0,1-1.29.59h-5.15v5.59h5.89a1.72,1.72,0,0,1,1.17.35,1.63,1.63,0,0,1,.32,1.18,1.89,1.89,0,0,1-.26,1.11,1.5,1.5,0,0,1-1.23.56h-5.89v7.61a1.6,1.6,0,0,1-.3,1,1.73,1.73,0,0,1-2.52,0,1.68,1.68,0,0,1-.32-1v-7.61h-7.38a1.52,1.52,0,0,1-1.17-.41,2.15,2.15,0,0,1,0-2.44,1.69,1.69,0,0,1,1.17-.35h7.38V139h-4.66a28.62,28.62,0,0,1-1.31,3.25,1.6,1.6,0,0,1-1.29.61,1.72,1.72,0,0,1-1.23-.43,1.17,1.17,0,0,1-.44-1,1.42,1.42,0,0,1,.26-.79,40.34,40.34,0,0,0,3.25-9.17A1.16,1.16,0,0,1,437.05,130.7Z"/><path class="b" d="M471.25,129.5q1.47,0,1.5,1.29v.61h10.69a1.56,1.56,0,0,1,1,.26,1.36,1.36,0,0,1,.3,1,1.17,1.17,0,0,1-1.29,1.29H472.75v1h7.73a1.58,1.58,0,0,1,1.79,1.79v2.78a1.57,1.57,0,0,1-1.79,1.76h-7.73v.94h7.61c1.49,0,2.23.67,2.23,2V146h1.17a1.06,1.06,0,0,1,1.29,1.29,1.59,1.59,0,0,1-.21.91,1.4,1.4,0,0,1-1.08.38h-1.17v1.78c0,1.24-.67,1.85-2,1.85h-7.85v2.26a2.72,2.72,0,0,1-.42,1.61,1.84,1.84,0,0,1-1.2.73c-1.5,0-2.77-.05-3.8-.15a16.61,16.61,0,0,1-3.14-.47,1.67,1.67,0,0,1-.67-1.28c0-1,.39-1.53,1.17-1.64a5.16,5.16,0,0,1,.82.11,19.5,19.5,0,0,0,3.72.5c.33,0,.5-.2.5-.5v-1.17h-9.64c-.59,0-.9-.43-.94-1.17s.35-1.13.94-1.17h9.64V148.6h-11a1.4,1.4,0,0,1-1-.3,1.27,1.27,0,0,1-.3-1,1.51,1.51,0,0,1,.3-1,1.44,1.44,0,0,1,1-.29h11v-1.41h-9.64c-.63,0-.94-.41-.94-1.17s.33-1.17.94-1.17h9.64v-.94h-7.62a1.57,1.57,0,0,1-1.79-1.76v-2.78a1.58,1.58,0,0,1,1.79-1.79h7.62v-1H459.65a1.4,1.4,0,0,1-1-.32,1.31,1.31,0,0,1-.29-1,1.06,1.06,0,0,1,1.29-1.29h10.08v-.61C469.75,130,470.25,129.55,471.25,129.5Zm-1.52,7.85h-5.54c-.37,0-.56.2-.56.61v.44c0,.41.19.62.56.62h5.54Zm3,1.67h5.65c.37,0,.56-.21.56-.62V138c0-.41-.19-.61-.56-.61h-5.65Zm0,7h6.56v-.79a.58.58,0,0,0-.56-.62h-6Zm0,3.87h6a.49.49,0,0,0,.56-.44v-.85h-6.56Z"/><path class="c" d="M509.84,177.49a26.82,26.82,0,0,1,26.82-26.82V43.27a26.83,26.83,0,0,1-26.82-26.83H39.67A26.83,26.83,0,0,1,12.84,43.27v107.4a26.83,26.83,0,0,1,26.83,26.82Z"/><path class="b" d="M531.93,25.33a5.47,5.47,0,1,1-5.47-5.46A5.47,5.47,0,0,1,531.93,25.33Z"/><path class="b" d="M531.93,171.35a5.47,5.47,0,1,1-5.47-5.47A5.46,5.46,0,0,1,531.93,171.35Z"/><path class="b" d="M23.77,25.33a5.47,5.47,0,1,1-5.47-5.46A5.47,5.47,0,0,1,23.77,25.33Z"/><path class="b" d="M23.77,171.35a5.47,5.47,0,1,1-5.47-5.47A5.46,5.46,0,0,1,23.77,171.35Z"/><rect class="d" x="-723" y="-106.2" width="1995.93" height="1153.94"/></svg>