<svg xmlns="http://www.w3.org/2000/svg" viewBox="0 0 788.93 325.06"><defs><style>.a{isolation:isolate;}.b{fill:#333;mix-blend-mode:multiply;}.c{fill:#aede00;}.c,.d,.f,.g,.h,.j{stroke:#000;}.c,.d,.e,.f,.g,.h,.j{stroke-linecap:round;stroke-linejoin:round;}.c,.d{stroke-width:5px;}.d,.g,.k{fill:#fff;}.e,.j{fill:none;}.e{stroke:#ea0c2c;stroke-width:10px;}.f,.l{fill:#f66c00;}.f,.g,.h,.j{stroke-width:3px;}.i{fill:#1a1a1a;}</style></defs><title>formula-1</title><g class="a"><rect class="b" x="-801.38" y="-344.72" width="1920" height="1080"/><rect class="c" x="-583.35" y="-234.72" width="1500" height="841.88" rx="38.55" ry="38.55"/><rect class="d" x="-69.94" y="-172.84" width="927.41" height="621.73" rx="42.06" ry="42.06"/><rect class="e" x="-901.57" y="-368.66" width="2127.31" height="1183.95"/><rect class="f" x="203.2" y="122.81" width="372.43" height="80" rx="19" ry="19"/><rect class="g" x="679.94" y="122.81" width="80" height="80" rx="20" ry="20"/><rect class="h" x="8.99" y="1.5" width="260.72" height="73.8" rx="28.29" ry="28.29"/><circle class="g" cx="112.04" cy="162.81" r="40"/><path class="i" d="M94.46,163.93c-.18,2.75-.64,5.77-1.87,7.81a12.25,12.25,0,0,0-2.13-1.65c1.4-2.53,1.49-6.23,1.49-9.09v-7.94h0a37.79,37.79,0,0,0,7.46-1.56l1.67,2.22a35.33,35.33,0,0,1-6.55,1.3v1.56h5.65v7.35Zm.09-5v2.69h3.12v-2.69Zm16.74,2h-2v10.54h-2.6V160.94H104.4c-.08,3.5-.83,8-3.91,10.76a12,12,0,0,0-2-1.78c3-2.73,3.3-6.83,3.3-10v-6.85a36.23,36.23,0,0,0,7.57-1.73l1.7,2.26a35.68,35.68,0,0,1-6.58,1.45v3.35h6.86Z"/><path class="i" d="M120,156.89a21.84,21.84,0,0,1-1.91,2.77v12h-2.53v-9.13a21.19,21.19,0,0,1-2,1.78,19.61,19.61,0,0,0-1.26-2.71,19.69,19.69,0,0,0,5.4-5.65Zm-.37-4.77a23.28,23.28,0,0,1-5.77,5.52,16,16,0,0,0-1.29-2.22,15.69,15.69,0,0,0,4.57-4.32ZM133,165.91h-3V169c0,1.21-.22,1.82-1.07,2.2a8.83,8.83,0,0,1-3.41.37,9.66,9.66,0,0,0-.82-2.33c.92,0,2,0,2.25,0s.39-.11.39-.35v-3.06h-4.62a23.48,23.48,0,0,1,2.51,2.75l-2,1.39a18.22,18.22,0,0,0-2.53-3.06l1.63-1.08H119.3v-2.22h8v-1.26h-7.52V160.3h12.74v2.13H130v1.26h3Zm-1.19-6.58H121v-7.61h10.89Zm-2.64-5.78h-5.72v1.1h5.72Zm0,2.81h-5.72v1.15h5.72Z"/><path class="i" d="M241.85,168.9c.74,0,.9-.39,1-2.81a8,8,0,0,0,2.37,1c-.28,3.23-1,4.14-3.14,4.14h-3c-2.64,0-3.3-.77-3.3-3.13V164h-.36c-1.14,3.24-3.54,5.9-9.08,7.44a8.11,8.11,0,0,0-1.48-2.2c4.51-1.15,6.63-3,7.68-5.24h-5.5v-4.91a7.36,7.36,0,0,1-.7.55,8.11,8.11,0,0,0-1.85-2,18.48,18.48,0,0,0,6.18-6.71l2.82.53c-.18.33-.38.68-.6,1h4.38l.44-.11,1.83,1.17a23,23,0,0,1-2.07,3h5.94V164h-4.91v4c0,.75.14.83,1,.83Zm-8.54-7.19a21.37,21.37,0,0,0,.37-2.84h-4v2.84Zm-1.87-7a21.77,21.77,0,0,1-1.61,1.89h4.58a18.06,18.06,0,0,0,1.39-1.89Zm5,4.2a27.74,27.74,0,0,1-.4,2.84h4.6v-2.84Z"/><path class="i" d="M264.44,169.06c.35,0,.44-.29.51-2.38a5.74,5.74,0,0,0,2.24,1c-.26,2.95-.9,3.77-2.44,3.77h-1.5c-2,0-2.42-.8-2.42-3.08V164h-1.12c-.31,3.49-1.19,6.2-4.84,7.78a7.61,7.61,0,0,0-1.52-2c3-1.19,3.59-3.19,3.83-5.76h-1.39V158a6.57,6.57,0,0,1-.5.44,12.8,12.8,0,0,0-.9-1v2.27h-2.27v.33c.55.53,2.22,2.51,2.57,3l-1.47,2.11c-.22-.55-.66-1.41-1.1-2.22v8.71h-2.38v-8.12a20.32,20.32,0,0,1-2.15,4.71,17.57,17.57,0,0,0-1.21-2.59,23.49,23.49,0,0,0,2.68-5.9h-2.35v-2.44h3v-2.67c-.72.14-1.45.27-2.13.36a9,9,0,0,0-.73-2,28.34,28.34,0,0,0,6.38-1.78l1.52,2.13a17.66,17.66,0,0,1-2.66.82v3.17h2.09c-.29-.29-.55-.53-.77-.71a14.22,14.22,0,0,0,4.27-5.15l2.42.77a21.12,21.12,0,0,1-3.28,4.76h7.79a40.33,40.33,0,0,0-3.68-4.58l1.83-1.25a34.88,34.88,0,0,1,4.64,5.74l-2,1.43a6.2,6.2,0,0,0-.33-.57V164h-1.76v4.37c0,.64.05.71.35.71Zm-6.16-7.37h4.25v-2.45h-4.25Z"/><path class="i" d="M277.77,164.83h.07v6.78h-2.29v-.55h-2.86v.57h-2.18v-6.36c-.26.11-.53.22-.79.31a9.1,9.1,0,0,0-1.26-2.07,14.06,14.06,0,0,0,3.81-1.69l-1.14-.68,1.45-1.52,1.45.79a7.8,7.8,0,0,0,1.23-1.45H272.6a9.89,9.89,0,0,1-2.42,2.46,5.56,5.56,0,0,0-1.28-1.71,7.62,7.62,0,0,0,3.17-4.07l2,.39a9.94,9.94,0,0,1-.37,1h2.77l.38-.06,0,0v-1.67h-5.92v1.89H269v-4h3.87c-.16-.49-.33-1-.49-1.39l2.1-.72c.26.63.57,1.43.83,2.11h3.52v4h-1.71l.94.68a12.29,12.29,0,0,1-2.18,3.61c1.19.68,2.36,1.39,3.11,1.91Zm-.75,0c-.72-.52-1.69-1.14-2.73-1.78a13.61,13.61,0,0,1-2.79,1.78ZM275.55,169v-2.18h-2.86V169Zm10.32-1.76a24.93,24.93,0,0,1,3.59,2.57l-1.5,1.78a26.41,26.41,0,0,0-3.65-2.88l1.3-1.47h-3.28l1.56,1.62a26.84,26.84,0,0,1-4.73,2.84,13.07,13.07,0,0,0-1.08-1.91,21,21,0,0,0,4.16-2.55h-2.38v-11.6h2.8c.08-.48.17-1,.24-1.52h-3.59V152h9.84v2.2h-3.87c-.14.53-.31,1.06-.47,1.52h3.79v11.6ZM282.19,159h3.94v-1.28h-3.94Zm0,3.17h3.94v-1.32h-3.94Zm0,3.14h3.94V164h-3.94Z"/><path class="i" d="M308.79,162.5H302.1v6.69h-2.24V162.5h-6.69v-2.24h6.69v-6.69h2.24v6.69h6.69Z"/><path class="i" d="M333.13,159.73v2.84H312.88v-2.84Z"/><path class="i" d="M354.77,160.76a15.23,15.23,0,0,1-2.94,6.71,12.83,12.83,0,0,0,3.67,1.74,9.09,9.09,0,0,0-1.67,2.18,13.11,13.11,0,0,1-3.87-2.11,13.46,13.46,0,0,1-4.32,2.2,9,9,0,0,0-1.47-2,1.81,1.81,0,0,1-1,1.56,8,8,0,0,1-3.39.4,7.9,7.9,0,0,0-.68-2.22c.92,0,2,0,2.31,0s.42-.11.42-.44v-6.38c-1.17.13-2.36.27-3.46.38a25.51,25.51,0,0,1-1.69,8.88,10.33,10.33,0,0,0-2-1.32,21.43,21.43,0,0,0,1.38-7.34l-1.21.13-.22-2.38,1.5-.09v-7.28h2.29A18,18,0,0,0,339,151l2.64.3c-.31.75-.59,1.43-.83,2.05h3.34V160l.44,0,0,2-.48.06v6.69c0,.22,0,.42,0,.62a13.67,13.67,0,0,0,4-1.78,16.43,16.43,0,0,1-2.86-4.67l1.39-.41h-1.54v-2.29h7.68l.42-.07Zm-14.69,6.58a25.92,25.92,0,0,0-1.7-3.36l1.63-.8a21.94,21.94,0,0,1,1.78,3.19Zm-1.61-6.84,3.39-.27v-4.81h-3.39v1.36L340,156a21.14,21.14,0,0,1,1.7,2.93l-1.67.92a23.55,23.55,0,0,0-1.52-2.9v3.52Zm9.7-5.33c0,1.72-.31,3.72-2,4.89a12.74,12.74,0,0,0-1.92-1.65,3.46,3.46,0,0,0,1.54-3.3v-3h7.29v4.27c0,.6,0,.82.28.82h.82a3.45,3.45,0,0,0,1-.16c.05.64.09,1.48.18,2.07a3.49,3.49,0,0,1-1.21.15h-1.08c-2.05,0-2.44-.88-2.44-2.92v-2h-2.47Zm-.42,7.38A11.42,11.42,0,0,0,350,166a9.72,9.72,0,0,0,1.85-3.41Z"/><path class="i" d="M364.83,163.12l-2.54.7v4.91c0,1.32-.24,2-1,2.37a6.91,6.91,0,0,1-3.36.49,9.72,9.72,0,0,0-.77-2.49c.85.05,1.76.05,2,.05s.42-.11.42-.42v-4.2l-2.53.68-.53-2.55c.86-.18,1.94-.42,3.06-.69v-4.75h-2.77V154.8h2.77v-3.7h2.68v3.7h2.18v2.42h-2.18v4.09l2.23-.59Zm11.33-10.23V170.8h-2.75v-1.68H368.1V171h-2.61V152.89Zm-2.75,13.77V155.37H368.1v11.29Z"/><path class="i" d="M386.32,152.8c-.55,1.87-1.23,4.09-1.83,5.81a7.54,7.54,0,0,1,1.52,4.53c0,1.45-.28,2.38-1,2.9a2.47,2.47,0,0,1-1.21.49,10.33,10.33,0,0,1-1.41.06,5.06,5.06,0,0,0-.54-2.26,4.89,4.89,0,0,0,.92,0,.75.75,0,0,0,.55-.18,1.69,1.69,0,0,0,.37-1.32,6.58,6.58,0,0,0-1.38-4c.39-1.34.81-3.15,1.14-4.6h-1.74v17.3h-2.28V151.94h4.79l.38-.09Zm3.92,12.72a20.46,20.46,0,0,1-3.19,4.86,15.94,15.94,0,0,0-1.94-1.43,12.64,12.64,0,0,0,2.84-4.07Zm3.82-1.35v4.73c0,1.19-.22,1.83-1,2.25a8,8,0,0,1-3.3.44,8.51,8.51,0,0,0-.86-2.38,21.69,21.69,0,0,0,2.25,0c.31,0,.39-.08.39-.37v-4.69H386.3V161.8h5.23V160H388v-1.52a8.7,8.7,0,0,1-.9.55,9.35,9.35,0,0,0-1.69-1.91,16.41,16.41,0,0,0,6.79-6.29l2.18.83a8.55,8.55,0,0,1-.53.88,18.85,18.85,0,0,0,5.79,4.29,7.53,7.53,0,0,0-1.71,2.12c-.34-.2-.69-.42-1-.66V160h-2.82v1.81H399v2.37Zm2.1-6.42a24.47,24.47,0,0,1-3.61-3.41,20.76,20.76,0,0,1-3.55,3.41Zm.46,7a23.17,23.17,0,0,1,2.95,4.26l-2.07,1.17a24.23,24.23,0,0,0-2.82-4.47Z"/><path class="i" d="M409.77,164.83h.07v6.78h-2.29v-.55h-2.86v.57h-2.18v-6.36c-.26.11-.53.22-.79.31a9.1,9.1,0,0,0-1.26-2.07,14.06,14.06,0,0,0,3.81-1.69l-1.14-.68,1.45-1.52,1.45.79a7.8,7.8,0,0,0,1.23-1.45H404.6a9.89,9.89,0,0,1-2.42,2.46,5.56,5.56,0,0,0-1.28-1.71,7.62,7.62,0,0,0,3.17-4.07l2,.39a9.94,9.94,0,0,1-.37,1h2.77l.38-.06,0,0v-1.67h-5.92v1.89H401v-4h3.87c-.16-.49-.33-1-.49-1.39l2.1-.72c.26.63.57,1.43.83,2.11h3.52v4h-1.71l.94.68a12.29,12.29,0,0,1-2.18,3.61c1.19.68,2.36,1.39,3.11,1.91Zm-.75,0c-.72-.52-1.69-1.14-2.73-1.78a13.61,13.61,0,0,1-2.79,1.78ZM407.55,169v-2.18h-2.86V169Zm10.32-1.76a24.93,24.93,0,0,1,3.59,2.57l-1.5,1.78a26.41,26.41,0,0,0-3.65-2.88l1.3-1.47h-3.28l1.56,1.62a26.84,26.84,0,0,1-4.73,2.84,13.07,13.07,0,0,0-1.08-1.91,21,21,0,0,0,4.16-2.55h-2.38v-11.6h2.8c.08-.48.17-1,.24-1.52h-3.59V152h9.84v2.2h-3.87c-.14.53-.31,1.06-.47,1.52h3.79v11.6ZM414.19,159h3.94v-1.28h-3.94Zm0,3.17h3.94v-1.32h-3.94Zm0,3.14h3.94V164h-3.94Z"/><path class="i" d="M440.79,162.5H434.1v6.69h-2.24V162.5h-6.69v-2.24h6.69v-6.69h2.24v6.69h6.69Z"/><path class="i" d="M453.05,164.15l-2.12.55v6.93h-2.48v-6.31l-2.91.75-.64-2.67c1-.17,2.23-.44,3.55-.7v-4.84h-1.28a18.56,18.56,0,0,1-.79,2.93c-.44-.2-1.37-.56-1.85-.71a28.07,28.07,0,0,0,1.32-7.3l2,.3c-.07.77-.15,1.52-.26,2.29h.88V151.1h2.48v4.27h1.9v2.49h-1.9v4.29l1.83-.42Zm12,0H463v4.6c0,1.29-.24,2-1.12,2.39a9.18,9.18,0,0,1-3.68.47,11.42,11.42,0,0,0-.79-2.6c1,0,2.22,0,2.57,0s.42-.08.42-.37v-4.53h-7v-2.4h7v-1.54H463v1.54h2.11Zm-7.48-8.69h-4.14V153h4.14v-2h2.59v2h4.41v2.38h-4.41v1.87h3.66v2.42h-9.57v-2.42h3.32Zm-1.28,8.75a20.06,20.06,0,0,1,2.64,3.3l-2.07,1.35a19.38,19.38,0,0,0-2.5-3.46Z"/><path class="i" d="M477.11,161.56s0,.63,0,.94c-.22,5.3-.44,7.42-1,8.16a2.32,2.32,0,0,1-1.65.82,15.59,15.59,0,0,1-2.67.06,5.24,5.24,0,0,0-.66-2.26,17.75,17.75,0,0,0,2.16.11.81.81,0,0,0,.73-.29c.33-.37.52-1.78.68-5.26h-2.44c-.51,3-1.54,5.83-3.88,7.81a6.75,6.75,0,0,0-1.74-1.91c2.89-2.38,3.33-6.34,3.5-10h-2.2v-7.66h9.05v7.66h-4.29c-.05.59-.09,1.21-.14,1.81Zm-6.86-4.14h4.14v-3h-4.14Zm10.87,8.71h-2.55V153.74h2.55Zm5.21-14.61v16.94c0,1.54-.3,2.27-1.21,2.69a11.65,11.65,0,0,1-4.38.5,9.33,9.33,0,0,0-.9-2.7c1.43,0,2.84,0,3.3,0s.6-.13.6-.53V151.52Z"/><path class="i" d="M496.83,163.12l-2.54.7v4.91c0,1.32-.24,2-1,2.37a6.91,6.91,0,0,1-3.36.49,9.72,9.72,0,0,0-.77-2.49c.85.05,1.76.05,2,.05s.42-.11.42-.42v-4.2l-2.53.68-.53-2.55c.86-.18,1.94-.42,3.06-.69v-4.75h-2.77V154.8h2.77v-3.7h2.68v3.7h2.18v2.42h-2.18v4.09l2.23-.59Zm11.33-10.23V170.8h-2.75v-1.68H500.1V171h-2.61V152.89Zm-2.75,13.77V155.37H500.1v11.29Z"/><path class="i" d="M518.32,152.8c-.55,1.87-1.23,4.09-1.83,5.81a7.54,7.54,0,0,1,1.52,4.53c0,1.45-.28,2.38-1,2.9a2.47,2.47,0,0,1-1.21.49,10.33,10.33,0,0,1-1.41.06,5.06,5.06,0,0,0-.54-2.26,4.89,4.89,0,0,0,.92,0,.75.75,0,0,0,.55-.18,1.69,1.69,0,0,0,.37-1.32,6.58,6.58,0,0,0-1.38-4c.39-1.34.81-3.15,1.14-4.6h-1.74v17.3h-2.28V151.94h4.79l.38-.09Zm3.92,12.72a20.46,20.46,0,0,1-3.19,4.86,15.94,15.94,0,0,0-1.94-1.43,12.64,12.64,0,0,0,2.84-4.07Zm3.82-1.35v4.73c0,1.19-.22,1.83-1,2.25a8,8,0,0,1-3.3.44,8.51,8.51,0,0,0-.86-2.38,21.69,21.69,0,0,0,2.25,0c.31,0,.39-.08.39-.37v-4.69H518.3V161.8h5.23V160H520v-1.52a8.7,8.7,0,0,1-.9.55,9.35,9.35,0,0,0-1.69-1.91,16.41,16.41,0,0,0,6.79-6.29l2.18.83a8.55,8.55,0,0,1-.53.88,18.85,18.85,0,0,0,5.79,4.29,7.53,7.53,0,0,0-1.71,2.12c-.34-.2-.69-.42-1-.66V160h-2.82v1.81H531v2.37Zm2.1-6.42a24.47,24.47,0,0,1-3.61-3.41,20.76,20.76,0,0,1-3.55,3.41Zm.46,7a23.17,23.17,0,0,1,3,4.26l-2.07,1.17a24.23,24.23,0,0,0-2.82-4.47Z"/><path class="i" d="M541.77,164.83h.07v6.78h-2.29v-.55h-2.86v.57h-2.18v-6.36c-.26.11-.53.22-.79.31a9.1,9.1,0,0,0-1.26-2.07,14.06,14.06,0,0,0,3.81-1.69l-1.14-.68,1.45-1.52,1.45.79a7.8,7.8,0,0,0,1.23-1.45H536.6a9.89,9.89,0,0,1-2.42,2.46,5.56,5.56,0,0,0-1.28-1.71,7.62,7.62,0,0,0,3.17-4.07l2,.39a9.94,9.94,0,0,1-.37,1h2.77l.38-.06,0,0v-1.67h-5.92v1.89H533v-4h3.87c-.16-.49-.33-1-.49-1.39l2.1-.72c.26.63.57,1.43.83,2.11h3.52v4h-1.71l.94.68a12.29,12.29,0,0,1-2.18,3.61c1.19.68,2.36,1.39,3.11,1.91Zm-.75,0c-.72-.52-1.69-1.14-2.73-1.78a13.61,13.61,0,0,1-2.79,1.78ZM539.55,169v-2.18h-2.86V169Zm10.32-1.76a24.93,24.93,0,0,1,3.59,2.57l-1.5,1.78a26.41,26.41,0,0,0-3.65-2.88l1.3-1.47h-3.28l1.56,1.62a26.84,26.84,0,0,1-4.73,2.84,13.07,13.07,0,0,0-1.08-1.91,21,21,0,0,0,4.16-2.55h-2.38v-11.6h2.8c.08-.48.17-1,.24-1.52h-3.59V152h9.84v2.2h-3.87c-.14.53-.31,1.06-.47,1.52h3.79v11.6ZM546.19,159h3.94v-1.28h-3.94Zm0,3.17h3.94v-1.32h-3.94Zm0,3.14h3.94V164h-3.94Z"/><polyline class="j" points="58.5 112.06 37.27 112.06 37.27 213.56 58.5 213.56"/><polyline class="j" points="596.29 213.56 617.52 213.56 617.52 112.06 596.29 112.06"/><path class="i" d="M716.4,169.06c.36,0,.44-.29.51-2.38a5.74,5.74,0,0,0,2.24,1c-.26,2.95-.9,3.77-2.44,3.77h-1.49c-2,0-2.42-.8-2.42-3.08V164h-1.13c-.3,3.49-1.18,6.2-4.84,7.78a7.4,7.4,0,0,0-1.52-2c3-1.19,3.59-3.19,3.83-5.76h-1.38V158c-.18.16-.33.31-.51.45a11.16,11.16,0,0,0-.9-1v2.27h-2.27v.33c.55.53,2.22,2.51,2.58,3l-1.48,2.11c-.22-.55-.66-1.41-1.1-2.22v8.71h-2.37v-8.12a20.74,20.74,0,0,1-2.16,4.71,16.6,16.6,0,0,0-1.21-2.59,23.14,23.14,0,0,0,2.68-5.9h-2.35v-2.44h3v-2.67c-.73.14-1.46.27-2.14.36a9.48,9.48,0,0,0-.72-2,28.64,28.64,0,0,0,6.38-1.78l1.52,2.13a18.16,18.16,0,0,1-2.67.82v3.17h2.09a9,9,0,0,0-.77-.71,14,14,0,0,0,4.27-5.15l2.42.77a20.49,20.49,0,0,1-3.28,4.76h7.79a41.36,41.36,0,0,0-3.67-4.58l1.82-1.25a35.51,35.51,0,0,1,4.65,5.74l-2,1.43c-.09-.18-.2-.35-.33-.57V164h-1.76v4.37c0,.64,0,.71.35.71Zm-6.16-7.37h4.25v-2.45h-4.25Z"/><path class="i" d="M734.2,164.11a8.69,8.69,0,0,0-.42-1.08c-5.25.53-6.09.66-6.64.9a17.07,17.07,0,0,0-.7-2.09c-1.46.77-3,1.56-4.3,2.18l-1.25-2.09c1.39-.51,3.45-1.39,5.48-2.22l.48,1.91-.39.22a4.83,4.83,0,0,0,1.87-1.12c.33-.27,1-.79,1.73-1.54a9,9,0,0,0-2.5.37,20.12,20.12,0,0,0-.71-2,2.23,2.23,0,0,0,1-.75c.19-.24.66-.82,1.16-1.56h-7.5v-2.36h8.18a12.9,12.9,0,0,0-.75-1.25l2.67-.62a11.69,11.69,0,0,1,1.21,1.87h7.83v2.36h-9.09a16.74,16.74,0,0,1-1.52,2l2-.06a19.65,19.65,0,0,0,1.41-1.78l2,1.18a38,38,0,0,1-5,4.89l2.31-.18a10.09,10.09,0,0,0-.75-1.1l1.92-.68c.33.44.7.93,1,1.43l1.45-1.14a27.82,27.82,0,0,1,4.38,2.79l-1.89,1.59a22,22,0,0,0-3.52-2.53,9.55,9.55,0,0,1,.86,1.78Zm6.78,3.47h-8.63v4h-2.79v-4H721v-2.42h8.6v-1.47h2.79v1.47H741Zm-16.22-8a18.65,18.65,0,0,0-3.23-2.48l1.71-1.39a19.08,19.08,0,0,1,3.37,2.33Zm10.3-1.23a18.24,18.24,0,0,0,2.82-2.73l2.17,1.26a24.8,24.8,0,0,1-3,2.68Z"/><line class="j" x1="639.96" y1="153.62" x2="658.35" y2="172"/><line class="j" x1="658.35" y1="153.62" x2="639.96" y2="172"/><line class="j" x1="185.83" y1="162.81" x2="167.8" y2="162.81"/><line class="j" x1="19.53" y1="154.47" x2="1.5" y2="154.47"/><line class="j" x1="19.53" y1="169.69" x2="1.5" y2="169.69"/><path class="k" d="M52.2,44.59A31,31,0,0,1,51.08,51a11.91,11.91,0,0,0-2.16-.75,22,22,0,0,0,1.07-6Zm4-1.2c0-.41-.13-.88-.24-1.43-4.49.91-5.3,1.2-5.82,1.48a16.68,16.68,0,0,0-.91-2.52c.62-.16,1.17-.75,1.9-1.72a28.07,28.07,0,0,0,1.66-2.41,8.63,8.63,0,0,0-2.86.65A19,19,0,0,0,49,34.89c.47-.13.88-.65,1.33-1.41a30.16,30.16,0,0,0,2.55-6.39l2.7,1.06a35.8,35.8,0,0,1-3.07,6.35l1.67-.16c.54-1,1.09-2.18,1.53-3.25l2.47,1.28a43.24,43.24,0,0,1-4.91,7.74l2.15-.36c-.15-.62-.33-1.22-.52-1.77l2.08-.6a34.4,34.4,0,0,1,1.38,5.26Zm-1.43.7a52,52,0,0,1,.72,5.49l-2.2.57a50,50,0,0,0-.58-5.54Zm2.52-.67a28.93,28.93,0,0,1,1.35,4.16l-2,.78A38,38,0,0,0,55.29,44Zm6.58,1a36.23,36.23,0,0,1-3.46,5.69A17.63,17.63,0,0,0,58,48.44a22.64,22.64,0,0,0,3-4.92Zm3.59-2.06v9h-3v-9H58.6V39.65H73.08v2.67ZM61,35.15H59v-5h5.54c-.26-.83-.57-1.74-.88-2.49l3-.68a31.25,31.25,0,0,1,1.2,3.17H73v5H70.84v2.52H61Zm.7-2.37V35h8.32V32.78Zm8.79,10.69a47.76,47.76,0,0,1,2.89,5.2l-2.68,1.12a52.5,52.5,0,0,0-2.68-5.39Z"/><path class="k" d="M79.58,42.35c-.21,3.25-.76,6.81-2.21,9.23a14,14,0,0,0-2.52-1.95c1.66-3,1.76-7.36,1.76-10.74V29.51h0a44.42,44.42,0,0,0,8.81-1.85l2,2.63a43.06,43.06,0,0,1-7.75,1.53v1.85h6.68v8.68Zm.1-5.93v3.17h3.69V36.42Zm19.79,2.39H97.1V51.27H94V38.81h-2.7c-.1,4.14-1,9.47-4.63,12.72a14.31,14.31,0,0,0-2.42-2.11c3.59-3.22,3.9-8.06,3.9-11.8V29.53a42.3,42.3,0,0,0,8.95-2.05l2,2.68a42.4,42.4,0,0,1-7.77,1.71v3.95h8.11Z"/><path class="k" d="M122.17,48.41c.41,0,.52-.34.59-2.81a7,7,0,0,0,2.66,1.2c-.32,3.48-1.07,4.44-2.89,4.44h-1.77c-2.36,0-2.86-.93-2.86-3.64V42.4h-1.32c-.37,4.14-1.41,7.33-5.72,9.21a8.69,8.69,0,0,0-1.8-2.39c3.56-1.41,4.24-3.78,4.53-6.82H112v-7c-.21.18-.39.37-.6.52a12.19,12.19,0,0,0-1.07-1.19v2.67h-2.67v.39c.65.63,2.62,3,3,3.51l-1.74,2.5c-.27-.65-.78-1.66-1.3-2.63v10.3H104.8V41.86a24.27,24.27,0,0,1-2.55,5.56,20.06,20.06,0,0,0-1.43-3.07,27.05,27.05,0,0,0,3.17-7h-2.78V34.5h3.59V31.35c-.86.16-1.72.31-2.52.42a11.26,11.26,0,0,0-.86-2.39A34.7,34.7,0,0,0,109,27.27l1.79,2.52a21.39,21.39,0,0,1-3.14,1V34.5h2.47a10.13,10.13,0,0,0-.91-.83,16.66,16.66,0,0,0,5-6.09l2.86.91a24.44,24.44,0,0,1-3.87,5.62h9.2a49.67,49.67,0,0,0-4.34-5.41l2.16-1.48A41.91,41.91,0,0,1,125.7,34l-2.34,1.69c-.1-.2-.23-.41-.39-.67V42.4h-2.08v5.18c0,.75,0,.83.42.83Zm-7.29-8.71h5V36.81h-5Z"/><path class="k" d="M138.36,38a4.91,4.91,0,0,1-.49.52,9.71,9.71,0,0,0-1.33-1.22v6.61H134V37.83c-.39.39-.81.78-1.17,1.11-.21-.26-.6-.67-1-1.09-.08,4.19-.57,9.91-2.52,13.63a11.08,11.08,0,0,0-2.34-1.8c1.9-3.74,2-9.23,2-13.08V29h9.9a10.06,10.06,0,0,0-.8-1.46l2.75-.78A13.5,13.5,0,0,1,142.16,29h9v2.52h-5.41a10,10,0,0,1,1.15,1.79l-.68.29h4.27v1.79h-3.93v.91h3.25V37.8h-3.25v1h3.28v1.48h-3.28v1h4.24v1.87h-9.44a17.35,17.35,0,0,1,3.87,2.42l-1.92,1.79a16.93,16.93,0,0,0-4-2.7l.78-.75h-1.77ZM131,49.53a9.28,9.28,0,0,0,2.65-4.47l2.5.91a10.66,10.66,0,0,1-2.78,5Zm.78-13.29a17,17,0,0,0,3.62-4.73h-3.62ZM138,32.08a22.49,22.49,0,0,1-1.49,2.52v1.56a16.16,16.16,0,0,0,3.1-4.65h-3.43Zm5.51,16.8c.7,0,.83-.24.93-1.9a9.25,9.25,0,0,0,2.45,1c-.29,2.65-1,3.33-3.1,3.33h-3.3c-2.81,0-3.46-.76-3.46-3.1V45.37h2.81v2.78c0,.65.16.73,1,.73Zm.8-15.29a11.65,11.65,0,0,0-1-1.54l1.51-.54h-4.11l1.51.41c-.23.58-.52,1.1-.81,1.67ZM144,35.38h-3.1v.91H144Zm0,2.42h-3.1v1H144Zm0,2.47h-3.1v1H144Zm4,4.5a20.84,20.84,0,0,1,3.43,5L149,50.93a19.32,19.32,0,0,0-3.23-5Z"/><path class="k" d="M156.25,44.64A27.86,27.86,0,0,1,155.13,51a10.85,10.85,0,0,0-2.16-.81,22.19,22.19,0,0,0,1-5.9ZM161.32,37a22.7,22.7,0,0,1,1.77,5.2l-2.18.94c-.06-.34-.11-.7-.21-1.09-5.18.88-6.09,1.12-6.66,1.38-.13-.52-.54-1.9-.83-2.63.62-.13,1.14-.75,1.95-1.74a17,17,0,0,0,1.56-2.19,9,9,0,0,0-2.84.58c-.15-.55-.54-1.85-.83-2.55.45-.16.86-.65,1.35-1.43a29.75,29.75,0,0,0,2.94-6.37l2.53,1.09a37.52,37.52,0,0,1-3.39,6.34l1.8-.13c.65-1.19,1.35-2.47,1.9-3.77l2.31,1.54a45.26,45.26,0,0,1-5.3,8.06l2.88-.39c-.26-.7-.52-1.41-.8-2.06Zm-2.44,7c.31,1.72.57,3.93.67,5.41l-2.18.57a48.51,48.51,0,0,0-.57-5.43Zm2.6-.75a37,37,0,0,1,1.45,4.86l-2,.8a42.61,42.61,0,0,0-1.38-5Zm15.16,4.83c0,1.48-.24,2.32-1.17,2.78s-2.27.58-4.16.58a11.39,11.39,0,0,0-.89-3c1.17.05,2.42.05,2.81,0s.52-.1.52-.47V44a18.79,18.79,0,0,0-1.4,2,12.58,12.58,0,0,1-2.53-4.6,12.14,12.14,0,0,1-3,4.73,13.88,13.88,0,0,0-.86-1.93v7.16h-2.78V33h5.28c-.05-.84-.08-1.64-.11-2.5h-3.66V27.84h6.08c0,1.82.05,3.56.16,5.18h5.67Zm-10.64-5a13.38,13.38,0,0,0,2.78-6.76l-.07-.5H166Zm5.23-7.26c.41,3.1,1.14,5.57,2.52,7.21V35.82Z"/><path class="k" d="M200.17,48.41c.41,0,.52-.34.59-2.81a7,7,0,0,0,2.66,1.2c-.32,3.48-1.07,4.44-2.89,4.44h-1.77c-2.36,0-2.86-.93-2.86-3.64V42.4h-1.32c-.37,4.14-1.41,7.33-5.72,9.21a8.69,8.69,0,0,0-1.8-2.39c3.56-1.41,4.24-3.78,4.53-6.82H190v-7c-.21.18-.39.37-.6.52a12.19,12.19,0,0,0-1.07-1.19v2.67h-2.67v.39c.65.63,2.62,3,3,3.51l-1.74,2.5c-.27-.65-.78-1.66-1.3-2.63v10.3H182.8V41.86a24.27,24.27,0,0,1-2.55,5.56,20.06,20.06,0,0,0-1.43-3.07,27.05,27.05,0,0,0,3.17-7h-2.78V34.5h3.59V31.35c-.86.16-1.72.31-2.52.42a11.26,11.26,0,0,0-.86-2.39A34.7,34.7,0,0,0,187,27.27l1.79,2.52a21.39,21.39,0,0,1-3.14,1V34.5h2.47a10.13,10.13,0,0,0-.91-.83,16.66,16.66,0,0,0,5-6.09l2.86.91a24.44,24.44,0,0,1-3.87,5.62h9.2a49.67,49.67,0,0,0-4.34-5.41l2.16-1.48A41.91,41.91,0,0,1,203.7,34l-2.34,1.69c-.1-.2-.23-.41-.39-.67V42.4h-2.08v5.18c0,.75.05.83.42.83Zm-7.29-8.71h5V36.81h-5Z"/><path class="k" d="M215.92,43.42H216v8h-2.71v-.66h-3.37v.68h-2.58V43.94c-.31.13-.62.26-.94.36a10.06,10.06,0,0,0-1.48-2.44,16.91,16.91,0,0,0,4.5-2l-1.35-.8,1.72-1.8,1.71.94A9,9,0,0,0,213,36.47h-3.15A11.46,11.46,0,0,1,207,39.39a6.49,6.49,0,0,0-1.51-2,9.06,9.06,0,0,0,3.75-4.81l2.34.47a11.14,11.14,0,0,1-.44,1.17h3.27l.44-.08,0,0v-2h-7v2.23H205.6V29.71h4.58c-.19-.57-.39-1.17-.58-1.63l2.47-.86c.31.75.68,1.69,1,2.49h4.16v4.68h-2l1.12.81a14.41,14.41,0,0,1-2.57,4.26c1.4.81,2.78,1.64,3.66,2.27Zm-.88,0c-.86-.63-2-1.36-3.23-2.11a17.29,17.29,0,0,1-3.3,2.11Zm-1.75,5V45.81h-3.37v2.57Zm12.2-2.08a30.7,30.7,0,0,1,4.24,3.05L228,51.45a31.29,31.29,0,0,0-4.32-3.4l1.54-1.75H221.3l1.85,1.93a32.08,32.08,0,0,1-5.59,3.35,15.42,15.42,0,0,0-1.27-2.26,24.55,24.55,0,0,0,4.91-3h-2.81V32.6h3.3c.11-.57.21-1.2.29-1.79h-4.24v-2.6h11.62v2.6h-4.57c-.16.62-.37,1.24-.55,1.79h4.47V46.3Zm-4.34-9.83h4.65V35h-4.65Zm0,3.75h4.65V38.66h-4.65Zm0,3.72h4.65V42.4h-4.65Z"/><polygon class="i" points="396.62 242.45 396.62 223.38 388.86 223.38 388.86 242.45 380.71 242.45 392.74 263.28 404.76 242.45 396.62 242.45"/><path class="l" d="M221.78,294.22c-.08-.38-.17-.81-.29-1.29-4.85.93-5.59,1.17-6.05,1.44a11.32,11.32,0,0,0-.67-1.88c.55-.12,1.08-.72,1.77-1.58a22,22,0,0,0,1.8-2.57,11.55,11.55,0,0,0-3.07.58c-.12-.41-.43-1.37-.65-1.9.41-.12.8-.6,1.25-1.32a27,27,0,0,0,2.76-5.95l2,.81a35.2,35.2,0,0,1-3.31,6.2l2.14-.17a32.34,32.34,0,0,0,1.68-3.26l1.82,1a47.43,47.43,0,0,1-5.06,7.63l3.14-.55a17.07,17.07,0,0,0-.6-1.83l1.54-.43a33,33,0,0,1,1.44,4.58Zm-4.16,1.3a27.41,27.41,0,0,1-1.32,5.76,9.89,9.89,0,0,0-1.56-.58,21.28,21.28,0,0,0,1.25-5.47Zm2.14-.36a41.2,41.2,0,0,1,.65,5l-1.59.38a44.19,44.19,0,0,0-.57-5.07Zm2.18-.55a31.87,31.87,0,0,1,1,4l-1.53.48a30.78,30.78,0,0,0-.94-4Zm.56,5.4a19.59,19.59,0,0,0,1.65-5.07l1.56.58a24.14,24.14,0,0,1-1.61,5.23Zm13.1-6.63H224.15V282.05h3.43a17.89,17.89,0,0,0,.77-2.4l2.28.39c-.36.69-.74,1.41-1,2h6Zm-4.08,6.31c.67,0,.82-.31.91-2.37a5,5,0,0,0,1.66.7c-.22,2.61-.72,3.28-2.38,3.28h-3.14c-2.07,0-2.57-.5-2.57-2.25V295h1.87v4.06c0,.55.12.64.94.64Zm2.06-15.84H226.1v7.71h7.48ZM232.05,291a15,15,0,0,0-1.3-1.8,17.75,17.75,0,0,1-2.85,2.16,3.7,3.7,0,0,0-.92-1,14.81,14.81,0,0,0,2.89-2.16,9.71,9.71,0,0,0-.82-.89,12.56,12.56,0,0,1-2,1.52,3.25,3.25,0,0,0-.93-1,9.86,9.86,0,0,0,1.94-1.49c-.43-.43-.89-.84-1.34-1.22l1.17-.74a11.26,11.26,0,0,1,1.13,1,6.22,6.22,0,0,0,.84-1.28l1.44.24a12.18,12.18,0,0,1-1.32,1.95l.84.84a9.48,9.48,0,0,0,1.16-1.66l1.46.27a18.86,18.86,0,0,1-1.7,2.42,18.67,18.67,0,0,1,1.51,2Zm-1.13,7c-.48-1-1.44-2.59-2.18-3.82l1.44-.67c.74,1.15,1.77,2.74,2.25,3.65Zm3.84-3.24c.77,1.56,1.63,3.55,2.09,4.82l-1.63.75a52.28,52.28,0,0,0-2-4.95Z"/><path class="l" d="M245.7,286.85h3.87v2.07H245.7v.55c.94.94,3.32,3.67,3.87,4.39l-1.35,1.83A44.41,44.41,0,0,0,245.7,292v9.77h-2.23v-9.65a23.48,23.48,0,0,1-3.86,6.51,11.33,11.33,0,0,0-1.18-2.07,22.31,22.31,0,0,0,4.49-7.65H239v-2.07h4.46v-3.57c-1.25.21-2.52.36-3.69.5a9.33,9.33,0,0,0-.63-1.73,44.57,44.57,0,0,0,8.91-2l1.48,1.73a22.22,22.22,0,0,1-3.84,1.05ZM259.46,282v18.53h-2.28v-1.78H252.5v2h-2.16V282Zm-2.28,14.62V284.17H252.5v12.48Z"/><path class="l" d="M269.63,298.28a15.4,15.4,0,0,0,5.76.79c1.37,0,7.92,0,9.6-.05a6.92,6.92,0,0,0-.88,2.21h-8.72c-5,0-8-.74-9.93-4.05a13.82,13.82,0,0,1-1.64,4.6,4.23,4.23,0,0,0-1.49-1.34c1.61-2.81,1.78-6.67,1.69-9.84l1.87.09c0,1,0,1.95,0,3a8.28,8.28,0,0,0,1.76,3.21v-7.75h-4.78v-2h4.34v-2.61h-3.5v-1.95h3.5V279.8h2.07v2.78h3.43v1.95h-3.43v2.61h3.86v2h-3.48v3h3.07v1.94h-3.07Zm8.31-6.7a10.06,10.06,0,0,0,.55,1.73c-4,2.35-4.61,2.76-5,3.19a7.62,7.62,0,0,0-.91-1.94,2,2,0,0,0,1.08-1.75v-9h4.46c-.07-1.29-.09-2.64-.12-4h2c0,1.37,0,2.71.05,4h4.56v1.87h-4.46c.14,2.09.33,4,.6,5.6a21.37,21.37,0,0,0,1.75-4.32l1.75.48a23.42,23.42,0,0,1-2.95,6.5c.41,1.37.86,2.18,1.32,2.18s.55-1,.62-3.19a4.76,4.76,0,0,0,1.52,1c-.32,3.22-.87,4.16-2.36,4.13-1,0-1.82-.84-2.47-2.33a13.32,13.32,0,0,1-3.48,3,10.27,10.27,0,0,0-1.34-1.55,13.1,13.1,0,0,0,4.12-3.63,49.63,49.63,0,0,1-1.05-7.9H275.7v7.2Zm4.77-7.89a28.58,28.58,0,0,0-2.13-2.91l1.51-.79a30,30,0,0,1,2.21,2.78Z"/><path class="l" d="M308.39,291.17c-3.33,7.13-11.33,9.8-20.06,10.73a7.75,7.75,0,0,0-.89-2.16,38.3,38.3,0,0,0,10.82-2.3,29.94,29.94,0,0,0-3-2.67,37.24,37.24,0,0,1-3.45,1.59,6.5,6.5,0,0,0-1.39-1.73c4.84-1.66,8.2-4.15,10-6.5l2.45.55a20.16,20.16,0,0,1-1.51,1.7h5.13l.39-.09ZM305,282.61c-3,5.4-9.93,8.47-16.39,9.76a9.09,9.09,0,0,0-1.06-2,34,34,0,0,0,7.59-2.21,20.32,20.32,0,0,0-2.86-2.5c-.79.43-1.63.89-2.52,1.3a6.8,6.8,0,0,0-1.51-1.61,20.42,20.42,0,0,0,8.23-5.64l2.43.55a16.47,16.47,0,0,1-1.49,1.54h5.73l.39-.12Zm-9.89,1.2c-.36.28-.74.55-1.12.79a25.82,25.82,0,0,1,3.14,2.59,16.63,16.63,0,0,0,4.42-3.38Zm3.89,8.56c-.57.46-1.22.89-1.87,1.32a29.65,29.65,0,0,1,3.22,2.74,13.6,13.6,0,0,0,4.68-4.06Z"/><path class="l" d="M313.12,294.15c1.85-.7,2.93-1.8,3.05-3.24a1.83,1.83,0,0,1-.34,0,1.87,1.87,0,0,1-2-1.92,1.9,1.9,0,0,1,2-1.92c1.51,0,2.3,1.18,2.3,3a5.84,5.84,0,0,1-4.42,5.62Z"/><path class="l" d="M344.42,283.69h-2.86v15.16c0,1.45-.36,2.19-1.37,2.53a16.53,16.53,0,0,1-5.11.43,10,10,0,0,0-.94-2.4c1.83.09,3.82.07,4.4.07s.69-.17.69-.67V283.69H323.1v-2.24h21.32Zm-16.8,12.16v1.88h-2.16v-10.9h9.88v9Zm0-6.91v4.8h5.52v-4.8Z"/><path class="l" d="M355.31,292.4l-2.93.86v6c0,1.2-.26,1.8-1,2.14a7.8,7.8,0,0,1-3.38.41,10.3,10.3,0,0,0-.7-2.12c1,.05,2,.05,2.31,0s.45-.1.45-.46v-5.37l-3,.88-.53-2.18c1-.24,2.21-.55,3.55-.91v-5.57h-3.24v-2.06h3.24v-4.23h2.28v4.23H355v2.06h-2.64v5l2.64-.75Zm12.07-10.61v19.13h-2.32V299h-6.63v2.11H356.2V281.79Zm-2.32,15.1v-13h-6.63v13Z"/><path class="l" d="M378.64,281.5c-.7,2-1.54,4.37-2.3,6.22a7.56,7.56,0,0,1,2,5.09,3.57,3.57,0,0,1-1,2.92,3.18,3.18,0,0,1-1.32.48,12.17,12.17,0,0,1-1.63,0,5.12,5.12,0,0,0-.48-1.95,5.11,5.11,0,0,0,1.27,0,1,1,0,0,0,.69-.24c.36-.21.48-.81.48-1.53a6.81,6.81,0,0,0-2-4.64c.6-1.53,1.22-3.57,1.68-5.16h-2.55v19h-1.94v-21h5.25l.32-.07Zm4.25,13.66a21.92,21.92,0,0,1-3.51,5.26,15.23,15.23,0,0,0-1.65-1.2,15.94,15.94,0,0,0,3.19-4.61Zm4-1.61v5.86c0,1.1-.22,1.68-1,2a9.19,9.19,0,0,1-3.5.39,10.94,10.94,0,0,0-.75-2c1.2,0,2.28,0,2.64,0s.46-.12.46-.43v-5.83h-6v-2h6V289h-4v-1.63c-.46.29-.91.6-1.37.86a6.89,6.89,0,0,0-1.49-1.63,18.32,18.32,0,0,0,7.47-7l1.89.73c-.16.31-.35.62-.55.93a21.58,21.58,0,0,0,6.39,5,6.39,6.39,0,0,0-1.49,1.75c-.46-.29-.91-.58-1.37-.89V289H386.9v2.52h5.64v2Zm3.26-6.5a24.78,24.78,0,0,1-4.53-4.23,23.18,23.18,0,0,1-4.4,4.23Zm-.5,7.36a27.56,27.56,0,0,1,3.33,4.81l-1.77,1a27.11,27.11,0,0,0-3.27-5Z"/><path class="l" d="M416.06,283.52s0,.77,0,1.05c-.33,10.83-.62,14.55-1.58,15.75a2.69,2.69,0,0,1-2.09,1.13,27,27,0,0,1-3.62,0,5.36,5.36,0,0,0-.72-2.16c1.53.12,2.93.14,3.52.14a1.06,1.06,0,0,0,1-.41c.77-.79,1.08-4.41,1.4-13.46h-5.67a24.64,24.64,0,0,1-2.18,4,11.07,11.07,0,0,0-1.76-1.25v11h-6.5v1.82h-2V283.64h2.69a30,30,0,0,0,.84-3.89l2.42.41c-.41,1.2-.86,2.47-1.25,3.48h3.84v4.53a22.76,22.76,0,0,0,3.58-8.42l2.16.5c-.29,1.11-.6,2.21-1,3.27Zm-18.22,2.06v4.56h4.46v-4.56Zm4.46,11.81v-5.3h-4.46v5.3Zm8-1.87a39,39,0,0,0-3.51-5.55l1.75-1a43,43,0,0,1,3.63,5.35Z"/><path class="l" d="M428.32,294.61v7.12h-2v-.67h-3.77v.7h-1.89v-6.89l-1.06.43a8.33,8.33,0,0,0-1.1-1.82,15.35,15.35,0,0,0,4.41-2.26c-.55-.33-1.08-.65-1.58-.93l1.27-1.35,1.78,1a10,10,0,0,0,1.63-2.14h-3.22a10.78,10.78,0,0,1-2.68,2.81,5.48,5.48,0,0,0-1.13-1.46,9.26,9.26,0,0,0,3.53-4.66l1.75.34c-.15.43-.34.84-.53,1.27h3.29l.31-.07,1.13.81a14.6,14.6,0,0,1-2.47,4.06c1.36.82,2.68,1.63,3.55,2.23Zm-7.49-8.36h-1.65v-4.12h4.27c-.19-.58-.43-1.16-.63-1.66l1.76-.62c.33.67.69,1.58,1,2.28h3.91v4.12h-1.75v-2.32h-6.89Zm7.08,8.24c-.84-.63-2-1.42-3.26-2.21a15.25,15.25,0,0,1-3.22,2.21Zm-1.56,4.82v-3.07h-3.77v3.07Zm8.43-.46a29.63,29.63,0,0,1-5,3.1,17.58,17.58,0,0,0-1-1.65,21.59,21.59,0,0,0,4.54-2.84Zm-.94-14c.14-.62.26-1.36.38-2h-4.1v-1.89h10.46v1.89h-4.29c-.22.7-.41,1.42-.6,2h4.22v12.44h-9.17V284.81Zm4,1.76h-5v1.84h5Zm0,3.5h-5v1.87h5Zm0,3.53h-5v1.89h5Zm-.93,3.77a26.89,26.89,0,0,1,4,2.95l-1.25,1.53a29.13,29.13,0,0,0-3.93-3.09Z"/><path class="l" d="M446.92,288.44c0,3.89-.29,9.58-2.28,13.37a9.54,9.54,0,0,0-2-1c1.92-3.6,2.12-8.76,2.12-12.36v-6.39h9a15.66,15.66,0,0,0-.79-1.84l2.23-.53a19.51,19.51,0,0,1,1.11,2.37h8.11v2.07H446.92Zm15.82,5.69a11.57,11.57,0,0,1-4.64,4.56,32.35,32.35,0,0,0,6.68,1.2,10,10,0,0,0-1.3,1.92,28.44,28.44,0,0,1-7.94-1.92,34.66,34.66,0,0,1-8,1.8,7.23,7.23,0,0,0-.92-1.9,32.85,32.85,0,0,0,6.58-1.13,12.89,12.89,0,0,1-3.46-3.05l.94-.36h-2.9v-1.77H461l.38-.07ZM451,292.21v-3.84h-3.55v-1.8H451v-1.85h2.12v1.85h5.18v-1.85h2.18v1.85h3.68v1.8H460.5v3.84Zm.94,3a11.23,11.23,0,0,0,3.67,2.55,11.42,11.42,0,0,0,3.79-2.55Zm1.18-6.88v2.11h5.18v-2.11Z"/><path class="l" d="M470.8,293.67a20.72,20.72,0,0,1-2.4,6,14.44,14.44,0,0,0-1.58-1.05,14.81,14.81,0,0,0,2.11-5.38Zm7.1-9.07H467.06v-2h4.8a20.2,20.2,0,0,0-.94-2.42l2-.46a23.57,23.57,0,0,1,1.2,2.88h3.74Zm-4.17,7.65v7.35c0,.91-.15,1.46-.77,1.75a6.58,6.58,0,0,1-2.74.34,6.72,6.72,0,0,0-.62-1.85c.79,0,1.56,0,1.8,0s.34-.07.34-.31v-7.3h-3.51v-6H477v6Zm-3.55-1.75H475V288h-4.77ZM476,293a18.05,18.05,0,0,1,1.8,4.2l-1.71.77a16.5,16.5,0,0,0-1.68-4.25Zm10.32,6.62a1,1,0,0,0,.58-.12c.14-.05.24-.26.31-.65a22.22,22.22,0,0,0,.09-2.61,5.29,5.29,0,0,0,1.76.94,17.8,17.8,0,0,1-.29,2.85,1.81,1.81,0,0,1-.84,1,3.24,3.24,0,0,1-1.4.27H485a2.6,2.6,0,0,1-1.56-.48c-.38-.34-.55-.77-.55-2.36v-8.16c-.65,4.47-2,8.67-5.11,11.52a6.81,6.81,0,0,0-1.61-1.36c3.36-3,4.54-7.68,4.94-12.56h-2.95v-2h3.07c.12-2.07.12-4.13.12-6.07h2.12c0,1.94-.05,4-.17,6.07h5.28v2h-5.4c0,.53-.12,1.06-.17,1.59h1.83v9.14c0,.46,0,.75.14.84a1,1,0,0,0,.48.12Zm.14-14.3a17.79,17.79,0,0,0-2.4-3.68l1.47-.83a16.41,16.41,0,0,1,2.49,3.5Z"/><path class="l" d="M497.63,298.28a15.4,15.4,0,0,0,5.76.79c1.37,0,7.92,0,9.6-.05a6.92,6.92,0,0,0-.88,2.21h-8.72c-5,0-8-.74-9.93-4.05a13.82,13.82,0,0,1-1.64,4.6,4.23,4.23,0,0,0-1.49-1.34c1.61-2.81,1.78-6.67,1.69-9.84l1.87.09c0,1,0,1.95,0,3a8.28,8.28,0,0,0,1.76,3.21v-7.75h-4.78v-2h4.34v-2.61h-3.5v-1.95h3.5V279.8h2.07v2.78h3.43v1.95h-3.43v2.61h3.86v2h-3.48v3h3.07v1.94h-3.07Zm8.31-6.7a10.06,10.06,0,0,0,.55,1.73c-4,2.35-4.61,2.76-5,3.19a7.62,7.62,0,0,0-.91-1.94,2,2,0,0,0,1.08-1.75v-9h4.46c-.07-1.29-.09-2.64-.12-4h2c0,1.37,0,2.71.05,4h4.56v1.87h-4.46c.14,2.09.33,4,.6,5.6a21.37,21.37,0,0,0,1.75-4.32l1.75.48a23.42,23.42,0,0,1-3,6.5c.41,1.37.86,2.18,1.32,2.18s.55-1,.62-3.19a4.76,4.76,0,0,0,1.52,1c-.32,3.22-.87,4.16-2.36,4.13-1,0-1.82-.84-2.47-2.33a13.32,13.32,0,0,1-3.48,3,10.27,10.27,0,0,0-1.34-1.55,13.1,13.1,0,0,0,4.12-3.63,49.63,49.63,0,0,1-1.05-7.9H503.7v7.2Zm4.77-7.89a28.58,28.58,0,0,0-2.13-2.91l1.51-.79a30,30,0,0,1,2.21,2.78Z"/><path class="l" d="M536.39,291.17c-3.33,7.13-11.33,9.8-20.06,10.73a7.75,7.75,0,0,0-.89-2.16,38.3,38.3,0,0,0,10.82-2.3,29.94,29.94,0,0,0-3-2.67,37.24,37.24,0,0,1-3.45,1.59,6.5,6.5,0,0,0-1.39-1.73c4.84-1.66,8.2-4.15,10-6.5l2.45.55a20.16,20.16,0,0,1-1.51,1.7h5.13l.39-.09ZM533,282.61c-3,5.4-9.93,8.47-16.39,9.76a9.09,9.09,0,0,0-1.06-2,34,34,0,0,0,7.59-2.21,20.32,20.32,0,0,0-2.86-2.5c-.79.43-1.63.89-2.52,1.3a6.8,6.8,0,0,0-1.51-1.61,20.42,20.42,0,0,0,8.23-5.64l2.43.55a16.47,16.47,0,0,1-1.49,1.54h5.73l.39-.12Zm-9.89,1.2c-.36.28-.74.55-1.12.79a25.82,25.82,0,0,1,3.14,2.59,16.63,16.63,0,0,0,4.42-3.38Zm3.89,8.56c-.57.46-1.22.89-1.87,1.32a29.65,29.65,0,0,1,3.22,2.74,13.6,13.6,0,0,0,4.68-4.06Z"/><path class="l" d="M545.22,296h-3.88v2.23h-1.88V281.5h5.76Zm-3.88-12.7v10.89h2.08V283.28Zm18.86,6.81a27.57,27.57,0,0,1-3.14,6.34c.45,2.14,1,3.38,1.7,3.38.41,0,.62-1,.7-3.36a5.23,5.23,0,0,0,1.51,1.16c-.31,3.26-.86,4.27-2.43,4.27-1.36,0-2.3-1.27-2.95-3.41a21.15,21.15,0,0,1-3.17,3,10.74,10.74,0,0,0-1.32-1.58,17.4,17.4,0,0,0,3.89-3.87,63,63,0,0,1-.77-7.27h-3.43v3.36l2.71-.6.2,1.89c-1,.22-2,.48-2.91.72v5.12c0,1.2-.26,1.8-1,2.13a8.43,8.43,0,0,1-3.48.43,8,8,0,0,0-.7-2.11c1.2,0,2.33,0,2.69,0s.46-.12.46-.48v-4.66l-2.81.7-.41-2.07c.91-.19,2-.41,3.22-.67V288.8h-3.1v-2h3.1v-3.26c-.84.24-1.68.43-2.48.62a6.93,6.93,0,0,0-.62-1.61,28.28,28.28,0,0,0,6.53-2.35l1.61,1.56a26.33,26.33,0,0,1-3,1.18v3.86h3.36c-.09-2.21-.12-4.51-.14-6.84h2c0,2.38,0,4.68.07,6.84h4.58v2h-4.51c.12,1.73.26,3.36.43,4.77a21.23,21.23,0,0,0,1.68-4Zm-1.15-4.82a22.71,22.71,0,0,0-2.3-4.06l1.67-.67a23.62,23.62,0,0,1,2.41,3.91Z"/><rect class="i" x="211.07" y="310.28" width="356.71" height="2.32"/></g></svg>