<svg xmlns="http://www.w3.org/2000/svg" viewBox="0 0 409.36 718.15"><defs><style>.a{fill:#1a1a1a;}.b,.e,.g,.l,.m{fill:none;}.c{fill:#9cd9e2;}.c,.d,.e,.f,.g,.i,.j,.k,.l{stroke:#000;}.c,.i,.j,.k,.l,.m{stroke-linecap:round;stroke-linejoin:round;}.c,.d,.f,.g,.i,.j,.k,.l,.m{stroke-width:5px;}.d,.h{fill:#fff;}.d,.e,.f,.g{stroke-miterlimit:10;}.e{stroke-width:3px;}.i{fill:#ffc900;}.j{fill:#f66c00;}.k{fill:#ff0;}.m{stroke:#fff;}</style></defs><title>wrong-4</title><path class="a" d="M208,178.44l21.38-37a6.68,6.68,0,0,0-5.78-10H180.79a6.68,6.68,0,0,0-5.79,10l21.38,37A6.68,6.68,0,0,0,208,178.44Z"/><rect class="b" width="409.36" height="718.15"/><path class="c" d="M300.57,500.2l28.84-12.93,5.07,11.3c-12.62,5.89-24.52,11.76-32.5,15.75"/><rect class="d" x="349.71" y="484.44" width="27.93" height="5.54" transform="translate(67.91 1018.39) rotate(-114.15)"/><line class="e" x1="336.66" y1="503.44" x2="326.99" y2="481.87"/><path class="f" d="M334.48,498.57c3.87-1.8,7.8-3.6,11.71-5.36,0,0,5.83,15.76,20.67,7.88L355.43,475.6l-26,11.67Z"/><path class="c" d="M120.23,563c-19.18,4.34-65.9,11.63-99.34-10.2a7.87,7.87,0,0,1-1.36-.91l0,0h0a8.53,8.53,0,1,1,11-13h0s0,0,0,0l.35.34c3.58,3.06,27.66,16,67.43,7.63"/><path class="e" d="M31.21,544.57c-.46-.24-8-2.34-10-6.69"/><path class="e" d="M28.2,549.24s-10.45-3.79-11.35-7.78"/><circle class="c" cx="203.39" cy="476.7" r="135.04" transform="translate(-277.5 283.44) rotate(-45)"/><path class="d" d="M132.53,494.81c1.08,3.64-2.64,7.95-8.29,9.62s-11.12.08-12.19-3.56,2.63-7.94,8.29-9.61S131.46,491.18,132.53,494.81Z"/><path class="d" d="M183,496.56c-1,3.67-6.38,5.41-12.09,3.9s-9.53-5.71-8.56-9.37,6.38-5.41,12.08-3.9S184,492.9,183,496.56Z"/><path class="g" d="M165.68,536l-43.61,3.48a7.17,7.17,0,0,1-7.7-6.55h0a7.18,7.18,0,0,1,6.56-7.7l43.62-3.48"/><path class="d" d="M134.33,514.49a5.34,5.34,0,1,1-5.75-4.9A5.34,5.34,0,0,1,134.33,514.49Z"/><path class="d" d="M174.07,511.32a5.34,5.34,0,1,1-5.75-4.9A5.35,5.35,0,0,1,174.07,511.32Z"/><path class="e" d="M154.64,559.15A5.34,5.34,0,1,1,144,560"/><path class="e" d="M165.28,558.31a5.34,5.34,0,1,1-10.64.84"/><line class="g" x1="136.25" y1="552.98" x2="171.81" y2="550.15"/><path class="h" d="M238.62,535.75a19.82,19.82,0,1,1-21.33-18.18A19.82,19.82,0,0,1,238.62,535.75Z"/><path class="c" d="M274.35,553.52c-18.72,6.05-64.59,17.52-99.86-1.21a9.06,9.06,0,0,1-1.44-.78l0,0h0a8.53,8.53,0,1,1,9.81-14h0l0,0c.13.09.26.2.38.3,3.85,2.73,29,13.45,67.84,1.53"/><path class="e" d="M184,543.21c-.48-.2-8.15-1.61-10.58-5.76"/><path class="e" d="M181.45,548.13s-10.75-2.83-12-6.72"/><path class="c" d="M321.65,512.78l28.84-12.94,5.07,11.31C342.94,517,331,522.9,323.07,526.9"/><rect class="d" x="370.79" y="497.01" width="27.93" height="5.54" transform="translate(86.14 1055.35) rotate(-114.15)"/><line class="e" x1="357.75" y1="516.02" x2="348.07" y2="494.45"/><path class="f" d="M355.56,511.15c3.87-1.8,7.8-3.61,11.71-5.36,0,0,5.84,15.75,20.67,7.87l-11.42-25.49-26,11.67Z"/><path class="h" d="M109,545.05a19.83,19.83,0,0,0-21.34-18.18,19.49,19.49,0,0,0-6.8,1.8,133.38,133.38,0,0,0,20.52,33.61A19.81,19.81,0,0,0,109,545.05Z"/><path class="i" d="M286.19,394.05c-13.31,13.74-21,34.39-9.45,50.66-20.25-5.47-37.92,13.67-40.74,33.85-11.79-18.74-42.55-30.64-61-18.89,10.11-20.88-2.46-47-23.48-59.87,27-.16,53.3-7.71,52.13-42.41,14.49,20.95,40.63,35.8,64,23.56Z"/><circle class="j" cx="205.75" cy="322.04" r="99.94" transform="translate(-162.91 422.68) rotate(-72.7)"/><polygon points="192.04 373.39 205.67 359.79 181.57 337.24 235.53 342.67 237.46 323.23 177.89 317.46 212.38 294.89 201.75 278.96 159.36 307.28 57.2 333.17 67.54 373.99 167.06 348.77 192.04 373.39"/><line class="k" x1="186.6" y1="270.7" x2="154.23" y2="299.7"/><line class="j" x1="251.89" y1="312.35" x2="209.75" y2="308.16"/><line class="j" x1="165.91" y1="365.37" x2="196.68" y2="388.82"/><line class="l" x1="322.24" y1="308.34" x2="323.94" y2="253.72"/><line class="l" x1="243.94" y1="249.39" x2="245.64" y2="194.77"/><line class="l" x1="313.28" y1="296.31" x2="314.02" y2="268.65"/><line class="l" x1="251.52" y1="251.74" x2="252.26" y2="224.08"/><line class="l" x1="86.18" y1="351.28" x2="88.29" y2="273.42"/><line class="l" x1="73.4" y1="334.08" x2="74.31" y2="294.65"/><rect x="60.21" y="54.38" width="283.92" height="105.55" rx="35.31" ry="35.31"/><path class="h" d="M184.7,122.33c1.68-.37,3.48-.73,5.2-1.08l.2,3c-4.88,1.11-10,2.27-13.84,3.11L175.5,124l6.2-1.16V112.05H176v-3.16h5.68v-3.8h-3.48v-1.76a24.78,24.78,0,0,1-1.92,1.72,29.81,29.81,0,0,0-1.44-3.76,27.74,27.74,0,0,0,8-9.6l2.8,1.28c-.28.52-.56,1-.84,1.6a41.52,41.52,0,0,1,6.4,4.8l-1.6,3.08a46.46,46.46,0,0,0-6.44-5.24A30.79,30.79,0,0,1,179.5,102h9.12v3.12H184.7v3.8h5.2v3.16h-5.2Zm-5.76-8.48a50.1,50.1,0,0,1,1.48,7.07l-2.48.76a49.06,49.06,0,0,0-1.36-7.19Zm6.56,6.64a64.51,64.51,0,0,0,1.6-7l2.72.76c-.76,2.44-1.48,5.2-2.16,7Zm26.23-15.72v3.32H190.82v-3.32h4.48v-4.6h-3.68V96.89h3.68V92h3.24v4.92h5.35V92h3.32v4.92h3.44v3.28h-3.44v4.6Zm-18.43,6.12h16.23v17.63h-3.44V127h-9.47v1.64H193.3Zm3.32,3.08v3.52h9.47V114Zm9.47,10v-3.51h-9.47V124Zm-7.55-19.19h5.35v-4.6h-5.35Z"/><path class="h" d="M221.14,118.89v3.68h-2.92V94.77h9.36v24.12Zm0-21.16v18.16h3.52V97.73ZM231.38,121a52.76,52.76,0,0,1-2.16,7.31,11.78,11.78,0,0,0-2.2-.64,37.83,37.83,0,0,0,2.16-7.15Zm6-7.68a36.26,36.26,0,0,1,1.88,6.16L237,120c-.08-.44-.2-1-.36-1.6-5.88.8-6.92,1-7.56,1.32a15.81,15.81,0,0,0-.76-2.36c.68-.12,1.36-.8,2.28-1.88a38.9,38.9,0,0,0,2.36-3.12,14.17,14.17,0,0,0-3.68.48,14,14,0,0,0-.8-2.4c.56-.12,1-.6,1.52-1.32a29.05,29.05,0,0,0,3.16-6.2l2.64,1a33,33,0,0,1-3.64,6.12l2.28-.08a29.59,29.59,0,0,0,2-3.64l2.4,1.24a55.15,55.15,0,0,1-6.4,9.08l3.64-.4c-.24-.84-.56-1.72-.84-2.52Zm15.15-10.48H229.7V93.73h22.79Zm-18,18a51.37,51.37,0,0,1,.68,6.6l-2.32.32a44.38,44.38,0,0,0-.52-6.64Zm2-24.31h-3.68v3.6h3.68Zm1,23.68a56.87,56.87,0,0,1,1.68,6l-2.12.6a47,47,0,0,0-1.56-6.08Zm16.07,6.67H243.33v1.84h-2.87v-15l-.2.28a15.46,15.46,0,0,0-2.44-1.68A27.53,27.53,0,0,0,242.5,103l2.83.72c-.39,1.16-.83,2.36-1.27,3.48h3.23c-.36-1.08-.79-2.4-1.24-3.44l2.4-.72a41.34,41.34,0,0,1,1.56,4.16h3.36V110h-4v2.92h3.44v2.6h-3.44v2.92h3.44V121h-3.44v2.84h4.2ZM242.82,96.45H239v3.6h3.8ZM246.69,110h-3.36v2.92h3.36Zm0,5.52h-3.36v2.92h3.36Zm-3.36,8.35h3.36V121h-3.36Zm5.88-27.43h-3.88v3.6h3.88Z"/><path class="h" d="M263.9,122.29a3.64,3.64,0,1,1,3.64,3.47A3.5,3.5,0,0,1,263.9,122.29Zm.84-21.44-.12-5.28h5.88l-.12,5.28-1.2,14.72H265.9Z"/><line class="m" x1="111.09" y1="91.94" x2="147.09" y2="127.94"/><line class="m" x1="147.09" y1="91.94" x2="111.09" y2="127.94"/></svg>