<svg xmlns="http://www.w3.org/2000/svg" viewBox="0 0 421.68 328.81"><defs><style>.a,.c{fill:#fff;}.a,.b,.c,.e{stroke:#000;}.a,.b,.c,.e,.f{stroke-linecap:round;stroke-linejoin:round;}.a,.b{stroke-width:5px;}.b,.f{fill:none;}.c,.e{stroke-width:3px;}.d{fill:#1a1a1a;}.e{fill:#ffc900;}.f{stroke:#ea0c2c;stroke-width:10px;}</style></defs><title>figure-4</title><rect class="a" x="-251.04" y="-327.12" width="927.4" height="1399.22" rx="42.06" ry="42.06"/><path class="b" d="M342.53,247.13a149.62,149.62,0,0,1-199.4,63.14"/><path class="b" d="M359.18,160.52a150.51,150.51,0,0,1-7.83,66.71"/><path class="b" d="M262.94,36.76a150,150,0,0,1,74.57,61.06"/><path class="b" d="M170.17,32.86a150.22,150.22,0,0,1,92.77,3.9"/><path class="b" d="M71.44,122a150,150,0,0,1,63.35-74.1"/><path class="b" d="M76.58,243.19a148.81,148.81,0,0,1-15.34-59.44"/><rect class="c" x="151.34" y="1.5" width="120.23" height="54.01"/><path d="M188.08,26.83a21,21,0,0,1-2.25,6.8,10.19,10.19,0,0,0,3.46,2.88,7.8,7.8,0,0,0-1.47,1.78,11.39,11.39,0,0,1-3.24-2.84,12.17,12.17,0,0,1-3.59,3,9.42,9.42,0,0,0-1.39-1.76,10.23,10.23,0,0,0,3.77-3,18.92,18.92,0,0,1-1.72-3.95,11.75,11.75,0,0,1-1,1.3,10.94,10.94,0,0,0-1.3-1.68v9.09h-2.14V33.71c-2.88,1-3.47,1.34-3.87,1.66a8.29,8.29,0,0,0-.84-2,1.32,1.32,0,0,0,.67-1.29V23.38h2.12v8.84l1.92-.58V21.72h2.14v7.13c1.41-1.75,2.25-4.51,2.68-7.42l2.19.36c-.18,1-.38,2-.63,3h5.52v2Zm-5.09,0-.19.48a19.08,19.08,0,0,0,1.73,4.35,17.14,17.14,0,0,0,1.41-4.83Z"/><path d="M198.48,34.74c1.14-.2,2.32-.4,3.46-.58l.11,1.85c-3.17.61-6.59,1.23-9.06,1.66l-.47-2c1.09-.14,2.45-.36,3.91-.6V32.62h-3.29V30.75h3.29V29.14h2v1.61h3.26v1.87h-3.26ZM192.7,22.5h9.42v1.84h-2.55a20.72,20.72,0,0,1,2.52,3.86l-1.63,1.07c-.11-.27-.26-.58-.42-.91-5,.42-5.78.51-6.3.73-.13-.44-.48-1.4-.69-2a1.74,1.74,0,0,0,.83-.76,13.39,13.39,0,0,0,1.12-2h-2.3ZM199,26.72c-.34-.53-.7-1-1-1.49l1.52-.89h-2.17a20.22,20.22,0,0,1-1.58,2.56Zm5.78,7.33h-2V23.11h2Zm3.57-12.42v14c0,1.14-.22,1.68-.91,2a7.78,7.78,0,0,1-3.13.4,8.74,8.74,0,0,0-.72-2.06c1,0,1.93,0,2.24,0s.42-.1.42-.41v-14Z"/><path d="M226.67,36.23c.29,0,.37-.24.42-2a4.74,4.74,0,0,0,1.85.83c-.22,2.43-.74,3.1-2,3.1H225.7c-1.65,0-2-.65-2-2.54V32h-.92c-.25,2.88-1,5.11-4,6.41a6.47,6.47,0,0,0-1.25-1.66c2.48-1,2.95-2.63,3.15-4.75h-1.14V27.15c-.15.13-.28.25-.42.36a10.73,10.73,0,0,0-.74-.83v1.87h-1.87v.27c.45.43,1.83,2.06,2.12,2.44L217.44,33c-.18-.45-.55-1.16-.91-1.83v7.17h-1.95V31.66a17,17,0,0,1-1.78,3.88,13.12,13.12,0,0,0-1-2.14A18.74,18.74,0,0,0,214,28.55h-1.93v-2h2.5v-2.2c-.6.11-1.2.22-1.76.29a7.38,7.38,0,0,0-.6-1.66,23.77,23.77,0,0,0,5.25-1.47l1.25,1.76a14.8,14.8,0,0,1-2.19.67v2.61h1.72a6.11,6.11,0,0,0-.63-.58,11.71,11.71,0,0,0,3.51-4.24l2,.63a16.73,16.73,0,0,1-2.7,3.91h6.42a35.37,35.37,0,0,0-3-3.76l1.51-1a30.48,30.48,0,0,1,3.82,4.73l-1.63,1.18c-.08-.15-.17-.29-.27-.47V32h-1.45v3.61c0,.52,0,.58.29.58Zm-5.07-6.07h3.5v-2h-3.5Z"/><path d="M248.53,36h-7.05v2.3h-2.21V36h-6.88V34.2h6.88v-1h-5.16V26.46H247v6.79h-5.47v1h7.05Zm-8.61-10.28h-6.46V22.13h6.46Zm-2-2.34h-2.53v1h2.53Zm-1.7,5.67h3.06v-1h-3.06Zm3.06,2.52v-1h-3.06v1Zm8.26-5.85H241V22.13h6.5Zm-2.79,2.37h-3.26v1h3.26Zm0,2.5h-3.26v1h3.26Zm.78-7.21h-2.59v1h2.59Z"/><rect class="c" x="299.95" y="113.34" width="120.23" height="54.01"/><path d="M336.67,135.68V146.4h-2.25v-.87h-4v4.64h-2.26v-4.64h-3.93v1h-2.16V135.68h6.09v-2.43h2.26v2.43Zm-12.46,2.06v1.83h3.93v-1.83Zm3.93,5.73v-1.92h-3.93v1.92Zm2.26-5.73v1.83h4v-1.83Zm4,5.73v-1.92h-4v1.92Z"/><path d="M347.29,137.92h-6.41v-1.7h2.75a17,17,0,0,0-.85-2.37l1.81-.53a22.69,22.69,0,0,1,1,2.41l-1.43.49h3.15Zm-.51,4.87h-5.43v-1.62h5.43Zm0,6.4h-3.62v.72h-1.83v-6.19h5.45Zm-5.43-10.49h5.43v1.63h-5.43Zm1.81,6.72v2.08h1.76v-2.08Zm13.62,2.81c0,.9-.16,1.38-.8,1.65a6.41,6.41,0,0,1-2.59.29,6.35,6.35,0,0,0-.56-1.71c.67,0,1.43,0,1.65,0s.31-.07.31-.27v-.76H349.9a6.39,6.39,0,0,1-1.32,2.88,8.14,8.14,0,0,0-1.52-1.36,6.66,6.66,0,0,0,1.17-4.38v-3.23h8.57Zm.87-9.15v1.54H347.38v-1.54h4v-.79h-3.29v-1.44h3.29v-.72h-3.75v-1.54h3.75v-1.32h2.09v1.32h3.94v1.54h-3.94v.72h3.58v1.44h-3.58v.79Zm-2.86,7v-.87h-4.64c0,.29,0,.58-.05.87Zm-4.64-3.12v.85h4.64v-.85Z"/><path d="M376.61,144.37a9,9,0,0,1-2.65,3.06,22.16,22.16,0,0,0,3.73.78,9.14,9.14,0,0,0-1.3,1.9,19.25,19.25,0,0,1-4.57-1.41,22.49,22.49,0,0,1-5.23,1.58,6.44,6.44,0,0,0-1-1.8,20.62,20.62,0,0,0,4.15-.94,13.51,13.51,0,0,1-1.29-1,11.06,11.06,0,0,1-1.28.82,11.81,11.81,0,0,0-1.45-1.36,8.32,8.32,0,0,0,1.43-.8,12.53,12.53,0,0,1-1-1.37l1.56-.56a6.66,6.66,0,0,0,.76.94,8.72,8.72,0,0,0,1-1.16H368v-4.62c-.16.18-.33.34-.49.51a12,12,0,0,0-1-.82,19.43,19.43,0,0,1-1.38,2.1v9.95h-2.19v-7.3a16.74,16.74,0,0,1-1.38,1.32,17.07,17.07,0,0,0-1.05-2.23,16.09,16.09,0,0,0,4.13-4.71l1.5.64a2.12,2.12,0,0,0-.28-.2,10.51,10.51,0,0,0,3-4.42l2,.51a9.15,9.15,0,0,1-.47,1.14h7.08v1.72h-8c-.16.27-.33.52-.49.76h7.52v5.65h-4.57q-.21.38-.45.72h3.62l.35-.07Zm-10.38-10.29a18.5,18.5,0,0,1-4.48,4.64,17.18,17.18,0,0,0-1.08-1.83,12.42,12.42,0,0,0,3.47-3.59Zm3.62,11.32a12.42,12.42,0,0,0,2,1.2,8.37,8.37,0,0,0,1.7-1.27h-3.62Zm0-5.85h4.45v-.74h-4.45Zm0,2.07h4.45v-.76h-4.45Z"/><path d="M383.75,141.2a13.56,13.56,0,0,1-1.88.91,9.47,9.47,0,0,0-1.38-1.72,13.86,13.86,0,0,0,5.36-3.23H381V135.3h6.92v-2h2.13v2h7.07v1.86h-4.59a42.4,42.4,0,0,1,4.64,3.19l-1.38,1.56a46,46,0,0,0-5.74-4.11v2.6h-2.13v-2.73a16,16,0,0,1-3.73,3.26h10v6H383.75Zm-2.61,6.59H397v1.89H381.14Zm4.75-4.56H392v-.89h-6.08Zm0,2.3H392v-.94h-6.08Z"/><rect class="c" x="39.28" y="240.32" width="120.23" height="54.01"/><path d="M67,265A26.31,26.31,0,0,1,65,267.73v9.45H62.86V270.1c-.5.49-1,.94-1.48,1.34a20.91,20.91,0,0,0-1.47-1.86,17.63,17.63,0,0,0,5-5.42Zm-.67-3.86a24.39,24.39,0,0,1-5,4.76,12.06,12.06,0,0,0-1.2-1.75,16,16,0,0,0,4.09-3.86Zm10.65,7.21H74.46v6.36c0,1.16-.22,1.75-1,2.08a9.91,9.91,0,0,1-3.53.36,9,9,0,0,0-.65-2.19c1,.05,2.23.05,2.55,0s.45-.08.45-.35v-6.3H66.92v-2.05h10Zm-.46-5h-8.8v-2.05h8.8Z"/><path d="M95.87,265.54a20.46,20.46,0,0,1-2.1,7,8.69,8.69,0,0,0,3.39,2.79,8.2,8.2,0,0,0-1.47,1.85,9.84,9.84,0,0,1-3.24-2.75,11.47,11.47,0,0,1-3.69,2.8,8.25,8.25,0,0,0-1.22-1.9,9.18,9.18,0,0,0,3.7-2.81,19.83,19.83,0,0,1-1.49-4,8.77,8.77,0,0,1-.63.89,9.41,9.41,0,0,0-1-1v.16H86.06v3.71l2.55-.54.18,2c-3,.68-6.17,1.37-8.49,1.9l-.38-2.19.94-.17v-7.71H82.8v7.37l1.16-.22v-9.33H80.33v-2.06h8.3v2.06H86.06v3.17h2.06V267a18.08,18.08,0,0,0,2.25-6.76l2.14.33c-.17,1-.4,2-.66,3H97v2Zm-4.76.23a21.41,21.41,0,0,0,1.38,4.57,17.28,17.28,0,0,0,1.21-4.8H91.2Z"/><path d="M106.81,264.94H100v-1.7h2.85a18.46,18.46,0,0,0-.93-2.46l1.83-.53a16.33,16.33,0,0,1,1,2.45l-1.64.54h3.64Zm-6,2.45v-1.63h5.3v1.63Zm5.34,2.42h-5.34v-1.63h5.34Zm7.82-.34c1.07.94,2.39,2.06,3.06,2.77l-1.23,1.58c-.43-.49-1.1-1.16-1.83-1.85v5.18h-2v-9.24h-2.12v.15c0,2.75-.29,6.72-2.05,9.11a7.85,7.85,0,0,0-1.61-1.29v.29h-3.44v.76h-1.83v-6.25h5.27v4.95c1.41-2.16,1.54-5.22,1.54-7.59v-6a33.48,33.48,0,0,0,6.75-1.72l1.89,1.56a38.59,38.59,0,0,1-6.52,1.63v2.41h6.95v2h-2.79Zm-9.56,2.93h-1.7v2h1.7Z"/><path d="M127,264.94h-7v-1.7H123A23,23,0,0,0,121.9,261l1.78-.73a19.82,19.82,0,0,1,1.28,2.41l-1.25.6H127Zm-.53,11.23h-3.89v.76h-1.85v-6.25h5.74Zm-.09-8.78h-5.6v-1.63h5.6Zm-5.6.79h5.6v1.63h-5.6Zm1.8,4.22v2h2v-2ZM131.21,261a24.08,24.08,0,0,1-2.75,8.3,13.67,13.67,0,0,0-1.76-1.22,19.17,19.17,0,0,0,2.47-7.42Zm2.86,9.16c.84,1.92,2,4.53,2.43,6.05l-1.95.8c-.09-.41-.26-.9-.44-1.45-4.71.56-5.49.73-6,1a13.15,13.15,0,0,0-.69-1.94c.44-.14.74-.63,1.16-1.46a36.27,36.27,0,0,0,2.37-6.69l2.14.55a40.88,40.88,0,0,1-2.83,7.17l3.25-.33c-.4-1-.8-2.12-1.2-3Zm.51-9.49c.4,2.7,1.27,5.49,2.52,7a10.06,10.06,0,0,0-1.63,1.69,18.13,18.13,0,0,1-2.55-6.76h-1.36v-2Z"/><rect class="c" x="1.5" y="113.34" width="120.23" height="54.01"/><path d="M29.92,136.28a24.86,24.86,0,0,1-2.14,1.66,13.43,13.43,0,0,0,2.59,1,7.58,7.58,0,0,0-1.28,1.7,12.86,12.86,0,0,1-2.07-.87v1.56c0,.43,0,.58.27.58h.89a3.51,3.51,0,0,0,.92-.1c0,.44.08,1.06.15,1.47a3.6,3.6,0,0,1-1.05.11H27.08c-1.53,0-1.82-.62-1.82-2.08v-1.05H23.6a4.21,4.21,0,0,1-2,3.58,8.17,8.17,0,0,0-1.09-1.15v.54H16.93c-.07.42-.12.85-.18,1.25h3.77s0,.49,0,.74c-.2,2.45-.41,3.62-.89,4.09a1.86,1.86,0,0,1-1.44.6,18,18,0,0,1-2.39,0,4.08,4.08,0,0,0-.62-1.79c.91.07,1.79.09,2.19.09a.83.83,0,0,0,.65-.18c.22-.2.38-.78.51-2h-3.8c.25-1.18.54-3,.7-4.41H18.6v-1.26H16v-.29a14.08,14.08,0,0,1-1.65.7,8,8,0,0,0-1.15-1.57,12,12,0,0,0,3-1.4,16.2,16.2,0,0,0-1.69-1.08l1.24-1.15a13.91,13.91,0,0,1,1.9,1.15,10.38,10.38,0,0,0,1.05-1.16H15.14V133.9h4.73l.36-.09,1.32.65a10.24,10.24,0,0,1-3.4,4.3h2.37v3.6a2.61,2.61,0,0,0,1.28-2.43v-1.28h3.46a12.51,12.51,0,0,1-3.65-4.8l1.72-.51a7,7,0,0,0,1,1.7,15.84,15.84,0,0,0,1.7-1.66l1.54,1.1c-.74.62-1.52,1.27-2.21,1.76a12.11,12.11,0,0,0,1,.81,15.24,15.24,0,0,0,2-1.88Zm-1.32,8a8.13,8.13,0,0,1-2,3.22c.82.46,1.56.91,2.11,1.27l-1.09,1.43c-.62-.43-1.49-1-2.46-1.57a13.88,13.88,0,0,1-4,1.56,6.12,6.12,0,0,0-.91-1.56,11.58,11.58,0,0,0,3.22-1c-.88-.49-1.73-1-2.51-1.39l.72-.87h-.43v-1.43h5.88l.33-.06Zm-6,1.07c.76.4,1.6.81,2.41,1.27a6.53,6.53,0,0,0,1.14-1.27Z"/><path d="M44.65,145.33a10.79,10.79,0,0,0,.22,1.43c-2.46.67-3.48,1-4,1.18.67.05,1.43.07,2.21.07a60.65,60.65,0,0,0,7.31-.47,8.69,8.69,0,0,0-.61,2.21c-1.5.09-4.69.22-6.81.22-2.39,0-3.93-.2-5.24-1-.74-.42-1.39-1-1.77-1s-1,1.24-1.51,2.27l-1.43-2a7.76,7.76,0,0,1,2-1.76,19.65,19.65,0,0,0,.92-3.11H33.7c.43-1.09.92-2.52,1.35-3.93H33.39v-1.92h4.29c-.38,1.28-.85,2.73-1.29,4h.66l.32-.07.91.33a26.09,26.09,0,0,1-.71,2.9,18.2,18.2,0,0,0,4.33-1.29H39.2V140h9.31v3.33h-.38l1,.65c-.51.36-1.07.74-1.62,1,.77.45,1.47.89,1.94,1.21l-1,1.33c-1-.8-3.06-2.09-4.53-3l1-1.12,1.31.77c.43-.29.88-.61,1.24-.9h-3a11.08,11.08,0,0,1-2.17,1.45v1.14ZM35.31,137c-.2-.81-.69-2.12-1-3.09l1.9-.58c.35,1,.82,2.19,1.07,3Zm5.2,8.61c-.62.21-1.24.39-1.87.54a7.49,7.49,0,0,0-1.07-1.41,16.93,16.93,0,0,1-.63,1.74c.31.19.65.45,1.1.72a6.37,6.37,0,0,0,2.34.72,4,4,0,0,0-.53-1.12,1,1,0,0,0,.66-1Zm9.4-6.13H37.77V138H49.91Zm-.84-2H38.68v-3.64H49.07ZM41.59,135h-1.1v1.25h1.1Zm-.4,7.19h5.19v-.94H41.19ZM44.38,135H43.22v1.25h1.16Zm2.77,0H46v1.25h1.16Z"/><path d="M69.33,134v16.21H67.2v-.76H55.93v.76h-2V134ZM67.2,147.56V136H65A6,6,0,0,1,66.47,137l-.72.76h.87v1.52H63.37c.09,1,.2,2,.35,2.77a11.72,11.72,0,0,0,.85-2.26l1.65.32a14.12,14.12,0,0,1-1.9,4.15c.23.54.5.89.83,1s.34-.63.42-1.68a7.48,7.48,0,0,0,1.34,1c-.29,2.23-1.24,2.92-2.43,2.37a2.54,2.54,0,0,1-1.36-1.19,11.5,11.5,0,0,1-1.88,1.54A9,9,0,0,0,60.06,146a5.65,5.65,0,0,0,.58-.36c-1.45.22-2.86.42-4.06.62l-.2-1.58c1.32-.14,3.21-.36,5.09-.62l0,.91a8.61,8.61,0,0,0,.9-.91,26.74,26.74,0,0,1-.78-4.74h-5v-1.52h4.91c0-.51-.06-1-.09-1.54h1.77c0,.52,0,1,.07,1.54h2a8.15,8.15,0,0,0-1.39-1l.85-.85H55.93v11.59Zm-6.11-4h-4v-3.44h4Zm-1.45-2.3H58.43v1.16h1.21Z"/><path d="M87.67,148.07c.29,0,.36-.24.42-2a4.74,4.74,0,0,0,1.85.83c-.22,2.43-.75,3.1-2,3.1H86.69c-1.64,0-2-.65-2-2.54v-3.62h-.92c-.26,2.88-1,5.11-4,6.41a6,6,0,0,0-1.25-1.66c2.48-1,3-2.63,3.15-4.75H80.55V139a4.4,4.4,0,0,1-.41.36c-.17-.21-.44-.52-.75-.83v1.87H77.53v.27c.45.43,1.83,2.06,2.12,2.44l-1.22,1.74c-.18-.45-.54-1.16-.9-1.83v7.18h-2V143.5a16.54,16.54,0,0,1-1.77,3.88,13.53,13.53,0,0,0-1-2.14A19.07,19.07,0,0,0,75,140.39H73.07v-2h2.5v-2.2c-.6.11-1.19.22-1.75.29a7.91,7.91,0,0,0-.6-1.66,23.77,23.77,0,0,0,5.25-1.47l1.25,1.76a14.8,14.8,0,0,1-2.19.67v2.61h1.72a7.36,7.36,0,0,0-.63-.58,11.71,11.71,0,0,0,3.51-4.24l2,.63a16.73,16.73,0,0,1-2.7,3.91h6.42a35.37,35.37,0,0,0-3-3.76l1.5-1A29.35,29.35,0,0,1,90.13,138l-1.62,1.18c-.08-.15-.17-.29-.28-.47v5.14H86.78v3.61c0,.52,0,.58.29.58ZM82.6,142h3.5v-2H82.6Z"/><path d="M109.18,140.44s0,.62,0,.87c-.18,5.25-.38,7.3-.92,8a1.9,1.9,0,0,1-1.38.78,11.83,11.83,0,0,1-2.26.07,6.11,6.11,0,0,0-.43-1.76H99.87v1.07h-2v-6.08H105v4.81h.71a.62.62,0,0,0,.6-.25c.31-.36.51-1.83.63-5.63h-10a15.92,15.92,0,0,1-2.35,7.4,8.12,8.12,0,0,0-1.74-1.35c2-2.83,2.17-7,2.17-9.84V134.1h12.86v5.18H97.1c0,.36,0,.76,0,1.16ZM97.1,135.91v1.56h8.58v-1.56Zm5.9,9.17H99.87v1.61H103Z"/><rect class="c" x="256.46" y="240.32" width="120.23" height="54.01"/><path d="M282.63,270.43v4.22c0,1-.17,1.52-.71,1.85a4.48,4.48,0,0,1-2.5.41,7,7,0,0,0-.56-2c.67,0,1.28,0,1.5,0s.31-.07.31-.31V271l-1.67.47-.49-2.08c.62-.13,1.34-.33,2.16-.53v-3.2h-2v-2h2v-3.42h2v3.42h1.81v2h-1.81v2.68l1.63-.44.29,1.94Zm8.24,4.56c.41,0,.81.06,1.26.06.62,0,2.87,0,3.65,0a6.07,6.07,0,0,0-.58,1.88H292c-2.37,0-4.2-.43-5.43-2.62a7.92,7.92,0,0,1-1.9,2.84,12,12,0,0,0-1.58-1.29c1.51-1.19,2.25-3.2,2.52-5.67l2,.24a15.26,15.26,0,0,1-.35,1.83,4.11,4.11,0,0,0,1.58,2.12v-4.73h-4.26v-1.74h10.71v1.74h-4.42v1.6h3.46v1.68h-3.46Zm3.51-7.93h-8.91v-6.25h8.91Zm-2.06-4.75h-4.88v.91h4.88Zm0,2.31h-4.88v.92h4.88Z"/><path d="M304.26,274.25a11.55,11.55,0,0,0,3.62.4c1.38,0,6.18,0,7.81-.07a7,7,0,0,0-.81,2.13h-7c-3.35,0-5.5-.45-6.93-2.48a13,13,0,0,1-.84,3.19,19.16,19.16,0,0,0-1.81-.92c.89-1.83,1.07-4.86,1.11-8l2,.15c0,.8-.05,1.59-.09,2.34a6,6,0,0,0,1,1.92V267.5h-3.52v-1.89h3.06v-1.68h-2.55v-1.87h2.55V260.3h2v1.76h2.41v1.87h-2.41v1.68h2.85v1.89h-2.45v1.95h2.3v1.87h-2.3Zm5.89-.43c-2,0-2.68-.62-2.68-2.92V261h7v6.88h-4.91v3.06c0,.83.11,1,.87,1h2.34c.68,0,.81-.42.92-2.34a5.8,5.8,0,0,0,1.88.83c-.23,2.58-.81,3.45-2.62,3.45Zm-.6-11V266h2.84v-3.13Z"/><path d="M325.28,264.94h-6.77v-1.7h2.84a18.35,18.35,0,0,0-.92-2.46l1.83-.53a17.45,17.45,0,0,1,1,2.45l-1.65.54h3.64Zm-6,2.45v-1.63h5.31v1.63Zm5.35,2.42h-5.35v-1.63h5.35Zm7.82-.34c1.07.94,2.39,2.06,3.06,2.77l-1.23,1.58c-.44-.49-1.11-1.16-1.83-1.85v5.18h-2v-9.24h-2.12v.15c0,2.75-.29,6.72-2,9.11a8.43,8.43,0,0,0-1.61-1.29v.29h-3.45v.76H319.3v-6.25h5.28v4.95c1.41-2.16,1.53-5.22,1.53-7.59v-6a33.42,33.42,0,0,0,6.76-1.72l1.88,1.56a38.11,38.11,0,0,1-6.52,1.63v2.41h7v2H332.4Zm-9.56,2.93h-1.71v2h1.71Z"/><path d="M345.29,270.77v4.6c0,.78-.11,1.22-.62,1.49a4.14,4.14,0,0,1-2,.29,5.74,5.74,0,0,0-.53-1.61h1.16c.18,0,.24-.05.24-.21v-4.57h-1.89V264.2h1.62c.05-.45.12-.94.18-1.4H341V268c0,2.71-.18,6.59-1.31,9a7,7,0,0,0-1.52-1.11c.94-2.21,1-5.41,1-7.87v-7h8v1.84H345.5c-.14.49-.29,1-.43,1.4h2.12v6.57Zm-2,1.07a12.79,12.79,0,0,1-1.25,3.82,9.13,9.13,0,0,0-1.45-.79,9.31,9.31,0,0,0,1.11-3.35Zm2.18-6.16h-2.18v1.11h2.18Zm-2.18,3.59h2.18v-1.1h-2.18Zm3.08,5.58a18.46,18.46,0,0,0-1-2.9l1.36-.49a16.5,16.5,0,0,1,1,2.84Zm4.62-.11a12.59,12.59,0,0,1-3.33,2.44,16.59,16.59,0,0,0-1.34-1.3,9.7,9.7,0,0,0,3-2.17Zm-.92-10.7c.07-.42.12-.86.16-1.27h-2.79V261h7.68v1.81h-2.79c-.13.43-.25.87-.38,1.27h2.77v9.58H348V264Zm2.77,1.57h-3.1v1.16h3.1Zm0,2.63h-3.1v1.16h3.1Zm0,2.64h-3.1v1.18h3.1Zm.25,2.85a20.64,20.64,0,0,1,2.46,2.33L354,277.15a20,20,0,0,0-2.39-2.45Z"/><polygon class="d" points="72.6 191.99 61.08 172.04 49.57 191.99 72.6 191.99"/><polygon class="d" points="342.8 211.93 348.76 234.18 365.04 217.89 342.8 211.93"/><polygon class="d" points="154.65 302.26 131.62 302.26 143.13 322.2 154.65 302.26"/><polygon class="d" points="134.55 61.96 144.7 41.29 121.73 42.83 134.55 61.96"/><polygon class="d" points="322.89 96.84 343.56 106.99 342.02 84.02 322.89 96.84"/><rect class="a" x="152.34" y="110.21" width="123.1" height="95.42"/><rect class="e" x="161.1" y="118.12" width="105.58" height="79.6"/><path class="d" d="M178.51,153.37h-4.16v-1.94h4.16v-1h2.34v1H183v1.94h-2.1v.86h-2.34Zm13,13.6c0,1-.16,1.46-.79,1.78a5.29,5.29,0,0,1-2.48.34,7,7,0,0,0-.48-1.54l-1,.26a5.52,5.52,0,0,0-.24-1c-2.84.2-5.76.36-7.88.5l-.18-2,3.66-.16v-1.52h-4.5v5.42h-2.28v-5.42h-.76v-1.9h.76v-.56h2.28v.56h4.5v-.84h-5.52v-6.36h13.48v6.36h-5.68v.84h7.09Zm-12.61-10h3.24v-.92h-3.24Zm3.24,2.36v-.9h-3.24v.9Zm10.09-7.92v1.94h-4.26v.86h-2.35v-.86h-2v-1.94h2v-1h2.35v1Zm-4.53,4.64h-3.28V157h3.28Zm0,2.38h-3.28v.9h3.28ZM185.81,165a9.86,9.86,0,0,0-.46-.92l1.68-.42h-2.66v1.42Zm3.07,2.22c.2,0,.25-.06.25-.26v-3.3h-2a13.21,13.21,0,0,1,1.42,3.56Z"/><path class="d" d="M213.44,164.83h-6.85v4.29h-2.46v-4.29h-9v-2.28h3.16v-5.24h5.84v-2.4h-4.28a18,18,0,0,1-2.72,3.64,18.41,18.41,0,0,0-2.06-1.54,15.42,15.42,0,0,0,4.2-6.66l2.42.62a12.77,12.77,0,0,1-.66,1.64h11.31v2.3h-5.75v2.4h5.29v2.2h-5.29v3h6.85Zm-9.31-2.28v-3h-3.46v3Z"/><path class="d" d="M232.05,166.75c.33,0,.41-.26.47-2.16a5.29,5.29,0,0,0,2,.92c-.24,2.68-.82,3.42-2.22,3.42H231c-1.82,0-2.2-.72-2.2-2.8v-4h-1c-.28,3.18-1.08,5.64-4.4,7.08a6.83,6.83,0,0,0-1.38-1.84c2.74-1.08,3.26-2.9,3.48-5.24h-1.26v-5.4c-.16.14-.3.28-.46.4a9.46,9.46,0,0,0-.82-.92v2.06h-2.06v.3c.5.48,2,2.28,2.34,2.7l-1.34,1.92c-.2-.5-.6-1.28-1-2v7.92h-2.16v-7.38a18.6,18.6,0,0,1-2,4.28,15,15,0,0,0-1.1-2.36,21.08,21.08,0,0,0,2.44-5.36h-2.14v-2.22h2.76v-2.42c-.66.12-1.32.24-1.94.32a8.48,8.48,0,0,0-.66-1.84,26.35,26.35,0,0,0,5.8-1.62l1.38,1.94a16.34,16.34,0,0,1-2.42.74v2.88h1.9a8.94,8.94,0,0,0-.7-.64,12.84,12.84,0,0,0,3.88-4.68l2.2.7a18.9,18.9,0,0,1-3,4.32h7.09a38.13,38.13,0,0,0-3.35-4.16l1.66-1.14a32.32,32.32,0,0,1,4.23,5.22L233,157a5.41,5.41,0,0,0-.31-.52v5.68h-1.59v4c0,.58,0,.64.31.64Zm-5.6-6.7h3.86v-2.22h-3.86Z"/><path class="d" d="M255.2,166.55h-7.79v2.54H245v-2.54h-7.6v-2H245v-1h-5.7V156h14.19v7.5h-6.05v1h7.79Zm-9.51-11.36h-7.14v-4h7.14Zm-2.22-2.58h-2.8v1.16h2.8Zm-1.88,6.26H245v-1.06h-3.38Zm3.38,2.78v-1.08h-3.38v1.08Zm9.13-6.46h-7.19v-4h7.19ZM251,157.81h-3.6v1.06H251Zm0,2.76h-3.6v1.08H251Zm.87-8H249v1.16h2.87Z"/><rect class="f" x="-579.14" y="-502.44" width="1469.71" height="1829.63"/></svg>