<svg xmlns="http://www.w3.org/2000/svg" viewBox="0 0 918.62 453.6"><defs><style>.a{fill:#aede00;}.b{fill:#ccc9b9;}.b,.c,.d,.f,.g,.h,.i,.j,.k,.l,.m,.p,.q{stroke:#000;}.b,.c,.d,.f,.g,.k,.m,.p,.q{stroke-linecap:round;}.b,.c,.d,.f,.g,.k,.p,.q,.r,.s{stroke-linejoin:round;}.b,.c,.d,.f,.g,.h,.j,.k,.l,.m,.r,.s{stroke-width:5px;}.c{fill:#ccc;}.d,.h,.n,.s{fill:#fff;}.e{fill:#e6e6e6;}.f,.i,.l,.m,.p,.u{fill:none;}.g{fill:#f66c00;}.h,.i,.j,.l,.m,.u{stroke-miterlimit:10;}.i,.p,.q,.u{stroke-width:3px;}.k,.o,.r{fill:#9cd9e2;}.r,.s{stroke:#1a1a1a;}.t{fill:#1a1a1a;}.u{stroke:#ff1d25;}</style></defs><title>home</title><path class="a" d="M809.93,127.53H352.56a108,108,0,0,0-66.16,22.61H111.65C51.87,150.14,3,199.05,3,258.83H3c0,59.78,48.91,108.69,108.69,108.69h229c10.48,49,54.27,86.08,106.3,86.08H736c59.78,0,108.69-48.91,108.69-108.69h0c0-1.91-.05-3.81-.15-5.69,42.94-14.54,74.07-55.31,74.07-103h0C918.62,176.44,869.71,127.53,809.93,127.53Z"/><path class="b" d="M511.42,263.05H407.15C400.46,312.74,340,341.79,340,341.79H578.53S518.11,312.74,511.42,263.05Z"/><path class="c" d="M578.49,373c-30.65-7.81-72.75-12.63-119.21-12.63S370.73,365.19,340.07,373H289.49v22.22c0,24.21,76,43.84,169.79,43.84s169.8-19.63,169.8-43.84V373Z"/><path class="d" d="M566.69,339c38.08,8,62.39,20.27,62.39,34,0,24.21-76,43.84-169.8,43.84S289.49,397.21,289.49,373c0-16.75,36.37-31.3,89.84-38.69"/><path class="d" d="M459.28,329.16c18,0,35.27.72,51.51,2"/><path class="e" d="M561.36,371.84c.11,8.23-49.07,15.59-109.85,16.44s-110.14-5.14-110.26-13.37,49.06-15.59,109.85-16.44S561.24,363.61,561.36,371.84Z"/><path class="b" d="M521.73,266.66l13.92-42.8h-.49V195.15H744.44v28.71H645.9a16.76,16.76,0,0,0-3.37,32.73L752,290l-7.54,33.44-210-56.14.38-1.68Z"/><path class="c" d="M750.77,198.93c15.54-4,36.87-6.4,60.41-6.4s44.87,2.44,60.41,6.4h25.63v15.81c0,12.27-38.52,22.22-86,22.22s-86-10-86-22.22V198.93Z"/><path class="d" d="M725.14,198.93c0,12.27,38.52,22.21,86,22.21s86-9.94,86-22.21-38.52-22.22-86-22.22S725.14,186.66,725.14,198.93Z"/><path class="c" d="M678.25,302.86c15.53-3.95,36.86-6.39,60.4-6.39s44.87,2.44,60.41,6.39h25.63v15.82c0,12.27-38.52,22.22-86,22.22s-86-9.95-86-22.22V302.86Z"/><path class="d" d="M652.61,302.86c0,12.27,38.52,22.22,86,22.22s86-9.95,86-22.22-38.52-22.21-86-22.21S652.61,290.59,652.61,302.86Z"/><path class="b" d="M396.83,266.66l-13.92-42.8h.5V195.15H174.12v28.71h98.54A16.76,16.76,0,0,1,276,256.59L166.56,290l7.55,33.44,210-56.14-.38-1.68Z"/><line class="f" x1="92.49" y1="148.85" x2="97.28" y2="158.43"/><line class="f" x1="118.28" y1="148.85" x2="113.49" y2="158.43"/><line class="f" x1="105.38" y1="158.43" x2="105.38" y2="148.11"/><line class="f" x1="2.5" y1="254.89" x2="7.29" y2="264.47"/><line class="f" x1="28.29" y1="254.89" x2="23.51" y2="264.47"/><line class="f" x1="15.4" y1="264.47" x2="15.4" y2="254.15"/><line class="f" x1="56.69" y1="355.61" x2="61.48" y2="365.19"/><line class="f" x1="82.49" y1="355.61" x2="77.7" y2="365.19"/><line class="f" x1="69.59" y1="365.19" x2="69.59" y2="354.87"/><line class="f" x1="703.56" y1="159.62" x2="708.35" y2="169.2"/><line class="f" x1="729.36" y1="159.62" x2="724.57" y2="169.2"/><line class="f" x1="716.46" y1="169.2" x2="716.46" y2="158.88"/><line class="f" x1="660.52" y1="379.67" x2="665.31" y2="389.25"/><line class="f" x1="686.31" y1="379.67" x2="681.52" y2="389.25"/><line class="f" x1="673.42" y1="389.25" x2="673.42" y2="378.93"/><line class="f" x1="224.08" y1="384.83" x2="228.87" y2="394.41"/><line class="f" x1="249.87" y1="384.83" x2="245.08" y2="394.41"/><line class="f" x1="236.98" y1="394.41" x2="236.98" y2="384.09"/><line class="f" x1="251.57" y1="130.36" x2="256.36" y2="139.94"/><line class="f" x1="277.36" y1="130.36" x2="272.57" y2="139.94"/><line class="f" x1="264.47" y1="139.94" x2="264.47" y2="129.62"/><line class="f" x1="776.25" y1="427.85" x2="781.04" y2="437.43"/><line class="f" x1="802.04" y1="427.85" x2="797.25" y2="437.43"/><line class="f" x1="789.15" y1="437.43" x2="789.15" y2="427.11"/><line class="f" x1="851.39" y1="279.36" x2="856.18" y2="288.93"/><line class="f" x1="877.19" y1="279.36" x2="872.4" y2="288.93"/><line class="f" x1="864.29" y1="288.93" x2="864.29" y2="278.62"/><line class="f" x1="831.39" y1="123.11" x2="836.17" y2="132.69"/><line class="f" x1="857.18" y1="123.11" x2="852.39" y2="132.69"/><line class="f" x1="844.28" y1="132.69" x2="844.28" y2="122.37"/><path class="c" d="M163.69,198.93c-15.53-4-36.86-6.4-60.41-6.4s-44.87,2.44-60.4,6.4H17.25v15.81c0,12.27,38.52,22.22,86,22.22s86-10,86-22.22V198.93Z"/><path class="d" d="M189.32,198.93c0,12.27-38.52,22.21-86,22.21s-86-9.94-86-22.21,38.52-22.22,86-22.22S189.32,186.66,189.32,198.93Z"/><path class="c" d="M236.22,302.86c-15.53-3.95-36.86-6.39-60.41-6.39s-44.87,2.44-60.4,6.39H89.77v15.82c0,12.27,38.53,22.22,86,22.22s86-9.95,86-22.22V302.86Z"/><path class="d" d="M261.85,302.86c0,12.27-38.52,22.22-86,22.22s-86-9.95-86-22.22,38.53-22.21,86-22.21S261.85,290.59,261.85,302.86Z"/><path class="d" d="M461.8,166.38S454,172,454,181.83a7.77,7.77,0,1,0,15.53,0C469.57,172,461.8,166.38,461.8,166.38Z"/><path class="e" d="M789.38,301.69c.07,5.1-21.84,9.54-49,9.92s-49.14-3.45-49.21-8.55,21.85-9.54,48.95-9.92S789.31,296.59,789.38,301.69Z"/><path class="e" d="M861.38,196.69c.07,5.1-21.84,9.54-49,9.92s-49.14-3.45-49.21-8.55,21.85-9.54,48.95-9.92S861.31,191.59,861.38,196.69Z"/><path class="e" d="M126.37,301.69c-.08,5.1,21.84,9.54,48.94,9.92s49.14-3.45,49.21-8.55-21.84-9.54-49-9.92S126.44,296.59,126.37,301.69Z"/><path class="e" d="M54.37,196.69c-.08,5.1,21.84,9.54,48.94,9.92s49.14-3.45,49.21-8.55-21.84-9.54-49-9.92S54.44,191.59,54.37,196.69Z"/><path class="d" d="M795.13,237.33a55.67,55.67,0,1,0-63.77,55.08l8.1,14,8.11-14A55.68,55.68,0,0,0,795.13,237.33Z"/><polygon class="g" points="734.79 229.92 737.18 208.84 718.68 239.27 740.35 239.27 735.12 269.71 756.41 229.92 734.79 229.92"/><path class="d" d="M867.1,124.84a55.67,55.67,0,1,0-63.77,55.07l8.1,14,8.11-14A55.67,55.67,0,0,0,867.1,124.84Z"/><rect class="g" x="772.78" y="105.1" width="76" height="45"/><path d="M789,121.28h-6.16v-3.93h17v3.93h-6.18v17.33H789Z"/><path d="M806.09,117.35h4.63l7.7,21.26h-4.7l-1.55-4.73h-7.7l-1.62,4.73h-4.58Zm-.44,13.05H811l-2.61-7.82h0Z"/><path d="M826.13,127.47l-6.85-10.12h5.23l4,6.79,4.18-6.79h5l-6.82,10.15,7.4,11.11h-5.39l-4.49-7.35-4.59,7.35h-5.1Z"/><path class="d" d="M231.13,237.33a55.67,55.67,0,1,0-63.77,55.08l8.1,14,8.11-14A55.68,55.68,0,0,0,231.13,237.33Z"/><circle class="g" cx="175.62" cy="233.52" r="29"/><polygon points="189.04 241.04 186.21 236.24 178.16 241.41 183.54 226.62 178.21 224.69 172.34 241.03 168.45 229.72 163.28 231.58 168.28 245.52 168.28 275.6 180.28 275.6 180.28 246.31 189.04 241.04"/><path class="d" d="M157.63,124.84a55.67,55.67,0,1,0-63.77,55.07L102,194l8.1-14A55.67,55.67,0,0,0,157.63,124.84Z"/><ellipse class="g" cx="101.78" cy="122.6" rx="32.53" ry="11.88"/><ellipse cx="101.78" cy="122.6" rx="21.69" ry="6.22"/><path class="g" d="M80.1,113.74s-14.68,6.06-20.65,16.85"/><path class="g" d="M123.47,113.74s14.67,6.06,20.65,16.85"/><rect class="h" x="479.97" y="363.31" width="26.77" height="9.72" transform="translate(-5.08 6.91) rotate(-0.8)"/><line class="i" x1="487.79" y1="336.05" x2="510.45" y2="335.74"/><path class="j" d="M494.44,336c.12,4.09.21,8.23.27,12.34,0,0-16.08-.85-14.78,15.19l26.77-.37-.38-27.33Z"/><rect class="h" x="399.7" y="364.43" width="26.77" height="9.11" transform="translate(-5.1 5.79) rotate(-0.8)"/><line class="i" x1="409.04" y1="337.15" x2="431.7" y2="336.83"/><path class="j" d="M414.16,337.08c.11,4.09.21,8.23.26,12.33,0,0-16.07-.84-14.78,15.2l26.77-.37L426,336.91Z"/><path class="k" d="M587.63,179.55a129.41,129.41,0,1,0-258.8,3.61c0,2.41.13,4.79.3,7.16l-.21-.15s-32.9,56.36-16,102.63a7.82,7.82,0,0,0,.55,1.47s0,0,0,.05h0A8.17,8.17,0,1,0,328,286.84h0l0,0a3.26,3.26,0,0,0-.24-.4c-2.08-4-8.94-29.29,7.48-64.6a129.8,129.8,0,0,0,77.38,80.7c.49,8.53,1.13,21.23,1.52,34.57l11.87-.17-.42-30.29a130.15,130.15,0,0,0,67.57-.63c.44,8.18.94,18.85,1.26,30l11.88-.17-.48-34.07A129.44,129.44,0,0,0,587.63,179.55Z"/><path class="h" d="M424.81,139.92c.8,3.55-3,7.43-8.53,8.68s-10.64-.63-11.44-4.17,3-7.43,8.54-8.67S424,136.38,424.81,139.92Z"/><path class="h" d="M473,144.77c-1.16,3.44-6.44,4.77-11.8,3s-8.76-6.06-7.6-9.51,6.45-4.77,11.8-3S474.12,141.32,473,144.77Z"/><path class="l" d="M453.92,181.42,412,182a6.87,6.87,0,0,1-6.95-6.75h0a6.88,6.88,0,0,1,6.76-6.95l41.92-.58"/><path d="M425.3,158.85a5.12,5.12,0,1,1-5.19-5A5.12,5.12,0,0,1,425.3,158.85Z"/><path d="M463.5,158.32a5.12,5.12,0,1,1-5.19-5A5.12,5.12,0,0,1,463.5,158.32Z"/><path class="i" d="M441.91,202.84a5.12,5.12,0,0,1-10.24.14"/><path class="i" d="M452.14,202.7a5.12,5.12,0,1,1-10.23.14"/><line class="l" x1="424.72" y1="195.78" x2="458.89" y2="195.31"/><path class="i" d="M322.76,284.94c.13.49.46,8,4.08,10.81"/><path class="i" d="M317.75,286.74s1.27,10.58,4.8,12.28"/><path class="m" d="M416.46,303.88a129.66,129.66,0,0,1-84-91.9"/><path class="m" d="M490.33,306.76a130.36,130.36,0,0,1-64.07,0"/><path class="m" d="M499.94,303.9q-4.72,1.62-9.61,2.86"/><path class="m" d="M328.83,183.16A129.41,129.41,0,1,1,508.09,300.82"/><path class="n" d="M523.69,185.74A19,19,0,1,1,504.43,167,19,19,0,0,1,523.69,185.74Z"/><path class="n" d="M391.74,187.58a19,19,0,1,1-19.26-18.73A19,19,0,0,1,391.74,187.58Z"/><path class="d" d="M461.8,166.38S454,172,454,181.83a7.77,7.77,0,1,0,15.53,0C469.57,172,461.8,166.38,461.8,166.38Z"/><path class="k" d="M581.58,241.69c-.64,4.92-4.45,8.49-8.6,7.95h0c-4.15-.54-6.92-5-6.27-9.89l5.42-41.65c.64-4.93,4.44-8.5,8.6-8h0c4.15.55,6.91,5,6.27,9.9Z"/><path class="h" d="M633.78,168.51c-.78-2-3.28-2.8-5.59-1.89L502.64,216.23c-2.31.92-3.56,3.24-2.79,5.2h0c.78,1.95,3.28,2.8,5.59,1.89L631,173.7c2.31-.91,3.56-3.24,2.79-5.19Z"/><path class="d" d="M617.28,169.54s-14-16.81-8.66-18.81,22,0,22,0l-2.43,15.89Z"/><path class="d" d="M616.6,174.39s-41.86,46.65-9.19,69.34,85.31-6.66,26.59-75.33Z"/><path class="g" d="M624.62,170s7.5,6.72,6,25"/><path class="g" d="M619.69,170c1.3,2.9-4.78,26.82-.68,37.28"/><path class="k" d="M574.34,249.94c-20.07-5.88-41.36-16.73-56.1-36.81a8,8,0,0,1-.92-1.26l0,0h0a8.17,8.17,0,1,1,14.27-8h0s0,0,0,0,.14.28.21.42c1.77,3.22,16.22,17.53,41.32,25.67"/><path class="i" d="M530.26,209.26c-.33-.38-6.37-4.79-6.73-9.38"/><path class="i" d="M526,212.43s-8.1-6.92-7.57-10.8"/><path class="o" d="M644.78,206.8a4,4,0,1,1-3.95-4A4,4,0,0,1,644.78,206.8Z"/><path class="o" d="M648.78,227.8a4,4,0,1,1-3.95-4A4,4,0,0,1,648.78,227.8Z"/><path class="o" d="M632.78,219.8a4,4,0,1,1-3.95-4A4,4,0,0,1,632.78,219.8Z"/><path class="o" d="M611.78,215.8a4,4,0,1,1-3.95-4A4,4,0,0,1,611.78,215.8Z"/><path class="o" d="M621.78,233.8a4,4,0,1,1-3.95-4A4,4,0,0,1,621.78,233.8Z"/><path class="g" d="M509.8,361v17.44h-1a8.73,8.73,0,0,0-8.7,8.7H519V361Z"/><path class="g" d="M565.47,361v17.44h-1a8.73,8.73,0,0,0-8.7,8.7h18.86V361Z"/><path class="g" d="M584.59,323.29H506.45a23.68,23.68,0,0,0-23.61,23.61h0a23.68,23.68,0,0,0,23.61,23.62h18.39v7.87h-1a8.73,8.73,0,0,0-8.7,8.7h18.86V370.52h46.47v7.87h-.95a8.73,8.73,0,0,0-8.7,8.7h18.85V370a23.71,23.71,0,0,0,18.49-23.05h0A23.69,23.69,0,0,0,584.59,323.29Z"/><path d="M517.54,340.75a3.38,3.38,0,1,1-3.42-3.32A3.37,3.37,0,0,1,517.54,340.75Z"/><path d="M496.08,340.75a3.38,3.38,0,1,1-3.42-3.32A3.37,3.37,0,0,1,496.08,340.75Z"/><path class="f" d="M623.69,334.87a17.59,17.59,0,0,1-15.48,9.69"/><path class="p" d="M494.83,354.66a8.65,8.65,0,0,1,8.62-8.62h0a8.65,8.65,0,0,1,8.63,8.62"/><path class="q" d="M504.23,351.1l4.93-5a1.12,1.12,0,0,0-.8-1.9h-9.84a1.11,1.11,0,0,0-.8,1.9l4.92,5A1.11,1.11,0,0,0,504.23,351.1Z"/><path class="q" d="M528.75,329.9S520,336.29,520,347.38a8.79,8.79,0,1,0,17.57,0C537.54,336.29,528.75,329.9,528.75,329.9Z"/><circle class="d" cx="651.29" cy="78.84" r="76.34" transform="translate(-1.94 18.1) rotate(-1.59)"/><circle class="d" cx="564.28" cy="113.93" r="9.28"/><polygon class="r" points="630.4 109.54 669.81 109.54 675.3 109.54 700.5 109.54 700.5 59.14 630.4 59.14 630.4 109.54"/><polygon class="r" points="630.4 41.7 630.4 59.14 700.5 59.14 675.3 41.7 630.4 41.7"/><polygon class="s" points="655.6 109.54 605.2 109.54 605.2 59.14 630.4 41.7 655.6 59.14 655.6 109.54"/><rect class="t" x="624.34" y="79.54" width="12.11" height="27.58"/><rect class="t" x="673" y="70.55" width="12.11" height="12.11"/><rect class="u" x="-538.47" y="-429.4" width="1995.93" height="1153.94"/></svg>