<svg xmlns="http://www.w3.org/2000/svg" viewBox="0 0 791.6 223"><defs><style>.a{isolation:isolate;}.b{fill:#333;mix-blend-mode:multiply;}.c{fill:#aede00;}.c,.d,.e,.f,.h{stroke:#000;stroke-linecap:round;stroke-linejoin:round;}.c,.d{stroke-width:5px;}.d,.f,.i{fill:#fff;}.e,.f,.h{stroke-width:3px;}.g{fill:#1a1a1a;}.h{fill:none;}</style></defs><title>formula-1</title><g class="a"><rect class="b" x="-801.38" y="-338.03" width="1920" height="1080"/><rect class="c" x="-583.35" y="-228.03" width="1500" height="841.88" rx="38.55" ry="38.55"/><rect class="d" x="-69.94" y="-166.15" width="927.41" height="621.73" rx="42.06" ry="42.06"/><rect class="e" x="8.99" y="7.72" width="260.72" height="73.8" rx="28.29" ry="28.29"/><rect class="f" x="203.2" y="129.5" width="372.43" height="80" rx="19" ry="19"/><rect class="f" x="679.94" y="129.5" width="80" height="80" rx="20" ry="20"/><circle class="f" cx="112.04" cy="169.5" r="40"/><path class="g" d="M94.46,170.62c-.18,2.75-.64,5.77-1.87,7.81a12.25,12.25,0,0,0-2.13-1.65c1.4-2.53,1.49-6.23,1.49-9.09v-7.94h0a37.79,37.79,0,0,0,7.46-1.56l1.67,2.22a35.33,35.33,0,0,1-6.55,1.3v1.56h5.65v7.35Zm.09-5v2.69h3.12V165.6Zm16.74,2h-2v10.54h-2.6V167.63H104.4c-.08,3.5-.83,8-3.91,10.76a12,12,0,0,0-2-1.78c3-2.73,3.3-6.83,3.3-10v-6.85a36.23,36.23,0,0,0,7.57-1.73l1.7,2.26a35.68,35.68,0,0,1-6.58,1.45v3.35h6.86Z"/><path class="g" d="M120,163.58a21.84,21.84,0,0,1-1.91,2.77v12h-2.53v-9.13a21.19,21.19,0,0,1-2,1.78,19.61,19.61,0,0,0-1.26-2.71,19.69,19.69,0,0,0,5.4-5.65Zm-.37-4.77a23.28,23.28,0,0,1-5.77,5.52,16,16,0,0,0-1.29-2.22,15.69,15.69,0,0,0,4.57-4.32ZM133,172.6h-3v3.13c0,1.21-.22,1.82-1.07,2.2a8.83,8.83,0,0,1-3.41.37,9.66,9.66,0,0,0-.82-2.33c.92,0,2,0,2.25,0s.39-.11.39-.35V172.6h-4.62a23.48,23.48,0,0,1,2.51,2.75l-2,1.39a18.22,18.22,0,0,0-2.53-3.06l1.63-1.08H119.3v-2.22h8v-1.26h-7.52V167h12.74v2.13H130v1.26h3ZM131.84,166H121v-7.61h10.89Zm-2.64-5.78h-5.72v1.1h5.72Zm0,2.81h-5.72v1.15h5.72Z"/><path class="g" d="M241.85,175.59c.74,0,.9-.39,1-2.81a8,8,0,0,0,2.37,1c-.28,3.23-1,4.14-3.14,4.14h-3c-2.64,0-3.3-.77-3.3-3.13v-4.07h-.36c-1.14,3.24-3.54,5.9-9.08,7.44a8.11,8.11,0,0,0-1.48-2.2c4.51-1.15,6.63-3,7.68-5.24h-5.5v-4.91a7.36,7.36,0,0,1-.7.55,8.11,8.11,0,0,0-1.85-2,18.48,18.48,0,0,0,6.18-6.71l2.82.53c-.18.33-.38.68-.6,1h4.38l.44-.11,1.83,1.17a23,23,0,0,1-2.07,3h5.94v7.48h-4.91v4c0,.75.14.83,1,.83Zm-8.54-7.19a21.37,21.37,0,0,0,.37-2.84h-4v2.84Zm-1.87-7a21.77,21.77,0,0,1-1.61,1.89h4.58a18.06,18.06,0,0,0,1.39-1.89Zm5,4.2a27.74,27.74,0,0,1-.4,2.84h4.6v-2.84Z"/><path class="g" d="M264.44,175.75c.35,0,.44-.29.51-2.38a5.74,5.74,0,0,0,2.24,1c-.26,3-.9,3.77-2.44,3.77h-1.5c-2,0-2.42-.8-2.42-3.08v-4.4h-1.12c-.31,3.49-1.19,6.2-4.84,7.78a7.61,7.61,0,0,0-1.52-2c3-1.19,3.59-3.19,3.83-5.76h-1.39v-5.95a6.57,6.57,0,0,1-.5.44,12.8,12.8,0,0,0-.9-1v2.27h-2.27v.33c.55.53,2.22,2.51,2.57,3l-1.47,2.11c-.22-.55-.66-1.41-1.1-2.22v8.71h-2.38V170.2a20.32,20.32,0,0,1-2.15,4.71,17.57,17.57,0,0,0-1.21-2.59,23.49,23.49,0,0,0,2.68-5.9h-2.35V164h3v-2.67c-.72.14-1.45.27-2.13.36a9,9,0,0,0-.73-2,28.34,28.34,0,0,0,6.38-1.78l1.52,2.13a17.66,17.66,0,0,1-2.66.82V164h2.09c-.29-.29-.55-.53-.77-.71a14.22,14.22,0,0,0,4.27-5.15l2.42.77a21.12,21.12,0,0,1-3.28,4.76h7.79a40.33,40.33,0,0,0-3.68-4.58l1.83-1.25a34.88,34.88,0,0,1,4.64,5.74l-2,1.43a6.2,6.2,0,0,0-.33-.57v6.25h-1.76V175c0,.64.05.71.35.71Zm-6.16-7.37h4.25v-2.45h-4.25Z"/><path class="g" d="M277.77,171.52h.07v6.78h-2.29v-.55h-2.86v.57h-2.18V172c-.26.11-.53.22-.79.31a9.1,9.1,0,0,0-1.26-2.07,14.06,14.06,0,0,0,3.81-1.69l-1.14-.68,1.45-1.52,1.45.79a7.8,7.8,0,0,0,1.23-1.45H272.6a9.89,9.89,0,0,1-2.42,2.46,5.56,5.56,0,0,0-1.28-1.71,7.62,7.62,0,0,0,3.17-4.07l2,.39a9.94,9.94,0,0,1-.37,1h2.77l.38-.06,0,0V162h-5.92v1.89H269v-4h3.87c-.16-.49-.33-1-.49-1.39l2.1-.72c.26.63.57,1.43.83,2.11h3.52v4h-1.71l.94.68a12.29,12.29,0,0,1-2.18,3.61c1.19.68,2.36,1.39,3.11,1.91Zm-.75,0c-.72-.52-1.69-1.14-2.73-1.78a13.61,13.61,0,0,1-2.79,1.78Zm-1.47,4.21v-2.18h-2.86v2.18ZM285.87,174a24.93,24.93,0,0,1,3.59,2.57l-1.5,1.78a26.41,26.41,0,0,0-3.65-2.88l1.3-1.47h-3.28l1.56,1.62a26.84,26.84,0,0,1-4.73,2.84,13.07,13.07,0,0,0-1.08-1.91,21,21,0,0,0,4.16-2.55h-2.38v-11.6h2.8c.08-.48.17-1,.24-1.52h-3.59v-2.2h9.84v2.2h-3.87c-.14.53-.31,1.06-.47,1.52h3.79V174Zm-3.68-8.32h3.94v-1.28h-3.94Zm0,3.17h3.94V167.5h-3.94Zm0,3.14h3.94v-1.29h-3.94Z"/><path class="g" d="M308.79,169.19H302.1v6.69h-2.24v-6.69h-6.69V167h6.69v-6.69h2.24V167h6.69Z"/><path class="g" d="M333.13,166.42v2.84H312.88v-2.84Z"/><path class="g" d="M354.77,167.45a15.23,15.23,0,0,1-2.94,6.71,12.83,12.83,0,0,0,3.67,1.74,9.09,9.09,0,0,0-1.67,2.18A13.11,13.11,0,0,1,350,176a13.46,13.46,0,0,1-4.32,2.2,9,9,0,0,0-1.47-2,1.81,1.81,0,0,1-1,1.56,8,8,0,0,1-3.39.4,7.9,7.9,0,0,0-.68-2.22c.92,0,2,0,2.31,0s.42-.11.42-.44v-6.38c-1.17.13-2.36.27-3.46.38a25.51,25.51,0,0,1-1.69,8.88,10.33,10.33,0,0,0-2-1.32,21.43,21.43,0,0,0,1.38-7.34l-1.21.13-.22-2.38,1.5-.09v-7.28h2.29a18,18,0,0,0,.59-2.35l2.64.3c-.31.75-.59,1.43-.83,2.05h3.34v6.67l.44,0,0,2-.48.06v6.69c0,.22,0,.42,0,.62a13.67,13.67,0,0,0,4-1.78,16.43,16.43,0,0,1-2.86-4.67l1.39-.41h-1.54V167h7.68l.42-.07ZM340.08,174a25.92,25.92,0,0,0-1.7-3.36l1.63-.8a21.94,21.94,0,0,1,1.78,3.19Zm-1.61-6.84,3.39-.27v-4.81h-3.39v1.36l1.49-.75a21.14,21.14,0,0,1,1.7,2.93l-1.67.92a23.55,23.55,0,0,0-1.52-2.9v3.52Zm9.7-5.33c0,1.72-.31,3.72-2,4.89a12.74,12.74,0,0,0-1.92-1.65,3.46,3.46,0,0,0,1.54-3.3v-3h7.29v4.27c0,.6,0,.82.28.82h.82a3.45,3.45,0,0,0,1-.16c.05.64.09,1.48.18,2.07a3.49,3.49,0,0,1-1.21.15h-1.08c-2.05,0-2.44-.88-2.44-2.92v-2h-2.47Zm-.42,7.38a11.42,11.42,0,0,0,2.27,3.41,9.72,9.72,0,0,0,1.85-3.41Z"/><path class="g" d="M364.83,169.81l-2.54.7v4.91c0,1.32-.24,2-1,2.37a6.91,6.91,0,0,1-3.36.49,9.72,9.72,0,0,0-.77-2.49c.85.05,1.76.05,2,.05s.42-.11.42-.42v-4.2l-2.53.68-.53-2.55c.86-.18,1.94-.42,3.06-.69v-4.75h-2.77v-2.42h2.77v-3.7h2.68v3.7h2.18v2.42h-2.18V168l2.23-.59Zm11.33-10.23v17.91h-2.75v-1.68H368.1v1.85h-2.61V159.58Zm-2.75,13.77V162.06H368.1v11.29Z"/><path class="g" d="M386.32,159.49c-.55,1.87-1.23,4.09-1.83,5.81a7.54,7.54,0,0,1,1.52,4.53c0,1.45-.28,2.38-1,2.9a2.47,2.47,0,0,1-1.21.49,10.33,10.33,0,0,1-1.41.06,5.06,5.06,0,0,0-.54-2.26,4.89,4.89,0,0,0,.92,0,.75.75,0,0,0,.55-.18,1.69,1.69,0,0,0,.37-1.32,6.58,6.58,0,0,0-1.38-4c.39-1.34.81-3.15,1.14-4.6h-1.74v17.3h-2.28V158.63h4.79l.38-.09Zm3.92,12.72a20.46,20.46,0,0,1-3.19,4.86,15.94,15.94,0,0,0-1.94-1.43,12.64,12.64,0,0,0,2.84-4.07Zm3.82-1.35v4.73c0,1.19-.22,1.83-1,2.25a8,8,0,0,1-3.3.44,8.51,8.51,0,0,0-.86-2.38,21.69,21.69,0,0,0,2.25,0c.31,0,.39-.08.39-.37v-4.69H386.3v-2.37h5.23v-1.81H388v-1.52a8.7,8.7,0,0,1-.9.55,9.35,9.35,0,0,0-1.69-1.91,16.41,16.41,0,0,0,6.79-6.29l2.18.83a8.55,8.55,0,0,1-.53.88,18.85,18.85,0,0,0,5.79,4.29,7.53,7.53,0,0,0-1.71,2.12c-.34-.2-.69-.42-1-.66v1.71h-2.82v1.81H399v2.37Zm2.1-6.42a24.47,24.47,0,0,1-3.61-3.41,20.76,20.76,0,0,1-3.55,3.41Zm.46,7a23.17,23.17,0,0,1,2.95,4.26l-2.07,1.17a24.23,24.23,0,0,0-2.82-4.47Z"/><path class="g" d="M409.77,171.52h.07v6.78h-2.29v-.55h-2.86v.57h-2.18V172c-.26.11-.53.22-.79.31a9.1,9.1,0,0,0-1.26-2.07,14.06,14.06,0,0,0,3.81-1.69l-1.14-.68,1.45-1.52,1.45.79a7.8,7.8,0,0,0,1.23-1.45H404.6a9.89,9.89,0,0,1-2.42,2.46,5.56,5.56,0,0,0-1.28-1.71,7.62,7.62,0,0,0,3.17-4.07l2,.39a9.94,9.94,0,0,1-.37,1h2.77l.38-.06,0,0V162h-5.92v1.89H401v-4h3.87c-.16-.49-.33-1-.49-1.39l2.1-.72c.26.63.57,1.43.83,2.11h3.52v4h-1.71l.94.68a12.29,12.29,0,0,1-2.18,3.61c1.19.68,2.36,1.39,3.11,1.91Zm-.75,0c-.72-.52-1.69-1.14-2.73-1.78a13.61,13.61,0,0,1-2.79,1.78Zm-1.47,4.21v-2.18h-2.86v2.18ZM417.87,174a24.93,24.93,0,0,1,3.59,2.57l-1.5,1.78a26.41,26.41,0,0,0-3.65-2.88l1.3-1.47h-3.28l1.56,1.62a26.84,26.84,0,0,1-4.73,2.84,13.07,13.07,0,0,0-1.08-1.91,21,21,0,0,0,4.16-2.55h-2.38v-11.6h2.8c.08-.48.17-1,.24-1.52h-3.59v-2.2h9.84v2.2h-3.87c-.14.53-.31,1.06-.47,1.52h3.79V174Zm-3.68-8.32h3.94v-1.28h-3.94Zm0,3.17h3.94V167.5h-3.94Zm0,3.14h3.94v-1.29h-3.94Z"/><path class="g" d="M440.79,169.19H434.1v6.69h-2.24v-6.69h-6.69V167h6.69v-6.69h2.24V167h6.69Z"/><path class="g" d="M453.05,170.84l-2.12.55v6.93h-2.48V172l-2.91.75-.64-2.67c1-.17,2.23-.44,3.55-.7v-4.84h-1.28a18.56,18.56,0,0,1-.79,2.93c-.44-.2-1.37-.56-1.85-.71a28.07,28.07,0,0,0,1.32-7.3l2,.3c-.07.77-.15,1.52-.26,2.29h.88v-4.27h2.48v4.27h1.9v2.49h-1.9v4.29l1.83-.42Zm12,0H463v4.6c0,1.29-.24,2-1.12,2.39a9.18,9.18,0,0,1-3.68.47,11.42,11.42,0,0,0-.79-2.6c1,0,2.22,0,2.57,0s.42-.08.42-.37V170.8h-7v-2.4h7v-1.54H463v1.54h2.11Zm-7.48-8.69h-4.14v-2.38h4.14v-2h2.59v2h4.41v2.38h-4.41V164h3.66v2.42h-9.57V164h3.32Zm-1.28,8.75a20.06,20.06,0,0,1,2.64,3.3l-2.07,1.35a19.38,19.38,0,0,0-2.5-3.46Z"/><path class="g" d="M477.11,168.25s0,.63,0,.94c-.22,5.3-.44,7.42-1,8.16a2.32,2.32,0,0,1-1.65.82,15.59,15.59,0,0,1-2.67.06,5.24,5.24,0,0,0-.66-2.26,17.75,17.75,0,0,0,2.16.11.81.81,0,0,0,.73-.29c.33-.37.52-1.78.68-5.26h-2.44c-.51,3-1.54,5.83-3.88,7.81a6.75,6.75,0,0,0-1.74-1.91c2.89-2.38,3.33-6.34,3.5-10h-2.2v-7.66h9.05v7.66h-4.29c-.05.59-.09,1.21-.14,1.81Zm-6.86-4.14h4.14v-3h-4.14Zm10.87,8.71h-2.55V160.43h2.55Zm5.21-14.61v16.94c0,1.54-.3,2.27-1.21,2.69a11.65,11.65,0,0,1-4.38.5,9.33,9.33,0,0,0-.9-2.7c1.43,0,2.84,0,3.3,0s.6-.13.6-.53V158.21Z"/><path class="g" d="M496.83,169.81l-2.54.7v4.91c0,1.32-.24,2-1,2.37a6.91,6.91,0,0,1-3.36.49,9.72,9.72,0,0,0-.77-2.49c.85.05,1.76.05,2,.05s.42-.11.42-.42v-4.2l-2.53.68-.53-2.55c.86-.18,1.94-.42,3.06-.69v-4.75h-2.77v-2.42h2.77v-3.7h2.68v3.7h2.18v2.42h-2.18V168l2.23-.59Zm11.33-10.23v17.91h-2.75v-1.68H500.1v1.85h-2.61V159.58Zm-2.75,13.77V162.06H500.1v11.29Z"/><path class="g" d="M518.32,159.49c-.55,1.87-1.23,4.09-1.83,5.81a7.54,7.54,0,0,1,1.52,4.53c0,1.45-.28,2.38-1,2.9a2.47,2.47,0,0,1-1.21.49,10.33,10.33,0,0,1-1.41.06,5.06,5.06,0,0,0-.54-2.26,4.89,4.89,0,0,0,.92,0,.75.75,0,0,0,.55-.18,1.69,1.69,0,0,0,.37-1.32,6.58,6.58,0,0,0-1.38-4c.39-1.34.81-3.15,1.14-4.6h-1.74v17.3h-2.28V158.63h4.79l.38-.09Zm3.92,12.72a20.46,20.46,0,0,1-3.19,4.86,15.94,15.94,0,0,0-1.94-1.43,12.64,12.64,0,0,0,2.84-4.07Zm3.82-1.35v4.73c0,1.19-.22,1.83-1,2.25a8,8,0,0,1-3.3.44,8.51,8.51,0,0,0-.86-2.38,21.69,21.69,0,0,0,2.25,0c.31,0,.39-.08.39-.37v-4.69H518.3v-2.37h5.23v-1.81H520v-1.52a8.7,8.7,0,0,1-.9.55,9.35,9.35,0,0,0-1.69-1.91,16.41,16.41,0,0,0,6.79-6.29l2.18.83a8.55,8.55,0,0,1-.53.88,18.85,18.85,0,0,0,5.79,4.29,7.53,7.53,0,0,0-1.71,2.12c-.34-.2-.69-.42-1-.66v1.71h-2.82v1.81H531v2.37Zm2.1-6.42a24.47,24.47,0,0,1-3.61-3.41,20.76,20.76,0,0,1-3.55,3.41Zm.46,7a23.17,23.17,0,0,1,3,4.26l-2.07,1.17a24.23,24.23,0,0,0-2.82-4.47Z"/><path class="g" d="M541.77,171.52h.07v6.78h-2.29v-.55h-2.86v.57h-2.18V172c-.26.11-.53.22-.79.31a9.1,9.1,0,0,0-1.26-2.07,14.06,14.06,0,0,0,3.81-1.69l-1.14-.68,1.45-1.52,1.45.79a7.8,7.8,0,0,0,1.23-1.45H536.6a9.89,9.89,0,0,1-2.42,2.46,5.56,5.56,0,0,0-1.28-1.71,7.62,7.62,0,0,0,3.17-4.07l2,.39a9.94,9.94,0,0,1-.37,1h2.77l.38-.06,0,0V162h-5.92v1.89H533v-4h3.87c-.16-.49-.33-1-.49-1.39l2.1-.72c.26.63.57,1.43.83,2.11h3.52v4h-1.71l.94.68a12.29,12.29,0,0,1-2.18,3.61c1.19.68,2.36,1.39,3.11,1.91Zm-.75,0c-.72-.52-1.69-1.14-2.73-1.78a13.61,13.61,0,0,1-2.79,1.78Zm-1.47,4.21v-2.18h-2.86v2.18ZM549.87,174a24.93,24.93,0,0,1,3.59,2.57l-1.5,1.78a26.41,26.41,0,0,0-3.65-2.88l1.3-1.47h-3.28l1.56,1.62a26.84,26.84,0,0,1-4.73,2.84,13.07,13.07,0,0,0-1.08-1.91,21,21,0,0,0,4.16-2.55h-2.38v-11.6h2.8c.08-.48.17-1,.24-1.52h-3.59v-2.2h9.84v2.2h-3.87c-.14.53-.31,1.06-.47,1.52h3.79V174Zm-3.68-8.32h3.94v-1.28h-3.94Zm0,3.17h3.94V167.5h-3.94Zm0,3.14h3.94v-1.29h-3.94Z"/><polyline class="h" points="58.5 118.75 37.27 118.75 37.27 220.25 58.5 220.25"/><polyline class="h" points="596.29 220.25 617.52 220.25 617.52 118.75 596.29 118.75"/><path class="g" d="M716.4,175.75c.36,0,.44-.29.51-2.38a5.74,5.74,0,0,0,2.24,1c-.26,3-.9,3.77-2.44,3.77h-1.49c-2,0-2.42-.8-2.42-3.08v-4.4h-1.13c-.3,3.49-1.18,6.2-4.84,7.78a7.4,7.4,0,0,0-1.52-2c3-1.19,3.59-3.19,3.83-5.76h-1.38v-5.95c-.18.16-.33.31-.51.45a11.16,11.16,0,0,0-.9-1v2.27h-2.27v.33c.55.53,2.22,2.51,2.58,3l-1.48,2.11c-.22-.55-.66-1.41-1.1-2.22v8.71h-2.37V170.2a20.74,20.74,0,0,1-2.16,4.71,16.6,16.6,0,0,0-1.21-2.59,23.14,23.14,0,0,0,2.68-5.9h-2.35V164h3v-2.67c-.73.14-1.46.27-2.14.36a9.48,9.48,0,0,0-.72-2,28.64,28.64,0,0,0,6.38-1.78l1.52,2.13a18.16,18.16,0,0,1-2.67.82V164h2.09a9,9,0,0,0-.77-.71,14,14,0,0,0,4.27-5.15l2.42.77a20.49,20.49,0,0,1-3.28,4.76h7.79a41.36,41.36,0,0,0-3.67-4.58l1.82-1.25a35.51,35.51,0,0,1,4.65,5.74l-2,1.43c-.09-.18-.2-.35-.33-.57v6.25h-1.76V175c0,.64,0,.71.35.71Zm-6.16-7.37h4.25v-2.45h-4.25Z"/><path class="g" d="M734.2,170.8a8.69,8.69,0,0,0-.42-1.08c-5.25.53-6.09.66-6.64.9a17.07,17.07,0,0,0-.7-2.09c-1.46.77-3,1.56-4.3,2.18l-1.25-2.09c1.39-.51,3.45-1.39,5.48-2.22l.48,1.91-.39.22a4.83,4.83,0,0,0,1.87-1.12c.33-.27,1-.79,1.73-1.54a9,9,0,0,0-2.5.37,20.12,20.12,0,0,0-.71-2,2.23,2.23,0,0,0,1-.75c.19-.24.66-.82,1.16-1.56h-7.5v-2.36h8.18a12.9,12.9,0,0,0-.75-1.25l2.67-.62a11.69,11.69,0,0,1,1.21,1.87h7.83v2.36h-9.09a16.74,16.74,0,0,1-1.52,2l2-.06a19.65,19.65,0,0,0,1.41-1.78l2,1.18a38,38,0,0,1-5,4.89l2.31-.18a10.09,10.09,0,0,0-.75-1.1l1.92-.68c.33.44.7.93,1,1.43l1.45-1.14a27.82,27.82,0,0,1,4.38,2.79l-1.89,1.59a22,22,0,0,0-3.52-2.53,9.55,9.55,0,0,1,.86,1.78Zm6.78,3.47h-8.63v4h-2.79v-4H721v-2.42h8.6v-1.47h2.79v1.47H741Zm-16.22-8a18.65,18.65,0,0,0-3.23-2.48l1.71-1.39a19.08,19.08,0,0,1,3.37,2.33Zm10.3-1.23a18.24,18.24,0,0,0,2.82-2.73l2.17,1.26a24.8,24.8,0,0,1-3,2.68Z"/><line class="h" x1="639.96" y1="160.31" x2="658.35" y2="178.69"/><line class="h" x1="658.35" y1="160.31" x2="639.96" y2="178.69"/><line class="h" x1="185.83" y1="169.5" x2="167.8" y2="169.5"/><line class="h" x1="19.53" y1="161.16" x2="1.5" y2="161.16"/><line class="h" x1="19.53" y1="176.38" x2="1.5" y2="176.38"/><path class="i" d="M52.2,50.81a31,31,0,0,1-1.12,6.42,11.91,11.91,0,0,0-2.16-.75,22,22,0,0,0,1.07-6Zm4-1.2c0-.41-.13-.88-.24-1.43-4.49.91-5.3,1.2-5.82,1.49a16.38,16.38,0,0,0-.91-2.53c.62-.15,1.17-.75,1.9-1.71A28.75,28.75,0,0,0,52.77,43a8.63,8.63,0,0,0-2.86.65A19,19,0,0,0,49,41.11c.47-.13.88-.65,1.33-1.4a30.54,30.54,0,0,0,2.55-6.4l2.7,1.07a36,36,0,0,1-3.07,6.34l1.67-.16c.54-1,1.09-2.18,1.53-3.25l2.47,1.28a43.68,43.68,0,0,1-4.91,7.75L55.42,46c-.15-.62-.33-1.22-.52-1.76l2.08-.6a34.31,34.31,0,0,1,1.38,5.25Zm-1.43.7a52,52,0,0,1,.72,5.49l-2.2.57a50.23,50.23,0,0,0-.58-5.54Zm2.52-.67a28.93,28.93,0,0,1,1.35,4.16l-2,.78a38.63,38.63,0,0,0-1.28-4.32Zm6.58,1a35.33,35.33,0,0,1-3.46,5.69A18.6,18.6,0,0,0,58,54.66a22.64,22.64,0,0,0,3-4.92Zm3.59-2.05v9h-3v-9H58.6V45.87H73.08v2.68ZM61,41.37H59v-5h5.54c-.26-.83-.57-1.74-.88-2.49l3-.68a32.17,32.17,0,0,1,1.2,3.17H73v5H70.84v2.52H61Zm.7-2.37v2.24h8.32V39Zm8.79,10.69a47.76,47.76,0,0,1,2.89,5.2L70.74,56a51.44,51.44,0,0,0-2.68-5.38Z"/><path class="i" d="M79.58,48.57c-.21,3.25-.76,6.81-2.21,9.23a15,15,0,0,0-2.52-1.95c1.66-3,1.76-7.35,1.76-10.73V35.73h0a44.42,44.42,0,0,0,8.81-1.85l2,2.63A42.21,42.21,0,0,1,79.68,38v1.85h6.68v8.68Zm.1-5.93v3.18h3.69V42.64ZM99.47,45H97.1V57.49H94V45h-2.7c-.1,4.13-1,9.46-4.63,12.71a13.83,13.83,0,0,0-2.42-2.1c3.59-3.23,3.9-8.07,3.9-11.81V35.75a42.3,42.3,0,0,0,8.95-2l2,2.68a42.4,42.4,0,0,1-7.77,1.71v4h8.11Z"/><path class="i" d="M122.17,54.63c.41,0,.52-.34.59-2.81a6.88,6.88,0,0,0,2.66,1.2c-.32,3.48-1.07,4.44-2.89,4.44h-1.77c-2.36,0-2.86-.93-2.86-3.63v-5.2h-1.32c-.37,4.13-1.41,7.33-5.72,9.2a8.69,8.69,0,0,0-1.8-2.39c3.56-1.41,4.24-3.77,4.53-6.81H112v-7c-.21.19-.39.37-.6.53a11.09,11.09,0,0,0-1.07-1.2v2.68h-2.67V44c.65.62,2.62,3,3,3.51L108.91,50c-.27-.65-.78-1.66-1.3-2.62V57.67H104.8V48.08a24.27,24.27,0,0,1-2.55,5.56,20,20,0,0,0-1.43-3.06,27.21,27.21,0,0,0,3.17-7h-2.78V40.72h3.59V37.57c-.86.16-1.72.32-2.52.42a11.26,11.26,0,0,0-.86-2.39A34.15,34.15,0,0,0,109,33.49L110.75,36a21.39,21.39,0,0,1-3.14,1v3.74h2.47a11.91,11.91,0,0,0-.91-.83,16.66,16.66,0,0,0,5-6.09l2.86.91a24.44,24.44,0,0,1-3.87,5.62h9.2a49.67,49.67,0,0,0-4.34-5.41l2.16-1.48a41.52,41.52,0,0,1,5.48,6.79l-2.34,1.69a7.51,7.51,0,0,0-.39-.68v7.39h-2.08V53.8c0,.75,0,.83.42.83Zm-7.29-8.71h5V43h-5Z"/><path class="i" d="M138.36,44.26c-.15.18-.33.36-.49.52a9.12,9.12,0,0,0-1.33-1.23v6.61H134V44.05c-.39.39-.81.78-1.17,1.12-.21-.26-.6-.68-1-1.1-.08,4.19-.57,9.91-2.52,13.63A11,11,0,0,0,127,55.91c1.9-3.75,2-9.24,2-13.08V35.21h9.9a10.06,10.06,0,0,0-.8-1.46l2.75-.78a13.5,13.5,0,0,1,1.33,2.24h9v2.52h-5.41a10,10,0,0,1,1.15,1.79l-.68.29h4.27V41.6h-3.93v.91h3.25V44h-3.25v1h3.28v1.48h-3.28v1h4.24v1.88h-9.44a17.34,17.34,0,0,1,3.87,2.41l-1.92,1.8a17.25,17.25,0,0,0-4-2.71l.78-.75h-1.77ZM131,55.75a9.28,9.28,0,0,0,2.65-4.47l2.5.91a10.66,10.66,0,0,1-2.78,5Zm.78-13.29a16.75,16.75,0,0,0,3.62-4.73h-3.62ZM138,38.3a22.49,22.49,0,0,1-1.49,2.52v1.56a16.16,16.16,0,0,0,3.1-4.65h-3.43Zm5.51,16.8c.7,0,.83-.23.93-1.9a8.92,8.92,0,0,0,2.45,1c-.29,2.65-1,3.33-3.1,3.33h-3.3c-2.81,0-3.46-.76-3.46-3.1V51.59h2.81v2.78c0,.65.16.73,1,.73Zm.8-15.29a10.93,10.93,0,0,0-1-1.53l1.51-.55h-4.11l1.51.42c-.23.57-.52,1.09-.81,1.66ZM144,41.6h-3.1v.91H144ZM144,44h-3.1v1H144Zm0,2.47h-3.1v1H144Zm4,4.5a20.68,20.68,0,0,1,3.43,5L149,57.15a19.48,19.48,0,0,0-3.23-5Z"/><path class="i" d="M156.25,50.86a27.86,27.86,0,0,1-1.12,6.32,10.85,10.85,0,0,0-2.16-.81,22.12,22.12,0,0,0,1-5.9Zm5.07-7.64a22.38,22.38,0,0,1,1.77,5.2l-2.18.93c-.06-.34-.11-.7-.21-1.09-5.18.88-6.09,1.12-6.66,1.38-.13-.52-.54-1.9-.83-2.63.62-.13,1.14-.75,1.95-1.74a16,16,0,0,0,1.56-2.18,9.19,9.19,0,0,0-2.84.57c-.15-.55-.54-1.85-.83-2.55.45-.15.86-.65,1.35-1.43a29.5,29.5,0,0,0,2.94-6.37l2.53,1.09a37.62,37.62,0,0,1-3.39,6.35l1.8-.13c.65-1.2,1.35-2.47,1.9-3.77l2.31,1.53a45.26,45.26,0,0,1-5.3,8.06l2.88-.39c-.26-.7-.52-1.4-.8-2Zm-2.44,7c.31,1.72.57,3.93.67,5.41l-2.18.57a48.76,48.76,0,0,0-.57-5.43Zm2.6-.75a37,37,0,0,1,1.45,4.86l-2,.81a42.74,42.74,0,0,0-1.38-5Zm15.16,4.83c0,1.49-.24,2.32-1.17,2.79s-2.27.57-4.16.57a11.21,11.21,0,0,0-.89-3c1.17,0,2.42,0,2.81,0s.52-.1.52-.47v-4a19.81,19.81,0,0,0-1.4,2,12.5,12.5,0,0,1-2.53-4.6,12.14,12.14,0,0,1-3,4.73A13.83,13.83,0,0,0,166,50.5v7.15h-2.78V39.24h5.28c-.05-.83-.08-1.64-.11-2.5h-3.66V34.06h6.08c0,1.82.05,3.57.16,5.18h5.67ZM166,49.3a13.38,13.38,0,0,0,2.78-6.76l-.07-.49H166Zm5.23-7.25c.41,3.09,1.14,5.56,2.52,7.2v-7.2Z"/><path class="i" d="M200.17,54.63c.41,0,.52-.34.59-2.81a6.88,6.88,0,0,0,2.66,1.2c-.32,3.48-1.07,4.44-2.89,4.44h-1.77c-2.36,0-2.86-.93-2.86-3.63v-5.2h-1.32c-.37,4.13-1.41,7.33-5.72,9.2a8.69,8.69,0,0,0-1.8-2.39c3.56-1.41,4.24-3.77,4.53-6.81H190v-7c-.21.19-.39.37-.6.53a11.09,11.09,0,0,0-1.07-1.2v2.68h-2.67V44c.65.62,2.62,3,3,3.51L186.91,50c-.27-.65-.78-1.66-1.3-2.62V57.67H182.8V48.08a24.27,24.27,0,0,1-2.55,5.56,20,20,0,0,0-1.43-3.06,27.21,27.21,0,0,0,3.17-7h-2.78V40.72h3.59V37.57c-.86.16-1.72.32-2.52.42a11.26,11.26,0,0,0-.86-2.39A34.15,34.15,0,0,0,187,33.49L188.75,36a21.39,21.39,0,0,1-3.14,1v3.74h2.47a11.91,11.91,0,0,0-.91-.83,16.66,16.66,0,0,0,5-6.09l2.86.91a24.44,24.44,0,0,1-3.87,5.62h9.2a49.67,49.67,0,0,0-4.34-5.41l2.16-1.48a41.52,41.52,0,0,1,5.48,6.79l-2.34,1.69a7.51,7.51,0,0,0-.39-.68v7.39h-2.08V53.8c0,.75.05.83.42.83Zm-7.29-8.71h5V43h-5Z"/><path class="i" d="M215.92,49.64H216v8h-2.71V57h-3.37v.67h-2.58V50.16c-.31.13-.62.26-.94.36a10.26,10.26,0,0,0-1.48-2.44,17.21,17.21,0,0,0,4.5-2l-1.35-.81,1.72-1.79,1.71.93A9.23,9.23,0,0,0,213,42.7h-3.15A11.59,11.59,0,0,1,207,45.61a6.49,6.49,0,0,0-1.51-2,9,9,0,0,0,3.75-4.81l2.34.47a11.14,11.14,0,0,1-.44,1.17h3.27l.44-.08,0,0v-2h-7v2.24H205.6V35.94h4.58c-.19-.58-.39-1.17-.58-1.64l2.47-.86c.31.75.68,1.69,1,2.5h4.16v4.68h-2l1.12.8a14.59,14.59,0,0,1-2.57,4.27c1.4.8,2.78,1.64,3.66,2.26Zm-.88,0c-.86-.63-2-1.35-3.23-2.11a16.36,16.36,0,0,1-3.3,2.11Zm-1.75,5V52h-3.37v2.58Zm12.2-2.08a29.86,29.86,0,0,1,4.24,3L228,57.67a31.29,31.29,0,0,0-4.32-3.4l1.54-1.74H221.3l1.85,1.92a32.08,32.08,0,0,1-5.59,3.35,16,16,0,0,0-1.27-2.26,24.51,24.51,0,0,0,4.91-3h-2.81V38.82h3.3c.11-.57.21-1.19.29-1.79h-4.24v-2.6h11.62V37h-4.57c-.16.62-.37,1.25-.55,1.79h4.47V52.53Zm-4.34-9.83h4.65V41.19h-4.65Zm0,3.74h4.65V44.88h-4.65Zm0,3.72h4.65V48.63h-4.65Z"/></g></svg>