<svg xmlns="http://www.w3.org/2000/svg" viewBox="0 0 529.54 109.65"><defs><style>.a{fill:none;}.a,.b{stroke:#fff;stroke-linejoin:round;stroke-width:3px;}.b,.c{fill:#fff;}</style></defs><title>city</title><polygon class="a" points="267.3 72.11 267.3 108.15 277.46 108.15 281.39 108.15 299.41 108.15 299.41 72.11 267.3 72.11"/><polygon class="b" points="249.28 59.64 249.28 59.64 249.28 59.64 249.28 59.64"/><polygon class="b" points="281.39 59.64 249.28 59.64 267.3 72.11 299.41 72.11 281.39 59.64"/><polygon class="a" points="267.3 108.15 231.27 108.15 231.27 72.11 249.28 59.64 267.3 72.11 267.3 108.15"/><rect class="c" x="244.95" y="86.7" width="8.66" height="19.72"/><rect class="c" x="279.75" y="80.27" width="8.66" height="8.66"/><polygon class="a" points="313.51 42.82 313.51 108.15 323.68 108.15 327.61 108.15 345.62 108.15 345.62 42.82 313.51 42.82"/><polygon class="b" points="295.5 30.35 295.5 30.35 295.5 30.35 295.5 30.35"/><polygon class="b" points="327.61 30.35 295.5 30.35 313.51 42.82 345.62 42.82 327.61 30.35"/><polyline class="a" points="277.48 59.8 277.48 42.82 295.5 30.35 313.51 42.82 313.51 108.15 277.48 108.15"/><rect class="c" x="325.96" y="50.98" width="8.66" height="8.66"/><polygon class="a" points="449.72 72.11 449.72 108.15 459.88 108.15 463.81 108.15 481.82 108.15 481.82 72.11 449.72 72.11"/><polygon class="b" points="431.7 59.64 431.7 59.64 431.7 59.64 431.7 59.64"/><polygon class="b" points="463.81 59.64 431.7 59.64 449.72 72.11 481.82 72.11 463.81 59.64"/><polygon class="a" points="449.71 108.15 413.68 108.15 413.68 72.11 431.7 59.64 449.71 72.11 449.71 108.15"/><rect class="c" x="427.37" y="86.7" width="8.66" height="19.72"/><rect class="c" x="462.16" y="80.27" width="8.66" height="8.66"/><polygon class="a" points="37.53 72.11 37.53 108.15 47.7 108.15 51.62 108.15 69.64 108.15 69.64 72.11 37.53 72.11"/><polygon class="b" points="19.52 59.64 19.52 59.64 19.52 59.64 19.52 59.64"/><polygon class="b" points="51.62 59.64 19.52 59.64 37.53 72.11 69.64 72.11 51.62 59.64"/><polygon class="a" points="37.53 108.15 1.5 108.15 1.5 72.11 19.52 59.64 37.53 72.11 37.53 108.15"/><rect class="c" x="15.19" y="86.7" width="8.66" height="19.72"/><rect class="c" x="49.98" y="80.27" width="8.66" height="8.66"/><polygon class="a" points="495.93 42.82 495.93 108.15 506.09 108.15 510.02 108.15 528.04 108.15 528.04 42.82 495.93 42.82"/><polygon class="b" points="477.91 30.35 477.91 30.35 477.91 30.35 477.91 30.35"/><polygon class="b" points="510.02 30.35 477.91 30.35 495.93 42.82 528.04 42.82 510.02 30.35"/><polyline class="a" points="459.9 59.8 459.9 42.82 477.91 30.35 495.93 42.82 495.93 108.15 459.9 108.15"/><rect class="c" x="508.37" y="50.98" width="8.66" height="8.66"/><polygon class="a" points="199.16 42.82 199.16 108.15 209.32 108.15 213.25 108.15 231.27 108.15 231.27 42.82 199.16 42.82"/><polygon class="b" points="181.15 30.35 181.15 30.35 181.15 30.35 181.15 30.35"/><polygon class="b" points="213.25 30.35 181.15 30.35 199.16 42.82 231.27 42.82 213.25 30.35"/><polyline class="a" points="163.13 59.8 163.13 42.82 181.15 30.35 199.16 42.82 199.16 108.15 163.13 108.15"/><rect class="c" x="211.6" y="50.98" width="8.66" height="8.66"/><polygon class="a" points="152.95 72.11 152.95 108.15 163.11 108.15 167.04 108.15 185.05 108.15 185.05 72.11 152.95 72.11"/><polygon class="b" points="134.93 59.64 134.93 59.64 134.93 59.64 134.93 59.64"/><polygon class="b" points="167.04 59.64 134.93 59.64 152.95 72.11 185.05 72.11 167.04 59.64"/><polygon class="a" points="152.95 108.15 116.91 108.15 116.91 72.11 134.93 59.64 152.95 72.11 152.95 108.15"/><rect class="c" x="130.6" y="88.27" width="8.66" height="19.72"/><rect class="c" x="165.39" y="80.27" width="8.66" height="8.66"/><rect class="a" x="346.9" y="14.5" width="66.78" height="93.65"/><rect class="a" x="69.25" y="41.37" width="47.66" height="66.78"/><polyline class="a" points="140.74 58.81 140.74 25.41 93.08 25.41 93.08 41.92"/><polygon class="b" points="398.44 1.5 380.29 1.5 362.15 1.5 346.9 14.5 380.29 14.5 413.68 14.5 398.44 1.5"/><rect class="c" x="357.82" y="24.79" width="8.66" height="8.66"/><rect class="c" x="126.27" y="34.42" width="6.97" height="6.97"/><rect class="c" x="126.27" y="46.39" width="6.97" height="6.97"/><rect class="c" x="113.43" y="34.42" width="6.97" height="6.97"/><rect class="c" x="100.11" y="34.42" width="6.97" height="6.97"/><path class="c" d="M82.57,49.54h0a3,3,0,0,0-3,3v7.59h6V52.52A3,3,0,0,0,82.57,49.54Z"/><path class="c" d="M93.08,49.54h0a3,3,0,0,0-3,3v7.59h6V52.52A3,3,0,0,0,93.08,49.54Z"/><path class="c" d="M103.6,49.54h0a3,3,0,0,1,3,3v7.59a0,0,0,0,1,0,0h-6a0,0,0,0,1,0,0V52.52A3,3,0,0,1,103.6,49.54Z"/><path class="c" d="M82.57,64.6h0a3,3,0,0,0-3,3v7.59h6V67.58A3,3,0,0,0,82.57,64.6Z"/><path class="c" d="M93.08,64.6h0a3,3,0,0,0-3,3v7.59h6V67.58A3,3,0,0,0,93.08,64.6Z"/><path class="c" d="M103.6,64.6h0a3,3,0,0,1,3,3v7.59a0,0,0,0,1,0,0h-6a0,0,0,0,1,0,0V67.58A3,3,0,0,1,103.6,64.6Z"/><rect class="c" x="376.21" y="24.79" width="8.66" height="8.66"/><rect class="c" x="394.6" y="24.79" width="8.66" height="8.66"/><rect class="c" x="357.82" y="41.37" width="8.66" height="8.66"/><rect class="c" x="376.21" y="41.37" width="8.66" height="8.66"/><rect class="c" x="394.6" y="41.37" width="8.66" height="8.66"/><rect class="c" x="357.82" y="57.94" width="8.66" height="8.66"/><rect class="c" x="376.21" y="57.94" width="8.66" height="8.66"/><rect class="c" x="394.6" y="57.94" width="8.66" height="8.66"/><rect class="c" x="357.82" y="74.52" width="8.66" height="8.66"/><rect class="c" x="376.21" y="74.52" width="8.66" height="8.66"/><rect class="c" x="394.6" y="74.52" width="8.66" height="8.66"/><rect class="c" x="87.56" y="88.43" width="13.74" height="19.72"/></svg>