<svg xmlns="http://www.w3.org/2000/svg" viewBox="0 0 940 1080"><defs><style>.a{isolation:isolate;}.b{fill:#aede00;}.c,.g{fill:#9cd9e2;}.c,.d{stroke:#1a1a1a;}.c,.d,.f,.g{stroke-linejoin:round;}.c,.d,.f,.g,.j,.k,.l,.m{stroke-width:6.72px;}.d,.j,.n{fill:#fff;}.e{fill:#1a1a1a;}.f,.h,.l,.m{fill:none;}.f,.g,.h,.j,.k,.l,.m{stroke:#000;}.f,.g,.m{stroke-linecap:round;}.h,.j,.k,.l,.m{stroke-miterlimit:10;}.h{stroke-width:4.03px;}.i{fill:#e6e6e6;mix-blend-mode:multiply;}</style></defs><title>result-basw-happy</title><g class="a"><path class="b" d="M748.66,412.08H579.12a116.79,116.79,0,0,0-100.19,57.2,116.28,116.28,0,0,0-85.43-37.49H224c-64.11,0-116.56,52.45-116.56,116.56S159.85,664.91,224,664.91h64.76A116.81,116.81,0,0,0,390.14,724.2H559.67c51,0,94.59-33.17,110.31-79h78.68c64.11,0,116.56-52.45,116.56-116.56S812.77,412.08,748.66,412.08Z"/><polygon class="c" points="776.09 466.04 838.78 466.04 847.52 466.04 887.6 466.04 887.6 385.88 776.09 385.88 776.09 466.04"/><polygon class="c" points="776.09 358.13 776.09 385.88 887.6 385.88 847.52 358.13 776.09 358.13"/><polygon class="d" points="816.18 466.04 736.02 466.04 736.02 385.88 776.09 358.13 816.18 385.88 816.18 466.04"/><rect class="e" x="766.46" y="418.32" width="19.27" height="43.86"/><rect class="e" x="843.86" y="404.03" width="19.27" height="19.27"/><line class="f" x1="756.66" y1="606.83" x2="763.1" y2="619.7"/><line class="f" x1="791.34" y1="606.83" x2="784.9" y2="619.7"/><line class="f" x1="774" y1="619.7" x2="774" y2="605.83"/><line class="f" x1="184.84" y1="438.75" x2="191.28" y2="451.62"/><line class="f" x1="219.52" y1="438.75" x2="213.08" y2="451.62"/><line class="f" x1="202.18" y1="451.62" x2="202.18" y2="437.75"/><line class="f" x1="57.14" y1="549.39" x2="63.58" y2="562.26"/><line class="f" x1="91.82" y1="549.39" x2="85.38" y2="562.26"/><line class="f" x1="74.48" y1="562.26" x2="74.48" y2="548.39"/><line class="f" x1="228.97" y1="607.32" x2="235.4" y2="620.2"/><line class="f" x1="263.64" y1="607.32" x2="257.2" y2="620.2"/><line class="f" x1="246.3" y1="620.2" x2="246.3" y2="606.33"/><path class="g" d="M331.46,419.31c-25.2-10.3-84-39.1-104.56-90.38a12.66,12.66,0,0,1-.83-2.11s0,0,0-.06h0a11.81,11.81,0,1,1,22.84-6h0s0,0,0,.06c0,.22.09.44.13.66,1.63,6.31,18.67,40.09,70.4,62.15"/><path class="h" d="M245.11,327.82c-.33-.64-7.19-9-6.05-15.54"/><path class="h" d="M238,330.73s-8.85-12.59-6.7-17.83"/><path class="g" d="M315,456.35A187.41,187.41,0,0,0,426.7,572.89c.7,12.32,1.63,30.66,2.18,49.92l17.15-.24-.61-43.74a188.09,188.09,0,0,0,97.59-.92c.63,11.83,1.35,27.23,1.81,43.29L562,621l-.69-49.2A187,187,0,0,0,679.4,395.33C678,292.12,593.13,209.62,489.92,211.06s-185.7,86.27-184.26,189.48c0,3.47.2,6.92.43,10.35,0,0,.22,23.88,8.86,45.46"/><path class="i" d="M631.3,664.22c.23,16.67-61.27,31-137.38,32.1s-138-11.59-138.23-28.26S417,637,493.08,636,631.07,647.55,631.3,664.22Z"/><rect class="j" x="523.88" y="660.69" width="38.66" height="7.67" transform="translate(-9.24 7.66) rotate(-0.8)"/><line class="h" x1="535.22" y1="621.33" x2="567.93" y2="620.88"/><path class="k" d="M544.82,621.2c.17,5.9.31,11.88.39,17.81,0,0-23.22-1.22-21.35,22l38.66-.54L562,621Z"/><rect class="j" x="407.97" y="662.31" width="38.66" height="7.67" transform="translate(-9.24 6.02) rotate(-0.8)"/><line class="h" x1="421.5" y1="622.92" x2="454.21" y2="622.46"/><path class="k" d="M428.88,622.81c.17,5.9.3,11.89.39,17.82,0,0-23.22-1.23-21.35,22l38.66-.54L446,622.57Z"/><path class="j" d="M444.27,338.1c1.16,5.12-4.36,10.73-12.33,12.52s-15.35-.89-16.51-6,4.36-10.73,12.33-12.53S443.12,333,444.27,338.1Z"/><path class="j" d="M513.81,345.1c-1.68,5-9.31,6.89-17,4.29s-12.65-8.75-11-13.73,9.3-6.89,17-4.29S515.48,340.12,513.81,345.1Z"/><path class="l" d="M486.31,398l-60.55.84a9.92,9.92,0,0,1-10-9.75h0a9.93,9.93,0,0,1,9.76-10l60.54-.84"/><path d="M445,365.43a7.39,7.39,0,1,1-7.49-7.29A7.39,7.39,0,0,1,445,365.43Z"/><path d="M501.64,365.43a7.4,7.4,0,1,1-7.5-7.29A7.39,7.39,0,0,1,501.64,365.43Z"/><path class="h" d="M469,429a7.4,7.4,0,0,1-14.79.2"/><path class="h" d="M483.74,428.75A7.39,7.39,0,1,1,469,429"/><path class="l" d="M444.13,418.77l49.36-.69s13.16-1.12,13.16-10.78"/><path class="m" d="M432.21,574.87A187.23,187.23,0,0,1,310.9,442.16"/><path class="m" d="M538.88,579a188.55,188.55,0,0,1-92.52.05"/><path class="m" d="M552.76,574.91q-6.82,2.31-13.88,4.12"/><path class="m" d="M305.66,400.54c-1.44-103.21,81.06-188,184.26-189.48S678,292.12,679.4,395.33A186.94,186.94,0,0,1,564.53,570.45"/><path class="n" d="M587.06,404.26a27.43,27.43,0,1,1-27.81-27A27.43,27.43,0,0,1,587.06,404.26Z"/><path class="n" d="M396.51,406.92a27.43,27.43,0,1,1-27.81-27.05A27.42,27.42,0,0,1,396.51,406.92Z"/><path class="g" d="M641.16,419.31c25.2-10.3,84-39.1,104.56-90.38a11.85,11.85,0,0,0,.83-2.11s0,0,0-.06h0a11.81,11.81,0,1,0-22.83-6h0s0,0,0,.06c-.05.22-.09.44-.13.66-1.63,6.31-18.67,40.09-70.4,62.15"/><path class="h" d="M727.51,327.82c.33-.64,7.19-9,6-15.54"/><path class="h" d="M734.63,330.73s8.85-12.59,6.7-17.83"/></g></svg>