<svg xmlns="http://www.w3.org/2000/svg" viewBox="0 0 307.22 57.01"><defs><style>.a{fill:#f66c00;}</style></defs><title>result-1</title><path class="a" d="M43.47,18.19a9.09,9.09,0,0,1-2-4.19,2.56,2.56,0,0,1,1.47-2.1c-2.61,0-5.33.11-5.33-3.74,0-2.38,1.13-3.52,3.51-3.52,8.68,0,24.66-.45,32.54-2a16.16,16.16,0,0,1,3.4-.4c2,0,3.41,1.87,3.41,4.42s-2,3.18-6,3.69C76.85,11,78,12,78,13.49c0,1-.28,1.75-1.59,3.79-.28.46-.51.8-.57.91h3.23c4.09,0,5.28,1.19,5.28,5.27v4.88c0,1.92-1.25,3.17-4,3.17-4,0-4-2.15-4-4.82,0-1-.23-1.24-1.25-1.24H43.41c-1.25,0-1.25.28-1.25,2.72,0,2-1.47,3.17-4,3.17s-4-1.13-4-3.17V23.46c0-4.08,1.19-5.27,5.27-5.27ZM71.13,28c3,0,4.59,1.24,4.59,3.68,0,3.69-3.34,6.92-8.33,11.68,4.59,2,5.72,2.27,12.24,3.68a3,3,0,0,1,2.61,3.4,6.39,6.39,0,0,1-.91,3.18,2.57,2.57,0,0,1-2.49,1.08c-4.2,0-14.12-3.74-18.54-6.35-6.4,3.34-16,6.35-20.91,6.35-2.27,0-3.41-1.31-3.41-3.8,0-2.72,1.08-3.57,4.82-4a60.49,60.49,0,0,0,12.36-3.34,31.7,31.7,0,0,1-7.37-8.39c-1.19,0-3.34,0-3.34-3.57,0-2.27,1-3.57,2.89-3.57ZM56.79,18.19c-1.25-.85-1.93-4.19-1.93-4.87a2.26,2.26,0,0,1,1-1.82c-2.21.06-5,.11-7.59.23a7.31,7.31,0,0,1,1.64,3.8c0,1-.62,1.87-2,2.66Zm-1.93,17a50.22,50.22,0,0,0,5.38,4.59c2.1-1.47,5.05-4.08,5.05-4.36s-.17-.23-.57-.23Zm12-16.95c1.3-1.93,2.38-3.68,3.74-5.89a6,6,0,0,1,1.19-1.59c-3.57.34-7,.51-10.09.68A9.78,9.78,0,0,1,63,15.7c0,1.13-.56,1.87-2.09,2.49Z"/><path class="a" d="M102.19,45.85a39.36,39.36,0,0,1-.68,4.54c-.62,3.29-1.13,4.19-3.4,4.19-1.87,0-3.52-1.24-3.52-2.66,0-.79.63-2.16,1-4.14.73-3.8.85-4.53,3.23-4.53C100.72,43.25,102.19,44.38,102.19,45.85Zm10.26-20v1.59h6.35c1.42,0,2.27,1,2.27,2.83s-.8,2.84-2.27,2.84h-6.35v2a49.26,49.26,0,0,0,5.33-.68,11.7,11.7,0,0,1,1.76-.17c1.36,0,2.38,1.42,2.38,3.29,0,1.7-.85,2.38-3.46,2.72-4,.51-8,1-12.53,1.3-3.12.23-5.38.4-6.74.57-.57,0-1.14.11-1.54.11-1.81,0-2.77-1.19-2.77-3.46,0-2.09,1-2.83,3.85-2.83,1.36,0,4.59-.23,6.86-.34V33.16H98.33c-1.41,0-2.26-1-2.26-2.84s.85-2.83,2.26-2.83h7.26V25.9h-3.8c-4.19,0-5.44-1.19-5.44-5.1v-12c0-4,1.25-5.1,5.44-5.1h14.63c4.25,0,5.44,1.13,5.44,5.1v12c0,4-1.25,5.1-5.44,5.1Zm-9-16.21c-1.19,0-1.19.34-1.19,2.32a2.32,2.32,0,0,1,1.87-.79c1,0,1.14.56,1.42,1.36a19.53,19.53,0,0,1,.91,3.4V9.69Zm3,7.76a2.67,2.67,0,0,1-1.93,1,1.26,1.26,0,0,1-1.08-.8c-.56-2-.68-2.32-1.19-3.85v4.87c0,1,.29,1.25,1.19,1.25h3ZM108.82,47a29.61,29.61,0,0,1,.34,3.8c0,1.87-1,2.78-3.17,2.78-1.7,0-2.27-.68-2.44-2.61-.06-.79-.51-4.7-.51-5.61,0-1.36,1.25-2.38,3-2.38S108.48,43.93,108.82,47Zm6.41-2.21a20.78,20.78,0,0,1,1.07,4.31,3,3,0,0,1-3.11,2.72c-1.59,0-1.82-.28-2.84-4.25-.11-.51-.9-2.89-.9-3.4,0-1.25,1.41-2.33,3.06-2.33C113.92,41.88,114.38,42.4,115.23,44.83Zm-3.57-29.3c.39-.91.85-2.27,1.19-3.35.28-.85.68-1.13,1.41-1.13A2,2,0,0,1,116,12c0-2,0-2.32-1.19-2.32h-3.17ZM116,13.66c-1.3,4.47-2.15,4.47-2.89,4.47a1.85,1.85,0,0,1-1.47-.73v2.49h3.17c.91,0,1.19-.34,1.19-1.25ZM121.46,43a9.54,9.54,0,0,1,1,3.4,3,3,0,0,1-3.18,2.72c-.85,0-1.36-.45-1.76-1.59-1.41-3.62-1.58-4.08-1.58-4.36,0-1.14,1.7-2.38,3.23-2.38C120.22,40.81,120.73,41.32,121.46,43Zm1.59-11.34c0-5.21,2.21-5.33,6.58-5.33V5c0-2.16,1.47-3.35,4.13-3.35S138,2.88,138,5V9.86h7.26c2,0,3.06,1.36,3.06,3.85s-1.08,3.8-3.06,3.8H138v8.84h3.34c4.09,0,5.33,1.25,5.33,5.33V48.23c0,4.09-1.24,5.28-5.33,5.28h-13c-4.08,0-5.27-1.19-5.27-5.28Zm8.9,2c-1,0-1.25.23-1.25,1.25v9.86c0,1,.23,1.25,1.25,1.25h5.67c1,0,1.25-.23,1.25-1.25V35c0-1-.23-1.25-1.25-1.25Z"/><path class="a" d="M174.58,19c0,3-3.52,12.47-5.5,17-3.29,7.43-4.48,8.84-7.43,8.84a4.91,4.91,0,0,1-4.93-4.59c0-1.47.28-2,2.78-6.35,3.12-5.67,4.42-10.31,5.89-15.64.63-2.27,1.87-3.35,4.08-3.35C172.25,14.9,174.58,16.83,174.58,19Zm5.95-13.38c0-2.32,1.59-3.57,4.48-3.57s4.47,1.25,4.47,3.57V47.27c0,7.43-4.3,7.43-8.84,7.43-5.89,0-8.33,0-8.33-4.14,0-2.84,1.36-4.59,3.57-4.59.91,0,2.32.28,2.89.28,1.47,0,1.76-.28,1.76-1.81Zm24.77,15c4,10.09,5.95,15,6,17.8a5.19,5.19,0,0,1-5.16,5c-3,0-3.35-1.25-5.33-7.83a83.14,83.14,0,0,0-3.4-9.12c-1.81-4-2.38-5.16-2.38-6.81,0-2.38,2.38-4.53,4.93-4.53C202.3,15.13,203.66,16.55,205.3,20.63Z"/><path class="a" d="M225.08,31.68a2.24,2.24,0,0,1-.91.12,5.18,5.18,0,0,1-5-4.88c0-.85.39-1.7,1.64-3.34A52.32,52.32,0,0,0,228,8.33c1.36-5.11,1.7-6.52,4.65-6.52s5,1.7,5,4.08a15.5,15.5,0,0,1-1.07,4.53c-.8,2.38-1.82,5.11-2.89,7.71V51.86c0,2.21-1.53,3.46-4.31,3.46s-4.31-1.25-4.31-3.46Zm41.72,4.25c2.84,0,4.65,1.7,4.65,4.31,0,.62-.06,1.19-1,7.82-.68,4.88-2.78,6.64-7.77,6.64-4.08,0-5.27-.74-5.27-3.35,0-2.15,1.08-3.68,2.66-3.68.29,0,1.48.17,1.76.17.63,0,.85-.29,1-1.25s.68-4.54.68-4.59c0-.51-.29-.57-1.08-.57A28.66,28.66,0,0,1,255.07,51c-3.23,3-5.16,4.25-6.52,4.25a3.14,3.14,0,0,1-3-3c0-1.36.4-1.76,3.52-3.74A34.06,34.06,0,0,0,256,41.43h-2.21c-2.89,4-11.33,10.77-14.51,10.77-1.47,0-2.55-1.36-2.55-3.23,0-1.19.74-1.87,3.57-3.12a29.52,29.52,0,0,0,6.41-4.42h-2.55c-3.12,2.27-5.28,3.4-6.58,3.4a3.35,3.35,0,0,1-3.06-3.4c0-1.64.57-2.21,3.4-3.29,1.42-.56,2.55-1.41,5.78-3.85h-6.74c-1.48,0-2.27-1.08-2.27-2.89s.79-2.89,2.27-2.89h33.38c1.42,0,2.27,1.07,2.27,2.89s-.85,2.89-2.27,2.89H251.38c-.28.45-.79,1.13-1.19,1.64ZM240.1,18.59a4.6,4.6,0,0,1-3.8-4.2c0-1.25.12-1.42,2.5-4.19A16.42,16.42,0,0,0,241,6.68c2.15-4.65,2.38-4.87,4.48-4.87,2.32,0,4.14,1.24,4.36,3.06h19c1.53,0,2.32,1,2.32,3s-.79,2.89-2.32,2.89h-21c-.29.39-.57,1-.85,1.3h16.15c3.8,0,4.82,1,4.82,4.82v5.44c0,3.8-1,4.82-4.82,4.82H244.92c-3.8,0-4.82-1-4.82-4.82Zm19.84-.29a3.63,3.63,0,0,0-.11-1.3c-.11-.17-.34-.23-.79-.23H248.89c-.91,0-.91.17-.91,1.53Zm-.9,4.82c.9,0,.9-.11.9-1.42H248a2.78,2.78,0,0,0,.11,1.19c.12.23.34.23.8.23Z"/></svg>