<svg xmlns="http://www.w3.org/2000/svg" xmlns:xlink="http://www.w3.org/1999/xlink" viewBox="0 0 752 1080"><defs><style>.a,.b{fill:none;}.b{stroke:#000;stroke-linecap:round;stroke-linejoin:round;stroke-width:5px;}.c{opacity:0.5;fill:url(#a);}</style><pattern id="a" width="20" height="20" patternTransform="translate(31.48 232.94)" patternUnits="userSpaceOnUse" viewBox="0 0 20 20"><rect class="a" width="20" height="20"/><line class="b" x1="83.5" y1="16.5" x2="16.5" y2="83.5"/><line class="b" x1="63.5" y1="16.5" x2="-3.5" y2="83.5"/><line class="b" x1="43.5" y1="16.5" x2="-23.5" y2="83.5"/><line class="b" x1="23.5" y1="16.5" x2="-43.5" y2="83.5"/><line class="b" x1="3.5" y1="16.5" x2="-63.5" y2="83.5"/><line class="b" x1="83.5" y1="-3.5" x2="16.5" y2="63.5"/><line class="b" x1="63.5" y1="-3.5" x2="-3.5" y2="63.5"/><line class="b" x1="43.5" y1="-3.5" x2="-23.5" y2="63.5"/><line class="b" x1="23.5" y1="-3.5" x2="-43.5" y2="63.5"/><line class="b" x1="3.5" y1="-3.5" x2="-63.5" y2="63.5"/><line class="b" x1="83.5" y1="-23.5" x2="16.5" y2="43.5"/><line class="b" x1="63.5" y1="-23.5" x2="-3.5" y2="43.5"/><line class="b" x1="43.5" y1="-23.5" x2="-23.5" y2="43.5"/><line class="b" x1="23.5" y1="-23.5" x2="-43.5" y2="43.5"/><line class="b" x1="3.5" y1="-23.5" x2="-63.5" y2="43.5"/><line class="b" x1="83.5" y1="-43.5" x2="16.5" y2="23.5"/><line class="b" x1="63.5" y1="-43.5" x2="-3.5" y2="23.5"/><line class="b" x1="43.5" y1="-43.5" x2="-23.5" y2="23.5"/><line class="b" x1="23.5" y1="-43.5" x2="-43.5" y2="23.5"/><line class="b" x1="3.5" y1="-43.5" x2="-63.5" y2="23.5"/><line class="b" x1="83.5" y1="-63.5" x2="16.5" y2="3.5"/><line class="b" x1="63.5" y1="-63.5" x2="-3.5" y2="3.5"/><line class="b" x1="43.5" y1="-63.5" x2="-23.5" y2="3.5"/><line class="b" x1="23.5" y1="-63.5" x2="-43.5" y2="3.5"/><line class="b" x1="3.5" y1="-63.5" x2="-63.5" y2="3.5"/></pattern></defs><title>hurt-5</title><path class="c" d="M582.92,394.13A166,166,0,1,1,414.59,230.42,166,166,0,0,1,582.92,394.13Z"/></svg>