<svg xmlns="http://www.w3.org/2000/svg" viewBox="0 0 409.36 718.15"><defs><style>.a{fill:#1a1a1a;}.b,.e,.l,.m{fill:#fff;}.c,.f,.h,.i,.j{fill:none;}.c{stroke:#fff;}.c,.d,.j,.k,.l,.m,.n{stroke-linecap:round;stroke-linejoin:round;}.c,.d,.e,.g,.h,.j,.k,.l,.n{stroke-width:5px;}.d{fill:#9cd9e2;}.d,.e,.f,.g,.h,.j,.k,.l,.m,.n{stroke:#000;}.e,.f,.g,.h{stroke-miterlimit:10;}.f,.m{stroke-width:3px;}.k{fill:#ffc900;}.n{fill:#f66c00;}</style></defs><title>wrong-3</title><path class="a" d="M208,178.44l21.38-37a6.68,6.68,0,0,0-5.78-10H180.79a6.68,6.68,0,0,0-5.79,10l21.38,37A6.68,6.68,0,0,0,208,178.44Z"/><rect x="60.21" y="54.38" width="283.92" height="105.55" rx="35.31" ry="35.31"/><path class="b" d="M184.7,122.32c1.68-.36,3.48-.71,5.2-1.07l.2,3c-4.88,1.12-10,2.28-13.84,3.12L175.5,124l6.2-1.16V112.05H176v-3.16h5.68v-3.8h-3.48v-1.76a24.78,24.78,0,0,1-1.92,1.72,29.81,29.81,0,0,0-1.44-3.76,27.74,27.74,0,0,0,8-9.6l2.8,1.28c-.28.52-.56,1-.84,1.6a41.52,41.52,0,0,1,6.4,4.8l-1.6,3.08a46.46,46.46,0,0,0-6.44-5.24A30.79,30.79,0,0,1,179.5,102h9.12v3.12H184.7v3.8h5.2v3.16h-5.2Zm-5.76-8.47a49.65,49.65,0,0,1,1.48,7.08l-2.48.76a48.93,48.93,0,0,0-1.36-7.2Zm6.56,6.64a64.51,64.51,0,0,0,1.6-7l2.72.76c-.76,2.44-1.48,5.2-2.16,7Zm26.23-15.72v3.32H190.82v-3.32h4.48v-4.6h-3.68V96.89h3.68V92h3.24v4.92h5.35V92h3.32v4.92h3.44v3.28h-3.44v4.6Zm-18.43,6.12h16.23v17.63h-3.44V127h-9.47v1.64H193.3Zm3.32,3.08v3.52h9.47V114Zm9.47,10v-3.51h-9.47V124Zm-7.55-19.19h5.35v-4.6h-5.35Z"/><path class="b" d="M221.14,118.88v3.68h-2.92V94.77h9.36v24.11Zm0-21.15v18.16h3.52V97.73ZM231.38,121a52.51,52.51,0,0,1-2.16,7.32,11.78,11.78,0,0,0-2.2-.64,37.83,37.83,0,0,0,2.16-7.15Zm6-7.67a36.26,36.26,0,0,1,1.88,6.16L237,120c-.08-.43-.2-1-.36-1.59-5.88.8-6.92,1-7.56,1.32a15.81,15.81,0,0,0-.76-2.36c.68-.12,1.36-.8,2.28-1.88a38.9,38.9,0,0,0,2.36-3.12,14.17,14.17,0,0,0-3.68.48,14,14,0,0,0-.8-2.4c.56-.12,1-.6,1.52-1.32a29.05,29.05,0,0,0,3.16-6.2l2.64,1a33,33,0,0,1-3.64,6.12l2.28-.08a29.59,29.59,0,0,0,2-3.64l2.4,1.24a55.15,55.15,0,0,1-6.4,9.08l3.64-.4c-.24-.84-.56-1.72-.84-2.52Zm15.15-10.48H229.7V93.73h22.79Zm-18,18a51,51,0,0,1,.68,6.59l-2.32.32a44.28,44.28,0,0,0-.52-6.64Zm2-24.32h-3.68v3.6h3.68Zm1,23.67a57.7,57.7,0,0,1,1.68,6l-2.12.6a46.9,46.9,0,0,0-1.56-6.07Zm16.07,6.68H243.33v1.84h-2.87v-15l-.2.28a15.46,15.46,0,0,0-2.44-1.68A27.53,27.53,0,0,0,242.5,103l2.83.72c-.39,1.16-.83,2.36-1.27,3.48h3.23c-.36-1.08-.79-2.4-1.24-3.44l2.4-.72a41.34,41.34,0,0,1,1.56,4.16h3.36V110h-4v2.92h3.44v2.6h-3.44v2.92h3.44V121h-3.44v2.84h4.2ZM242.82,96.45H239v3.6h3.8ZM246.69,110h-3.36v2.92h3.36Zm0,5.52h-3.36v2.92h3.36Zm-3.36,8.35h3.36V121h-3.36Zm5.88-27.43h-3.88v3.6h3.88Z"/><path class="b" d="M263.9,122.29a3.64,3.64,0,0,1,7.28,0,3.64,3.64,0,0,1-7.28,0Zm.84-21.44-.12-5.28h5.88l-.12,5.28-1.2,14.72H265.9Z"/><line class="c" x1="111.09" y1="91.94" x2="147.09" y2="127.94"/><line class="c" x1="147.09" y1="91.94" x2="111.09" y2="127.94"/><path class="d" d="M215.49,530l10.68,31.44-12.33,4.19c-4.91-13.78-9.87-26.81-13.26-35.54"/><rect class="e" x="208.18" y="594.36" width="29.35" height="5.82" transform="translate(-180.3 103.44) rotate(-18.77)"/><line class="f" x1="208.53" y1="567.42" x2="232.05" y2="559.43"/><path class="g" d="M213.84,565.62c1.51,4.22,3,8.51,4.45,12.77,0,0-17,4.55-10.27,20.85l27.79-9.44-9.64-28.37Z"/><path class="d" d="M84.08,402.12C66,412,24.09,438.78,12.92,479.23a8.74,8.74,0,0,0-.44,1.65s0,0,0,.05h0a9,9,0,1,0,17.73,2.59h0v0c0-.17,0-.34.05-.51.69-4.9,10.66-31.84,47.8-52.89"/><path class="f" d="M26.75,478.5c-.19.52-4.65,7.39-3.23,12.24"/><path class="f" d="M21.14,476.92s-5.6,10.25-3.54,14"/><circle class="d" cx="193.29" cy="405.02" r="141.87" transform="translate(-229.78 255.3) rotate(-45)"/><path class="e" d="M91.25,349.88c2.74,2.88,1.33,8.69-3.16,13s-10.35,5.4-13.1,2.51-1.33-8.69,3.16-13S88.5,347,91.25,349.88Z"/><path class="e" d="M139.28,327.35c.84,3.89-3.38,8.11-9.43,9.43s-11.66-.77-12.5-4.66,3.37-8.12,9.43-9.44S138.43,323.45,139.28,327.35Z"/><path class="h" d="M142,372.54l-39.12,24.14a7.52,7.52,0,0,1-10.33-2.45h0A7.53,7.53,0,0,1,95,383.9l39.12-24.14"/><path class="e" d="M102.35,367.41a5.61,5.61,0,1,1-7.72-1.83A5.6,5.6,0,0,1,102.35,367.41Z"/><path class="e" d="M138,345.42a5.61,5.61,0,1,1-7.72-1.83A5.6,5.6,0,0,1,138,345.42Z"/><path class="f" d="M142.73,399.46a5.61,5.61,0,1,1-9.55,5.89"/><path class="f" d="M152.28,393.57a5.61,5.61,0,1,1-9.55,5.89"/><line class="h" x1="122.58" y1="402.49" x2="154.47" y2="382.82"/><path class="b" d="M210.05,337.36a20.82,20.82,0,1,1-28.65-6.79A20.82,20.82,0,0,1,210.05,337.36Z"/><path class="b" d="M93.28,408.13a20.82,20.82,0,1,1-28.65-6.79A20.82,20.82,0,0,1,93.28,408.13Z"/><path class="d" d="M276.94,357.61c5.26-20,14.64-68.76-7-104.68a9.37,9.37,0,0,0-.9-1.46l0,0h0a9,9,0,1,0-14.08,11.09h0l0,0,.34.38c3.08,3.87,15.78,29.63,5.52,71.07"/><path class="f" d="M260.91,263.47c-.24-.5-2.16-8.46-6.66-10.77"/><path class="f" d="M265.92,260.48s-3.59-11.12-7.75-12.21"/><rect class="i" width="409.36" height="718.15"/><path class="d" d="M290.37,485.63l30.27,13.65L326,487.41c-13.25-6.21-25.74-12.4-34.11-16.62"/><rect class="e" x="341.97" y="496.51" width="29.35" height="5.82" transform="translate(958.53 379.66) rotate(114.28)"/><line class="f" x1="328.3" y1="482.3" x2="318.09" y2="504.94"/><path class="g" d="M326,487.41c4.05,1.9,8.18,3.81,12.28,5.66,0,0,6.17-16.54,21.74-8.22L348,511.6l-27.31-12.32Z"/><path class="j" d="M206.13,410.14a50.69,50.69,0,0,1,10.21-100.33"/><line class="j" x1="316.49" y1="406.77" x2="364.18" y2="380.27"/><line class="j" x1="321.17" y1="391.97" x2="345.36" y2="378.53"/><line class="j" x1="383.78" y1="221.63" x2="333.86" y2="243.85"/><line class="j" x1="376.84" y1="234.93" x2="351.61" y2="246.29"/><path class="k" d="M221.65,400.33c-5.49-10.38-16.08-18.79-27.77-15.14,7-10.78-.78-24.73-12-30.2,13.17-3.33,26-19,22.6-32,10.27,9.87,27.9,7.49,39.4-2.33-5,15.81-5.62,32.57,14.85,38.48-15,4.47-28.61,16.91-25.9,32.84Z"/><rect class="l" x="243.58" y="278.16" width="133.07" height="103.15" transform="translate(-108.19 156.77) rotate(-24.29)"/><rect class="m" x="253.12" y="288.14" width="113.99" height="83.19" transform="translate(-108.19 156.77) rotate(-24.29)"/><path d="M313.38,318.11q-8.83,3.63-5.64,12.13l15.53-7q-.36-2.89-.45-5.74a21.34,21.34,0,0,1,.43-5.74,13.39,13.39,0,0,1,7.8-8.95q6.17-2.71,11.29.05a16.9,16.9,0,0,1,7.61,8.34l5-2.26,1.18,2.63-5,2.26a16.59,16.59,0,0,1,1.34,11q-1.39,5.32-7.69,8.25l-3.2-7.08q6.65-3.08,3.79-9.55l-13.52,6.1a31,31,0,0,1,.21,12.18,12.14,12.14,0,0,1-2.39,5.13,14.78,14.78,0,0,1-5.41,3.87q-7.14,3.15-12.55.59a18.29,18.29,0,0,1-8.54-8.82l-5,2.26L297,335.1l5-2.26q-2.89-6.91-.87-12.69t9.08-9.1Zm30.81-4.32q-3-7-9.44-4.14a5.51,5.51,0,0,0-3.41,4.23,14.63,14.63,0,0,0,0,5.71Zm-35.27,19.08a10.59,10.59,0,0,0,4.59,4.64c1.82.86,4,.73,6.52-.41a9.36,9.36,0,0,0,2.92-2,7.15,7.15,0,0,0,1.16-2.69,7.92,7.92,0,0,0,.27-3c-.14-1.09-.3-2.2-.49-3.34Z"/><rect x="294.18" y="320.32" width="64.78" height="5.98" transform="translate(-104.09 162.97) rotate(-24.29)"/><path d="M276.42,320.75l-2.54-5.65,2-.92,6.2,13.74-2,.92-2.56-5.67L261,330.63l-1.1-2.43Z"/><path d="M270.75,336.67l-6.71.7-1.12-2.47,21.41-2.07,1.31,2.89-15.71,14.71-1.15-2.56,4.94-4.62Zm4.62,5.24,4.52-4.23c1-1,2-1.73,2.95-2.49l0-.06c-1.23.22-2.49.43-3.78.58l-6.19.61Z"/><path d="M275.58,362.93l3-4.22c1.14-1.67,1.88-2.73,2.7-3.8l0-.05c-1.31,0-2.54-.12-4.6-.35l-5.08-.39-1.24-2.75,11.95,1.43,6.71-9.59,1.25,2.78L287,350.41c-.9,1.23-1.6,2.18-2.37,3.12l0,.08c1.34,0,2.4.11,3.89.27l5.5.57,1.24,2.75-11.58-1.57-6.92,10.08Z"/><path class="n" d="M242.26,342.79l-12.2,5.51-.56-1.24a12.37,12.37,0,0,0-16.32-6.17l11,24.38L226.9,364l8.53-3.85,12.2-5.5Z"/><path class="n" d="M251.6,363.47,239.4,369l-.56-1.23a12.37,12.37,0,0,0-16.33-6.17l11,24.38,2.72-1.23,8.53-3.85,12.2-5.51Z"/></svg>