<svg xmlns="http://www.w3.org/2000/svg" viewBox="0 0 307.22 57.01"><defs><style>.a{fill:#f66c00;}</style></defs><title>result-5</title><path class="a" d="M44.27,38.83c3.63,7.54,12.87,7.54,23.07,7.54,2.38,0,5.73,0,7.14-.12.57,0,5-.28,5.33-.28,2.72,0,3.86,1.08,3.86,3.63a4.49,4.49,0,0,1-1.36,3.51c-.74.46-2.61.63-7,.63-23.24,0-28.74-1.42-33.21-6.35-.23.28-4.65,6.23-7.6,6.23-2,0-4-2.09-4-4.42,0-1.19.4-1.87,1.87-3.12a24,24,0,0,0,3.74-4V31.06c0-1.25-.28-1.25-2.49-1.25-1.93,0-3.06-1.36-3.06-3.79s1.08-3.86,3.06-3.86h5.84c3.74,0,4.76,1,4.76,4.76ZM42.51,6.35c2.38,2.38,3.18,3.62,3.18,4.87,0,2.5-2.38,5-4.71,5-1.41,0-1.47-.17-3.29-2.16-1.3-1.36-2.94-3.06-4.3-4.53a3.09,3.09,0,0,1-1-2.1c0-2.21,2.67-4.65,4.93-4.65C38.72,2.83,39.62,3.46,42.51,6.35Zm13.1,16.38c0,.91-.06,2-.17,3.57.62-1.36,1.7-1.81,4.36-1.81H77.21c3.74,0,4.76,1,4.76,4.76V40.42c0,2.83-.29,4.76-4.82,4.76-2.61,0-3.52-.63-3.52-2.33A2.09,2.09,0,0,1,71.42,44c-1.47,0-2.32-.68-2.32-1.87V37.41h-2v4.71c0,1.19-.86,1.87-2.33,1.87s-2.32-.68-2.32-1.87V37.41H60.6V43c0,1.42-1,2.21-2.78,2.21S55,44.44,55,43V31.57a28.3,28.3,0,0,1-1.19,6.12c-1,3.41-1.87,4.43-3.8,4.43-2.21,0-4.48-1.82-4.48-3.58a4.13,4.13,0,0,1,.4-1.75c.28-.8.62-1.53,1-2.5,1.2-3.23,1.31-8.27,1.31-12.92v-5.5c0-4.31,2.21-4.31,5.67-4.31H76.35c4.77,0,4.77,1.82,4.77,6.41,0,3.68-1.08,4.76-4.77,4.76ZM48.3,9.8c-1.65,0-2.56-1.13-2.56-3.17s1-3.17,2.56-3.17H80.78c1.58,0,2.55,1.19,2.55,3.17s-1,3.17-2.55,3.17Zm8.38,6.3c-1.07,0-1.07.17-1.07,2H72.22c.79,0,.79-.17.79-1.25,0-.62-.17-.79-.79-.79Zm5.79,16.49V29.93c-1.59,0-1.87,0-1.87,1.19v1.47Zm6.63,0V29.93h-2v2.66Zm4.65,0h2c0-2.38,0-2.66-1.25-2.66h-.79Zm0,4.82v4.31c.34-1.47.79-1.47,1.47-1.47.4,0,.57-.29.57-1V37.41Z"/><path class="a" d="M92.73,22.11c0-2.9.57-4,2.1-4.48v-10c0-3.57.91-4.53,4.54-4.53h10.82c3.63,0,4.54,1,4.54,4.53v10c1.3.56,1.64,1.41,1.64,4.08V25c0,1.7-.79,2.49-2.78,2.83a7.45,7.45,0,0,1,.4,3v16.1c0,6-1.19,7.43-6.06,7.43-3,0-4.14-1-4.14-3.63,0-1.93.73-3.06,1.93-3.06.39,0,.73.06,1.13.06s.62-.06.62-.57V45.69H102V52c0,1.75-1.19,2.66-3.4,2.66s-3.34-1-3.34-2.66V30.83a11.74,11.74,0,0,1,.17-2.43c-1.76-.23-2.67-1.19-2.67-2.78Zm8.11,1.3c-.79,0-.79.23-.79,2.21,0,.11,0,.34-.06.4h9.3a4.75,4.75,0,0,1-.17-1.65c0-.73-.17-1-.85-1Zm1.93-6.07V14.23c0-2.67.56-3.29,3.23-3.29h2.32c0-.85,0-1.25-.9-1.19h-5.28c-.68,0-.9.22-.9.91v6.68Zm4.7,16.22c0-1.76,0-2-.79-2h-3.91c-.8,0-.8.23-.8,2Zm0,7.08v-2H102v2Zm-1-23.3h1.81V14.91c-1.64,0-1.81,0-1.81.9ZM144.09,40c0,2.78-.85,3.74-3.34,3.86-.29,1.07-.63,2.32-1.08,3.51h4.76c1.59,0,2.5,1.13,2.5,3.18s-.91,3.11-2.5,3.11H118.24c-1.58,0-2.55-1.13-2.55-3.11s1-3.18,2.55-3.18h4.54c-.34-1-.91-2.55-1.25-3.57-2.21.06-3.17-1.13-3.17-3.8V36.39c0-3,.9-3.91,4-3.91h17.8c3.06,0,4,.91,4,3.91Zm-25.17-9.18c-1.47,0-2.32-1-2.32-2.89s.85-2.84,2.32-2.84h25.29c1.47,0,2.26,1,2.26,2.84s-.79,2.89-2.26,2.89ZM124.36,5.5c0-2.21,0-3.8,3-3.8s3,1.59,3,3.8h2.27c0-2.16,0-3.8,3.06-3.8s3,1.59,3,3.8h2c3.68,0,4.65,1,4.65,4.7v8.5c0,3.69-1,4.65-4.65,4.65H122.32c-3.74,0-4.7-1-4.7-4.65V10.2c0-3.74,1-4.7,4.7-4.7Zm1.42,6.91V10.48c-1.93,0-2,0-2,1.31v.62Zm0,4h-2c0,1.81,0,2,1.25,2h.79ZM126.46,37c-.91,0-.91.17-.91,1.58,0,.74.18.91.91.91H136c.9,0,.9-.11.9-1.59,0-.73-.17-.9-.9-.9Zm6.18,10.37a35.42,35.42,0,0,0,1.25-3.51H128.5c.4.9,1,2.43,1.31,3.51Zm0-34.92V10.48h-2.27v1.93Zm0,4h-2.27v2h2.27Zm4.59-4h2c0-1.75,0-1.93-1.25-1.93h-.74Zm0,4v2c1.82,0,2,0,2-1.25v-.73Z"/><path class="a" d="M176.57,35.88c.62-.68,1-1,1.53-1a2.72,2.72,0,0,1,2.27,1.58c1.13-2.43,1.53-4,2.78-8.9A4.49,4.49,0,0,1,181,23.92c0-1.08.4-1.53,2.33-2.89a15.57,15.57,0,0,0,3.34-3.35H183.2c-1.64,0-2.61-1.19-2.61-3.23,0-3.23,2-3.23,3-3.23-.11-.05-2.21-3.74-2.21-4.65,0-1.47,1.76-2.94,3.51-2.94,2.33,0,3.69,4.64,3.69,5.49s-.57,1.54-1.76,2.1h3.63V4.87c0-1.81,1.3-2.83,3.57-2.83s3.57,1,3.57,2.83v6.35h4c-1.48-.62-2.1-1.36-2.1-2.32a2.3,2.3,0,0,1,.28-1c.51-.85,1.19-2.38,1.48-3a2.1,2.1,0,0,1,2.15-1.24c1.81,0,3.29,1.19,3.29,2.6a9.1,9.1,0,0,1-2.21,5c2.15,0,3.91,0,3.91,3.23,0,2.1-1,3.23-2.61,3.23h-4.7c1.3,1.14,1.47,1.25,5.49,3.35,1.59.79,2.1,1.53,2.1,2.78,0,1.87-1.64,4.08-3.85,3.79.51.63.51.91.51,2.95,2.6,0,2.6,2.21,2.6,3.06s0,3.06-2.6,3.06V42c1.53,0,3.23,0,3.23,3.11s-1.76,3.07-3.23,3.07v4.08c0,1.47-1,2.26-2.89,2.26s-2.89-.79-2.89-2.26V48.13h-5.28c-1.58,0-2.49-1.14-2.49-3.07,0-3.11,1.81-3.11,3-3.11v-5.5a2.27,2.27,0,0,1-1-1.76,47.08,47.08,0,0,1-4.59,14.17c-1.93,3.74-3.34,5.16-5,5.16a3.28,3.28,0,0,1-3.11-3.23c-.63,1.64-1.54,2.1-4.31,2.1-3.18,0-4.08-.4-4.54-2-1.19,1.07-6.29,2.32-7.2,2.32-1.47,0-2.43-1.25-2.43-3.17a2.26,2.26,0,0,1,2-2.56V33.78a1.59,1.59,0,0,1,1.3-1.64h-2.72c-.06,8.67-.34,12.47-1,16.15-.57,3.24-1,5.73-3.46,5.73-2.15,0-4-1.36-4-3a9.41,9.41,0,0,1,.46-2.33c1.36-4.7,1.7-13.38,1.7-26.41V11.5c0-4.76,2.21-5.1,5.44-5.1h3.68c0-2.43,0-4.59,3.92-4.59S173.85,4,173.85,6.4h4.36c1.71,0,2.67,1.25,2.67,3.4s-1,3.35-2.67,3.35h-3.62v3.17c4.25,0,5.84.12,5.89,4.82v6.35c0,4.31-1.59,4.65-5.16,4.65a1.59,1.59,0,0,1,1.25,1.64ZM163.31,16.32h1.87V13.15c-1.7,0-1.87,0-1.87,1.19Zm0,9.87h1.87v-4h-1.87Zm4.53,5.95a1.59,1.59,0,0,1,1.3,1.64v1.87c1.37,0,2.22,0,2.9,1.48V33.78a1.59,1.59,0,0,1,1.24-1.64Zm.91-15.82H171V13.15h-2.21Zm0,9.87H171v-4h-2.21ZM172,40.3a2.21,2.21,0,0,1-2.22,1.48h-.68v4.36a3.42,3.42,0,0,1,1.42-.34,1.86,1.86,0,0,1,1.48.85Zm2.55-14.11c1.75,0,1.92,0,1.92-.91V23.13c0-.91-.17-.91-1.92-.91Zm2,20.46c0,.57.23.68.74.68s.62-.23.73-.74c.17-1.07.29-2,1.76-2s2.1.62,2.1,1.87a16.84,16.84,0,0,1-.34,2.78,25.19,25.19,0,0,0,3.34-4.42c-1.7-1.82-1.92-2-1.92-2.55a2.68,2.68,0,0,1,.28-1.19,2.12,2.12,0,0,1-.79.11,2.82,2.82,0,0,1-2.44-1.3,25.41,25.41,0,0,1-3.46,2.83Zm8.73-7.82a2.34,2.34,0,0,1,.62-.12,1.77,1.77,0,0,1,1.42.74,26.9,26.9,0,0,0,.85-3.8c0-.45-.17-.45-1.64-.45A26.09,26.09,0,0,1,185.3,38.83Zm5.16-16.16a20.79,20.79,0,0,1-4,4.08,2.43,2.43,0,0,1,1.76,2.1c0,.11-.06.28-.06.45H190c2.61,0,3.57.74,3.85,3.07.29-1.19,1-1.82,2-1.82h3.8c0-2.15,0-3.74,2.77-3.74a2.71,2.71,0,0,1,.63.06,48.36,48.36,0,0,1-5.39-4V26c0,1.81-1.3,2.83-3.57,2.83s-3.57-1.07-3.57-2.83ZM199.59,42V36.67h-1.37V42Z"/><path class="a" d="M223.05,31.4a2.24,2.24,0,0,1-.91.12,5.19,5.19,0,0,1-5-4.88c0-.85.39-1.7,1.64-3.34a52.32,52.32,0,0,0,7.2-15.25c1.36-5.1,1.7-6.52,4.65-6.52s5,1.7,5,4.08a15.5,15.5,0,0,1-1.07,4.53c-.8,2.39-1.82,5.11-2.89,7.71V51.58c0,2.21-1.53,3.46-4.31,3.46s-4.31-1.25-4.31-3.46Zm41.72,4.25c2.84,0,4.65,1.7,4.65,4.31,0,.62-.06,1.19-1,7.82-.68,4.88-2.78,6.64-7.77,6.64-4.08,0-5.27-.74-5.27-3.35,0-2.15,1.08-3.68,2.67-3.68.28,0,1.47.17,1.75.17.63,0,.85-.29,1-1.25s.68-4.53.68-4.59c0-.51-.29-.57-1.08-.57A28.66,28.66,0,0,1,253,50.73c-3.23,3-5.16,4.25-6.52,4.25a3.14,3.14,0,0,1-3-3c0-1.36.4-1.76,3.52-3.74a34.06,34.06,0,0,0,6.91-7.09h-2.21c-2.89,4-11.33,10.77-14.51,10.77-1.47,0-2.55-1.36-2.55-3.23,0-1.19.74-1.87,3.57-3.12a29.52,29.52,0,0,0,6.41-4.42H242.1c-3.12,2.27-5.28,3.4-6.58,3.4a3.35,3.35,0,0,1-3.06-3.4c0-1.64.57-2.21,3.4-3.29,1.42-.56,2.55-1.41,5.78-3.85H234.9c-1.48,0-2.27-1.08-2.27-2.89s.79-2.89,2.27-2.89h33.39c1.41,0,2.26,1.07,2.26,2.89S269.7,34,268.29,34H249.35c-.28.45-.79,1.13-1.19,1.64Zm-26.7-17.34a4.6,4.6,0,0,1-3.8-4.2c0-1.24.12-1.41,2.5-4.19A16.42,16.42,0,0,0,239,6.4c2.15-4.65,2.38-4.87,4.48-4.87,2.32,0,4.13,1.25,4.36,3.06h19.05c1.53,0,2.32,1,2.32,3s-.79,2.89-2.32,2.89h-21c-.29.4-.57,1-.85,1.3h16.15c3.8,0,4.82,1,4.82,4.82V22c0,3.8-1,4.82-4.82,4.82H242.89c-3.8,0-4.82-1-4.82-4.82ZM257.91,18a3.63,3.63,0,0,0-.11-1.3c-.12-.17-.34-.23-.79-.23H246.86c-.91,0-.91.17-.91,1.53Zm-.9,4.82c.9,0,.9-.11.9-1.42H246a2.81,2.81,0,0,0,.11,1.2c.12.22.34.22.8.22Z"/></svg>