<svg xmlns="http://www.w3.org/2000/svg" viewBox="0 0 752 1080"><defs><style>.a{isolation:isolate;}.b{fill:#aede00;}.c,.h,.l,.m{fill:none;}.c,.d,.e,.f,.g,.h,.j,.k,.l,.m,.q{stroke:#000;}.c,.d,.e,.f,.g,.m,.q{stroke-linecap:round;}.c,.d,.e,.f,.g,.q{stroke-linejoin:round;}.c,.d,.e,.f,.g,.j,.k,.l,.m,.q{stroke-width:5px;}.d{fill:#ccc9b9;}.e{fill:#ccc;}.f,.j,.n{fill:#fff;}.g{fill:#9cd9e2;}.h,.j,.k,.l,.m{stroke-miterlimit:10;}.h{stroke-width:3px;}.i,.p{fill:#e6e6e6;}.i{mix-blend-mode:multiply;}.o{fill:#1a1a1a;}.q{fill:#f66c00;}</style></defs><title>q2-base</title><g class="a"><path class="b" d="M581.53,523.82H566.34c-4.49-60.25-55.19-108.17-116.54-108.17H182.53c-64.27,0-116.86,52.59-116.86,116.86h0c0,48,29.33,89.48,71,107.41a134.71,134.71,0,0,0-1.45,19.69h0c0,74.68,61.11,135.79,135.79,135.79H581.53c74.68,0,135.78-61.11,135.78-135.79h0C717.31,584.93,656.21,523.82,581.53,523.82Z"/><line class="c" x1="681.83" y1="698.91" x2="686.62" y2="708.49"/><line class="c" x1="707.63" y1="698.91" x2="702.84" y2="708.49"/><line class="c" x1="694.73" y1="708.49" x2="694.73" y2="698.17"/><path class="d" d="M635.55,403.43c-156,49.65-298.12,166.84-377.14,267.29C177.54,773.53,126.17,858.49,126.17,858.49L423.75,898S495,771.54,544.38,690.17C600.5,597.74,664.49,437.86,704,413"/><line class="c" x1="196.63" y1="414.43" x2="201.42" y2="424.01"/><line class="c" x1="222.43" y1="414.43" x2="217.64" y2="424.01"/><line class="c" x1="209.53" y1="424.01" x2="209.53" y2="413.69"/><line class="c" x1="656.57" y1="573.37" x2="661.36" y2="582.95"/><line class="c" x1="682.36" y1="573.37" x2="677.57" y2="582.95"/><line class="c" x1="669.46" y1="582.95" x2="669.46" y2="572.63"/><line class="c" x1="74.67" y1="483.59" x2="79.46" y2="493.17"/><line class="c" x1="100.47" y1="483.59" x2="95.68" y2="493.17"/><line class="c" x1="87.57" y1="493.17" x2="87.57" y2="482.85"/><line class="c" x1="164.64" y1="562.45" x2="169.43" y2="572.03"/><line class="c" x1="190.44" y1="562.45" x2="185.65" y2="572.03"/><line class="c" x1="177.54" y1="572.03" x2="177.54" y2="561.71"/><line class="c" x1="587.6" y1="776.92" x2="592.39" y2="786.5"/><line class="c" x1="613.39" y1="776.92" x2="608.6" y2="786.5"/><line class="c" x1="600.5" y1="786.5" x2="600.5" y2="776.18"/><line class="c" x1="184.39" y1="685.38" x2="189.18" y2="694.96"/><line class="c" x1="210.18" y1="685.38" x2="205.39" y2="694.96"/><line class="c" x1="197.29" y1="694.96" x2="197.29" y2="684.64"/><path class="e" d="M372.32,858.87c-32.2-8.2-76.42-13.27-125.22-13.27s-93,5.07-125.22,13.27H68.74v32.79c0,25.43,79.85,46.05,178.36,46.05s178.36-20.62,178.36-46.05V858.87Z"/><ellipse class="f" cx="247.1" cy="858.87" rx="178.36" ry="46.05"/><path class="g" d="M603.61,402.65C621,423.88,659.2,477.63,652.8,533a11.26,11.26,0,0,1-.27,2.26s0,0,0,.07h0a11.9,11.9,0,0,1-23.21,0,11.71,11.71,0,0,1,.1-5.62h0l0-.06c.06-.21.13-.43.2-.64,1.59-6.38,2.73-44.49-32.5-88.89"/><path class="h" d="M636.14,525.19c0,.73,2.06,11.41-2.1,16.67"/><path class="h" d="M643.84,526s1.8,15.4-2.63,19"/><path class="i" d="M532,664.2c.15,11-51.28,20.61-114.87,21.49s-115.27-7.29-115.42-18.27S353,646.81,416.6,645.93,531.86,653.22,532,664.2Z"/><rect class="j" x="447.49" y="660.32" width="38.96" height="7.73" transform="translate(-9.24 6.6) rotate(-0.8)"/><line class="h" x1="458.92" y1="620.65" x2="491.89" y2="620.19"/><path class="k" d="M468.6,620.51c.17,6,.3,12,.39,18,0,0-23.4-1.23-21.51,22.12l38.95-.54-.55-39.78Z"/><rect class="j" x="330.68" y="661.95" width="38.96" height="7.73" transform="translate(-9.24 4.94) rotate(-0.8)"/><line class="h" x1="344.31" y1="622.25" x2="377.28" y2="621.79"/><path class="k" d="M351.75,622.14c.17,6,.31,12,.39,18,0,0-23.4-1.24-21.51,22.12l39-.55L369,621.9Z"/><path class="g" d="M604.23,392.88c-1.45-104-86.94-187.16-191-185.71s-187.16,87-185.71,191q.08,5.25.44,10.43l-.29-.22s-47.89,82-23.28,149.37a12.08,12.08,0,0,0,.79,2.13l0,.06h0A11.9,11.9,0,1,0,226.42,549h0l0,0-.34-.59c-3-5.83-13-42.62,10.88-94A188.89,188.89,0,0,0,349.55,571.83c.71,12.42,1.64,30.9,2.2,50.31L369,621.9l-.61-44.08a189.41,189.41,0,0,0,98.35-.93c.64,11.92,1.36,27.45,1.83,43.62l17.28-.24-.69-49.58A188.42,188.42,0,0,0,604.23,392.88Z"/><path class="j" d="M367.26,335.2c1.17,5.16-4.4,10.81-12.42,12.63s-15.48-.91-16.64-6.07,4.39-10.81,12.42-12.62S366.1,330,367.26,335.2Z"/><path class="j" d="M437.34,342.25c-1.69,5-9.38,6.95-17.18,4.33s-12.75-8.82-11.06-13.83,9.38-6.95,17.18-4.33S439,337.24,437.34,342.25Z"/><path class="l" d="M409.63,395.59l-61,.85a10,10,0,0,1-10.11-9.83h0a10,10,0,0,1,9.83-10.1l61-.85"/><path d="M368,362.75a7.45,7.45,0,1,1-7.56-7.35A7.46,7.46,0,0,1,368,362.75Z"/><path d="M423.56,362a7.45,7.45,0,1,1-7.55-7.34A7.45,7.45,0,0,1,423.56,362Z"/><path class="h" d="M392.14,426.77a7.45,7.45,0,0,1-14.9.21"/><path class="h" d="M407,426.56a7.45,7.45,0,1,1-14.9.21"/><line class="l" x1="367.12" y1="416.5" x2="416.86" y2="415.81"/><path class="h" d="M218.74,546.27c.18.7.66,11.57,5.93,15.72"/><path class="h" d="M211.45,548.89s1.84,15.39,7,17.87"/><path class="m" d="M355.1,573.83A188.74,188.74,0,0,1,232.85,440.07"/><path class="m" d="M462.62,578a189.72,189.72,0,0,1-93.25.06"/><path class="m" d="M476.6,573.86q-6.89,2.34-14,4.15"/><path class="m" d="M227.56,398.13c-1.45-104,81.7-189.51,185.71-191s189.51,81.7,191,185.71A188.41,188.41,0,0,1,488.46,569.37"/><path class="n" d="M511.16,401.88a27.64,27.64,0,1,1-28-27.25A27.64,27.64,0,0,1,511.16,401.88Z"/><path class="n" d="M319.13,404.56a27.64,27.64,0,1,1-28-27.26A27.65,27.65,0,0,1,319.13,404.56Z"/><rect class="f" x="176.5" y="747.37" width="15" height="96"/><rect class="f" x="73.5" y="638.37" width="219" height="143"/><path class="o" d="M123.75,698.18a18.6,18.6,0,0,0,6.93,4.45,12.39,12.39,0,0,0-2,2.35,20.66,20.66,0,0,1-8.24-6.8H110.7a21.08,21.08,0,0,1-2.87,3.31h6V699h3.07v2.46h6.48v2.41h-6.48v2.91h11v2.52H103.25v-2.52h10.56V703.9h-6.25v-2.15a22.71,22.71,0,0,1-5.39,3.59,10.4,10.4,0,0,0-2-2.32,19.42,19.42,0,0,0,7.06-4.84h-6.74v-2.51h6.35V685.56h-4.74v-2.48h4.74v-2.85h3v2.85H121v-2.82h3.1v2.82h4.68v2.48h-4.68v10.11h6.15v2.51Zm-13.83-12.62v1.83H121v-1.83Zm0,5.92H121v-1.86H109.92Zm0,4.19H121v-2H109.92Z"/><path class="o" d="M154.71,689.88c2.26,5.16,6,10,10.17,12.55a12.81,12.81,0,0,0-2.39,2.68,22.68,22.68,0,0,1-4-3.56v2.85h-7.23v5.78h-3.2V704.4h-7.23v-2.91a29,29,0,0,1-4,3.72,13.93,13.93,0,0,0-2.26-2.48c4.12-2.62,7.81-7.59,10-12.85h-9V686.8h12.53v-6.6h3.2v6.6H164v3.08Zm-6.6,11.44V689.88h-.43a37,37,0,0,1-6.7,11.44Zm10.2,0a37.86,37.86,0,0,1-6.64-11.44h-.36v11.44Z"/><path class="o" d="M198.66,706.26v2.94h-29v-2.94h12.95v-7.52h-9.32v-2.91h9.32v-6.54h-7.26a28.05,28.05,0,0,1-3.24,5.07,18.32,18.32,0,0,0-2.78-1.83c2.65-2.78,4.71-7.26,5.92-11.84l3.14.72c-.49,1.67-1.08,3.33-1.7,4.9h5.92v-6.08h3.14v6.08h11.38v3H185.71v6.54h10.17v2.91H185.71v7.52Z"/><path class="o" d="M209.51,695.24a68.9,68.9,0,0,0-6-3.5l1.67-2.25c1.86.91,4.64,2.35,6,3.23Zm-5.36,12.52a95.65,95.65,0,0,0,6.14-10.33l2.19,2a117.78,117.78,0,0,1-5.78,10.33ZM211,686.41c-1.34-.95-4-2.52-6-3.6l1.7-2.15a64.41,64.41,0,0,1,6.08,3.3Zm13.61,6.18v4.84h6.73V710h-2.87v-1.21H217.68v1.37H214.9V697.43h6.87v-4.84h-9.09v-2.91h9.09V685c-2.29.36-4.64.62-6.8.78a10.72,10.72,0,0,0-.88-2.55c5.59-.59,11.93-1.63,15.53-3l2.38,2.35a43.08,43.08,0,0,1-7.35,1.9v5.13h8.66v2.91Zm3.86,7.59H217.68v5.88h10.83Z"/><path class="o" d="M258.91,705.34c3.08.95,6.21,2.1,8.24,2.95l-2.25,1.86a85.15,85.15,0,0,0-9.42-3.6l1.24-1.21h-8.66l2.35,1a44.65,44.65,0,0,1-10,3.86,17.64,17.64,0,0,0-2.19-2.22,38.43,38.43,0,0,0,9.19-2.69h-5v-10a26.35,26.35,0,0,1-2.68.59,10.93,10.93,0,0,0-1.44-2.39c4-.62,6.32-1.57,7.69-2.68h-5.4a52.46,52.46,0,0,0,.89-5.53h6.34v-1.6H240v-1.9h7.72V680.2h2.75v1.63h4.44V680.2h2.88v1.63h7.1v5.4h-7.1V689H267s0,.56-.07.88c-.2,1.87-.39,2.88-.85,3.41a2.64,2.64,0,0,1-1.7.65,5.1,5.1,0,0,1-.72,0v11.41Zm-15.1-18.11c-.1.59-.2,1.18-.3,1.73h3.79a6.15,6.15,0,0,0,.4-1.73Zm16.74,7.65H245.28v1.67h15.27Zm0,3.43H245.28V700h15.27Zm-15.27,5.2h15.27v-1.73H245.28Zm4.31-12.65a7.16,7.16,0,0,1-2,2.16h7.29v-2.16Zm5.33-3.63h-4.44a7.39,7.39,0,0,1-.2,1.73h4.64Zm-4.44-1.9h4.44v-1.6h-4.44Zm7.32-1.6v1.6h4.32v-1.6Zm0,7.13V693h3.47a6.25,6.25,0,0,0-.4-1c.89.1,1.67.13,2,.13a.9.9,0,0,0,.75-.23,2.17,2.17,0,0,0,.33-1Z"/><path class="o" d="M160.27,746.65c1.24,0,1.47-.63,1.6-4.39a9.63,9.63,0,0,0,2.78,1.18c-.36,4.68-1.17,5.92-4.15,5.92h-5c-3.47,0-4.35-.88-4.35-3.86v-6.93H150.1c-1.63,5-5.13,8.89-13.31,11.15a8.66,8.66,0,0,0-1.73-2.55c7.06-1.77,10.2-4.81,11.74-8.6h-8.5V731c-.49.39-1,.78-1.51,1.14a9.82,9.82,0,0,0-2.19-2.22,29,29,0,0,0,9.29-10.07l3.33.62a16.87,16.87,0,0,1-1.11,1.8h7.39l.46-.14,2.13,1.35a35.68,35.68,0,0,1-3.18,4.57h9.16v10.5h-7.75v6.9c0,1,.23,1.18,1.6,1.18Zm-12.65-10.79a40,40,0,0,0,.68-5.07h-7v5.07Zm-3.31-11.06a35.53,35.53,0,0,1-2.81,3.27h7.82a27.05,27.05,0,0,0,2.45-3.27Zm7.2,6a50,50,0,0,1-.69,5.07h8v-5.07Z"/><path class="o" d="M181.19,727.84H169.13v-2.42H175a25.17,25.17,0,0,0-2.32-4.41l2.36-1.18a31.67,31.67,0,0,1,2.45,4.25l-2.42,1.34h6.11Zm11.48,11.41a22.89,22.89,0,0,0,6.77,6.9,10.88,10.88,0,0,0-2.09,2.29,27.72,27.72,0,0,1-6.08-6.93V750h-3v-8.17a22,22,0,0,1-6.44,6.83,11.82,11.82,0,0,0-1.54-1.86v1.3h-7.29v1.47h-2.61v-11h9.9V746a19.84,19.84,0,0,0,6.64-6.77H181v-2.74h7.29v-2.36h-6.18V721.27h15.53v12.88h-6.4v2.36h7.29v2.74Zm-12.52-7.09h-9.68v-2.39h9.68Zm-9.68,1.93h9.68v2.35h-9.68Zm7.23,6.9h-4.65v4.64h4.65Zm7.16-14.49h3.63v-2.78h-3.63Zm0,5.2h3.63v-2.81h-3.63Zm10-8H191.1v2.78h3.76Zm0,5.17H191.1v2.81h3.76Z"/><path class="o" d="M213.07,739.78c-.42-.89-1.31-2.45-2.12-3.83V750h-2.78V736.67a33.8,33.8,0,0,1-3.73,7.91,19.25,19.25,0,0,0-1.5-3,33.94,33.94,0,0,0,4.48-9.58h-3.93v-2.81h4.68v-4.68c-1.21.26-2.42.49-3.57.66a9.36,9.36,0,0,0-.85-2.39,45.12,45.12,0,0,0,9.32-2.65l1.8,2.45a27.75,27.75,0,0,1-3.92,1.28v5.33h3.53V732H211v.59c.78.82,3.33,4,3.89,4.74Zm16.78,7.16c.62,0,.72-.49.81-3.73a8,8,0,0,0,2.62,1.18c-.29,4.22-1.05,5.3-3.07,5.3h-2.55c-2.55,0-3.14-.89-3.14-3.7v-7.36h-2.39c-.49,5.2-1.9,9.19-7.29,11.51a8.74,8.74,0,0,0-1.74-2.35c4.62-1.77,5.66-5,6.05-9.16h-2.28v-9.12c-.33.33-.69.66-1,1a19,19,0,0,0-2.22-2.16,21.79,21.79,0,0,0,6.12-7.81l2.81.88a30.1,30.1,0,0,1-4.94,7.32h12.52a54.7,54.7,0,0,0-5.62-7.19l2.12-1.44a48.59,48.59,0,0,1,6.81,8.67l-2.33,1.66a8.72,8.72,0,0,0-.85-1.5v9.74h-2.84V746c0,.85.1,1,.69,1Zm-10.14-11h7.59v-4.61h-7.59Z"/><path d="M91.83,650.72A4.83,4.83,0,1,1,87,645.89,4.84,4.84,0,0,1,91.83,650.72Z"/><path d="M91.83,766.72A4.83,4.83,0,1,1,87,761.89,4.84,4.84,0,0,1,91.83,766.72Z"/><path d="M282.83,650.72a4.83,4.83,0,1,1-4.83-4.83A4.84,4.84,0,0,1,282.83,650.72Z"/><path d="M282.83,766.72a4.83,4.83,0,1,1-4.83-4.83A4.84,4.84,0,0,1,282.83,766.72Z"/><path class="p" d="M339.71,862.4c.15,10.62-41.38,19.8-92.76,20.52S153.8,875.61,153.66,865s41.38-19.8,92.75-20.51S339.56,851.79,339.71,862.4Z"/><path class="q" d="M320.08,836.66c0,14.8-32.86,26.8-73.4,26.8s-73.39-12-73.39-26.8,32.86-26.81,73.39-26.81S320.08,821.85,320.08,836.66Z"/><path d="M295.62,836.66c0,7.75-21.91,14-48.94,14s-48.93-6.29-48.93-14,21.91-14,48.93-14S295.62,828.9,295.62,836.66Z"/><path class="c" d="M197.75,816.68s-33.11,13.66-46.58,38"/><path class="c" d="M295.62,816.68s33.11,13.66,46.58,38"/></g></svg>