<svg xmlns="http://www.w3.org/2000/svg" viewBox="0 0 792.84 318.18"><defs><style>.a{isolation:isolate;}.b{fill:#333;mix-blend-mode:multiply;}.c,.h{fill:#f66c00;}.c,.d,.e,.i{stroke:#000;stroke-linecap:round;stroke-linejoin:round;}.c,.d{stroke-width:5px;}.d,.e,.g{fill:#fff;}.e,.i{stroke-width:3px;}.f{fill:#1a1a1a;}.i{fill:#ffc900;}</style></defs><title>figure-2</title><g class="a"><rect class="b" x="-804.29" y="-446.7" width="1920" height="1080"/><path class="c" d="M-547.3-336.7H874.77a39,39,0,0,1,39,39V484.34a39,39,0,0,1-39,39H-547.3a39,39,0,0,1-39-39V-297.73A39,39,0,0,1-547.3-336.7Z"/><rect class="d" x="-72.85" y="-256.7" width="927.4" height="633.37" rx="42.45" ry="42.45"/><rect class="e" x="65.63" y="2.27" width="372.43" height="60.63" rx="16.64" ry="16.64"/><path class="f" d="M104.28,38.68c.75,0,.9-.4,1-2.82a7.67,7.67,0,0,0,2.38,1c-.29,3.24-1,4.14-3.15,4.14h-3c-2.64,0-3.3-.77-3.3-3.13V33.81h-.35c-1.15,3.24-3.55,5.9-9.09,7.44a8.3,8.3,0,0,0-1.47-2.2c4.51-1.14,6.62-3,7.68-5.24H89.49v-4.9c-.22.19-.46.37-.7.55a7.76,7.76,0,0,0-1.85-2,18.63,18.63,0,0,0,6.18-6.71l2.82.52a10.57,10.57,0,0,1-.59,1h4.38l.44-.1L102,23.36a21.19,21.19,0,0,1-2.07,3h6v7.48H101v4c0,.75.13.84,1,.84Zm-8.54-7.2a23.15,23.15,0,0,0,.38-2.84h-4v2.84Zm-1.87-7a20.26,20.26,0,0,1-1.6,1.89h4.57a16.74,16.74,0,0,0,1.39-1.89Zm5,4.2a27.74,27.74,0,0,1-.4,2.84h4.6V28.64Z"/><path class="f" d="M126.87,38.83c.36,0,.44-.29.51-2.38a5.8,5.8,0,0,0,2.24,1c-.26,2.95-.9,3.77-2.44,3.77h-1.49c-2,0-2.42-.79-2.42-3.08v-4.4h-1.13c-.3,3.5-1.18,6.2-4.84,7.79a7.46,7.46,0,0,0-1.51-2c3-1.19,3.58-3.19,3.82-5.76h-1.38V27.81c-.18.15-.33.3-.51.44a11.16,11.16,0,0,0-.9-1V29.5h-2.27v.33c.55.53,2.23,2.51,2.58,3l-1.48,2.11c-.22-.55-.66-1.41-1.1-2.22V41.4h-2.37V33.29A20.85,20.85,0,0,1,110,38a16.6,16.6,0,0,0-1.21-2.59,23,23,0,0,0,2.68-5.9h-2.35V27.06h3V24.4c-.73.13-1.46.26-2.14.35a9.68,9.68,0,0,0-.72-2,28.64,28.64,0,0,0,6.38-1.78l1.51,2.14a17.66,17.66,0,0,1-2.66.81v3.17h2.09a9,9,0,0,0-.77-.71,14.07,14.07,0,0,0,4.27-5.14l2.42.76a20.49,20.49,0,0,1-3.28,4.76h7.79a42.31,42.31,0,0,0-3.67-4.58l1.82-1.25a35.51,35.51,0,0,1,4.65,5.74l-2,1.43c-.09-.18-.2-.35-.33-.57v6.25H125.8v4.38c0,.63,0,.7.35.7Zm-6.16-7.37H125V29h-4.25Z"/><path class="f" d="M140.21,34.61h.06v6.77H138v-.55h-2.86v.57h-2.18V35a5.88,5.88,0,0,1-.79.31,8.79,8.79,0,0,0-1.25-2.06,14.69,14.69,0,0,0,3.81-1.7l-1.15-.68L135,29.39l1.45.79a7.85,7.85,0,0,0,1.24-1.45H135a9.77,9.77,0,0,1-2.43,2.46,5.53,5.53,0,0,0-1.27-1.71,7.72,7.72,0,0,0,3.17-4.07l2,.39a8,8,0,0,1-.38,1h2.78l.37-.06,0,0V25.08h-5.92V27h-1.89V23h3.87c-.15-.48-.33-1-.48-1.39L137,20.9c.26.64.57,1.43.84,2.11h3.52v4h-1.72l.95.68a12.29,12.29,0,0,1-2.18,3.61c1.18.68,2.35,1.39,3.1,1.91Zm-.75,0c-.73-.53-1.7-1.15-2.73-1.79a14.46,14.46,0,0,1-2.8,1.79ZM138,38.81V36.63h-2.86v2.18Zm10.32-1.76a24.93,24.93,0,0,1,3.59,2.57l-1.5,1.78a27.18,27.18,0,0,0-3.65-2.88l1.3-1.47h-3.28l1.56,1.63a27,27,0,0,1-4.73,2.83,12.21,12.21,0,0,0-1.08-1.91,20.47,20.47,0,0,0,4.16-2.55H142.3V25.45h2.79c.09-.48.18-1,.24-1.52h-3.58v-2.2h9.83v2.2h-3.87c-.13.53-.31,1.06-.46,1.52H151v11.6Zm-3.67-8.32h3.94V27.45h-3.94Zm0,3.17h3.94V30.58h-3.94Zm0,3.14h3.94V33.75h-3.94Z"/><path class="f" d="M171.23,32.27h-6.69V39h-2.25V32.27H155.6V30h6.69V23.34h2.25V30h6.69Z"/><path class="f" d="M195.56,29.5v2.84H175.32V29.5Z"/><path class="f" d="M217.21,30.54a15.46,15.46,0,0,1-3,6.71A12.81,12.81,0,0,0,217.93,39a9.09,9.09,0,0,0-1.67,2.18,13.24,13.24,0,0,1-3.87-2.11,13.52,13.52,0,0,1-4.31,2.2,9,9,0,0,0-1.48-2,1.79,1.79,0,0,1-1,1.57,8.16,8.16,0,0,1-3.38.39,8.38,8.38,0,0,0-.69-2.22c.93,0,2,0,2.31,0s.42-.11.42-.44V32.16c-1.17.13-2.35.27-3.45.38a25.61,25.61,0,0,1-1.7,8.89,9.62,9.62,0,0,0-2-1.32,21.54,21.54,0,0,0,1.39-7.35l-1.21.13-.22-2.38,1.49-.09V23.14h2.29a16.49,16.49,0,0,0,.59-2.35l2.65.31c-.31.74-.6,1.43-.84,2h3.34v6.67l.44,0,.05,2-.49.07v6.69a6,6,0,0,1,0,.61,13.85,13.85,0,0,0,4-1.78,16.21,16.21,0,0,1-2.86-4.67l1.38-.41h-1.54V30h7.68l.42-.07Zm-14.7,6.57a24.71,24.71,0,0,0-1.7-3.36l1.63-.79a22.5,22.5,0,0,1,1.79,3.19Zm-1.61-6.84,3.39-.26V25.19H200.9v1.36l1.5-.75a21,21,0,0,1,1.69,2.93l-1.67.92a24.28,24.28,0,0,0-1.52-2.9v3.52ZM210.61,25c0,1.71-.31,3.71-2,4.88a12.65,12.65,0,0,0-1.91-1.65,3.44,3.44,0,0,0,1.54-3.3v-3h7.28v4.26c0,.6,0,.82.29.82h.81a3.4,3.4,0,0,0,1-.16c0,.64.09,1.48.18,2.07a3.48,3.48,0,0,1-1.21.16h-1.08c-2,0-2.44-.88-2.44-2.93v-2h-2.46Zm-.42,7.37a11.58,11.58,0,0,0,2.26,3.41,9.56,9.56,0,0,0,1.85-3.41Z"/><path class="f" d="M227.26,32.89l-2.53.7V38.5c0,1.32-.24,2-1,2.38a7.12,7.12,0,0,1-3.37.48,9.72,9.72,0,0,0-.77-2.49c.86.05,1.76.05,2,.05s.41-.11.41-.42V34.3l-2.53.68L219,32.43c.85-.18,1.93-.42,3-.69V27h-2.77V24.57H222V20.88h2.69v3.69h2.18V27h-2.18v4.09l2.22-.59Zm11.33-10.23V40.57h-2.75V38.9h-5.3v1.84h-2.62V22.66Zm-2.75,13.77V25.14h-5.3V36.43Z"/><path class="f" d="M248.75,22.57c-.55,1.87-1.23,4.09-1.82,5.81a7.68,7.68,0,0,1,1.52,4.53c0,1.45-.29,2.38-1,2.91a2.56,2.56,0,0,1-1.21.48,9,9,0,0,1-1.41.07,5.12,5.12,0,0,0-.55-2.27,4.89,4.89,0,0,0,.92,0,.79.79,0,0,0,.55-.17,1.68,1.68,0,0,0,.38-1.32,6.61,6.61,0,0,0-1.39-4c.4-1.34.81-3.14,1.15-4.6h-1.74v17.3h-2.29V21.71h4.79l.38-.09Zm3.92,12.72a20.16,20.16,0,0,1-3.19,4.86,15.94,15.94,0,0,0-1.94-1.43,12.23,12.23,0,0,0,2.84-4.07ZM256.5,34v4.73c0,1.18-.22,1.82-1,2.24a8,8,0,0,1-3.3.44,9,9,0,0,0-.86-2.38c1,.05,1.91.05,2.24,0s.4-.09.4-.38V34h-5.24V31.57H254V29.76h-3.54V28.25c-.31.19-.6.39-.91.55a8.86,8.86,0,0,0-1.69-1.92,16.44,16.44,0,0,0,6.8-6.29l2.18.84c-.18.3-.33.59-.53.87a18.84,18.84,0,0,0,5.79,4.3,7.23,7.23,0,0,0-1.72,2.11c-.33-.2-.68-.42-1-.66v1.71H256.5v1.81h4.93V34Zm2.09-6.43A24.93,24.93,0,0,1,255,24.11a21.08,21.08,0,0,1-3.54,3.41Zm.46,7A22,22,0,0,1,262,38.79L259.93,40a23.85,23.85,0,0,0-2.82-4.46Z"/><path class="f" d="M272.21,34.61h.06v6.77H270v-.55h-2.86v.57h-2.18V35a5.88,5.88,0,0,1-.79.31,8.79,8.79,0,0,0-1.25-2.06,14.69,14.69,0,0,0,3.81-1.7l-1.15-.68L267,29.39l1.45.79a7.85,7.85,0,0,0,1.24-1.45H267a9.77,9.77,0,0,1-2.43,2.46,5.53,5.53,0,0,0-1.27-1.71,7.72,7.72,0,0,0,3.17-4.07l2,.39a8,8,0,0,1-.38,1h2.78l.37-.06,0,0V25.08h-5.92V27h-1.89V23h3.87c-.15-.48-.33-1-.48-1.39L269,20.9c.26.64.57,1.43.84,2.11h3.52v4h-1.72l1,.68a12.29,12.29,0,0,1-2.18,3.61c1.18.68,2.35,1.39,3.1,1.91Zm-.75,0c-.73-.53-1.7-1.15-2.73-1.79a14.46,14.46,0,0,1-2.8,1.79ZM270,38.81V36.63h-2.86v2.18Zm10.32-1.76a24.93,24.93,0,0,1,3.59,2.57l-1.5,1.78a27.18,27.18,0,0,0-3.65-2.88l1.3-1.47h-3.28l1.56,1.63a27,27,0,0,1-4.73,2.83,12.21,12.21,0,0,0-1.08-1.91,20.47,20.47,0,0,0,4.16-2.55H274.3V25.45h2.79c.09-.48.18-1,.24-1.52h-3.58v-2.2h9.83v2.2h-3.87c-.13.53-.31,1.06-.46,1.52H283v11.6Zm-3.67-8.32h3.94V27.45h-3.94Zm0,3.17h3.94V30.58h-3.94Zm0,3.14h3.94V33.75h-3.94Z"/><path class="f" d="M303.23,32.27h-6.69V39h-2.25V32.27H287.6V30h6.69V23.34h2.25V30h6.69Z"/><path class="f" d="M315.48,33.92l-2.11.55V41.4h-2.49V35.09l-2.9.75-.64-2.67c1-.17,2.22-.44,3.54-.7V27.63H309.6a18.56,18.56,0,0,1-.79,2.93c-.44-.2-1.36-.55-1.85-.71a27.26,27.26,0,0,0,1.32-7.3l2,.31c-.06.77-.15,1.51-.26,2.28h.88V20.88h2.49v4.26h1.89v2.49h-1.89v4.29l1.82-.42Zm12,0h-2.11v4.6c0,1.3-.24,2-1.12,2.4a9.4,9.4,0,0,1-3.68.46,11.42,11.42,0,0,0-.79-2.6c1,0,2.22,0,2.58,0s.41-.09.41-.38V33.88h-7v-2.4h7V29.94h2.6v1.54h2.11ZM320,25.19h-4.14V22.81H320v-2h2.6v2H327v2.38h-4.4v1.87h3.65v2.42h-9.57V27.06H320ZM318.74,34a19.76,19.76,0,0,1,2.64,3.3l-2.07,1.34a19,19,0,0,0-2.51-3.46Z"/><path class="f" d="M339.55,31.33s0,.63,0,.94c-.22,5.31-.44,7.42-1.06,8.17a2.34,2.34,0,0,1-1.65.81,16.37,16.37,0,0,1-2.66.07,5.53,5.53,0,0,0-.66-2.27,17.69,17.69,0,0,0,2.15.11.79.79,0,0,0,.73-.29c.33-.37.53-1.78.68-5.25h-2.44c-.51,3-1.54,5.83-3.87,7.81A7.09,7.09,0,0,0,329,39.51c2.88-2.38,3.32-6.34,3.5-10h-2.2V21.87h9v7.65h-4.29c-.05.6-.09,1.21-.13,1.81Zm-6.87-4.14h4.14v-3h-4.14Zm10.87,8.71H341V23.52h2.55Zm5.22-14.61v17c0,1.54-.31,2.26-1.21,2.68a11.67,11.67,0,0,1-4.38.51,9.82,9.82,0,0,0-.9-2.71c1.43,0,2.83,0,3.3,0s.59-.13.59-.52v-17Z"/><path class="f" d="M359.26,32.89l-2.53.7V38.5c0,1.32-.24,2-1,2.38a7.12,7.12,0,0,1-3.37.48,9.72,9.72,0,0,0-.77-2.49c.86.05,1.76.05,2.05.05s.41-.11.41-.42V34.3l-2.53.68L351,32.43c.85-.18,1.93-.42,3.05-.69V27h-2.77V24.57H354V20.88h2.69v3.69h2.18V27h-2.18v4.09l2.22-.59Zm11.33-10.23V40.57h-2.75V38.9h-5.3v1.84h-2.62V22.66Zm-2.75,13.77V25.14h-5.3V36.43Z"/><path class="f" d="M380.75,22.57c-.55,1.87-1.23,4.09-1.82,5.81a7.68,7.68,0,0,1,1.52,4.53c0,1.45-.29,2.38-1,2.91a2.56,2.56,0,0,1-1.21.48,9,9,0,0,1-1.41.07,5.12,5.12,0,0,0-.55-2.27,4.89,4.89,0,0,0,.92,0,.79.79,0,0,0,.55-.17,1.68,1.68,0,0,0,.38-1.32,6.61,6.61,0,0,0-1.39-4c.4-1.34.81-3.14,1.15-4.6h-1.74v17.3h-2.29V21.71h4.79l.38-.09Zm3.92,12.72a20.16,20.16,0,0,1-3.19,4.86,15.94,15.94,0,0,0-1.94-1.43,12.23,12.23,0,0,0,2.84-4.07ZM388.5,34v4.73c0,1.18-.22,1.82-1,2.24a8,8,0,0,1-3.3.44,9,9,0,0,0-.86-2.38c1,.05,1.91.05,2.24,0s.4-.09.4-.38V34h-5.24V31.57H386V29.76h-3.54V28.25c-.31.19-.6.39-.91.55a8.86,8.86,0,0,0-1.69-1.92,16.44,16.44,0,0,0,6.8-6.29l2.18.84c-.18.3-.33.59-.53.87a18.84,18.84,0,0,0,5.79,4.3,7.23,7.23,0,0,0-1.72,2.11c-.33-.2-.68-.42-1-.66v1.71H388.5v1.81h4.93V34Zm2.09-6.43A24.93,24.93,0,0,1,387,24.11a21.08,21.08,0,0,1-3.54,3.41Zm.46,7A22,22,0,0,1,394,38.79L391.93,40a23.85,23.85,0,0,0-2.82-4.46Z"/><path class="f" d="M404.21,34.61h.06v6.77H402v-.55h-2.86v.57h-2.18V35a5.88,5.88,0,0,1-.79.31,8.79,8.79,0,0,0-1.25-2.06,14.69,14.69,0,0,0,3.81-1.7l-1.15-.68L399,29.39l1.45.79a7.85,7.85,0,0,0,1.24-1.45H399a9.77,9.77,0,0,1-2.43,2.46,5.53,5.53,0,0,0-1.27-1.71,7.72,7.72,0,0,0,3.17-4.07l2,.39a8,8,0,0,1-.38,1h2.78l.37-.06,0,0V25.08h-5.92V27h-1.89V23h3.87c-.15-.48-.33-1-.48-1.39L401,20.9c.26.64.57,1.43.84,2.11h3.52v4h-1.72l1,.68a12.29,12.29,0,0,1-2.18,3.61c1.18.68,2.35,1.39,3.1,1.91Zm-.75,0c-.73-.53-1.7-1.15-2.73-1.79a14.46,14.46,0,0,1-2.8,1.79ZM402,38.81V36.63h-2.86v2.18Zm10.32-1.76a24.93,24.93,0,0,1,3.59,2.57l-1.5,1.78a27.18,27.18,0,0,0-3.65-2.88l1.3-1.47h-3.28l1.56,1.63a27,27,0,0,1-4.73,2.83,12.21,12.21,0,0,0-1.08-1.91,20.47,20.47,0,0,0,4.16-2.55H406.3V25.45h2.79c.09-.48.18-1,.24-1.52h-3.58v-2.2h9.83v2.2h-3.87c-.13.53-.31,1.06-.46,1.52H415v11.6Zm-3.67-8.32h3.94V27.45h-3.94Zm0,3.17h3.94V30.58h-3.94Zm0,3.14h3.94V33.75h-3.94Z"/><rect class="e" x="65.63" y="83.63" width="372.43" height="60.63" rx="16.64" ry="16.64"/><path class="f" d="M152.44,114.69a13,13,0,0,0,4.29,2.56,9.11,9.11,0,0,0-1.74,2,14.67,14.67,0,0,1-3.45-2.31v1.63h-4V120h7.18v2.15H138V120h6.91v-1.43H141v-1.37a15.1,15.1,0,0,1-3.5,2.25,10.14,10.14,0,0,0-1.68-2,13.14,13.14,0,0,0,4.45-2.77H136v-2.13h4.21V106h-3v-2.11h3v-1.65h2.61v1.65h6.89v-1.65h2.68v1.65h3V106h-3v6.56h4.08v2.13Zm-1.39,1.83a13.54,13.54,0,0,1-1.58-1.83h-6.21a13.38,13.38,0,0,1-1.56,1.83h3.17v-1.36h2.66v1.36ZM142.82,106v1h6.89v-1Zm0,3.74h6.89v-1h-6.89Zm0,2.82h6.89v-1h-6.89Z"/><path class="f" d="M172.37,109.15a18.73,18.73,0,0,0,6.18,8,10.94,10.94,0,0,0-2.06,2.29,15.15,15.15,0,0,1-2.34-2.27v1.92h-4.53v3.72h-2.77v-3.72h-4.62v-2a18.3,18.3,0,0,1-2.49,2.42,11.81,11.81,0,0,0-1.91-2.13,19.07,19.07,0,0,0,6.16-8.23H158.6v-2.66h8.25v-4.25h2.77v4.25h8.3v2.66Zm-5.52,7.24v-7.24h-.16a27.11,27.11,0,0,1-3.89,7.24Zm6.69,0a27.56,27.56,0,0,1-3.83-7.24h-.09v7.24Z"/><path class="f" d="M200.18,119.58v2.57H180.4v-2.57h8.49v-4.42h-6v-2.53h6v-3.88h-4.55a18.1,18.1,0,0,1-2.05,3.19,20.38,20.38,0,0,0-2.35-1.56,19,19,0,0,0,3.89-7.88l2.71.6c-.31,1.05-.66,2.09-1,3.1h3.39v-4h2.75v4h7.42v2.55h-7.42v3.88h6.58v2.53h-6.58v4.42Z"/><path class="f" d="M206.16,112.82c-.9-.64-2.79-1.67-4.09-2.37l1.41-1.94c1.21.59,3.17,1.54,4.13,2.13Zm-3.78,7.92a65.21,65.21,0,0,0,4.18-6.93l1.91,1.76c-1.16,2.31-2.55,4.82-3.89,7Zm4.73-13.92a44,44,0,0,0-4-2.42l1.48-1.9c1.23.62,3.14,1.59,4.09,2.2Zm9.74,4.29v2.77h4.49v8.78h-2.48v-.79h-6.63v.9h-2.35v-8.89h4.49v-2.77h-5.85V108.6h5.85V106c-1.45.22-2.91.38-4.29.51a9,9,0,0,0-.73-2.24,43.54,43.54,0,0,0,10.28-2.07l2,2.07a28.13,28.13,0,0,1-4.8,1.29v3h5.59v2.51Zm2,5.15h-6.63v3.23h6.63Z"/><path class="f" d="M239.32,119.42c1.8.62,3.58,1.28,4.75,1.81l-1.91,1.56a50.84,50.84,0,0,0-6.25-2.53l.83-.84h-5.37l1.61.75a27.77,27.77,0,0,1-6.89,2.64,14.06,14.06,0,0,0-1.89-1.89,27.28,27.28,0,0,0,5.74-1.5h-2.88v-6.53c-.51.11-1.06.22-1.63.31a8.87,8.87,0,0,0-1.25-2,11.38,11.38,0,0,0,5.13-1.54h-3.55a39.44,39.44,0,0,0,.64-4h4.2v-.88h-5v-1.54h5v-1H233v1h2.44v-1h2.49v1h4.66v3.93h-4.66v1H244s0,.42,0,.68c-.11,1.37-.24,2.14-.62,2.53a1.67,1.67,0,0,1-1.25.53l-.35,0v7.57Zm-11-11.33h2.09a4.46,4.46,0,0,0,.15-1h-2.09Zm1.27,4.38v.88h9.46v-.88Zm0,2.27v.9h9.46v-.9Zm0,3.21h9.46V117h-9.46Zm2.84-8.34a4.69,4.69,0,0,1-1,1.39h4v-1.39Zm3-2.49H233c0,.33,0,.66-.09,1h2.53ZM233,105.61h2.44v-.88H233Zm4.93-.88v.88h2.29v-.88Zm0,4.88V111h2a3.27,3.27,0,0,0-.31-.73,6.69,6.69,0,0,0,1.23.07.55.55,0,0,0,.46-.13,1.42,1.42,0,0,0,.16-.6Z"/><path class="f" d="M249.43,114.43l-3.6-5.9h3.47l1.24,2.2c.35.68.72,1.39,1.1,2.07h.08c.29-.68.62-1.39.9-2.07l1-2.2H257l-3.6,6.27,3.85,6h-3.48l-1.36-2.24c-.4-.73-.8-1.48-1.19-2.18h-.11c-.36.7-.69,1.43-1,2.18l-1.14,2.24h-3.35Z"/><path class="f" d="M276.78,111.83c-.88.68-1.87,1.39-2.83,2a9.1,9.1,0,0,0,5.14,5.79,9.29,9.29,0,0,0-1.73,2.13,11,11,0,0,1-5.46-6.6c-.22.15-.46.29-.68.42.61,2.64.08,5.17-1,6.09a3.29,3.29,0,0,1-2.62,1c-.48,0-1.14,0-1.78,0a5.82,5.82,0,0,0-.7-2.48,17.22,17.22,0,0,0,2,.11,1.21,1.21,0,0,0,1.19-.53,3.24,3.24,0,0,0,.63-2.22,34.82,34.82,0,0,1-8.88,4.22,10.68,10.68,0,0,0-1.37-2.18,25.72,25.72,0,0,0,9.88-4.48q-.13-.41-.33-.84a37,37,0,0,1-7.92,3.59,11.41,11.41,0,0,0-1.3-2,27.73,27.73,0,0,0,8.23-3.23c-.2-.25-.4-.49-.62-.73a29.3,29.3,0,0,1-6.11,2.31,13.29,13.29,0,0,0-1.34-2,26.37,26.37,0,0,0,7.08-2.42h-3.78v-2.22h12.29v2.22h-4.88a10.5,10.5,0,0,1-1.32,1,8.41,8.41,0,0,1,1.94,2.66,30.26,30.26,0,0,0,4.16-3.32Zm-15-2.9h-2.57v-5h8a10,10,0,0,0-.52-1.17l2.77-.79a11.37,11.37,0,0,1,.94,2h7.84v5h-2.69v-2.6H261.73Z"/><path class="f" d="M298.37,108v9.15h-2.69v-1.1H285.49a12.89,12.89,0,0,1-3.25,6.8,10.42,10.42,0,0,0-2-1.78c2.86-2.91,3.13-7.24,3.13-10.46v-6.38a73.73,73.73,0,0,0,12.45-2l2.07,2a76.59,76.59,0,0,1-11.88,2V108Zm-2.69,5.63v-3.21H286v.22c0,.9-.05,1.93-.13,3Z"/><path class="f" d="M313.9,102.24c0,.92-.07,2.11-.16,3.43.31,3,1.65,11.27,9.33,14.66a6.87,6.87,0,0,0-1.91,2.26c-4.89-2.33-7.33-6.62-8.61-10.41a17.9,17.9,0,0,1-8.09,10.54,8.36,8.36,0,0,0-2.18-2.13c8.93-4.77,8.51-14.63,8.6-18.35Z"/><path class="f" d="M343.27,104.37v17.91h-2.89v-1.73H328.72v1.78H326v-18Zm-2.89,13.47V107H328.72v10.8Z"/><path class="f" d="M365.4,108.51a29.88,29.88,0,0,1-1.89,8.3A9.41,9.41,0,0,0,367,120.7a6.92,6.92,0,0,0-1.47,1.78,10.55,10.55,0,0,1-3.19-3.47,12.62,12.62,0,0,1-3.94,3.89,8.06,8.06,0,0,0-1-1.58L356,122.53a22,22,0,0,0-2.84-1.52,23.05,23.05,0,0,1-6.16,1.63A6.76,6.76,0,0,0,346,121a25.5,25.5,0,0,0,4.64-1c-1-.39-2-.74-2.93-1a10.78,10.78,0,0,0,1-1.27l-2,.1-.2-1.73c1,0,2.12-.09,3.39-.16a13.37,13.37,0,0,0,.77-1.36h-3.23v-4h3.94v-.62h-3.35v-2.31h-1.67v-1.85h1.67v-2.22h3.35v-1.34h2v1.34h3.54v2.22h1.49v1.85h-1.49v2.31h-3.54v.62h4v1.6c1.45-2.35,2.18-6.09,2.58-9.88l2.2.29c-.16,1.23-.33,2.46-.57,3.65h5.21v2.29ZM349.6,113h1.81v-.82H349.6Zm.62-7.75v.7h1.19v-.7Zm1.19,3.08v-.79h-1.19v.79Zm-.6,9.86c.73.24,1.48.5,2.2.79a3.72,3.72,0,0,0,1.54-1.56l-3.34.17Zm6-.9a4.69,4.69,0,0,1-1.68,2.59c.8.35,1.5.71,2.12,1a9.72,9.72,0,0,0,3.91-4.2,33,33,0,0,1-1.3-4.38,11.08,11.08,0,0,1-.83,1.61,13.59,13.59,0,0,0-1.61-1.61v2.27H353c-.22.42-.46.84-.7,1.28l2.57-.14v-.77h2.05v.69l.7,0,0,1.65Zm-3.41-12v.7h1.27v-.7Zm1.27,3.08v-.79h-1.27v.79Zm-1.27,3.85V113h1.76v-.82Zm7.74-3.63a36.67,36.67,0,0,0,1.12,5.28,29.36,29.36,0,0,0,.95-5.28Z"/><line class="e" x1="399.01" y1="184.9" x2="399.01" y2="312.17"/><line class="e" x1="10.83" y1="184.9" x2="10.83" y2="312.17"/><line class="e" x1="787.19" y1="184.9" x2="787.19" y2="312.17"/><path class="f" d="M470.14,27.19v2.22H454.52V27.19Zm-15.62,5.17h15.62v2.22H454.52Z"/><path class="f" d="M477.89,31.13a14.47,14.47,0,0,1,4.33-10.56l2.09.92a13.76,13.76,0,0,0,0,19.28l-2.09.92A14.47,14.47,0,0,1,477.89,31.13Z"/><path class="f" d="M496.67,35.27h-1.93v4.22h-3V35.27h-6.93v-2.2l6.08-9.86h3.87V32.8h1.93Zm-4.95-2.47V29.48c0-.95.09-2.42.14-3.37h-.09c-.4.86-.84,1.76-1.3,2.64l-2.53,4Z"/><path class="f" d="M509.63,35.27H507.7v4.22h-3V35.27h-6.93v-2.2l6.07-9.86h3.88V32.8h1.93Zm-4.95-2.47V29.48c0-.95.09-2.42.13-3.37h-.08c-.4.86-.84,1.76-1.3,2.64l-2.53,4Z"/><path class="f" d="M516,24.11h-4.58V22H516V20.85h2.57V22h2.32v2.13h-2.32v.95H516Zm14.24,15c0,1.06-.18,1.61-.86,2a6,6,0,0,1-2.73.37,7.81,7.81,0,0,0-.53-1.69l-1.08.29a5.77,5.77,0,0,0-.26-1.1c-3.12.22-6.34.39-8.67.55l-.2-2.2,4-.18V35.4h-5v6h-2.51v-6h-.84V33.31h.84v-.62H515v.62h5v-.93h-6.07v-7h14.83v7h-6.25v.93h7.79Zm-13.87-11H520v-1h-3.57Zm3.57,2.6v-1h-3.57v1ZM531,22v2.13h-4.69v.95h-2.57v-.95H521.6V22h2.18V20.85h2.57V22Zm-5,5.1h-3.61v1h3.61Zm0,2.62h-3.61v1h3.61Zm-2,7.17c-.15-.35-.33-.7-.5-1l1.84-.46h-2.92V37Zm3.37,2.44c.22,0,.28-.06.28-.28V35.4h-2.2a14.34,14.34,0,0,1,1.57,3.91Z"/><path class="f" d="M551.06,32.27h-6.69V39h-2.24V32.27h-6.69V30h6.69V23.34h2.24V30h6.69Z"/><path class="f" d="M556.05,36.87h3.5V26.57H556.6v-2a10.5,10.5,0,0,0,3.78-1.36h2.4V36.87h3.06v2.62h-9.79Z"/><path class="f" d="M568.24,35.44A4.72,4.72,0,0,1,571,31.2v-.12a4.64,4.64,0,0,1-2.16-3.87c0-2.62,2.07-4.29,4.91-4.29s4.73,1.74,4.73,4.34A4.72,4.72,0,0,1,576.42,31v.11a4.74,4.74,0,0,1,2.73,4.36c0,2.47-2.18,4.36-5.48,4.36C570.57,39.8,568.24,38,568.24,35.44Zm7.9-.11c0-1.69-1.5-2.4-3.61-3.25a3.9,3.9,0,0,0-1.5,3,2.5,2.5,0,0,0,2.73,2.42A2.14,2.14,0,0,0,576.14,35.33Zm-.27-7.88a2.07,2.07,0,0,0-2.15-2.26,1.89,1.89,0,0,0-2,2c0,1.54,1.25,2.29,3,3A3.89,3.89,0,0,0,575.87,27.45Z"/><path class="f" d="M585.93,24.11h-4.58V22h4.58V20.85h2.57V22h2.31v2.13H588.5v.95h-2.57Zm14.23,15c0,1.06-.17,1.61-.86,2a6,6,0,0,1-2.72.37,7.81,7.81,0,0,0-.53-1.69L595,40a6.64,6.64,0,0,0-.26-1.1c-3.13.22-6.34.39-8.67.55l-.2-2.2,4-.18V35.4h-5v6h-2.5v-6h-.84V33.31h.84v-.62h2.5v.62h5v-.93h-6.07v-7h14.83v7h-6.25v.93h7.79Zm-13.86-11h3.56v-1H586.3Zm3.56,2.6v-1H586.3v1ZM601,22v2.13h-4.68v.95h-2.58v-.95h-2.18V22h2.18V20.85h2.58V22Zm-5,5.1h-3.61v1H596Zm0,2.62h-3.61v1H596Zm-2,7.17c-.16-.35-.33-.7-.51-1l1.85-.46h-2.93V37Zm3.36,2.44c.22,0,.29-.06.29-.28V35.4h-2.2A14.62,14.62,0,0,1,597,39.31Z"/><path class="f" d="M621,32.27h-6.68V39H612V32.27h-6.69V30H612V23.34h2.25V30H621Z"/><path class="f" d="M626,36.87h3.49V26.57h-2.94v-2a10.57,10.57,0,0,0,3.78-1.36h2.4V36.87h3.06v2.62H626Z"/><path class="f" d="M638.07,37.62c4.42-4,7-7,7-9.53a2.34,2.34,0,0,0-2.45-2.64,4.24,4.24,0,0,0-3,1.67l-1.76-1.76a6.62,6.62,0,0,1,5.17-2.46,4.78,4.78,0,0,1,5.13,5c0,2.95-2.44,6.11-5.41,9,.81-.09,1.89-.18,2.64-.18H649v2.73H638.07Z"/><path class="f" d="M655.84,24.11h-4.58V22h4.58V20.85h2.58V22h2.31v2.13h-2.31v.95h-2.58Zm14.24,15c0,1.06-.18,1.61-.86,2a6,6,0,0,1-2.73.37,7.81,7.81,0,0,0-.53-1.69l-1.08.29a5.77,5.77,0,0,0-.26-1.1c-3.12.22-6.34.39-8.67.55l-.2-2.2,4-.18V35.4h-4.95v6h-2.51v-6h-.84V33.31h.84v-.62h2.51v.62h4.95v-.93h-6.07v-7h14.83v7h-6.25v.93h7.79Zm-13.87-11h3.57v-1h-3.57Zm3.57,2.6v-1h-3.57v1ZM670.87,22v2.13h-4.69v.95h-2.57v-.95h-2.18V22h2.18V20.85h2.57V22Zm-5,5.1h-3.61v1h3.61Zm0,2.62h-3.61v1h3.61Zm-2,7.17c-.15-.35-.33-.7-.5-1l1.84-.46h-2.92V37Zm3.37,2.44c.22,0,.28-.06.28-.28V35.4h-2.2a14.34,14.34,0,0,1,1.57,3.91Z"/><path class="f" d="M673.11,35.44a4.73,4.73,0,0,1,2.79-4.24v-.12a4.63,4.63,0,0,1-2.15-3.87c0-2.62,2.07-4.29,4.91-4.29s4.73,1.74,4.73,4.34A4.74,4.74,0,0,1,681.3,31v.11A4.75,4.75,0,0,1,684,35.44c0,2.47-2.17,4.36-5.48,4.36C675.44,39.8,673.11,38,673.11,35.44Zm7.9-.11c0-1.69-1.5-2.4-3.61-3.25a3.9,3.9,0,0,0-1.5,3,2.5,2.5,0,0,0,2.73,2.42A2.14,2.14,0,0,0,681,35.33Zm-.26-7.88a2.07,2.07,0,0,0-2.16-2.26,1.89,1.89,0,0,0-2,2c0,1.54,1.25,2.29,3,3A3.9,3.9,0,0,0,680.75,27.45Z"/><path class="f" d="M691.48,31.13a14.51,14.51,0,0,1-4.33,10.56l-2.09-.92a13.76,13.76,0,0,0,0-19.28l2.09-.92A14.51,14.51,0,0,1,691.48,31.13Z"/><path class="f" d="M714.85,27.19v2.22H699.22V27.19Zm-15.63,5.17h15.63v2.22H699.22Z"/><path class="f" d="M726.46,25.91h-7.33v-2.7H730v2c-3.78,4.62-4.29,7.94-4.55,14.32h-3.28C722.41,33.83,723.36,30.23,726.46,25.91Z"/><path class="f" d="M743.34,35.27H741.4v4.22h-3V35.27h-6.93v-2.2l6.08-9.86h3.87V32.8h1.94Zm-5-2.47V29.48c0-.95.09-2.42.14-3.37h-.09c-.4.86-.84,1.76-1.3,2.64l-2.53,4Z"/><path class="f" d="M749.71,24.11h-4.57V22h4.57V20.85h2.58V22h2.31v2.13h-2.31v.95h-2.58Zm14.24,15c0,1.06-.17,1.61-.86,2a6,6,0,0,1-2.73.37,7.25,7.25,0,0,0-.52-1.69l-1.08.29a5.85,5.85,0,0,0-.27-1.1c-3.12.22-6.33.39-8.66.55l-.2-2.2,4-.18V35.4H748.7v6h-2.51v-6h-.83V33.31h.83v-.62h2.51v.62h4.95v-.93h-6.07v-7h14.83v7h-6.25v.93H764Zm-13.86-11h3.56v-1h-3.56Zm3.56,2.6v-1h-3.56v1ZM764.74,22v2.13h-4.68v.95h-2.58v-.95H755.3V22h2.18V20.85h2.58V22Zm-5,5.1h-3.61v1h3.61Zm0,2.62h-3.61v1h3.61Zm-2,7.17c-.16-.35-.33-.7-.51-1l1.85-.46h-2.93V37Zm3.36,2.44c.22,0,.29-.06.29-.28V35.4h-2.2a14.62,14.62,0,0,1,1.56,3.91Z"/><path class="f" d="M767,35.44a4.73,4.73,0,0,1,2.8-4.24v-.12a4.62,4.62,0,0,1-2.16-3.87c0-2.62,2.07-4.29,4.91-4.29s4.73,1.74,4.73,4.34A4.72,4.72,0,0,1,775.17,31v.11a4.74,4.74,0,0,1,2.73,4.36c0,2.47-2.18,4.36-5.48,4.36C769.32,39.8,767,38,767,35.44Zm7.9-.11c0-1.69-1.49-2.4-3.6-3.25a3.87,3.87,0,0,0-1.5,3,2.5,2.5,0,0,0,2.73,2.42A2.13,2.13,0,0,0,774.88,35.33Zm-.26-7.88a2.07,2.07,0,0,0-2.16-2.26,1.89,1.89,0,0,0-2,2c0,1.54,1.26,2.29,3,3A3.86,3.86,0,0,0,774.62,27.45Z"/><path class="f" d="M470.14,108.55v2.23H454.52v-2.23Zm-15.62,5.18h15.62V116H454.52Z"/><path class="f" d="M477.89,112.49a14.47,14.47,0,0,1,4.33-10.56l2.09.93a13.75,13.75,0,0,0,0,19.27l-2.09.92A14.47,14.47,0,0,1,477.89,112.49Z"/><path class="f" d="M486.13,118.24h3.5v-10.3h-2.95v-2a10.62,10.62,0,0,0,3.79-1.37h2.4v13.67h3.06v2.61h-9.8Z"/><path class="f" d="M507.39,108.05a3.53,3.53,0,0,0-2.51-1.19c-1.87,0-3.41,1.41-3.54,5.48a4.72,4.72,0,0,1,3.34-1.74c2.73,0,4.67,1.63,4.67,5.13a5.1,5.1,0,0,1-5.11,5.43c-3.1,0-5.85-2.48-5.85-8.23,0-6.07,3-8.67,6.29-8.67a6,6,0,0,1,4.42,1.85Zm-1,7.68c0-1.94-.9-2.84-2.3-2.84a3.21,3.21,0,0,0-2.67,1.72c.31,3,1.41,4.11,2.77,4.11C505.38,118.72,506.37,117.71,506.37,115.73Z"/><path class="f" d="M511.81,119.05a2,2,0,1,1,2,2.11A2,2,0,0,1,511.81,119.05Z"/><path class="f" d="M527.5,108.05a3.57,3.57,0,0,0-2.51-1.19c-1.87,0-3.41,1.41-3.55,5.48a4.74,4.74,0,0,1,3.35-1.74c2.73,0,4.66,1.63,4.66,5.13a5.09,5.09,0,0,1-5.1,5.43c-3.1,0-5.85-2.48-5.85-8.23,0-6.07,3-8.67,6.29-8.67a6,6,0,0,1,4.42,1.85Zm-1,7.68c0-1.94-.9-2.84-2.31-2.84a3.2,3.2,0,0,0-2.66,1.72c.31,3,1.41,4.11,2.77,4.11S526.48,117.71,526.48,115.73Z"/><path class="f" d="M536.12,105.47h-4.58v-2.13h4.58v-1.12h2.57v1.12H541v2.13h-2.31v1h-2.57Zm14.23,15c0,1-.17,1.6-.85,2a5.9,5.9,0,0,1-2.73.38,7.89,7.89,0,0,0-.53-1.7l-1.08.29a6,6,0,0,0-.26-1.1c-3.13.22-6.34.4-8.67.55l-.2-2.2,4-.18v-1.67h-4.95v6H532.6v-6h-.84v-2.09h.84v-.61h2.51v.61h4.95v-.92H534v-7h14.83v7h-6.24v.92h7.78Zm-13.86-11h3.57v-1h-3.57Zm3.57,2.59v-1h-3.57v1Zm11.09-8.71v2.13h-4.69v1h-2.57v-1h-2.18v-2.13h2.18v-1.12h2.57v1.12Zm-5,5.1h-3.6v1h3.6Zm0,2.62h-3.6v1h3.6Zm-2,7.18a8.82,8.82,0,0,0-.51-1l1.85-.46h-2.92v1.56Zm3.37,2.44c.22,0,.28-.07.28-.29v-3.63h-2.2a14.35,14.35,0,0,1,1.56,3.92Z"/><path class="f" d="M556.56,114.43l-3.61-5.9h3.47l1.24,2.2c.35.69.72,1.39,1.1,2.07h.08c.29-.68.62-1.38.91-2.07l1-2.2h3.34l-3.6,6.27,3.85,6h-3.48l-1.36-2.24-1.19-2.18h-.11c-.35.71-.68,1.43-1,2.18l-1.14,2.24h-3.34Z"/><path class="f" d="M565.29,118.94l1.5-2.07a5,5,0,0,0,3.58,1.65,2.73,2.73,0,0,0,2.88-3,2.64,2.64,0,0,0-2.75-3,3.89,3.89,0,0,0-2.44.86l-1.47-1,.44-7.9h8.71v2.71h-5.92l-.31,3.45a4.19,4.19,0,0,1,2-.46c2.73,0,5,1.63,5,5.17a5.5,5.5,0,0,1-5.7,5.72A7.41,7.41,0,0,1,565.29,118.94Z"/><path class="f" d="M590,102.24c0,.92-.06,2.11-.15,3.43.31,3,1.65,11.27,9.33,14.66a6.87,6.87,0,0,0-1.91,2.26c-4.89-2.33-7.33-6.62-8.61-10.4a17.91,17.91,0,0,1-8.09,10.53,8.52,8.52,0,0,0-2.18-2.13c8.93-4.77,8.51-14.63,8.6-18.35Z"/><path class="f" d="M606.12,112.49a14.51,14.51,0,0,1-4.33,10.56l-2.09-.92a13.75,13.75,0,0,0,0-19.27l2.09-.93A14.51,14.51,0,0,1,606.12,112.49Z"/><path class="f" d="M629.49,108.55v2.23H613.87v-2.23Zm-15.62,5.18h15.62V116H613.87Z"/><path class="f" d="M633.71,116.81a4.75,4.75,0,0,1,2.79-4.25v-.11a4.63,4.63,0,0,1-2.15-3.87c0-2.62,2.07-4.29,4.9-4.29S644,106,644,108.62a4.73,4.73,0,0,1-2.09,3.72v.11a4.72,4.72,0,0,1,2.73,4.36c0,2.46-2.18,4.35-5.48,4.35C636,121.16,633.71,119.36,633.71,116.81Zm7.9-.11c0-1.7-1.5-2.4-3.61-3.26a3.9,3.9,0,0,0-1.5,3,2.49,2.49,0,0,0,2.73,2.42A2.13,2.13,0,0,0,641.61,116.7Zm-.27-7.88a2.07,2.07,0,0,0-2.15-2.27,1.9,1.9,0,0,0-2,2c0,1.54,1.25,2.29,3,3A3.91,3.91,0,0,0,641.34,108.82Z"/><path class="f" d="M646.21,118.9l1.51-2.05a5.16,5.16,0,0,0,3.63,1.67c1.65,0,2.78-.81,2.78-2.26,0-1.61-1-2.6-4.49-2.6v-2.33c3,0,4-1,4-2.49a2,2,0,0,0-2.18-2,4.69,4.69,0,0,0-3.08,1.46l-1.65-2a7.2,7.2,0,0,1,4.88-2c3.15,0,5.28,1.54,5.28,4.34a3.87,3.87,0,0,1-2.72,3.72v.11a4.07,4.07,0,0,1,3.25,4c0,3-2.62,4.73-5.72,4.73A6.93,6.93,0,0,1,646.21,118.9Z"/><path class="f" d="M664.36,105.47h-4.58v-2.13h4.58v-1.12h2.57v1.12h2.31v2.13h-2.31v1h-2.57Zm14.23,15c0,1-.17,1.6-.86,2a5.86,5.86,0,0,1-2.73.38,7.32,7.32,0,0,0-.52-1.7l-1.08.29a6,6,0,0,0-.27-1.1c-3.12.22-6.33.4-8.66.55l-.2-2.2,4-.18v-1.67h-4.95v6h-2.51v-6H660v-2.09h.83v-.61h2.51v.61h4.95v-.92h-6.07v-7h14.83v7H670.8v.92h7.79Zm-13.86-11h3.56v-1h-3.56Zm3.56,2.59v-1h-3.56v1Zm11.09-8.71v2.13H674.7v1h-2.58v-1h-2.18v-2.13h2.18v-1.12h2.58v1.12Zm-5,5.1H670.8v1h3.61Zm0,2.62H670.8v1h3.61Zm-2,7.18a10.77,10.77,0,0,0-.51-1l1.85-.46H670.8v1.56Zm3.36,2.44c.22,0,.29-.07.29-.29v-3.63h-2.2a14.68,14.68,0,0,1,1.56,3.92Z"/><path class="f" d="M698.46,120c.72,0,.86-.57,1-3.74a7.19,7.19,0,0,0,2.42,1.1c-.27,3.94-.93,5.08-3.17,5.08H696c-2.49,0-3.13-.83-3.13-3.41v-6.73h-3.3c-.39,4.58-1.41,8.34-6.66,10.47a7.71,7.71,0,0,0-1.63-2.13c4.57-1.72,5.19-4.69,5.45-8.34h-5V109.7h19.63v2.55h-5.81V119c0,.84.13,1,.86,1Zm.94-13.66H683.78v-2.53H699.4Z"/><circle class="f" cx="31.37" cy="32.58" r="20.54" transform="translate(-7.55 55.63) rotate(-76.72)"/><path class="g" d="M28.71,33.89l-1.54,4.67h-2l5-14.83h2.31L37.6,38.56H35.55L34,33.89Zm4.86-1.49-1.45-4.27c-.33-1-.55-1.85-.77-2.71h0c-.22.88-.47,1.78-.75,2.69L29.11,32.4Z"/><circle class="f" cx="31.37" cy="113.95" r="20.54" transform="translate(-71.38 55.56) rotate(-45)"/><path class="g" d="M27.08,105.29a18.27,18.27,0,0,1,3.5-.31,6.12,6.12,0,0,1,4.07,1.08,3.1,3.1,0,0,1,1.23,2.62,3.5,3.5,0,0,1-2.51,3.25v0a3.82,3.82,0,0,1,3.06,3.72,4,4,0,0,1-1.25,3c-1,.94-2.71,1.38-5.13,1.38a22.28,22.28,0,0,1-3-.17ZM29,111.36h1.73c2,0,3.22-1,3.22-2.48,0-1.74-1.32-2.42-3.26-2.42a7.87,7.87,0,0,0-1.69.13Zm0,7.11a9.62,9.62,0,0,0,1.6.09c2,0,3.81-.73,3.81-2.89s-1.74-2.86-3.83-2.86H29Z"/><path class="f" d="M40.36,232.21h6v2H43.22V255.5h3.09v2.08h-6Z"/><path class="f" d="M49.69,250h4.13V237.82H50.34v-2.36a12.68,12.68,0,0,0,4.47-1.61h2.84V250h3.61v3.1H49.69Z"/><path class="f" d="M64,243.39c0-6.66,2.61-9.91,6.53-9.91s6.5,3.28,6.5,9.91-2.6,10.06-6.5,10.06S64,250,64,243.39Zm9.42,0c0-5.38-1.25-6.94-2.89-6.94s-2.91,1.56-2.91,6.94,1.25,7.07,2.91,7.07S73.43,248.8,73.43,243.39Z"/><path class="f" d="M79.33,243.39c0-6.66,2.6-9.91,6.52-9.91s6.51,3.28,6.51,9.91-2.61,10.06-6.51,10.06S79.33,250,79.33,243.39Zm9.41,0c0-5.38-1.25-6.94-2.89-6.94s-2.91,1.56-2.91,6.94,1.25,7.07,2.91,7.07S88.74,248.8,88.74,243.39Z"/><path class="f" d="M100.31,234.91H94.9v-2.52h5.41v-1.33h3v1.33h2.73v2.52h-2.73V236h-3Zm16.82,17.68c0,1.25-.21,1.9-1,2.32a7.18,7.18,0,0,1-3.23.44,8.35,8.35,0,0,0-.62-2l-1.27.33a7.65,7.65,0,0,0-.32-1.3c-3.69.26-7.48.47-10.24.66l-.23-2.61,4.75-.2v-2H99.11v7.05h-3v-7.05h-1v-2.47h1v-.73h3v.73H105v-1.09H97.79v-8.27h17.52v8.27h-7.38v1.09h9.2Zm-16.38-13H105v-1.2h-4.21Zm4.21,3.07v-1.17h-4.21v1.17Zm13.11-10.3v2.52h-5.54V236h-3v-1.12h-2.57v-2.52h2.57v-1.33h3v1.33Zm-5.88,6h-4.26v1.2h4.26Zm0,3.1h-4.26v1.17h4.26ZM109.8,250a12,12,0,0,0-.6-1.19l2.19-.55h-3.46v1.85Zm4,2.89c.26,0,.34-.08.34-.34v-4.29h-2.6a17.23,17.23,0,0,1,1.84,4.63Z"/><path class="f" d="M120.77,244.27h7.1V247h-7.1Z"/><path class="f" d="M131.33,244.87a24.92,24.92,0,0,1,3.87-13.44l2.39,1a26,26,0,0,0,0,24.89l-2.39,1A25,25,0,0,1,131.33,244.87Z"/><path class="f" d="M148.9,237h-8.65v-3.19H153v2.31c-4.47,5.46-5.07,9.39-5.38,16.93h-3.88C144.12,246.4,145.24,242.14,148.9,237Z"/><path class="f" d="M168.85,248.09h-2.29v5H163v-5h-8.19v-2.6L162,233.85h4.58v11.33h2.29ZM163,245.18v-3.92c0-1.12.1-2.86.15-4h-.1c-.47,1-1,2.08-1.54,3.12l-3,4.78Z"/><path class="f" d="M176.39,234.91H171v-2.52h5.41v-1.33h3v1.33h2.73v2.52h-2.73V236h-3Zm16.82,17.68c0,1.25-.21,1.9-1,2.32a7.13,7.13,0,0,1-3.22.44,8.83,8.83,0,0,0-.62-2l-1.28.33a6.73,6.73,0,0,0-.31-1.3c-3.69.26-7.49.47-10.24.66l-.24-2.61,4.76-.2v-2h-5.85v7.05h-3v-7.05h-1v-2.47h1v-.73h3v.73H181v-1.09h-7.18v-8.27h17.53v8.27H184v1.09h9.21Zm-16.38-13H181v-1.2h-4.21Zm4.21,3.07v-1.17h-4.21v1.17Zm13.1-10.3v2.52h-5.53V236h-3.05v-1.12H183v-2.52h2.57v-1.33h3.05v1.33Zm-5.87,6H184v1.2h4.27Zm0,3.1H184v1.17h4.27ZM185.88,250c-.19-.41-.39-.83-.6-1.19l2.18-.55H184v1.85Zm4,2.89c.26,0,.34-.08.34-.34v-4.29h-2.6a17.27,17.27,0,0,1,1.85,4.63Z"/><path class="f" d="M196.79,248.3a5.61,5.61,0,0,1,3.31-5v-.13a5.47,5.47,0,0,1-2.55-4.57c0-3.1,2.44-5.07,5.8-5.07s5.59,2.05,5.59,5.12a5.6,5.6,0,0,1-2.47,4.39v.13a5.61,5.61,0,0,1,3.22,5.15c0,2.91-2.57,5.15-6.47,5.15C199.55,253.45,196.79,251.32,196.79,248.3Zm9.34-.13c0-2-1.77-2.83-4.26-3.85a4.66,4.66,0,0,0-1.77,3.57,3,3,0,0,0,3.22,2.86A2.53,2.53,0,0,0,206.13,248.17Zm-.31-9.31a2.45,2.45,0,0,0-2.55-2.67,2.23,2.23,0,0,0-2.34,2.39c0,1.82,1.48,2.7,3.51,3.51A4.6,4.6,0,0,0,205.82,238.86Z"/><path class="f" d="M212.24,257.33a26,26,0,0,0,0-24.89l2.37-1a25.16,25.16,0,0,1,0,26.91Z"/><path class="f" d="M222,255.5h3.1V234.24H222v-2h6v25.37h-6Z"/><path class="f" d="M235.51,245.49l-4.26-7h4.1l1.46,2.6c.42.8.86,1.63,1.3,2.44h.1c.34-.81.73-1.64,1.07-2.44l1.22-2.6h3.95l-4.26,7.41,4.55,7.15h-4.11L239,250.43c-.47-.85-.94-1.74-1.4-2.57h-.13c-.42.83-.81,1.69-1.23,2.57l-1.35,2.66H231Z"/><path class="f" d="M245.83,250.83l1.77-2.45a6,6,0,0,0,4.24,2,3.23,3.23,0,0,0,3.4-3.54c0-2.23-1.3-3.48-3.25-3.48a4.62,4.62,0,0,0-2.88,1l-1.75-1.14.52-9.33h10.3V237h-7l-.37,4.09a4.93,4.93,0,0,1,2.32-.55c3.22,0,5.92,1.92,5.92,6.11a6.5,6.5,0,0,1-6.73,6.76A8.81,8.81,0,0,1,245.83,250.83Z"/><path class="f" d="M261.3,239.54c0-3.85,1.92-6.06,4.68-6.06s4.71,2.21,4.71,6.06-1.95,6.14-4.71,6.14S261.3,243.41,261.3,239.54Zm6.68,0c0-2.83-.88-3.9-2-3.9s-2,1.07-2,3.9.86,4,2,4S268,242.38,268,239.54Zm9.1-6.06h2.27l-10.48,20h-2.24Zm-1.79,13.83c0-3.87,1.95-6.08,4.68-6.08s4.71,2.21,4.71,6.08-2,6.14-4.71,6.14S275.29,251.16,275.29,247.31Zm6.68,0c0-2.83-.88-3.92-2-3.92s-2,1.09-2,3.92.88,4,2,4S282,250.15,282,247.31Z"/><path class="f" d="M287.69,244.87a24.92,24.92,0,0,1,3.87-13.44l2.4,1a25.94,25.94,0,0,0,0,24.89l-2.4,1A25,25,0,0,1,287.69,244.87Z"/><path class="f" d="M317.12,252.31c.42,0,.52-.34.6-2.81a7,7,0,0,0,2.65,1.2c-.31,3.48-1.06,4.44-2.88,4.44h-1.77c-2.37,0-2.86-.93-2.86-3.64v-5.2h-1.33c-.36,4.13-1.4,7.33-5.72,9.2a9.18,9.18,0,0,0-1.79-2.39c3.56-1.4,4.24-3.77,4.52-6.81H306.9v-7c-.2.18-.39.36-.59.52a15.18,15.18,0,0,0-1.07-1.2v2.68h-2.68v.39c.65.63,2.63,3,3,3.51l-1.74,2.5c-.26-.65-.78-1.67-1.3-2.63v10.3h-2.81v-9.6a23.76,23.76,0,0,1-2.54,5.57,20.06,20.06,0,0,0-1.43-3.07,27.74,27.74,0,0,0,3.17-7h-2.78V238.4h3.58v-3.15c-.85.16-1.71.31-2.52.42a11,11,0,0,0-.86-2.4,33.86,33.86,0,0,0,7.54-2.1l1.8,2.52a21.16,21.16,0,0,1-3.15,1v3.75H305a12.3,12.3,0,0,0-.91-.84,16.83,16.83,0,0,0,5.05-6.08l2.86.91a25,25,0,0,1-3.88,5.62h9.21A47.71,47.71,0,0,0,313,232.6l2.16-1.48a41.69,41.69,0,0,1,5.49,6.78l-2.34,1.69c-.11-.21-.24-.41-.39-.67v7.38h-2.08v5.17c0,.76,0,.84.41.84Zm-7.28-8.71h5v-2.89h-5Z"/><path class="f" d="M338.16,246.46a11,11,0,0,0-.5-1.28c-6.21.63-7.2.78-7.85,1.07a19.91,19.91,0,0,0-.83-2.47c-1.72.91-3.54,1.85-5.07,2.57l-1.48-2.47c1.63-.6,4.08-1.64,6.47-2.62l.57,2.26-.47.26a5.77,5.77,0,0,0,2.21-1.33,26.65,26.65,0,0,0,2.06-1.82,11.24,11.24,0,0,0-3,.44,24,24,0,0,0-.83-2.41,2.6,2.6,0,0,0,1.2-.89c.23-.28.78-1,1.38-1.84h-8.87v-2.79h9.67c-.28-.52-.6-1.06-.88-1.48l3.14-.73a13.43,13.43,0,0,1,1.43,2.21h9.26v2.79H335.06a22,22,0,0,1-1.79,2.31l2.36-.08a22,22,0,0,0,1.67-2.1l2.36,1.4a43.56,43.56,0,0,1-5.92,5.77l2.73-.21a14.77,14.77,0,0,0-.89-1.3l2.26-.8c.39.52.84,1.09,1.23,1.69l1.71-1.35a32.83,32.83,0,0,1,5.18,3.3l-2.24,1.87a26.22,26.22,0,0,0-4.16-3,10.52,10.52,0,0,1,1,2.11Zm8,4.1H336v4.74h-3.3v-4.74H322.5v-2.85h10.17V246H336v1.75h10.2ZM327,241.1a21.54,21.54,0,0,0-3.82-2.94l2-1.64a22.72,22.72,0,0,1,4,2.76Zm12.17-1.46a21.62,21.62,0,0,0,3.33-3.22l2.57,1.48a29.46,29.46,0,0,1-3.61,3.17Z"/><path class="f" d="M354.93,243.21a17.14,17.14,0,0,1-5.13,12.48l-2.47-1.1a16.24,16.24,0,0,0,0-22.77l2.47-1.09A17.11,17.11,0,0,1,354.93,243.21Z"/><path class="f" d="M175.87,278.55v2.63H157.41v-2.63Zm-18.46,6.11h18.46v2.63H157.41Z"/><path class="f" d="M181.77,290h4.13V277.82h-3.48v-2.36a12.68,12.68,0,0,0,4.47-1.61h2.84V290h3.61v3.1H181.77Z"/><path class="f" d="M196.07,290.88c5.22-4.68,8.32-8.3,8.32-11.26,0-1.95-1.07-3.12-2.89-3.12a5,5,0,0,0-3.53,2l-2.08-2.08a7.79,7.79,0,0,1,6.11-2.91c3.64,0,6.05,2.34,6.05,5.93s-2.88,7.23-6.39,10.66c1-.1,2.23-.21,3.12-.21H209v3.23H196.07Z"/><path class="f" d="M222.2,278a4.19,4.19,0,0,0-3-1.4c-2.22,0-4,1.66-4.19,6.47a5.6,5.6,0,0,1,3.95-2c3.23,0,5.51,1.92,5.51,6.06,0,4-2.75,6.42-6,6.42-3.67,0-6.92-2.94-6.92-9.72,0-7.18,3.57-10.25,7.44-10.25a7.13,7.13,0,0,1,5.23,2.19ZM221,287c0-2.29-1.06-3.36-2.73-3.36a3.8,3.8,0,0,0-3.14,2c.36,3.51,1.66,4.86,3.27,4.86C219.83,290.56,221,289.37,221,287Z"/><path class="f" d="M226.72,283.39c0-6.66,2.6-9.91,6.53-9.91s6.5,3.28,6.5,9.91-2.6,10.06-6.5,10.06S226.72,290,226.72,283.39Zm9.41,0c0-5.38-1.24-6.94-2.88-6.94s-2.91,1.56-2.91,6.94,1.24,7.07,2.91,7.07S236.13,288.8,236.13,283.39Z"/><path class="f" d="M242,283.39c0-6.66,2.6-9.91,6.52-9.91s6.5,3.28,6.5,9.91-2.6,10.06-6.5,10.06S242,290,242,283.39Zm9.41,0c0-5.38-1.25-6.94-2.89-6.94s-2.91,1.56-2.91,6.94,1.25,7.07,2.91,7.07S251.45,288.8,251.45,283.39Z"/><path class="f" d="M479.51,232.21h5.95v2h-3.09V255.5h3.09v2.08h-5.95Z"/><path class="f" d="M488.84,250H493V237.82h-3.49v-2.36a12.6,12.6,0,0,0,4.47-1.61h2.84V250h3.61v3.1H488.84Z"/><path class="f" d="M503.17,243.39c0-6.66,2.6-9.91,6.52-9.91s6.5,3.28,6.5,9.91-2.6,10.06-6.5,10.06S503.17,250,503.17,243.39Zm9.41,0c0-5.38-1.25-6.94-2.89-6.94s-2.91,1.56-2.91,6.94,1.25,7.07,2.91,7.07S512.58,248.8,512.58,243.39Z"/><path class="f" d="M518.48,243.39c0-6.66,2.6-9.91,6.53-9.91s6.5,3.28,6.5,9.91-2.6,10.06-6.5,10.06S518.48,250,518.48,243.39Zm9.41,0c0-5.38-1.24-6.94-2.88-6.94s-2.92,1.56-2.92,6.94,1.25,7.07,2.92,7.07S527.89,248.8,527.89,243.39Z"/><path class="f" d="M539.46,234.91h-5.41v-2.52h5.41v-1.33h3v1.33h2.74v2.52H542.5V236h-3Zm16.82,17.68c0,1.25-.2,1.9-1,2.32a7.16,7.16,0,0,1-3.22.44,8.87,8.87,0,0,0-.63-2l-1.27.33a7.55,7.55,0,0,0-.31-1.3c-3.7.26-7.49.47-10.25.66l-.23-2.61,4.76-.2v-2h-5.85v7.05h-3v-7.05h-1v-2.47h1v-.73h3v.73h5.85v-1.09h-7.18v-8.27h17.52v8.27h-7.38v1.09h9.2Zm-16.38-13h4.22v-1.2H539.9Zm4.22,3.07v-1.17H539.9v1.17Zm13.1-10.3v2.52h-5.54V236h-3v-1.12h-2.57v-2.52h2.57v-1.33h3v1.33Zm-5.88,6h-4.26v1.2h4.26Zm0,3.1h-4.26v1.17h4.26ZM549,250a12,12,0,0,0-.6-1.19l2.19-.55h-3.46v1.85Zm4,2.89c.26,0,.34-.08.34-.34v-4.29h-2.6a17.23,17.23,0,0,1,1.84,4.63Z"/><path class="f" d="M559.92,244.27H567V247h-7.1Z"/><path class="f" d="M570.48,244.87a24.92,24.92,0,0,1,3.87-13.44l2.4,1a26,26,0,0,0,0,24.88l-2.4,1A25,25,0,0,1,570.48,244.87Z"/><path class="f" d="M579.32,248.3a5.62,5.62,0,0,1,3.3-5v-.13a5.47,5.47,0,0,1-2.54-4.57c0-3.1,2.44-5.07,5.79-5.07s5.59,2.05,5.59,5.12A5.58,5.58,0,0,1,589,243v.13a5.62,5.62,0,0,1,3.23,5.15c0,2.91-2.58,5.15-6.48,5.15C582.08,253.45,579.32,251.32,579.32,248.3Zm9.34-.13c0-2-1.77-2.83-4.27-3.85a4.66,4.66,0,0,0-1.77,3.57,3,3,0,0,0,3.23,2.86A2.53,2.53,0,0,0,588.66,248.17Zm-.32-9.31a2.44,2.44,0,0,0-2.55-2.67,2.24,2.24,0,0,0-2.34,2.39c0,1.82,1.49,2.7,3.51,3.51A4.6,4.6,0,0,0,588.34,238.86Z"/><path class="f" d="M594.09,250.77l1.79-2.42a6.12,6.12,0,0,0,4.29,2c2,0,3.28-1,3.28-2.68,0-1.9-1.12-3.07-5.31-3.07v-2.75c3.54,0,4.68-1.22,4.68-2.94a2.3,2.3,0,0,0-2.57-2.42,5.5,5.5,0,0,0-3.64,1.72l-2-2.34a8.51,8.51,0,0,1,5.77-2.37c3.72,0,6.24,1.82,6.24,5.12a4.57,4.57,0,0,1-3.22,4.4v.13a4.81,4.81,0,0,1,3.85,4.73c0,3.54-3.1,5.59-6.76,5.59A8.15,8.15,0,0,1,594.09,250.77Z"/><path class="f" d="M615.54,234.91h-5.41v-2.52h5.41v-1.33h3v1.33h2.73v2.52h-2.73V236h-3Zm16.82,17.68c0,1.25-.21,1.9-1,2.32a7.21,7.21,0,0,1-3.23.44,8.83,8.83,0,0,0-.62-2l-1.28.33a6.73,6.73,0,0,0-.31-1.3c-3.69.26-7.49.47-10.24.66l-.24-2.61,4.76-.2v-2h-5.85v7.05h-3v-7.05h-1v-2.47h1v-.73h3v.73h5.85v-1.09H613v-8.27h17.53v8.27h-7.38v1.09h9.2Zm-16.38-13h4.21v-1.2H616Zm4.21,3.07v-1.17H616v1.17Zm13.11-10.3v2.52h-5.54V236h-3v-1.12h-2.58v-2.52h2.58v-1.33h3v1.33Zm-5.88,6h-4.26v1.2h4.26Zm0,3.1h-4.26v1.17h4.26ZM625,250a12,12,0,0,0-.6-1.19l2.18-.55h-3.45v1.85Zm4,2.89c.26,0,.33-.08.33-.34v-4.29h-2.6a17,17,0,0,1,1.85,4.63Z"/><path class="f" d="M636.08,257.32a26,26,0,0,0,0-24.88l2.36-1a25.16,25.16,0,0,1,0,26.91Z"/><path class="f" d="M645.8,255.5h3.1V234.24h-3.1v-2h6v25.37h-6Z"/><path class="f" d="M659.35,245.49l-4.27-7h4.11l1.46,2.6c.41.8.85,1.63,1.3,2.44h.1c.34-.81.73-1.64,1.07-2.44l1.22-2.6h3.95L664,245.94l4.55,7.15h-4.11l-1.61-2.66c-.47-.85-.94-1.74-1.41-2.57h-.13c-.41.83-.8,1.69-1.22,2.57l-1.35,2.66h-4Z"/><path class="f" d="M669.67,250.82l1.77-2.44a6,6,0,0,0,4.23,2,3.23,3.23,0,0,0,3.41-3.54c0-2.23-1.3-3.48-3.25-3.48a4.67,4.67,0,0,0-2.89,1l-1.74-1.14.52-9.33H682V237h-7l-.36,4.09a4.93,4.93,0,0,1,2.32-.55c3.22,0,5.92,1.92,5.92,6.11a6.5,6.5,0,0,1-6.73,6.76A8.77,8.77,0,0,1,669.67,250.82Z"/><path class="f" d="M685.14,239.54c0-3.85,1.92-6.06,4.68-6.06s4.7,2.21,4.7,6.06-1.94,6.14-4.7,6.14S685.14,243.41,685.14,239.54Zm6.68,0c0-2.83-.88-3.9-2-3.9s-2,1.07-2,3.9.86,4,2,4S691.82,242.38,691.82,239.54Zm9.1-6.06h2.26l-10.48,20h-2.23Zm-1.79,13.83c0-3.87,2-6.08,4.68-6.08s4.7,2.21,4.7,6.08-2,6.14-4.7,6.14S699.13,251.16,699.13,247.31Zm6.68,0c0-2.83-.89-3.92-2-3.92s-2,1.09-2,3.92.88,4,2,4S705.81,250.15,705.81,247.31Z"/><path class="f" d="M571.7,278.55v2.63H553.24v-2.63Zm-18.46,6.11H571.7v2.63H553.24Z"/><path class="f" d="M576.69,288.3a5.61,5.61,0,0,1,3.31-5v-.13a5.45,5.45,0,0,1-2.55-4.57c0-3.1,2.44-5.07,5.8-5.07s5.59,2.05,5.59,5.12a5.6,5.6,0,0,1-2.47,4.39v.13a5.61,5.61,0,0,1,3.22,5.15c0,2.91-2.57,5.15-6.47,5.15C579.45,293.45,576.69,291.32,576.69,288.3Zm9.34-.13c0-2-1.77-2.83-4.27-3.85a4.68,4.68,0,0,0-1.76,3.57,3,3,0,0,0,3.22,2.86A2.53,2.53,0,0,0,586,288.17Zm-.31-9.31a2.45,2.45,0,0,0-2.55-2.67,2.23,2.23,0,0,0-2.34,2.39c0,1.82,1.48,2.7,3.51,3.51A4.6,4.6,0,0,0,585.72,278.86Z"/><path class="f" d="M591.46,290.82l1.77-2.44a6,6,0,0,0,4.24,1.95,3.23,3.23,0,0,0,3.41-3.54c0-2.23-1.3-3.48-3.26-3.48a4.64,4.64,0,0,0-2.88,1L593,283.18l.52-9.33h10.29V277h-7l-.37,4.09a5,5,0,0,1,2.32-.55c3.22,0,5.93,1.92,5.93,6.11a6.51,6.51,0,0,1-6.74,6.76A8.77,8.77,0,0,1,591.46,290.82Z"/><path class="f" d="M607.25,283.39c0-6.66,2.59-9.91,6.52-9.91s6.5,3.28,6.5,9.91-2.6,10.06-6.5,10.06S607.25,290,607.25,283.39Zm9.41,0c0-5.38-1.25-6.94-2.89-6.94s-2.91,1.56-2.91,6.94,1.25,7.07,2.91,7.07S616.66,288.8,616.66,283.39Z"/><path class="f" d="M622.56,283.39c0-6.66,2.6-9.91,6.52-9.91s6.5,3.28,6.5,9.91-2.59,10.06-6.5,10.06S622.56,290,622.56,283.39Zm9.41,0c0-5.38-1.25-6.94-2.89-6.94s-2.91,1.56-2.91,6.94,1.25,7.07,2.91,7.07S632,288.8,632,283.39Z"/><path class="h" d="M122,200.94a22,22,0,0,1-1.72,5.44c.44.24.9.61,1.72,1.09,1.49.93,3.52,1.06,6.09,1.06a82.66,82.66,0,0,0,8.82-.5,7.5,7.5,0,0,0-.59,2.11c-1.69.11-5.74.24-8.32.24-2.9,0-4.77-.24-6.36-1.17-.9-.5-1.69-1.27-2.17-1.27s-1.26,1.43-1.83,2.77l-1.41-1.89A14.76,14.76,0,0,1,118,206.9l0,0a14,14,0,0,0,1.93-4.62h-2.77c.55-1.3,1.19-3.08,1.74-4.8h-2.2v-1.84h4.75c-.48,1.56-1.1,3.36-1.65,4.88h.77l.31-.07Zm-2.84-6.18c-.31-1-.9-2.58-1.32-3.74l1.85-.51c.44,1.17,1,2.69,1.36,3.63ZM128.41,205a19,19,0,0,1-4.4,2.84,9.79,9.79,0,0,0-1.52-1.26,14.83,14.83,0,0,0,4.07-2.15h-4.42v-1.56h3.65v-1.74H123V199.6h2.82v-1.39h1.87v1.39h3.06v-1.39h1.89v1.39h2.88v1.54h-2.88v1.74h3.78v1.56h-4.73a24.45,24.45,0,0,1,4.18,2.44l-1.78.88a24.14,24.14,0,0,0-3.91-2.51l1.14-.81h-4.56Zm.19-9.13a14.49,14.49,0,0,0-.35,1.47c-4.31.73-5,.88-5.37,1.08a6.45,6.45,0,0,0-.68-1.54,1.34,1.34,0,0,0,.62-1.32v-4.38h6v3.92h-4.35v1.38Zm-4.15-3.37v1.26h2.64v-1.26Zm3.21,10.37h3.06v-1.74h-3.06Zm4.18-5c-1.69,0-2.11-.64-2.11-2.27v-4.38h6.07v3.92h-4.42v.49c0,.59.06.81.57.81h2.55a7.83,7.83,0,0,0,1.43-.13c0,.44.09,1,.16,1.43a5.74,5.74,0,0,1-1.52.13Zm-.46-5.32v1.25H134v-1.25Z"/><path class="h" d="M157.14,208c0,1.18-.29,1.8-1.08,2.11a12.08,12.08,0,0,1-4.11.35,8.33,8.33,0,0,0-.69-2c1.41.06,2.87,0,3.28,0s.55-.13.55-.55v-3.94h-5.32v6.3h-2.05v-6.3h-5.06a12.58,12.58,0,0,1-2.75,6.67,6.91,6.91,0,0,0-1.6-1.34c2.39-2.66,2.61-6.56,2.61-9.66V191.9h16.22Zm-9.42-5.9v-3.26H143v.88c0,.75,0,1.56-.09,2.38ZM143,193.86V197h4.77v-3.1Zm12.14,0h-5.32V197h5.32Zm0,8.27v-3.26h-5.32v3.26Z"/><path class="h" d="M169.19,204.24h-5.63l-1.38,4.62h-2.6L165,192.67h3l5.36,16.19h-2.7Zm-.61-2-.64-2.18c-.55-1.76-1-3.57-1.54-5.39h-.09c-.46,1.85-1,3.63-1.49,5.39l-.66,2.18Z"/><path class="h" d="M177.49,204.44a30.15,30.15,0,0,1-1.94,4.66,8.49,8.49,0,0,0-1.61-.74,18.42,18.42,0,0,0,1.85-4.34Zm3-1v7.15h-1.94v-7.15h-4.4v-1.7h10.63v1.7Zm-2-9.4h-4.09v-1.67h4.09v-1.83h1.92v1.83h4.11V194h-4.11v1.56h3.65v1.68h-9.16v-1.68h3.59Zm5.35,5a23.71,23.71,0,0,0,2.4-8.63l2,.27c-.18,1.25-.4,2.49-.66,3.65h4.95l.31-.09,1.38.42a39.8,39.8,0,0,1-1.6,5.9l-1.67-.51a29.17,29.17,0,0,0,1-3.87h-4.82a19.15,19.15,0,0,1-1.83,4.42,12.76,12.76,0,0,0-1.45-1v.74h-8.74v-1.67h8.74ZM183,204a28.9,28.9,0,0,1,1.58,3.39l-1.65.74a23.59,23.59,0,0,0-1.47-3.52Zm6.88-5.17c0,.63,0,1.32-.06,2.09.73,3.52,2.27,6.58,4.8,7.92a8.68,8.68,0,0,0-1.39,1.71,10.6,10.6,0,0,1-4.12-5.78,12.86,12.86,0,0,1-3.71,5.87,6.69,6.69,0,0,0-1.57-1.38c3.79-3.33,4.12-7.62,4.12-10.5v-1h1.93Z"/><path class="h" d="M198.37,203.56c1.69-.64,2.68-1.65,2.79-3a1.51,1.51,0,0,1-.31,0,1.76,1.76,0,1,1,0-3.52c1.39,0,2.12,1.08,2.12,2.75a5.36,5.36,0,0,1-4.05,5.15Z"/><path class="h" d="M210.36,202.7c-.14,2.73-.55,5.83-1.81,8a7.16,7.16,0,0,0-1.67-1.3c1.41-2.62,1.52-6.32,1.52-9.18v-7.74a32.38,32.38,0,0,0,7.43-1.63l1.32,1.72a30.48,30.48,0,0,1-6.73,1.45v1.85h5.77v6.84Zm.06-5v3.14h3.81v-3.14Zm16.92,2H225v10.78h-2V199.73h-2.93c0,3.41-.51,8.07-3.48,10.94a7.79,7.79,0,0,0-1.63-1.39c2.78-2.71,3-6.62,3-9.7v-7a34.62,34.62,0,0,0,7.61-1.85l1.39,1.76a35.16,35.16,0,0,1-6.93,1.6v3.7h7.28Z"/><path class="h" d="M231.58,204.81a28.87,28.87,0,0,1-1.05,5.64,8.57,8.57,0,0,0-1.48-.53,25,25,0,0,0,1-5.37Zm3-.88c0-.33-.11-.7-.18-1.1-3.58.53-4.22.71-4.62.9a12.42,12.42,0,0,0-.53-1.6c.42-.09.86-.66,1.46-1.5.24-.37.79-1.21,1.41-2.33a9.27,9.27,0,0,0-2.49.46,11.08,11.08,0,0,0-.53-1.56c.35-.11.66-.55,1-1.23a26.71,26.71,0,0,0,2.12-5.57l1.62.64a36.07,36.07,0,0,1-2.5,5.72l1.65-.13a32.45,32.45,0,0,0,1.32-3l1.51.86a42.14,42.14,0,0,1-4,7.11l2.26-.29a19.14,19.14,0,0,0-.57-2.11l1.28-.31a33,33,0,0,1,1.14,4.67Zm-1.12.6a45.85,45.85,0,0,1,.5,4.95l-1.47.26a38.64,38.64,0,0,0-.44-5Zm1.78-.51a31.72,31.72,0,0,1,.92,3.43l-1.34.42a22.52,22.52,0,0,0-.86-3.5Zm13.25-7.41a34.19,34.19,0,0,1-1.7,8.4,11,11,0,0,0,2.69,4.07,6.4,6.4,0,0,0-1.35,1.52,11.69,11.69,0,0,1-2.22-3.48,10.57,10.57,0,0,1-2.75,3.48,9.29,9.29,0,0,0-1.14-1.23,1.66,1.66,0,0,1-.31.52,1.48,1.48,0,0,1-1.12.53,11,11,0,0,1-1.79,0,3.71,3.71,0,0,0-.41-1.52c.61.06,1.14.06,1.38.06a.57.57,0,0,0,.53-.2c.22-.26.4-1.09.57-3.14H239a6.7,6.7,0,0,1-3,5,4,4,0,0,0-1.07-1.27c2.11-1.32,2.53-3.5,2.66-6.52H236V201.2h2.84c-.18-.44-.38-.92-.58-1.32l1.68-.35c.26.53.57,1.15.79,1.67H243v1.63h-3.68c0,.44,0,.88-.09,1.3h3.39s0,.46,0,.68a27.29,27.29,0,0,1-.51,4.23,10.35,10.35,0,0,0,3-4.14,34.47,34.47,0,0,1-1.17-5.15,10.45,10.45,0,0,1-.79,1.3,11,11,0,0,0-1-1.63h-5.92v-7.19h2c.13-.62.24-1.32.31-1.83l2,.15c-.18.58-.38,1.15-.51,1.68h2.53v6.49a23.46,23.46,0,0,0,2-8.3l1.74.24a36.45,36.45,0,0,1-.7,4.12h3.78v1.83Zm-7.68-2.93h-3v1.45h3Zm0,2.81h-3V198h3Zm4.31.12a5.1,5.1,0,0,1-.22.66,40.37,40.37,0,0,0,1,5.21,36.64,36.64,0,0,0,1-5.87Z"/><path class="h" d="M270.73,193.81s0,.71,0,1c-.3,9.92-.57,13.33-1.45,14.43a2.45,2.45,0,0,1-1.91,1,24.37,24.37,0,0,1-3.33,0,4.64,4.64,0,0,0-.66-2c1.41.11,2.69.13,3.24.13a1,1,0,0,0,.92-.37c.71-.73,1-4.05,1.28-12.35H263.6a21.87,21.87,0,0,1-2,3.7,11.2,11.2,0,0,0-1.6-1.15v10.1h-6V210h-1.87V193.92h2.46a25.17,25.17,0,0,0,.77-3.56l2.22.37c-.37,1.1-.79,2.27-1.14,3.19H260v4.16a21,21,0,0,0,3.28-7.72l2,.46c-.27,1-.55,2-.91,3ZM254,195.7v4.18h4.09V195.7Zm4.09,10.83v-4.86H254v4.86Zm7.33-1.72a35.81,35.81,0,0,0-3.22-5.08l1.61-.9a40.89,40.89,0,0,1,3.32,4.9Z"/><path class="h" d="M279.68,203.73c-.29-.59-.88-1.65-1.43-2.57v9.46h-1.87v-9a23.09,23.09,0,0,1-2.51,5.33,13.4,13.4,0,0,0-1-2,22.85,22.85,0,0,0,3-6.45h-2.64v-1.89h3.15v-3.15c-.82.18-1.63.33-2.4.44a6.59,6.59,0,0,0-.57-1.61,29.82,29.82,0,0,0,6.27-1.78l1.21,1.65a18.59,18.59,0,0,1-2.64.86v3.59h2.37v1.89h-2.37v.4c.53.54,2.24,2.66,2.62,3.19ZM291,208.55c.41,0,.48-.33.55-2.51a5,5,0,0,0,1.76.8c-.2,2.84-.71,3.56-2.07,3.56h-1.72c-1.71,0-2.11-.59-2.11-2.49V203h-1.61c-.33,3.5-1.27,6.19-4.9,7.75a5.59,5.59,0,0,0-1.17-1.58c3.1-1.19,3.81-3.37,4.07-6.17h-1.54v-6.14l-.66.64a13.86,13.86,0,0,0-1.5-1.45,14.58,14.58,0,0,0,4.12-5.26l1.89.6a20.51,20.51,0,0,1-3.32,4.93h8.43a36.82,36.82,0,0,0-3.79-4.85l1.43-1a32.24,32.24,0,0,1,4.58,5.83l-1.56,1.12a6,6,0,0,0-.58-1V203h-1.91v4.93c0,.57.06.66.46.66Zm-6.83-7.37h5.11v-3.1h-5.11Z"/><path class="h" d="M508,200.94a21.62,21.62,0,0,1-1.72,5.44c.44.24.9.61,1.72,1.09,1.5.93,3.52,1.06,6.09,1.06A82.85,82.85,0,0,0,523,208a7.2,7.2,0,0,0-.6,2.11c-1.69.11-5.74.24-8.31.24-2.91,0-4.78-.24-6.36-1.17-.91-.5-1.7-1.27-2.18-1.27s-1.26,1.43-1.83,2.77l-1.41-1.89A14.76,14.76,0,0,1,504,206.9l0,0a13.77,13.77,0,0,0,1.93-4.62h-2.77c.55-1.3,1.19-3.08,1.74-4.8h-2.2v-1.84h4.75c-.48,1.56-1.1,3.36-1.65,4.88h.77l.31-.07Zm-2.84-6.18c-.31-1-.9-2.58-1.32-3.74l1.85-.51c.44,1.17,1,2.69,1.36,3.63ZM514.42,205a18.75,18.75,0,0,1-4.4,2.84,9.34,9.34,0,0,0-1.52-1.26,14.83,14.83,0,0,0,4.07-2.15h-4.42v-1.56h3.65v-1.74H509V199.6h2.81v-1.39h1.87v1.39h3.06v-1.39h1.89v1.39h2.88v1.54h-2.88v1.74h3.79v1.56h-4.73a24.85,24.85,0,0,1,4.18,2.44l-1.79.88a24.14,24.14,0,0,0-3.91-2.51l1.14-.81h-4.55Zm.2-9.13a10.57,10.57,0,0,0-.35,1.47c-4.32.73-5,.88-5.37,1.08a6.1,6.1,0,0,0-.69-1.54,1.34,1.34,0,0,0,.62-1.32v-4.38h6v3.92h-4.36v1.38Zm-4.16-3.37v1.26h2.64v-1.26Zm3.21,10.37h3.06v-1.74h-3.06Zm4.18-5c-1.69,0-2.11-.64-2.11-2.27v-4.38h6.07v3.92h-4.42v.49c0,.59.07.81.57.81h2.55a7.83,7.83,0,0,0,1.43-.13c0,.44.09,1,.16,1.43a5.74,5.74,0,0,1-1.52.13Zm-.46-5.32v1.25h2.66v-1.25Z"/><path class="h" d="M543.15,208c0,1.18-.28,1.8-1.08,2.11a12.08,12.08,0,0,1-4.11.35,8.76,8.76,0,0,0-.68-2c1.41.06,2.86,0,3.28,0s.55-.13.55-.55v-3.94h-5.33v6.3h-2v-6.3h-5.07a12.58,12.58,0,0,1-2.75,6.67,6.71,6.71,0,0,0-1.6-1.34c2.4-2.66,2.62-6.56,2.62-9.66V191.9h16.21Zm-9.41-5.9v-3.26H529v.88c0,.75,0,1.56-.09,2.38ZM529,193.86V197h4.78v-3.1Zm12.15,0h-5.33V197h5.33Zm0,8.27v-3.26h-5.33v3.26Z"/><path class="h" d="M549.2,192.62h5.7c3.87,0,6.29,1.06,6.29,4a3.55,3.55,0,0,1-2.53,3.52v.11c2.16.37,3.52,1.69,3.52,3.85,0,3.3-2.4,4.75-6.8,4.75H549.2Zm5.5,6.8c2.66,0,3.92-.77,3.92-2.42s-1.23-2.4-3.79-2.4h-3.08v4.82Zm.51,7.44c2.95,0,4.42-.75,4.42-2.88,0-1.83-1.39-2.62-4.47-2.62h-3.41v5.5Z"/><path class="h" d="M567.83,204.44a29.22,29.22,0,0,1-1.93,4.66,9.11,9.11,0,0,0-1.61-.74,18.42,18.42,0,0,0,1.85-4.34Zm3-1v7.15h-1.94v-7.15h-4.4v-1.7h10.63v1.7Zm-2-9.4h-4.09v-1.67h4.09v-1.83h1.91v1.83h4.12V194h-4.12v1.56h3.65v1.68h-9.15v-1.68h3.59Zm5.34,5a23.32,23.32,0,0,0,2.4-8.63l2,.27c-.18,1.25-.4,2.49-.66,3.65h4.95l.3-.09,1.39.42a39.74,39.74,0,0,1-1.61,5.9l-1.67-.51a27.7,27.7,0,0,0,1-3.87h-4.82a19.16,19.16,0,0,1-1.82,4.42,12.1,12.1,0,0,0-1.46-1v.74h-8.73v-1.67h8.73Zm-.88,4.93a27.55,27.55,0,0,1,1.59,3.39l-1.65.74a23.73,23.73,0,0,0-1.48-3.52Zm6.89-5.17c0,.63,0,1.32-.06,2.09.72,3.52,2.26,6.58,4.79,7.92a8.63,8.63,0,0,0-1.38,1.71,10.51,10.51,0,0,1-4.12-5.78,13,13,0,0,1-3.72,5.87,6.44,6.44,0,0,0-1.56-1.38c3.79-3.33,4.12-7.62,4.12-10.5v-1h1.93Z"/><path class="h" d="M588.71,203.56c1.7-.64,2.69-1.65,2.8-3a1.51,1.51,0,0,1-.31,0,1.76,1.76,0,1,1,0-3.52c1.39,0,2.11,1.08,2.11,2.75a5.37,5.37,0,0,1-4,5.15Z"/><path class="h" d="M600.7,202.7c-.13,2.73-.55,5.83-1.8,8a7.16,7.16,0,0,0-1.67-1.3c1.4-2.62,1.51-6.32,1.51-9.18v-7.74a32.47,32.47,0,0,0,7.44-1.63l1.32,1.72a30.6,30.6,0,0,1-6.73,1.45v1.85h5.76v6.84Zm.07-5v3.14h3.8v-3.14Zm16.92,2h-2.33v10.78h-2V199.73h-2.92c0,3.41-.51,8.07-3.48,10.94a8,8,0,0,0-1.63-1.39c2.77-2.71,3-6.62,3-9.7v-7a34.91,34.91,0,0,0,7.61-1.85l1.39,1.76a35.33,35.33,0,0,1-6.93,1.6v3.7h7.28Z"/><path class="h" d="M621.93,204.81a29.63,29.63,0,0,1-1,5.64,8.57,8.57,0,0,0-1.48-.53,24.45,24.45,0,0,0,1-5.37Zm3-.88c-.05-.33-.11-.7-.18-1.1-3.59.53-4.22.71-4.62.9a12.42,12.42,0,0,0-.53-1.6c.42-.09.86-.66,1.45-1.5.25-.37.8-1.21,1.41-2.33a9,9,0,0,0-2.48.46,11.08,11.08,0,0,0-.53-1.56c.35-.11.66-.55,1-1.23a26.84,26.84,0,0,0,2.11-5.57l1.63.64a35.21,35.21,0,0,1-2.51,5.72l1.65-.13a27.88,27.88,0,0,0,1.32-3l1.52.86a41.5,41.5,0,0,1-4,7.11l2.27-.29a19.14,19.14,0,0,0-.57-2.11l1.27-.31a33.13,33.13,0,0,1,1.15,4.67Zm-1.13.6a43.57,43.57,0,0,1,.51,4.95l-1.47.26a38.64,38.64,0,0,0-.44-5Zm1.79-.51a34.21,34.21,0,0,1,.92,3.43l-1.34.42a23.71,23.71,0,0,0-.86-3.5Zm13.24-7.41a33.75,33.75,0,0,1-1.69,8.4,10.86,10.86,0,0,0,2.68,4.07,6.36,6.36,0,0,0-1.34,1.52,11.49,11.49,0,0,1-2.22-3.48,10.7,10.7,0,0,1-2.75,3.48,9.39,9.39,0,0,0-1.15-1.23,1.66,1.66,0,0,1-.3.52,1.49,1.49,0,0,1-1.13.53,10.86,10.86,0,0,1-1.78,0,3.57,3.57,0,0,0-.42-1.52c.62.06,1.15.06,1.39.06a.58.58,0,0,0,.53-.2c.22-.26.39-1.09.57-3.14h-1.85a6.73,6.73,0,0,1-3,5,4.07,4.07,0,0,0-1.08-1.27c2.12-1.32,2.53-3.5,2.66-6.52h-1.65V201.2h2.84c-.17-.44-.37-.92-.57-1.32l1.67-.35c.27.53.58,1.15.79,1.67h2.29v1.63H629.7c0,.44,0,.88-.09,1.3H633s0,.46,0,.68a28.63,28.63,0,0,1-.51,4.23,10.24,10.24,0,0,0,3-4.14,34.49,34.49,0,0,1-1.16-5.15,11.81,11.81,0,0,1-.79,1.3,11.08,11.08,0,0,0-1-1.63h-5.92v-7.19h2c.13-.62.24-1.32.3-1.83l2,.15c-.17.58-.37,1.15-.5,1.68h2.53v6.49a23.68,23.68,0,0,0,2-8.3l1.74.24a41.57,41.57,0,0,1-.7,4.12h3.78v1.83Zm-7.68-2.93h-3v1.45h3Zm0,2.81h-3V198h3Zm4.32.12c-.07.24-.14.46-.22.66a40.37,40.37,0,0,0,1,5.21,37.82,37.82,0,0,0,1-5.87Z"/><path class="h" d="M661.07,193.81s0,.71,0,1c-.31,9.92-.57,13.33-1.45,14.43a2.45,2.45,0,0,1-1.92,1,24.22,24.22,0,0,1-3.32,0,4.64,4.64,0,0,0-.66-2c1.41.11,2.69.13,3.24.13a1,1,0,0,0,.92-.37c.7-.73,1-4.05,1.28-12.35h-5.2a21.19,21.19,0,0,1-2,3.7,10.79,10.79,0,0,0-1.61-1.15v10.1h-6V210H642.5V193.92H645a28.31,28.31,0,0,0,.77-3.56l2.22.37c-.38,1.1-.79,2.27-1.15,3.19h3.52v4.16a20.88,20.88,0,0,0,3.28-7.72l2,.46c-.26,1-.55,2-.9,3Zm-16.7,1.89v4.18h4.09V195.7Zm4.09,10.83v-4.86h-4.09v4.86Zm7.33-1.72a34.8,34.8,0,0,0-3.21-5.08l1.61-.9a40.89,40.89,0,0,1,3.32,4.9Z"/><path class="h" d="M670,203.73c-.28-.59-.88-1.65-1.43-2.57v9.46h-1.87v-9a22.7,22.7,0,0,1-2.5,5.33,13.47,13.47,0,0,0-1-2,22.85,22.85,0,0,0,3-6.45h-2.64v-1.89h3.14v-3.15c-.81.18-1.62.33-2.39.44a6.23,6.23,0,0,0-.58-1.61,29.64,29.64,0,0,0,6.27-1.78l1.21,1.65a18.18,18.18,0,0,1-2.64.86v3.59H671v1.89h-2.38v.4c.53.54,2.25,2.66,2.62,3.19Zm11.29,4.82c.42,0,.49-.33.55-2.51a5.13,5.13,0,0,0,1.76.8c-.2,2.84-.7,3.56-2.07,3.56h-1.71c-1.72,0-2.11-.59-2.11-2.49V203h-1.61c-.33,3.5-1.28,6.19-4.91,7.75a5.75,5.75,0,0,0-1.16-1.58c3.1-1.19,3.8-3.37,4.07-6.17h-1.54v-6.14l-.66.64a13.86,13.86,0,0,0-1.5-1.45,14.69,14.69,0,0,0,4.12-5.26l1.89.6a20.55,20.55,0,0,1-3.33,4.93h8.43a36.73,36.73,0,0,0-3.78-4.85l1.43-1a32.15,32.15,0,0,1,4.57,5.83l-1.56,1.12a5.88,5.88,0,0,0-.57-1V203h-1.91v4.93c0,.57.06.66.46.66Zm-6.82-7.37h5.11v-3.1h-5.11Z"/><polygon class="i" points="747.19 141.22 759.57 166.3 787.25 170.33 767.22 189.85 771.95 217.43 747.19 204.41 722.43 217.43 727.15 189.85 707.12 170.33 734.81 166.3 747.19 141.22"/><path class="f" d="M753.75,177.87a20,20,0,0,1-8.08,5.06h9.49v13.13h-2.43v-1H741.61v1.13h-2.33V184.76c-1.13.24-2.28.45-3.41.63a19.74,19.74,0,0,0-1.52-2.12,47,47,0,0,0,10.77-2.44v-8.68h2.42v7.58a12.67,12.67,0,0,0,3.9-2.91Zm-11.17-3.65a21.81,21.81,0,0,1-5,6.72,13.15,13.15,0,0,0-2.07-1.45,15.77,15.77,0,0,0,4.7-6Zm10.15,10.59H741.61v1.58h11.12Zm-11.12,5h11.12v-1.65H741.61Zm11.12,3.43v-1.7H741.61v1.7Zm-.19-19.87a32.06,32.06,0,0,1,5.72,5.69l-2.1,1.39a29.67,29.67,0,0,0-5.53-5.84Z"/></g></svg>