<svg xmlns="http://www.w3.org/2000/svg" viewBox="0 0 307.22 57.01"><defs><style>.a{fill:#f66c00;}</style></defs><title>result-4</title><path class="a" d="M55.77,18.13l23.92-4.42a7.38,7.38,0,0,1,1.47-.17c2.5,0,4.08,1.82,4.08,4.76a3.7,3.7,0,0,1-3.34,3.8L55.77,27V42c0,3,.62,3.23,8.61,3.23,1.08,0,2.61,0,4.65-.06,4.54-.05,4.71-.22,5.33-4.82.4-3,1.36-3.91,4.36-3.91s5,1.36,5,3.52A32.49,32.49,0,0,1,83,45.34C81.45,53.56,78.16,54,64.5,54c-2.33,0-5.45-.06-9.36-.23-6.4-.17-8.33-2.16-8.33-8.5V28.62l-7.88,1.47a5.28,5.28,0,0,1-1.47.17c-2.67,0-4-1.7-4-4.93,0-2,1.25-3.34,3.4-3.74l10-1.81V6.06c0-2.27,1.64-3.57,4.48-3.57s4.48,1.3,4.48,3.57Z"/><path class="a" d="M100.89,11.84V5.1c0-2,1.41-3.18,4-3.18s4,1.13,4,3.18v6.74h2.32c2,0,3.06,1.36,3.06,3.8s-1.07,3.8-3.06,3.8h-2.32v6.4a3.1,3.1,0,0,1,1.64-.39c2,0,3.46,1.92,3.46,4.7,0,2.15-1.3,3-5.1,4.82V48c0,5-2,6.74-8,6.74-3.91,0-5.27-1.07-5.27-4.19,0-2.21,1-3.74,2.49-3.74l1.7,0c.85,0,1.14-.51,1.14-1.87V38.14a8.67,8.67,0,0,1-2.61.51c-2,0-3.46-2-3.46-4.7,0-2.1.62-2.78,3.57-3.69.68-.17,1.76-.51,2.5-.79v-10h-3c-2,0-3.06-1.36-3.06-3.8s1.07-3.8,3.06-3.8Zm35.76,33.67c2.5.68,6.47,1.65,7.88,1.87,3.07.57,3.86,1.19,3.86,3.23,0,2.67-1.36,4.37-3.52,4.37-1.41,0-3.34-.45-8.73-2-2.83-.79-3.74-1.64-3.74-3.35,0-2,1-3.68,2.38-4.08H123.67c1.31.46,2.1,2,2.1,3.91,0,2.1-1.19,3-6,4.2A36.87,36.87,0,0,1,113,55c-1.82,0-3.23-1.82-3.23-4.08s.79-3.07,4.25-3.75c2.15-.39,5.1-1.13,7.42-1.7-4.25,0-6.69,0-6.69-5.27V24.37c0-4,1.31-5.33,5.33-5.33h20.3c4,0,5.27,1.3,5.27,5.33V40.24c0,4-1.31,5.27-5.27,5.27Zm-20.46-37c0-3.86,1-4.82,4.82-4.82H139.6c3.8,0,4.76,1,4.76,4.82v4.3c0,3.8-1,4.77-4.76,4.77H121c-3.86,0-4.82-1-4.82-4.77Zm21.49,17.91c0-1.7,0-2-1.25-2H123.84c-1.24,0-1.24.34-1.24,2Zm0,4.36H122.6v2.1h15.08Zm-1.25,8.85c1.25,0,1.25-.34,1.25-2.21H122.6c0,1.87,0,2.21,1.24,2.21ZM125.15,9.35c-1.25,0-1.25.51-1.25,1.64,0,1,.28,1.25,1.25,1.25h10.26c1.24,0,1.24-.51,1.24-1.65,0-1-.28-1.24-1.24-1.24Z"/><path class="a" d="M179.11,6.51c0,1.48-1,15.42-3.06,23.13a69.47,69.47,0,0,1-8.11,19.16c-2.43,3.86-3.91,5.1-5.78,5.1-2.66,0-5.38-2.44-5.38-4.82,0-1.53.39-2.38,2.55-5.21,5.67-7.54,8.84-18.14,9.92-33,.34-5,.56-6.29,1.19-7.14a5.23,5.23,0,0,1,4-1.42C177.52,2.26,179.11,3.68,179.11,6.51Zm18.71,1.25c.05.91,1.53,23.7,10.6,35.43,2.21,2.83,2.66,3.85,2.66,5.44a5.35,5.35,0,0,1-5.16,5.22c-1.64,0-3.06-.74-4.53-2.44s-3.91-6.12-5.78-10.43c-4.77-11.11-5.9-17.86-7.32-31.24a20.71,20.71,0,0,1-.22-3c0-3,1.7-4.42,5.21-4.42C196.46,2.32,197.59,3.68,197.82,7.76Z"/><path class="a" d="M225.08,31.63a2.42,2.42,0,0,1-.91.11,5.18,5.18,0,0,1-5-4.88c0-.85.39-1.7,1.64-3.34A52.57,52.57,0,0,0,228,8.27c1.36-5.1,1.7-6.52,4.65-6.52s5,1.7,5,4.08a15.6,15.6,0,0,1-1.07,4.54c-.8,2.38-1.82,5.1-2.89,7.71V51.8c0,2.22-1.53,3.46-4.31,3.46s-4.31-1.24-4.31-3.46Zm41.72,4.25c2.84,0,4.65,1.7,4.65,4.3,0,.63-.06,1.2-1,7.83-.68,4.87-2.78,6.63-7.77,6.63-4.08,0-5.27-.74-5.27-3.34,0-2.16,1.08-3.69,2.66-3.69.29,0,1.48.17,1.76.17.63,0,.85-.28,1-1.25s.68-4.53.68-4.59c0-.51-.29-.56-1.08-.56A28.86,28.86,0,0,1,255.07,51c-3.23,3-5.16,4.25-6.52,4.25a3.15,3.15,0,0,1-3-3c0-1.36.4-1.76,3.52-3.74A34.25,34.25,0,0,0,256,41.38h-2.21c-2.89,4-11.33,10.77-14.51,10.77-1.47,0-2.55-1.36-2.55-3.24,0-1.19.74-1.87,3.57-3.11a30.24,30.24,0,0,0,6.41-4.42h-2.55c-3.12,2.26-5.28,3.4-6.58,3.4a3.36,3.36,0,0,1-3.06-3.4c0-1.65.57-2.22,3.4-3.29,1.42-.57,2.55-1.42,5.78-3.86h-6.74c-1.48,0-2.27-1.07-2.27-2.89s.79-2.89,2.27-2.89h33.38c1.42,0,2.27,1.08,2.27,2.89s-.85,2.89-2.27,2.89H251.38a20.24,20.24,0,0,1-1.19,1.65ZM240.1,18.53a4.6,4.6,0,0,1-3.8-4.19c0-1.25.12-1.42,2.5-4.2A16.1,16.1,0,0,0,241,6.63c2.15-4.65,2.38-4.88,4.48-4.88,2.32,0,4.13,1.25,4.36,3.06h19c1.53,0,2.32,1,2.32,3s-.79,2.89-2.32,2.89h-21c-.29.4-.57,1-.85,1.3h16.15c3.8,0,4.82,1,4.82,4.82v5.44c0,3.8-1,4.82-4.82,4.82H244.92c-3.8,0-4.82-1-4.82-4.82Zm19.84-.28a3.7,3.7,0,0,0-.11-1.31c-.12-.17-.34-.22-.8-.22H248.89c-.91,0-.91.17-.91,1.53ZM259,23.07c.91,0,.91-.12.91-1.42H248a2.78,2.78,0,0,0,.11,1.19c.12.23.34.23.8.23Z"/></svg>