<svg xmlns="http://www.w3.org/2000/svg" viewBox="0 0 409.36 718.15"><defs><style>.a,.d,.f,.i,.k{fill:none;}.b{fill:#1a1a1a;}.c,.j{fill:#fff;}.d{stroke:#fff;}.d,.e,.f,.h,.l{stroke-linecap:round;stroke-linejoin:round;}.d,.e,.f,.h,.j,.k,.l{stroke-width:5px;}.e{fill:#f66c00;}.e,.f,.h,.i,.j,.k,.l{stroke:#000;}.g{opacity:0.4;}.h{fill:#9cd9e2;}.i,.j,.k{stroke-miterlimit:10;}.i{stroke-width:3px;}.l{fill:#ffc900;}</style></defs><title>wrong-2</title><rect class="a" width="409.36" height="718.15"/><path class="b" d="M208,178.44l21.38-37a6.68,6.68,0,0,0-5.78-10H180.79a6.68,6.68,0,0,0-5.79,10l21.38,37A6.68,6.68,0,0,0,208,178.44Z"/><rect x="60.21" y="54.38" width="283.92" height="105.55" rx="35.31" ry="35.31"/><path class="c" d="M184.7,122.32c1.68-.36,3.48-.71,5.2-1.07l.2,3c-4.88,1.12-10,2.28-13.84,3.12L175.5,124l6.2-1.16V112.05H176v-3.16h5.68v-3.8h-3.48v-1.76a24.78,24.78,0,0,1-1.92,1.72,29.81,29.81,0,0,0-1.44-3.76,27.74,27.74,0,0,0,8-9.6l2.8,1.28c-.28.52-.56,1-.84,1.6a41.52,41.52,0,0,1,6.4,4.8l-1.6,3.08a46.46,46.46,0,0,0-6.44-5.24A30.79,30.79,0,0,1,179.5,102h9.12v3.12H184.7v3.8h5.2v3.16h-5.2Zm-5.76-8.47a49.65,49.65,0,0,1,1.48,7.08l-2.48.76a48.93,48.93,0,0,0-1.36-7.2Zm6.56,6.64a64.51,64.51,0,0,0,1.6-7l2.72.76c-.76,2.44-1.48,5.2-2.16,7Zm26.23-15.72v3.32H190.82v-3.32h4.48v-4.6h-3.68V96.89h3.68V92h3.24v4.92h5.36V92h3.32v4.92h3.43v3.28h-3.43v4.6Zm-18.43,6.12h16.24v17.63H206.1V127h-9.48v1.64H193.3Zm3.32,3.08v3.52h9.48V114Zm9.48,10v-3.51h-9.48V124Zm-7.56-19.19h5.36v-4.6h-5.36Z"/><path class="c" d="M221.14,118.88v3.68h-2.92V94.77h9.36v24.11Zm0-21.15v18.16h3.52V97.73ZM231.38,121a52.51,52.51,0,0,1-2.16,7.32,11.78,11.78,0,0,0-2.2-.64,37.83,37.83,0,0,0,2.16-7.15Zm6-7.67a36.26,36.26,0,0,1,1.88,6.16L237,120c-.08-.43-.2-1-.36-1.59-5.88.8-6.92,1-7.56,1.32a15.81,15.81,0,0,0-.76-2.36c.68-.12,1.36-.8,2.28-1.88a38.9,38.9,0,0,0,2.36-3.12,14.17,14.17,0,0,0-3.68.48,14,14,0,0,0-.8-2.4c.56-.12,1-.6,1.52-1.32a29.05,29.05,0,0,0,3.16-6.2l2.64,1a33,33,0,0,1-3.64,6.12l2.28-.08a29.59,29.59,0,0,0,2-3.64l2.4,1.24a55.15,55.15,0,0,1-6.4,9.08l3.64-.4c-.24-.84-.56-1.72-.84-2.52Zm15.16-10.48H229.7V93.73h22.8Zm-18,18a51,51,0,0,1,.68,6.59l-2.32.32a44.28,44.28,0,0,0-.52-6.64Zm2-24.32h-3.68v3.6h3.68Zm1,23.67a57.7,57.7,0,0,1,1.68,6l-2.12.6a46.9,46.9,0,0,0-1.56-6.07Zm16.07,6.68H243.34v1.84h-2.88v-15l-.2.28a15.46,15.46,0,0,0-2.44-1.68A27.53,27.53,0,0,0,242.5,103l2.84.72c-.4,1.16-.84,2.36-1.28,3.48h3.24c-.36-1.08-.8-2.4-1.24-3.44l2.4-.72a41.34,41.34,0,0,1,1.56,4.16h3.35V110h-4v2.92h3.43v2.6h-3.43v2.92h3.43V121h-3.43v2.84h4.19ZM242.82,96.45H239v3.6h3.8ZM246.7,110h-3.36v2.92h3.36Zm0,5.52h-3.36v2.92h3.36Zm-3.36,8.35h3.36V121h-3.36Zm5.88-27.43h-3.88v3.6h3.88Z"/><path class="c" d="M263.9,122.29a3.64,3.64,0,0,1,7.28,0,3.64,3.64,0,0,1-7.28,0Zm.84-21.44-.12-5.28h5.88l-.12,5.28-1.2,14.72H265.9Z"/><line class="d" x1="111.09" y1="91.94" x2="147.09" y2="127.94"/><line class="d" x1="147.09" y1="91.94" x2="111.09" y2="127.94"/><ellipse class="e" cx="210.66" cy="520.29" rx="134.84" ry="49.25"/><path d="M325,520.29c0,18.12-51.18,32.81-114.31,32.81S96.34,538.41,96.34,520.29s51.18-32.79,114.32-32.79S325,502.18,325,520.29Z"/><path class="f" d="M120.76,483.6s-60.83,25.09-85.58,69.82"/><path class="f" d="M300.55,483.6s60.83,25.09,85.58,69.82"/><path d="M314.5,534c6.71-4.18,10.47-8.83,10.47-13.74,0-.17,0-.35,0-.53A135.51,135.51,0,0,1,314.5,534Z"/><path d="M96.34,520.29c0,5.15,4.13,10,11.48,14.35a136.12,136.12,0,0,1-11.39-15.56A9.85,9.85,0,0,0,96.34,520.29Z"/><g class="g"><path class="h" d="M134.05,330.44c-1-18.44-.3-62.8,24.61-90.26a7.81,7.81,0,0,1,1-1.12l0,0h0a7.68,7.68,0,0,1,8.25-1.3,8.09,8.09,0,0,1,4,10.55,7.94,7.94,0,0,1-2.24,3h0s0,0,0,0-.23.19-.35.28c-3.33,2.82-18.75,23-17.35,61.15"/><path class="i" d="M164.46,251c.3-.39,3.35-7,7.6-8.2"/><path class="i" d="M160.71,247.5s5-9.07,8.79-9.27"/><path class="h" d="M306.29,491.79q2.55-3.12,4.91-6.41l.2-.28c.73-1,1.45-2.06,2.15-3.1a1.74,1.74,0,0,0,.11-.18c.76-1.12,1.49-2.26,2.21-3.41s1.4-2.3,2.07-3.47l.27-.47q2-3.56,3.85-7.24c.08-.18.17-.36.26-.54.57-1.18,1.12-2.36,1.66-3.55L324,463c.57-1.27,1.11-2.54,1.63-3.83l.21-.51c.45-1.13.89-2.26,1.31-3.41l.21-.57q.71-1.94,1.35-3.9a3,3,0,0,0,.1-.32c.39-1.18.75-2.36,1.1-3.56.08-.27.16-.54.23-.81q1.13-3.9,2-7.89c.07-.31.13-.62.2-.93.24-1.15.47-2.31.68-3.48,0-.19.07-.38.11-.58.23-1.33.45-2.67.64-4,.05-.31.08-.61.13-.92.15-1.1.28-2.2.41-3.31,0-.32.07-.64.1-1,.15-1.35.27-2.7.36-4.06,0-.24,0-.48.05-.71q.12-1.74.18-3.48c0-.37,0-.74,0-1.12.05-1.38.08-2.77.08-4.16,0-70-55.42-126.72-123.79-126.72S87.57,340.48,87.57,410.47c0,1.38,0,2.75.08,4.12,0,.38,0,.75,0,1.12,0,1.13.1,2.25.17,3.37,0,.27,0,.53,0,.79q.15,2,.36,4.05l.09.85c.12,1.12.26,2.23.41,3.34,0,.31.08.61.13.92.19,1.36.4,2.71.64,4.06a.36.36,0,0,1,0,.1c.23,1.31.49,2.61.76,3.9.05.27.11.54.17.8.28,1.3.57,2.59.89,3.88,0,0,0,0,0,.05.35,1.37.71,2.73,1.09,4.08,0,.16.1.32.14.48.36,1.23.73,2.46,1.12,3.68,0,.11.07.22.11.34.87,2.68,1.83,5.33,2.87,7.93l.12.31c1.06,2.63,2.19,5.21,3.41,7.74l.06.13q2.79,5.78,6.13,11.22l0,.06q2.35,3.82,5,7.47h0q2.61,3.63,5.45,7.07l0,0c17,10.25,52.8,17.32,94.23,17.32C253.33,509.68,289.7,502.35,306.29,491.79Z"/><path class="j" d="M213.13,306.89c-1.13,3.36-6.2,4.63-11.31,2.83s-8.34-6-7.2-9.36,6.19-4.63,11.3-2.83S214.26,303.53,213.13,306.89Z"/><path class="j" d="M249.86,335.73c-2.68,2.27-7.64.65-11.09-3.61s-4.08-9.56-1.41-11.83,7.65-.65,11.1,3.61S252.54,333.46,249.86,335.73Z"/><path class="k" d="M215.93,356.44l-34.4-21.11a6.82,6.82,0,0,1-2.25-9.2h0a6.49,6.49,0,0,1,9-2.31l34.4,21.11"/><path class="j" d="M204,322.9a4.84,4.84,0,0,1-6.72,1.72,5.08,5.08,0,0,1-1.68-6.87,4.84,4.84,0,0,1,6.72-1.73A5.09,5.09,0,0,1,204,322.9Z"/><path class="j" d="M235.34,342.13a4.82,4.82,0,0,1-6.71,1.72,5.07,5.07,0,0,1-1.69-6.87,4.83,4.83,0,0,1,6.72-1.72A5.07,5.07,0,0,1,235.34,342.13Z"/><path class="i" d="M195.38,368.09a4.84,4.84,0,0,1-6.72,1.72,5.08,5.08,0,0,1-1.68-6.88"/><path class="i" d="M203.77,373.24a4.83,4.83,0,0,1-6.71,1.72,5.07,5.07,0,0,1-1.68-6.87"/><line class="k" x1="184.94" y1="353.36" x2="212.98" y2="370.56"/><path class="c" d="M270.51,396a17.94,17.94,0,0,1-24.93,6.39,18.85,18.85,0,0,1-6.24-25.51,17.94,17.94,0,0,1,24.93-6.39A18.85,18.85,0,0,1,270.51,396Z"/><path class="c" d="M168.82,332.44a17.94,17.94,0,0,1-24.93,6.38,18.86,18.86,0,0,1-6.24-25.51,17.94,17.94,0,0,1,24.93-6.39A18.86,18.86,0,0,1,168.82,332.44Z"/><path class="h" d="M294,416.16c14-11.58,45.88-41.68,49.25-79a8.78,8.78,0,0,0,.13-1.53v-.05h0a8,8,0,0,0-4.57-7.15,7.75,7.75,0,0,0-10.37,3.95,8.12,8.12,0,0,0-.69,3.72h0a.06.06,0,0,1,0,0c0,.15,0,.3,0,.45.16,4.42-4.26,29.67-32.92,54"/><path class="i" d="M331.47,340c.09-.49,2.87-7.23.9-11.27"/><path class="i" d="M336.54,340.48s3.24-9.89.88-12.88"/></g><line class="f" x1="342.02" y1="269.02" x2="342.02" y2="360.02"/><line class="f" x1="325.02" y1="294.02" x2="325.02" y2="340.02"/><line class="f" x1="51.71" y1="390.12" x2="51.71" y2="506.03"/><line class="f" x1="68.71" y1="417.57" x2="68.71" y2="486.57"/><path class="l" d="M229.49,303.87c7.74-23.34,38.62-22,56.86-15.55-11-13.64-13-34-1.1-45.47-15.31,3.34-33.1-12-36.44-27.33-6.85,12.72-23.45,21.15-35.74,12.61,3.77,13.61-6.47,25.47-18.82,31.37C194.25,259.5,228,276.78,229.49,303.87Z"/><path d="M237.14,269.91a3.64,3.64,0,1,1,3.64,3.48A3.49,3.49,0,0,1,237.14,269.91Zm.84-21.43-.12-5.28h5.88l-.12,5.28-1.2,14.72h-3.28Z"/><path class="h" d="M134.05,369.26c-1-18.43-.3-62.79,24.61-90.26a7.72,7.72,0,0,1,1-1.11l0,0h0a7.66,7.66,0,0,1,8.25-1.3,8.1,8.1,0,0,1,1.8,13.56h0l0,0a3,3,0,0,1-.35.27c-3.33,2.83-18.75,23-17.35,61.15"/><path class="i" d="M164.46,289.85c.3-.39,3.35-7,7.6-8.2"/><path class="i" d="M160.71,286.33s5-9.07,8.79-9.27"/><path class="h" d="M306.29,530.62q2.55-3.12,4.91-6.41l.2-.28c.73-1,1.45-2.06,2.15-3.1a1.74,1.74,0,0,0,.11-.18c.76-1.12,1.49-2.26,2.21-3.41s1.4-2.3,2.07-3.47l.27-.47q2-3.55,3.85-7.24c.08-.18.17-.36.26-.55.57-1.17,1.12-2.35,1.66-3.55l.06-.15c.57-1.26,1.11-2.53,1.63-3.82l.21-.52c.45-1.12.89-2.26,1.31-3.4l.21-.57q.71-1.94,1.35-3.9a3,3,0,0,0,.1-.32c.39-1.18.75-2.37,1.1-3.56.08-.27.16-.54.23-.81q1.13-3.9,2-7.9c.07-.3.13-.61.2-.92.24-1.16.47-2.31.68-3.48,0-.19.07-.39.11-.58.23-1.33.45-2.67.64-4,.05-.31.08-.62.13-.92.15-1.1.28-2.2.41-3.31,0-.32.07-.64.1-1,.15-1.35.27-2.7.36-4.06,0-.24,0-.48.05-.72.08-1.15.14-2.31.18-3.47,0-.37,0-.75,0-1.12.05-1.38.08-2.77.08-4.16,0-70-55.42-126.72-123.79-126.72S87.57,379.31,87.57,449.3c0,1.38,0,2.75.08,4.12,0,.37,0,.75,0,1.12,0,1.13.1,2.25.17,3.37,0,.26,0,.53,0,.79q.15,2,.36,4.05l.09.85c.12,1.12.26,2.23.41,3.34,0,.31.08.61.13.92.19,1.36.4,2.71.64,4.05a.43.43,0,0,1,0,.11c.23,1.31.49,2.61.76,3.9.05.27.11.54.17.8.28,1.3.57,2.59.89,3.87a.13.13,0,0,1,0,.06c.35,1.37.71,2.73,1.09,4.08,0,.16.1.32.14.48.36,1.23.73,2.46,1.12,3.68,0,.11.07.22.11.34q1.31,4,2.87,7.92l.12.32c1.06,2.62,2.19,5.21,3.41,7.74l.06.12a126.51,126.51,0,0,0,6.13,11.22.43.43,0,0,0,0,.07q2.35,3.82,5,7.46h0q2.61,3.64,5.45,7.08l0,0c17,10.25,52.8,17.32,94.23,17.32C253.33,548.51,289.7,541.18,306.29,530.62Z"/><path class="j" d="M213.13,345.72c-1.13,3.36-6.2,4.63-11.31,2.82s-8.34-6-7.2-9.36,6.19-4.62,11.3-2.82S214.26,342.35,213.13,345.72Z"/><path class="j" d="M249.86,374.55c-2.68,2.27-7.64.66-11.09-3.6s-4.08-9.56-1.41-11.83,7.65-.66,11.1,3.6S252.54,372.28,249.86,374.55Z"/><path class="k" d="M215.93,395.26l-34.4-21.1a6.83,6.83,0,0,1-2.25-9.21h0a6.49,6.49,0,0,1,9-2.3l34.4,21.11"/><path class="j" d="M204,361.73a4.84,4.84,0,0,1-6.72,1.72,5.08,5.08,0,0,1-1.68-6.87,4.84,4.84,0,0,1,6.72-1.73A5.08,5.08,0,0,1,204,361.73Z"/><path class="j" d="M235.34,381a4.83,4.83,0,0,1-6.71,1.72,5.07,5.07,0,0,1-1.69-6.87,4.83,4.83,0,0,1,6.72-1.72A5.07,5.07,0,0,1,235.34,381Z"/><path class="i" d="M195.38,406.92a4.84,4.84,0,0,1-6.72,1.72,5.08,5.08,0,0,1-1.68-6.88"/><path class="i" d="M203.77,412.07a4.83,4.83,0,0,1-6.71,1.72,5.07,5.07,0,0,1-1.68-6.87"/><line class="k" x1="184.94" y1="392.18" x2="212.98" y2="409.39"/><path class="c" d="M270.51,434.8a17.94,17.94,0,0,1-24.93,6.39,18.86,18.86,0,0,1-6.24-25.52,17.94,17.94,0,0,1,24.93-6.39A18.86,18.86,0,0,1,270.51,434.8Z"/><path class="c" d="M168.82,371.26a17.94,17.94,0,0,1-24.93,6.39,18.86,18.86,0,0,1-6.24-25.51,17.94,17.94,0,0,1,24.93-6.39A18.85,18.85,0,0,1,168.82,371.26Z"/><path class="h" d="M294,455c14-11.58,45.88-41.68,49.25-79a8.78,8.78,0,0,0,.13-1.53v-.05h0a8,8,0,0,0-4.57-7.16,7.77,7.77,0,0,0-10.37,4,8.12,8.12,0,0,0-.69,3.72h0s0,0,0,0,0,.3,0,.45c.16,4.42-4.26,29.67-32.92,54"/><path class="i" d="M331.47,378.81c.09-.49,2.87-7.23.9-11.27"/><path class="i" d="M336.54,379.31s3.24-9.89.88-12.88"/></svg>