<svg xmlns="http://www.w3.org/2000/svg" viewBox="0 0 409.36 718.15"><defs><style>.a{fill:#1a1a1a;}.b,.g{fill:#fff;}.c,.d,.f,.h,.j{fill:none;}.d{stroke:#fff;}.d,.e,.j,.k,.l,.m{stroke-linecap:round;stroke-linejoin:round;}.d,.e,.g,.h,.i,.j,.k,.l{stroke-width:5px;}.e{fill:#9cd9e2;}.e,.f,.g,.h,.i,.j,.k,.l,.m{stroke:#000;}.f,.g,.h,.i{stroke-miterlimit:10;}.f,.m{stroke-width:3px;}.k{fill:#ffc900;}.l{fill:#f66c00;}.n{fill:#aede00;}</style></defs><title>wrong-1</title><path class="a" d="M208,178.44l21.38-37a6.67,6.67,0,0,0-5.78-10H180.79a6.68,6.68,0,0,0-5.79,10l21.38,37A6.68,6.68,0,0,0,208,178.44Z"/><rect x="60.21" y="54.38" width="283.92" height="105.55" rx="35.31" ry="35.31"/><path class="b" d="M184.7,122.33c1.68-.36,3.48-.72,5.2-1.08l.2,3c-4.88,1.11-10,2.27-13.84,3.11L175.5,124l6.2-1.15V112.05H176v-3.16h5.68v-3.8h-3.48v-1.76a24.78,24.78,0,0,1-1.92,1.72,29.81,29.81,0,0,0-1.44-3.76,27.74,27.74,0,0,0,8-9.6l2.8,1.28c-.28.52-.56,1-.84,1.6a41.52,41.52,0,0,1,6.4,4.8l-1.6,3.08a46.46,46.46,0,0,0-6.44-5.24A30.79,30.79,0,0,1,179.5,102h9.12v3.12H184.7v3.8h5.2v3.16h-5.2Zm-5.76-8.48a49.93,49.93,0,0,1,1.48,7.08l-2.48.76a48.93,48.93,0,0,0-1.36-7.2Zm6.56,6.64a64.51,64.51,0,0,0,1.6-7l2.72.76c-.76,2.44-1.48,5.2-2.16,7Zm26.23-15.72v3.32H190.82v-3.32h4.48v-4.6h-3.68V96.89h3.68V92h3.24v4.92h5.36V92h3.32v4.92h3.43v3.28h-3.43v4.6Zm-18.43,6.12h16.24v17.63H206.1V127h-9.48v1.64H193.3Zm3.32,3.08v3.52h9.48V114Zm9.48,10v-3.52h-9.48V124Zm-7.56-19.2h5.36v-4.6h-5.36Z"/><path class="b" d="M221.14,118.89v3.68h-2.92V94.77h9.36v24.12Zm0-21.16v18.16h3.52V97.73ZM231.38,121a52.76,52.76,0,0,1-2.16,7.31,11.78,11.78,0,0,0-2.2-.64,37.6,37.6,0,0,0,2.16-7.15Zm6-7.68a36.26,36.26,0,0,1,1.88,6.16L237,120c-.08-.44-.2-1-.36-1.6-5.88.8-6.92,1-7.56,1.32a15.81,15.81,0,0,0-.76-2.36c.68-.12,1.36-.8,2.28-1.88a38.9,38.9,0,0,0,2.36-3.12,14.17,14.17,0,0,0-3.68.48,14,14,0,0,0-.8-2.4c.56-.12,1-.6,1.52-1.32a29.05,29.05,0,0,0,3.16-6.2l2.64,1a33,33,0,0,1-3.64,6.12l2.28-.08a29.59,29.59,0,0,0,2-3.64l2.4,1.24a55.15,55.15,0,0,1-6.4,9.08l3.64-.4c-.24-.84-.56-1.72-.84-2.52Zm15.16-10.48H229.7V93.73h22.8Zm-18,18a51.22,51.22,0,0,1,.68,6.59l-2.32.32a44.15,44.15,0,0,0-.52-6.63Zm2-24.32h-3.68v3.6h3.68Zm1,23.68a57.56,57.56,0,0,1,1.68,6l-2.12.6a46.9,46.9,0,0,0-1.56-6.07Zm16.07,6.67H243.34v1.84h-2.88v-15l-.2.28a15.46,15.46,0,0,0-2.44-1.68A27.53,27.53,0,0,0,242.5,103l2.84.72c-.4,1.16-.84,2.36-1.28,3.48h3.24c-.36-1.08-.8-2.4-1.24-3.44l2.4-.72a41.34,41.34,0,0,1,1.56,4.16h3.35V110h-4v2.92h3.43v2.6h-3.43v2.92h3.43v2.6h-3.43v2.84h4.19ZM242.82,96.45H239v3.6h3.8ZM246.7,110h-3.36v2.92h3.36Zm0,5.52h-3.36v2.92h3.36Zm-3.36,8.36h3.36v-2.84h-3.36Zm5.88-27.44h-3.88v3.6h3.88Z"/><path class="b" d="M263.9,122.29a3.64,3.64,0,0,1,7.28,0,3.64,3.64,0,0,1-7.28,0Zm.84-21.44-.12-5.28h5.88l-.12,5.28-1.2,14.72H265.9Z"/><rect class="c" width="409.36" height="718.15"/><line class="d" x1="111.09" y1="91.94" x2="147.09" y2="127.94"/><line class="d" x1="147.09" y1="91.94" x2="111.09" y2="127.94"/><path class="e" d="M134.56,319.26c4.72-20.19,19.33-67.86,55.44-89.53a9.25,9.25,0,0,1,1.48-.87l.05,0h0a9,9,0,1,1,7.27,16.46h0l0,0-.48.17c-4.55,2-27.92,18.87-38.3,60.44"/><path class="f" d="M193,243.3c.45-.33,5.89-6.49,11-6.42"/><path class="f" d="M190,238.29s8.4-8.17,12.6-7.18"/><circle class="e" cx="225.84" cy="420.56" r="142.4" transform="translate(-231.23 282.87) rotate(-45)"/><path class="g" d="M227.88,304.17c-1.31,3.78-7.13,5.2-13,3.17s-9.59-6.73-8.29-10.51,7.13-5.21,13-3.18S229.18,300.39,227.88,304.17Z"/><path class="g" d="M270.13,336.57c-3.08,2.55-8.79.74-12.76-4.05s-4.7-10.74-1.62-13.29,8.8-.74,12.77,4S273.21,334,270.13,336.57Z"/><path class="h" d="M231.1,359.84l-39.57-23.72a7.56,7.56,0,0,1-2.59-10.34h0a7.56,7.56,0,0,1,10.34-2.59l39.57,23.73"/><path class="g" d="M217.37,322.16a5.63,5.63,0,1,1-1.93-7.73A5.62,5.62,0,0,1,217.37,322.16Z"/><path class="g" d="M253.43,343.77a5.63,5.63,0,1,1-1.94-7.73A5.63,5.63,0,0,1,253.43,343.77Z"/><path class="f" d="M207.46,372.94a5.64,5.64,0,0,1-9.67-5.79"/><path class="f" d="M217.12,378.73a5.63,5.63,0,0,1-9.66-5.79"/><line class="h" x1="195.45" y1="356.38" x2="227.71" y2="375.72"/><path class="b" d="M293.88,404.27a20.9,20.9,0,1,1-7.18-28.67A20.9,20.9,0,0,1,293.88,404.27Z"/><path class="b" d="M176.9,332.87a20.9,20.9,0,1,1-7.18-28.67A20.89,20.89,0,0,1,176.9,332.87Z"/><path class="e" d="M320.89,427c16.15-13,52.78-46.83,56.66-88.76a9.07,9.07,0,0,0,.14-1.72v-.05h0a9,9,0,0,0-17.18-3.59,8.89,8.89,0,0,0-.79,4.17h0v0c0,.18,0,.34,0,.51.19,5-4.9,33.35-37.86,60.72"/><path class="f" d="M364,341.35c.1-.54,3.3-8.12,1-12.66"/><path class="f" d="M369.84,341.92s3.72-11.12,1-14.48"/><path class="e" d="M136.94,512.36l-21.47,25.5-10-8.42c9.28-11.37,17.9-22.4,23.64-29.84"/><polygon class="g" points="90.17 567.77 67.63 548.81 73.57 541.9 96.11 560.87 90.17 567.77"/><line class="f" x1="101.17" y1="525.82" x2="120.24" y2="541.87"/><path class="i" d="M105.48,529.44c-2.85,3.49-5.76,7-8.67,10.46,0,0-12.76-12.28-23.24,2l22.54,19,19.36-23Z"/><path class="e" d="M205.62,543.07l-19,27.37L175.87,563c8.2-12.18,15.76-24,20.79-31.9"/><polygon class="g" points="164.15 602.55 139.97 585.74 145.25 578.31 169.43 595.13 164.15 602.55"/><line class="f" x1="171.25" y1="559.77" x2="191.71" y2="573.99"/><path class="i" d="M175.87,563c-2.52,3.73-5.09,7.5-7.67,11.21,0,0-13.84-11.06-22.95,4.12l24.18,16.82,17.16-24.69Z"/><line class="j" x1="22.01" y1="348.34" x2="73.31" y2="366.92"/><line class="j" x1="36.25" y1="342.16" x2="62.27" y2="351.59"/><line class="j" x1="56.3" y1="210.27" x2="107.6" y2="229.11"/><line class="j" x1="70.55" y1="205.56" x2="96.56" y2="214.99"/><path class="k" d="M184.32,293.64c16-2.15,28,11.91,31.91,27,6.62-20.25,23.35-19.08,39-13.49-9.42-11.84-11.17-29.54-1-39.46-13.11,2.9-28.34-10.43-31.2-23.71-5.86,11-20.07,18.36-30.6,10.94,3.24,11.81-5.54,22.1-16.1,27.22"/><path class="l" d="M160.65,316.9l.64,25.13,1.37,0a12.57,12.57,0,0,1,12.86,12.22l-27.18.69-.08-3-.24-9.51-.63-25.14Z"/><path class="l" d="M89.58,298.86l-16,19.43,1.06.88a12.57,12.57,0,0,1,1.74,17.65l-21-17.25,1.92-2.34,6-7.35,15.95-19.44Z"/><line class="l" x1="132.15" y1="326.64" x2="69.15" y2="303.82"/><path class="l" d="M144.62,331.15l24.93,9a34.13,34.13,0,0,0,43.6-20.41h0a34.14,34.14,0,0,0-20.41-43.6L86.82,237.8a34.15,34.15,0,0,0-43.61,20.42h0A34.16,34.16,0,0,0,57,298.52Z"/><path d="M198.22,304.93a4.86,4.86,0,1,0,6.27-2.83A4.87,4.87,0,0,0,198.22,304.93Z"/><path class="j" d="M28.14,234.3A25.36,25.36,0,0,0,44.36,255"/><path class="m" d="M191.72,291.18s-5.78,14.55-21.27,18.52a12.67,12.67,0,1,1-6.29-24.54C179.65,281.19,191.72,291.18,191.72,291.18Z"/><path class="l" d="M72.5,301.38l-7.2,8.77,1.07.87a12.59,12.59,0,0,1,1.73,17.66l-21-17.25L49,309.08l6-7.35,7.72-9.41"/><path class="l" d="M216.52,334.45a11.47,11.47,0,0,1-14.69,6.89l-.5-.18a11.48,11.48,0,0,1-6.88-14.7l1.28-3.54a11.48,11.48,0,0,1,14.7-6.88l.5.18a11.46,11.46,0,0,1,6.88,14.69Z"/><path class="m" d="M219.43,319.3a4.86,4.86,0,0,1-6.22,2.91h0A4.85,4.85,0,0,1,210.3,316l.55-1.52a4.86,4.86,0,0,1,6.22-2.92h0a4.85,4.85,0,0,1,2.91,6.22Z"/><path class="l" d="M147.14,317.92l.64,25.14,1.37,0A12.57,12.57,0,0,1,162,355.25l-27.18.68-.08-3-.24-9.51-.63-25.14"/><path class="n" d="M294.08,625.14a1.5,1.5,0,0,0,0-3,1.5,1.5,0,0,0,0,3Z"/></svg>