<svg xmlns="http://www.w3.org/2000/svg" xmlns:xlink="http://www.w3.org/1999/xlink" viewBox="0 0 240 160"><defs><style>.a,.h{fill:none;}.b{isolation:isolate;}.c{fill:#333;mix-blend-mode:multiply;}.d{fill:#f66c00;}.d,.e,.g,.h,.i,.k{stroke:#000;}.d,.e,.g,.k{stroke-linecap:round;stroke-linejoin:round;}.d,.e{stroke-width:5px;}.e,.i,.j,.k{fill:#fff;}.f{clip-path:url(#a);}.g{fill:#9cd9e2;}.g,.h,.i,.k{stroke-width:3px;}.h,.i{stroke-miterlimit:10;}</style><clipPath id="a"><rect class="a" width="240" height="160"/></clipPath></defs><title>q3-step-2</title><g class="b"><rect class="c" x="-1074.85" y="-414.4" width="1920" height="1080"/><rect class="d" x="-856.82" y="-304.4" width="1500" height="841.88" rx="38.55" ry="38.55"/><rect class="e" x="-343.41" y="-242.51" width="927.4" height="621.73" rx="42.06" ry="42.06"/><g class="f"><path class="g" d="M35.13,123c-4.83-15-14-51.58,1-79.74a7.07,7.07,0,0,1,.62-1.15l0,0h0A6.81,6.81,0,1,1,47.9,49.92h0s0,0,0,0l-.24.31c-2.18,3.06-10.74,23.14-1.23,54.16"/><path class="h" d="M43.37,50.89c.16-.38,1.29-6.51,4.61-8.44"/><path class="h" d="M39.44,48.83s2.26-8.58,5.37-9.58"/><circle class="g" cx="117.72" cy="171.51" r="107.83"/><path class="i" d="M96.56,85.94c-.22,3-4.21,5.19-8.91,4.86s-8.33-3.07-8.11-6.09,4.21-5.19,8.9-4.85S96.77,82.92,96.56,85.94Z"/><path class="i" d="M133.78,101.43c-1.75,2.47-6.29,2.25-10.12-.48s-5.53-7-3.77-9.41,6.29-2.25,10.13.48S135.54,99,133.78,101.43Z"/><path class="h" d="M109.75,126.06,76.18,116.4a5.72,5.72,0,0,1-3.91-7.06h0a5.72,5.72,0,0,1,7.06-3.91l33.58,9.66"/><path d="M92.37,101.15a4.26,4.26,0,1,1-2.92-5.28A4.26,4.26,0,0,1,92.37,101.15Z"/><path d="M123,110a4.26,4.26,0,1,1-2.92-5.28A4.26,4.26,0,0,1,123,110Z"/><path class="h" d="M95,140.24a4.27,4.27,0,0,1-8.2-2.36"/><path class="h" d="M103.19,142.6A4.26,4.26,0,1,1,95,140.24"/><line class="h" x1="82.99" y1="130.46" x2="110.36" y2="138.34"/><path class="j" d="M164.34,146.35a15.83,15.83,0,1,1-10.84-19.58A15.82,15.82,0,0,1,164.34,146.35Z"/><path class="j" d="M64.84,116.87A15.83,15.83,0,1,1,54,97.28,15.81,15.81,0,0,1,64.84,116.87Z"/><polygon class="k" points="195.27 90.82 29.75 63.1 59.17 14.06 224.69 41.79 195.27 90.82"/><path class="g" d="M188.52,157.7c9.29-12.67,29.51-44.55,24.19-76a6.72,6.72,0,0,0-.23-1.28v0h0a6.81,6.81,0,1,0-13,3.92h0l0,0c0,.13.08.25.13.37,1.1,3.59,2.9,25.35-15.9,51.8"/><path class="h" d="M203.42,86.66c0-.42.83-6.59-1.71-9.47"/><path class="h" d="M207.79,85.94s.56-8.86-2.07-10.79"/><path d="M101.3,48.06a41.87,41.87,0,0,1-6.88,4.39c-.39,2.21-.17,3.61.8,3.77.57.1,1.48-.95,3.16-3.69A3.11,3.11,0,0,0,99.57,54c-2.52,3.73-3.84,4.63-5.76,4.31s-2.37-2-2.07-4.57A43.45,43.45,0,0,1,85.34,56,5.93,5.93,0,0,0,84.76,54a38.1,38.1,0,0,0,7.42-2.49,40.24,40.24,0,0,1,2.28-6.46l-5.25-.88-1.77,3.12,4.38-.07-.88,1.88c-1.52.07-3.09.14-4.62.18L83.8,53.75a3.28,3.28,0,0,1-2.36,2,13.1,13.1,0,0,1-4.29-.28,7.81,7.81,0,0,0,.36-2.23c1.42.28,2.8.52,3.21.56a.71.71,0,0,0,.85-.39l2.25-4-5.1.14.56-2.18c1.52,0,3.53,0,5.7,0l2-3.52L82.18,43l1.11-2,4.8.8,1.74-3.07c-1.53,0-3-.07-4.4-.13a6.12,6.12,0,0,0,.28-1.83,76.29,76.29,0,0,0,10.48-.37l.56,2c-1.37.16-2.89.24-4.45.28l-2,3.5,5,.84c.94-2,2-4.15,3.21-6.27l2.28.38c-1.24,2.14-2.34,4.27-3.26,6.26l6.74,1.13-1.11,2-6.51-1.09A45,45,0,0,0,95,50.13,34.89,34.89,0,0,0,99.77,47Zm1.38-4.83a12.92,12.92,0,0,0-1.41-4.36l2.27-.79a13.54,13.54,0,0,1,1.6,4.25Z"/><path d="M118.89,55.67A17.92,17.92,0,0,1,114.67,58a62.43,62.43,0,0,1,6,3l-2.82,1.12a49.71,49.71,0,0,0-6.14-3.26,39.49,39.49,0,0,1-11.91.33,4.77,4.77,0,0,0,.15-2,46.1,46.1,0,0,0,8.66.3c-1.49-.62-3-1.19-4.63-1.78,1-.59,2.16-1.3,3.33-2.08l-4.82-.81,1-1.74,6.05,1a32,32,0,0,0,2.53-2l2,.82c-.63.52-1.33,1.07-2,1.58l6.39,1.07c.42-.37.85-.76,1.27-1.18l1.82.92-.69.66,3.85.65-1,1.74Zm-3.14-13.25-6.31-1.06,1-1.81L130.81,43l-1,1.81-6.53-1.09-.92,1.63,5.65.94-3.35,5.91-18.33-3.07,3.35-5.91,5.17.87Zm-5.93,11.73c-.61.44-1.22.82-1.82,1.19,1.44.53,2.86,1.06,4.22,1.63a14.94,14.94,0,0,0,4-1.74Zm-.51-6.36,3.11.52,1.48-2.61-3.11-.52Zm5.2.87,3.32.56,1.48-2.61L116,46.05Zm6.66-5.33-3.33-.56-.92,1.63,3.33.56ZM121.4,47l-1.48,2.61,3.47.58,1.48-2.61Z"/><path d="M146.61,59.39a19.32,19.32,0,0,1-5.85,3.22,21.13,21.13,0,0,0,4.61,2.14A17.92,17.92,0,0,0,143,66.38a18.39,18.39,0,0,1-5.1-2.93,36.46,36.46,0,0,1-8.25.84,5.87,5.87,0,0,0,0-1.92,33.2,33.2,0,0,0,6.76-.38A12,12,0,0,1,135,60c-.91.36-1.81.67-2.71.93a7.52,7.52,0,0,0-.74-1.58c.94-.24,1.9-.52,2.88-.87a9.46,9.46,0,0,1-.35-1.91l1.93-.29a10.11,10.11,0,0,0,.31,1.37A17.42,17.42,0,0,0,139,56.18l-2.28-.38,3.38-5.95c-.54.3-1,.58-1.55.84a6.23,6.23,0,0,0-.76-1.18c-1,.78-2.09,1.53-3.19,2.25l-6.86,12.11-2.24-.37,5.4-9.53c-1.16.61-2.31,1.18-3.34,1.62a10.64,10.64,0,0,0,0-2.27,37.73,37.73,0,0,0,8.84-5l1.19.83a24.47,24.47,0,0,0,6.85-4.84l1.75.81c-.53.52-1.09,1-1.64,1.53l9.64,1.62-1,1.67-10.61-1.78c-.53.38-1,.73-1.57,1.06l10.1,1.69-3.79,6.69-6.15-1c-.45.34-1,.72-1.47,1l5.42.9.41,0ZM140.4,44.5A39.91,39.91,0,0,1,131.68,49a11,11,0,0,0-.15-1.93,29.56,29.56,0,0,0,7.19-3.71Zm-3.33,14.61a10,10,0,0,0,2,2.29A17.32,17.32,0,0,0,143,59.83l-5.51-.92Zm2.44-4.41,6.68,1.12.7-1.25-6.67-1.12ZM141,52.09l6.67,1.12.69-1.2-6.68-1.12Z"/><path d="M148.4,64.59,168.73,68l-1,1.85-20.33-3.4Zm21.5-5.65-4.11,7.27L152.49,64l4.12-7.28Zm6.71-4.37-6.86-1.15A38,38,0,0,1,174.13,59l-2.25,1.26a38.86,38.86,0,0,0-5.06-6.63l-2.12,3.75L162.52,57l2.28-4a34.7,34.7,0,0,1-11.74,4.43,6.93,6.93,0,0,0-.45-1.9,31,31,0,0,0,10.11-3.22l-7-1.18,1-1.8L166,50.81l1.52-2.67,2.18.36-1.51,2.68,9.45,1.58Zm-11.42,8.29-8.84-1.48-.86,1.52,8.84,1.48ZM166.82,60,158,58.51,157.14,60,166,61.48Z"/></g><rect class="a" width="240" height="160"/></g></svg>