<svg xmlns="http://www.w3.org/2000/svg" viewBox="0 0 409.36 718.15"><defs><style>.a{fill:#1a1a1a;}.b,.h,.i{fill:#fff;}.c,.g,.j,.l,.m{fill:none;}.c{stroke:#fff;}.c,.d,.e,.g,.h,.l{stroke-linecap:round;}.c,.d,.e,.h,.l{stroke-linejoin:round;}.c,.d,.e,.g,.h,.i,.k,.l{stroke-width:5px;}.d{fill:#ffc900;}.d,.e,.f,.g,.h,.i,.j,.k,.l{stroke:#000;}.e{fill:#333;}.f,.g,.i,.j,.k{stroke-miterlimit:10;}.f,.j{stroke-width:3px;}</style></defs><title>wrong-5</title><path class="a" d="M208,178.44l21.38-37a6.68,6.68,0,0,0-5.78-10H180.79a6.68,6.68,0,0,0-5.79,10l21.38,37A6.68,6.68,0,0,0,208,178.44Z"/><path d="M95.51,54.37H308.82a35.31,35.31,0,0,1,35.31,35.31v34.94a35.31,35.31,0,0,1-35.31,35.31H95.51a35.31,35.31,0,0,1-35.31-35.31V89.68A35.3,35.3,0,0,1,95.51,54.37Z"/><path class="b" d="M184.7,122.32c1.68-.36,3.48-.72,5.2-1.07l.2,3c-4.88,1.12-10,2.28-13.84,3.12L175.5,124l6.2-1.16V112.05H176v-3.16h5.68v-3.8h-3.48v-1.76a24.78,24.78,0,0,1-1.92,1.72,29.81,29.81,0,0,0-1.44-3.76,27.74,27.74,0,0,0,8-9.6l2.8,1.28c-.28.52-.56,1-.84,1.6a41.52,41.52,0,0,1,6.4,4.8l-1.6,3.08a46.46,46.46,0,0,0-6.44-5.24A30.79,30.79,0,0,1,179.5,102h9.12v3.12H184.7v3.8h5.2v3.16h-5.2Zm-5.76-8.47a49.82,49.82,0,0,1,1.48,7.07l-2.48.76a49.06,49.06,0,0,0-1.36-7.19Zm6.56,6.64a64.51,64.51,0,0,0,1.6-7l2.72.76c-.76,2.44-1.48,5.2-2.16,7Zm26.23-15.72v3.32H190.82v-3.32h4.48v-4.6h-3.68V96.89h3.68V92h3.24v4.92h5.35V92h3.32v4.92h3.44v3.28h-3.44v4.6Zm-18.43,6.12h16.23v17.63h-3.44V127h-9.47v1.64H193.3Zm3.32,3.08v3.52h9.47V114Zm9.47,10v-3.52h-9.47V124Zm-7.55-19.19h5.35v-4.6h-5.35Z"/><path class="b" d="M221.14,118.88v3.68h-2.92V94.77h9.36v24.11Zm0-21.15v18.16h3.52V97.73ZM231.38,121a52.51,52.51,0,0,1-2.16,7.32,11.78,11.78,0,0,0-2.2-.64,37.83,37.83,0,0,0,2.16-7.15Zm6-7.67a36.45,36.45,0,0,1,1.88,6.15L237,120c-.08-.44-.2-1-.36-1.59-5.88.8-6.92,1-7.56,1.31a15.72,15.72,0,0,0-.76-2.35c.68-.12,1.36-.8,2.28-1.88a38.9,38.9,0,0,0,2.36-3.12,14.17,14.17,0,0,0-3.68.48,14,14,0,0,0-.8-2.4c.56-.12,1-.6,1.52-1.32a29.05,29.05,0,0,0,3.16-6.2l2.64,1a33,33,0,0,1-3.64,6.12l2.28-.08a29.59,29.59,0,0,0,2-3.64l2.4,1.24a55.15,55.15,0,0,1-6.4,9.08l3.64-.4c-.24-.84-.56-1.72-.84-2.52Zm15.15-10.48H229.7V93.73h22.79Zm-18,18a51.37,51.37,0,0,1,.68,6.6l-2.32.32a44.28,44.28,0,0,0-.52-6.64Zm2-24.31h-3.68v3.6h3.68Zm1,23.67a57.7,57.7,0,0,1,1.68,6l-2.12.6a47,47,0,0,0-1.56-6.08Zm16.07,6.68H243.33v1.84h-2.87v-15l-.2.28a15.46,15.46,0,0,0-2.44-1.68A27.53,27.53,0,0,0,242.5,103l2.83.72c-.39,1.16-.83,2.36-1.27,3.48h3.23c-.36-1.08-.79-2.4-1.24-3.44l2.4-.72a41.34,41.34,0,0,1,1.56,4.16h3.36V110h-4v2.92h3.44v2.6h-3.44v2.91h3.44V121h-3.44v2.84h4.2ZM242.82,96.45H239v3.6h3.8ZM246.69,110h-3.36v2.92h3.36Zm0,5.52h-3.36v2.91h3.36Zm-3.36,8.35h3.36V121h-3.36Zm5.88-27.43h-3.88v3.6h3.88Z"/><path class="b" d="M263.9,122.28a3.64,3.64,0,1,1,3.64,3.48A3.5,3.5,0,0,1,263.9,122.28Zm.84-21.43-.12-5.28h5.88l-.12,5.28-1.2,14.72H265.9Z"/><line class="c" x1="111.09" y1="91.94" x2="147.09" y2="127.94"/><line class="c" x1="147.09" y1="91.94" x2="111.09" y2="127.94"/><path class="d" d="M404.52,475.12c-27.12-3.1-51.45-26.2-51.45-26.2-14-4.06,0-30.56,0-30.56-13.09-15.9-4.58-58.93-4.58-58.93-53.24-17.78-53.81-72-53.81-72-47.18,16.83-88.8-16.56-88.8-16.56s-41.63,33.39-88.8,16.56c0,0-.58,54.25-53.81,72,0,0,8.51,43-4.59,58.93,0,0,14,26.5,0,30.56,0,0-24.32,23.1-51.45,26.2,0,0,11.23,38.66,5.61,57.37,0,0,31.81-16.84,41.16,0,0,0,9.13-26.61,22.81-28.27,0,0,21.38,8.62,20.34,33.88,0,0,34.47,3.74,31.21,16.84,0,0-8.88,30.25-36,34.3,0,0,19.64,18.08,15.9,38.66,0,0,33-9.35,41.76-4.68,0,0,5.59-24.94,24-21.82,0,0-8.3-29.09,7.4-27s24.45,10.49,24.45,10.49,8.75-8.42,24.45-10.49,7.39,27,7.39,27c18.42-3.12,24,21.82,24,21.82,8.76-4.67,41.76,4.68,41.76,4.68-3.74-20.58,15.91-38.66,15.91-38.66-27.13-4-36-34.3-36-34.3-3.26-13.1,31.22-16.84,31.22-16.84C313.56,512.84,335,504.22,335,504.22c13.68,1.66,22.8,28.27,22.8,28.27,9.36-16.84,41.16,0,41.16,0C393.3,513.78,404.52,475.12,404.52,475.12Z"/><path class="e" d="M97.15,439.11C80.35,447.57,41.43,470.58,30,507a8.56,8.56,0,0,0-.46,1.49v0h0A8.15,8.15,0,0,0,44.09,515a8,8,0,0,0,1.5-3.54h0v0c0-.16,0-.31.06-.46.78-4.44,10.69-28.63,45.13-46.62"/><path class="f" d="M42.61,506.79c-.19.47-4.46,6.57-3.32,11"/><path class="f" d="M37.55,505.18s-5.41,9.14-3.65,12.64"/><path class="e" d="M307.78,439.11c16.8,8.46,55.71,31.47,67.13,67.91a7.13,7.13,0,0,1,.46,1.49l0,0h0a8.16,8.16,0,1,1-16.05,2.92h0s0,0,0,0c0-.16,0-.31-.05-.46-.79-4.44-10.7-28.63-45.14-46.62"/><path class="f" d="M362.31,506.79c.2.47,4.47,6.57,3.33,11"/><path class="f" d="M367.37,505.18s5.42,9.14,3.65,12.64"/><circle class="e" cx="205.93" cy="427.82" r="129.12"/><path class="g" d="M164.25,550.06a129.39,129.39,0,0,1-83.81-91.69"/><path class="g" d="M238,552.93A130.23,130.23,0,0,1,174,553"/><path class="g" d="M247.54,550.08q-4.71,1.6-9.59,2.85"/><path class="g" d="M76.82,429.62A129.12,129.12,0,1,1,255.67,547"/><path class="h" d="M202.46,322.75s-81.75-8.6-80.9,65.26c.75,64.89,65.24,48,80.9,42.88,15.66,5.08,80.15,22,80.9-42.88C284.21,314.15,202.46,322.75,202.46,322.75Zm-21.33,98.58a9.78,9.78,0,1,1,9.91-9.64A9.77,9.77,0,0,1,181.13,421.33Zm42.67,0a9.78,9.78,0,1,1,9.63-9.91A9.78,9.78,0,0,1,223.8,421.33Z"/><rect class="h" x="177.72" y="442.86" width="10.71" height="11.62" rx="2.13" ry="2.13"/><rect class="h" x="190.09" y="442.86" width="10.71" height="11.62" rx="2.13" ry="2.13"/><rect class="h" x="202.46" y="442.86" width="10.71" height="11.62" rx="2.13" ry="2.13"/><rect class="h" x="214.83" y="442.86" width="10.71" height="11.62" rx="2.13" ry="2.13"/><rect class="h" x="177.72" y="456.41" width="10.71" height="11.62" rx="2.13" ry="2.13"/><rect class="h" x="190.09" y="456.41" width="10.71" height="11.62" rx="2.13" ry="2.13"/><rect class="h" x="202.46" y="456.41" width="10.71" height="11.62" rx="2.13" ry="2.13"/><rect class="h" x="214.83" y="456.41" width="10.71" height="11.62" rx="2.13" ry="2.13"/><path class="e" d="M246.53,547.57l13.09,31.37,10.94-4.56c-4.12-10.3-7.9-20.27-10.75-27.93"/><rect class="i" x="270.14" y="598.75" width="26.71" height="5.3" transform="translate(776.74 1047.22) rotate(157.35)"/><line class="j" x1="276.68" y1="571.82" x2="255.82" y2="580.53"/><path class="k" d="M270.56,574.38c1.51,3.79,3.07,7.62,4.65,11.4,0,0,14.38-7.16,19.56,8l-24.65,10.29-10.5-25.17Z"/><path class="b" d="M254.66,549.41a1.75,1.75,0,1,1-2.27-1A1.76,1.76,0,0,1,254.66,549.41Z"/><path class="b" d="M257.66,548.27a1.74,1.74,0,1,1-2.26-1A1.73,1.73,0,0,1,257.66,548.27Z"/><path class="b" d="M261.71,567.94a1.75,1.75,0,1,1-2.27-1A1.75,1.75,0,0,1,261.71,567.94Z"/><path class="b" d="M264.71,566.79a1.74,1.74,0,1,1-2.26-1A1.74,1.74,0,0,1,264.71,566.79Z"/><rect class="b" x="256.41" y="548.7" width="3.58" height="20.07" transform="translate(-181.84 128.37) rotate(-20.84)"/><path class="e" d="M165.32,547.57l-13.09,31.37-10.94-4.56c4.13-10.3,7.91-20.27,10.76-27.93"/><rect class="i" x="115" y="598.75" width="26.71" height="5.3" transform="translate(241.52 -3.04) rotate(22.65)"/><line class="j" x1="135.17" y1="571.82" x2="156.03" y2="580.53"/><path class="k" d="M141.29,574.38c-1.51,3.79-3.07,7.62-4.65,11.4,0,0-14.38-7.16-19.56,8l24.65,10.29,10.5-25.17Z"/><path class="b" d="M157.2,549.41a1.74,1.74,0,1,0,2.26-1A1.74,1.74,0,0,0,157.2,549.41Z"/><path class="b" d="M154.19,548.27a1.74,1.74,0,1,0,2.27-1A1.73,1.73,0,0,0,154.19,548.27Z"/><path class="b" d="M150.14,567.94a1.75,1.75,0,1,0,2.27-1A1.76,1.76,0,0,0,150.14,567.94Z"/><path class="b" d="M147.14,566.79a1.74,1.74,0,1,0,2.26-1A1.74,1.74,0,0,0,147.14,566.79Z"/><rect class="b" x="143.62" y="556.94" width="20.07" height="3.58" transform="translate(-423.19 503.61) rotate(-69.16)"/><path class="h" d="M355.6,220.71a36.48,36.48,0,0,0-66.73,8.76c-15.38,1.11-27.52,14.72-27.52,29.53H386.2A39.48,39.48,0,0,0,355.6,220.71Z"/><polygon class="d" points="315.81 270.11 318.27 248.4 299.22 279.74 321.54 279.74 316.15 311.08 338.07 270.11 315.81 270.11"/><polygon class="d" points="131.16 230.11 122.23 214.72 124.98 244.47 139.58 233.63 151.27 256.74 145.72 219.31 131.16 230.11"/><path class="l" d="M321.37,240.54a15.71,15.71,0,0,1,24.48-13"/><path class="l" d="M298.25,243a17.05,17.05,0,0,1,24.63-10.18"/><rect class="m" width="409.36" height="718.15"/></svg>