<svg xmlns="http://www.w3.org/2000/svg" viewBox="0 0 41.4 41.4"><defs><style>.a,.c{fill:#9cd9e2;}.a,.b,.c{stroke:#1a1a1a;}.a{stroke-linecap:round;stroke-linejoin:round;stroke-width:3px;}.b{fill:#fff;}.b,.c{stroke-miterlimit:10;stroke-width:2px;}</style></defs><title>progress-ball</title><circle class="a" cx="20.7" cy="20.7" r="19.2"/><path class="b" d="M16.19,13.48c.3,1.3-1.11,2.73-3.14,3.19s-3.92-.23-4.21-1.54S10,12.4,12,11.94,15.9,12.17,16.19,13.48Z"/><path class="b" d="M32.52,15.26c-.43,1.27-2.38,1.76-4.35,1.09s-3.22-2.23-2.8-3.5,2.38-1.75,4.35-1.09S32.94,14,32.52,15.26Z"/><path d="M16.37,20.44a1.89,1.89,0,1,1-1.91-1.86A1.89,1.89,0,0,1,16.37,20.44Z"/><path d="M29,20.25a1.89,1.89,0,1,1-1.91-1.86A1.89,1.89,0,0,1,29,20.25Z"/><path class="c" d="M23,28.87H18.77a3,3,0,0,1-3-3h0a3,3,0,0,1,3-3H23a3,3,0,0,1,3,3h0A3,3,0,0,1,23,28.87Z"/></svg>