<svg xmlns="http://www.w3.org/2000/svg" viewBox="0 0 790.86 83"><defs><style>.a{isolation:isolate;}.b{fill:#333;mix-blend-mode:multiply;}.c{fill:#f66c00;}.c,.d,.e,.g{stroke:#000;stroke-linecap:round;stroke-linejoin:round;}.c,.d{stroke-width:5px;}.d,.e{fill:#fff;}.e,.g{stroke-width:3px;}.f{fill:#1a1a1a;}.g{fill:none;}</style></defs><title>formula-2</title><g class="a"><rect class="b" x="-799.31" y="-483.16" width="1920" height="1080"/><rect class="c" x="-581.28" y="-373.16" width="1500" height="841.88" rx="38.55" ry="38.55"/><rect class="d" x="-67.86" y="-311.27" width="927.4" height="621.73" rx="42.06" ry="42.06"/><rect class="e" x="1.5" y="1.5" width="424.29" height="80" rx="20.41" ry="20.41"/><path class="f" d="M44.51,47.59c.75,0,.9-.39,1-2.81a7.91,7.91,0,0,0,2.38,1c-.29,3.24-1,4.14-3.15,4.14h-3c-2.64,0-3.3-.77-3.3-3.13V42.73h-.35C37,46,34.57,48.63,29,50.17A8.3,8.3,0,0,0,27.55,48c4.51-1.15,6.62-3,7.68-5.24H29.72v-4.9c-.22.19-.46.37-.7.54a7.92,7.92,0,0,0-1.85-2,18.6,18.6,0,0,0,6.19-6.71l2.81.53a10.57,10.57,0,0,1-.59,1H40l.44-.11,1.82,1.17a21.19,21.19,0,0,1-2.07,3h6v7.48H41.19v4c0,.75.13.83,1,.83ZM36,40.4a23.15,23.15,0,0,0,.38-2.84h-4V40.4Zm-1.87-7a21.64,21.64,0,0,1-1.6,1.89h4.57a16.74,16.74,0,0,0,1.39-1.89Zm5,4.2a27.74,27.74,0,0,1-.4,2.84h4.6V37.56Z"/><path class="f" d="M67.11,47.75c.35,0,.43-.29.5-2.38a5.78,5.78,0,0,0,2.25,1c-.27,2.95-.91,3.77-2.45,3.77H65.92c-2,0-2.42-.79-2.42-3.08v-4.4H62.38c-.31,3.49-1.19,6.2-4.85,7.79a7.46,7.46,0,0,0-1.51-2c3-1.19,3.58-3.19,3.82-5.76H58.46v-6c-.18.16-.33.31-.51.45a11.16,11.16,0,0,0-.9-1v2.27H54.78v.33c.55.53,2.23,2.51,2.58,3l-1.48,2.11c-.22-.55-.66-1.41-1.1-2.22v8.71H52.41V42.2a20.74,20.74,0,0,1-2.16,4.71A15.74,15.74,0,0,0,49,44.32a23.14,23.14,0,0,0,2.68-5.9H49.37V36h3V33.31c-.73.14-1.45.27-2.14.36a9.48,9.48,0,0,0-.72-2,28.64,28.64,0,0,0,6.38-1.78L57.45,32a18.16,18.16,0,0,1-2.67.82V36h2.09a9,9,0,0,0-.77-.71,14,14,0,0,0,4.27-5.15l2.42.77a20.49,20.49,0,0,1-3.28,4.76H67.3a42.31,42.31,0,0,0-3.67-4.58l1.83-1.25a34.88,34.88,0,0,1,4.64,5.74l-2,1.43c-.09-.18-.2-.35-.33-.57v6.25H66V47c0,.64,0,.71.35.71Zm-6.17-7.37h4.25V37.94H60.94Z"/><path class="f" d="M80.44,43.52h.06V50.3H78.21v-.55H75.35v.57H73.17V44c-.26.11-.52.22-.79.31a9.06,9.06,0,0,0-1.25-2.07,14.33,14.33,0,0,0,3.81-1.69l-1.15-.68,1.45-1.52,1.46.79a7.8,7.8,0,0,0,1.23-1.45H75.27a9.77,9.77,0,0,1-2.43,2.46,5.53,5.53,0,0,0-1.27-1.71,7.67,7.67,0,0,0,3.17-4.07l2,.39a8,8,0,0,1-.38,1h2.78l.37-.06,0,0V34H73.59v1.89H71.7v-4h3.87c-.15-.49-.33-1-.48-1.39l2.09-.72c.26.63.57,1.43.84,2.11h3.52v4H79.82l1,.68a12.29,12.29,0,0,1-2.18,3.61c1.19.68,2.35,1.39,3.1,1.91Zm-.75,0C79,43,78,42.38,77,41.74a13.89,13.89,0,0,1-2.79,1.78Zm-1.48,4.21V45.55H75.35v2.18ZM88.53,46a24.93,24.93,0,0,1,3.59,2.57l-1.5,1.78A26.41,26.41,0,0,0,87,47.44L88.27,46H85l1.56,1.62a26.48,26.48,0,0,1-4.73,2.84,12.21,12.21,0,0,0-1.08-1.91A20.47,20.47,0,0,0,84.9,46H82.53V34.37h2.79c.09-.48.18-1,.24-1.52H82v-2.2h9.83v2.2H87.94c-.13.53-.31,1.06-.46,1.52h3.78V46Zm-3.67-8.32H88.8V36.37H84.86Zm0,3.17H88.8V39.5H84.86Zm0,3.14H88.8V42.67H84.86Z"/><path class="f" d="M111.46,41.19h-6.69v6.69h-2.25V41.19H95.83V39h6.69V32.26h2.25V39h6.69Z"/><path class="f" d="M135.79,38.42v2.84H115.55V38.42Z"/><path class="f" d="M157.44,39.45a15.24,15.24,0,0,1-2.95,6.71,12.83,12.83,0,0,0,3.67,1.74,9.09,9.09,0,0,0-1.67,2.18A13.24,13.24,0,0,1,152.62,48a13.52,13.52,0,0,1-4.31,2.2,9,9,0,0,0-1.48-2.05,1.8,1.8,0,0,1-1,1.57,8.16,8.16,0,0,1-3.38.39,8.27,8.27,0,0,0-.69-2.22c.93,0,2,0,2.31,0s.42-.11.42-.44V41.08c-1.16.13-2.35.27-3.45.38a25.28,25.28,0,0,1-1.7,8.88,9.57,9.57,0,0,0-2-1.31,21.54,21.54,0,0,0,1.39-7.35l-1.21.13-.22-2.38,1.49-.09V32.06h2.29a18.05,18.05,0,0,0,.6-2.35l2.64.3c-.31.75-.6,1.43-.84,2.05h3.34v6.67l.44,0,.05,2-.49.06v6.69a6.12,6.12,0,0,1,0,.62,13.85,13.85,0,0,0,4-1.78A16.21,16.21,0,0,1,148,41.65l1.38-.41h-1.54V39h7.68l.42-.07ZM142.74,46a24.71,24.71,0,0,0-1.7-3.36l1.63-.8a22.07,22.07,0,0,1,1.79,3.19Zm-1.61-6.84,3.39-.26V34.11h-3.39v1.36l1.5-.75a21,21,0,0,1,1.69,2.93l-1.67.92a22.9,22.9,0,0,0-1.52-2.9v3.52Zm9.71-5.32c0,1.71-.31,3.71-2,4.88a12.65,12.65,0,0,0-1.91-1.65,3.46,3.46,0,0,0,1.54-3.3v-3h7.28v4.27c0,.6,0,.82.29.82h.81a3.51,3.51,0,0,0,1-.16c0,.64.08,1.48.17,2.07a3.48,3.48,0,0,1-1.21.16h-1.08c-2,0-2.44-.89-2.44-2.93V33h-2.46Zm-.42,7.37a11.58,11.58,0,0,0,2.26,3.41,9.41,9.41,0,0,0,1.85-3.41Z"/><path class="f" d="M167.49,41.81l-2.53.7v4.91c0,1.32-.24,2-1,2.37a7,7,0,0,1-3.37.49,9.72,9.72,0,0,0-.77-2.49c.86.05,1.76.05,2.05.05s.42-.11.42-.42v-4.2l-2.53.68-.53-2.55c.86-.18,1.93-.42,3.06-.69V35.91H159.5V33.49h2.78v-3.7H165v3.7h2.18v2.42H165V40l2.22-.59Zm11.33-10.23V49.49h-2.75V47.81h-5.3v1.85h-2.62V31.58Zm-2.75,13.77V34.06h-5.3V45.35Z"/><path class="f" d="M189,31.49c-.55,1.87-1.23,4.09-1.82,5.81a7.68,7.68,0,0,1,1.52,4.53c0,1.45-.29,2.38-1,2.9a2.47,2.47,0,0,1-1.21.49,10.47,10.47,0,0,1-1.41.06,5.08,5.08,0,0,0-.55-2.26,4.89,4.89,0,0,0,.92,0,.75.75,0,0,0,.55-.18c.27-.19.38-.68.38-1.32a6.54,6.54,0,0,0-1.39-4c.4-1.34.82-3.15,1.15-4.6h-1.74v17.3h-2.29V30.63h4.8l.37-.09Zm3.92,12.72a20.16,20.16,0,0,1-3.19,4.86,15.94,15.94,0,0,0-1.94-1.43,12.33,12.33,0,0,0,2.84-4.07Zm3.83-1.35v4.73c0,1.19-.22,1.83-1,2.25a8,8,0,0,1-3.3.44,8.84,8.84,0,0,0-.86-2.38,21.5,21.5,0,0,0,2.24,0c.31,0,.4-.08.4-.37V42.86H189V40.49h5.24V38.68h-3.54V37.17c-.31.19-.6.39-.91.54a9.06,9.06,0,0,0-1.69-1.91,16.44,16.44,0,0,0,6.8-6.29l2.18.83c-.18.31-.33.6-.53.88a18.62,18.62,0,0,0,5.79,4.29,7.4,7.4,0,0,0-1.72,2.12c-.33-.2-.68-.42-1-.66v1.71h-2.81v1.81h4.93v2.37Zm2.09-6.42A24.93,24.93,0,0,1,195.21,33a21.08,21.08,0,0,1-3.54,3.41Zm.46,7a22,22,0,0,1,2.95,4.27l-2.07,1.16a24.23,24.23,0,0,0-2.82-4.47Z"/><path class="f" d="M212.44,43.52h.06V50.3h-2.29v-.55h-2.86v.57h-2.18V44c-.26.11-.52.22-.79.31a9.06,9.06,0,0,0-1.25-2.07,14.33,14.33,0,0,0,3.81-1.69l-1.15-.68,1.45-1.52,1.46.79a7.8,7.8,0,0,0,1.23-1.45h-2.66a9.77,9.77,0,0,1-2.43,2.46,5.53,5.53,0,0,0-1.27-1.71,7.67,7.67,0,0,0,3.17-4.07l2,.39a8,8,0,0,1-.38,1h2.78l.37-.06,0,0V34h-5.92v1.89H203.7v-4h3.87c-.15-.49-.33-1-.48-1.39l2.09-.72c.26.63.57,1.43.84,2.11h3.52v4h-1.72l1,.68a12.29,12.29,0,0,1-2.18,3.61c1.19.68,2.35,1.39,3.1,1.91Zm-.75,0C211,43,210,42.38,209,41.74a13.89,13.89,0,0,1-2.79,1.78Zm-1.48,4.21V45.55h-2.86v2.18ZM220.53,46a24.93,24.93,0,0,1,3.59,2.57l-1.5,1.78A26.41,26.41,0,0,0,219,47.44l1.3-1.47H217l1.56,1.62a26.48,26.48,0,0,1-4.73,2.84,12.21,12.21,0,0,0-1.08-1.91A20.47,20.47,0,0,0,216.9,46h-2.37V34.37h2.79c.09-.48.18-1,.24-1.52H214v-2.2h9.83v2.2h-3.87c-.13.53-.31,1.06-.46,1.52h3.78V46Zm-3.67-8.32h3.94V36.37h-3.94Zm0,3.17h3.94V39.5h-3.94Zm0,3.14h3.94V42.67h-3.94Z"/><path class="f" d="M243.46,41.19h-6.69v6.69h-2.25V41.19h-6.69V39h6.69V32.26h2.25V39h6.69Z"/><path class="f" d="M251.16,45.42a12.88,12.88,0,0,1-2.14,4,13.51,13.51,0,0,0-1.67-1.21,9.12,9.12,0,0,0,1.82-3.28Zm3.21-.88v5.61h-2.49V44.54H248v-2h3.85v-1H247.7V39.63h2.47a7.07,7.07,0,0,0-.8-1.69l1.57-.53h-3V35.49h3.66c-.13-.33-.27-.66-.4-.94l1.89-.49h-1v-.72h-4.2V31.27h4.2v-1.5h2.6v1.5h2.6v2.07h-2.6v.72h-.88c.22.44.46.95.66,1.43h3.37v1.92h-3.15l1.89.46c-.28.64-.55,1.23-.79,1.76h2.4v1.91h-3.85v1H258v2Zm-3-7.13a8,8,0,0,1,1,2.13l-.24.09h1.41a18.45,18.45,0,0,0,.72-2.22Zm5,7.19A19.58,19.58,0,0,1,258,47.37l-1.76,1.08a20.57,20.57,0,0,0-1.49-2.9Zm11.29-2.42h-2.22v8H263v-8h-1.72c0,2.62-.41,6-2,8.12a10.59,10.59,0,0,0-1.81-1.67c1.37-2,1.48-4.73,1.48-6.93V35.82a33.94,33.94,0,0,0,6.66-1.6l1.9,1.87a40.3,40.3,0,0,1-6.19,1.41v2.44h6.41Zm-7-8.84h-2.57V31.27h2.57v-1.5h2.6v1.5h4.25v2.07h-4.25V34.5h-2.6Z"/><path class="f" d="M283.36,33.69c1.19,1.16,3.52,1.71,6.5,1.87a8.36,8.36,0,0,0-1.46,2.09,10.5,10.5,0,0,1-5.76-2.22c-.84,1-2.66,1.82-6.36,2.24a7.59,7.59,0,0,0-.88-1.43h-5.83v-2h6.64v1.34c4.21-.44,4.76-1.43,4.76-2.24V33h-1.32a10.2,10.2,0,0,1-1.54,1.89,12.55,12.55,0,0,0-1.94-1.34,8.77,8.77,0,0,0,2.57-3.92l2.29.51c-.11.33-.24.66-.37,1h6.25l.39-.11,1.79.55a19.44,19.44,0,0,1-2,3.48l-2-.75a12.87,12.87,0,0,0,.77-1.27h-2.45v.68Zm.6,12.94c2,.74,4.18,1.62,5.48,2.26l-2.36,1.41a39.58,39.58,0,0,0-5.72-2.59l1.34-1.08h-6.2l1.91.88a28.81,28.81,0,0,1-6.86,2.86,17.61,17.61,0,0,0-1.94-1.92,24.88,24.88,0,0,0,6-1.82h-3.17V37.69h14.72v8.94Zm-8.25-13.87h-5.63V30.85h5.63ZM275,40.2h9.53v-.94H275Zm0,2.42h9.53v-.94H275Zm0,2.47h9.53v-1H275Z"/><path class="f" d="M299.71,42.84l-2.11.55v6.93h-2.49V44l-2.9.75-.64-2.67c1-.17,2.22-.44,3.54-.7V36.55h-1.28a17.53,17.53,0,0,1-.79,2.93c-.44-.2-1.36-.55-1.85-.71a27.26,27.26,0,0,0,1.32-7.3l2,.3c-.07.77-.16,1.52-.27,2.29h.88V29.79h2.49v4.27h1.89v2.49H297.6v4.29l1.82-.42Zm12,0h-2.11v4.6c0,1.3-.24,2-1.12,2.39a9.18,9.18,0,0,1-3.68.47,11.42,11.42,0,0,0-.79-2.6c1,.05,2.23.05,2.58.05s.41-.09.41-.38V42.8h-7V40.4h7V38.86h2.6V40.4h2.11Zm-7.48-8.69h-4.13V31.73h4.13v-2h2.6v2h4.4v2.38h-4.4V36h3.65V38.4h-9.57V36h3.32ZM303,42.86a20.6,20.6,0,0,1,2.64,3.3l-2.07,1.35A19,19,0,0,0,301,44.05Z"/><path class="f" d="M323.78,40.25s0,.63,0,.94c-.22,5.3-.44,7.42-1.06,8.17a2.34,2.34,0,0,1-1.65.81,15.47,15.47,0,0,1-2.66.06,5.39,5.39,0,0,0-.66-2.26,17.69,17.69,0,0,0,2.15.11.79.79,0,0,0,.73-.29c.33-.37.53-1.78.68-5.26h-2.44c-.51,3-1.54,5.84-3.87,7.81a7.2,7.2,0,0,0-1.74-1.91c2.88-2.38,3.32-6.34,3.5-10h-2.2V30.78h9v7.66h-4.29c0,.6-.09,1.21-.13,1.81Zm-6.87-4.14h4.14v-3h-4.14Zm10.87,8.71h-2.55V32.43h2.55ZM333,30.21V47.15c0,1.55-.31,2.27-1.21,2.69a11.71,11.71,0,0,1-4.38.5,9.75,9.75,0,0,0-.9-2.7c1.43,0,2.83,0,3.3,0s.59-.13.59-.53V30.21Z"/><path class="f" d="M343.49,41.81l-2.53.7v4.91c0,1.32-.24,2-1,2.37a7,7,0,0,1-3.37.49,9.72,9.72,0,0,0-.77-2.49c.86.05,1.76.05,2.05.05s.42-.11.42-.42v-4.2l-2.53.68-.53-2.55c.86-.18,1.93-.42,3.06-.69V35.91H335.5V33.49h2.78v-3.7H341v3.7h2.18v2.42H341V40l2.22-.59Zm11.33-10.23V49.49h-2.75V47.81h-5.3v1.85h-2.62V31.58Zm-2.75,13.77V34.06h-5.3V45.35Z"/><path class="f" d="M365,31.49c-.55,1.87-1.23,4.09-1.82,5.81a7.68,7.68,0,0,1,1.52,4.53c0,1.45-.29,2.38-1,2.9a2.47,2.47,0,0,1-1.21.49,10.47,10.47,0,0,1-1.41.06,5.08,5.08,0,0,0-.55-2.26,4.89,4.89,0,0,0,.92,0,.75.75,0,0,0,.55-.18c.27-.19.38-.68.38-1.32a6.54,6.54,0,0,0-1.39-4c.4-1.34.82-3.15,1.15-4.6h-1.74v17.3h-2.29V30.63h4.8l.37-.09Zm3.92,12.72a20.16,20.16,0,0,1-3.19,4.86,15.94,15.94,0,0,0-1.94-1.43,12.33,12.33,0,0,0,2.84-4.07Zm3.83-1.35v4.73c0,1.19-.22,1.83-1,2.25a8,8,0,0,1-3.3.44,8.84,8.84,0,0,0-.86-2.38,21.5,21.5,0,0,0,2.24,0c.31,0,.4-.08.4-.37V42.86H365V40.49h5.24V38.68h-3.54V37.17c-.31.19-.6.39-.91.54a9.06,9.06,0,0,0-1.69-1.91,16.44,16.44,0,0,0,6.8-6.29l2.18.83c-.18.31-.33.6-.53.88a18.62,18.62,0,0,0,5.79,4.29,7.4,7.4,0,0,0-1.72,2.12c-.33-.2-.68-.42-1-.66v1.71h-2.81v1.81h4.93v2.37Zm2.09-6.42A24.93,24.93,0,0,1,371.21,33a21.08,21.08,0,0,1-3.54,3.41Zm.46,7a22,22,0,0,1,3,4.27l-2.07,1.16a24.23,24.23,0,0,0-2.82-4.47Z"/><path class="f" d="M388.44,43.52h.06V50.3h-2.29v-.55h-2.86v.57h-2.18V44c-.26.11-.52.22-.79.31a9.06,9.06,0,0,0-1.25-2.07,14.33,14.33,0,0,0,3.81-1.69l-1.15-.68,1.45-1.52,1.46.79a7.8,7.8,0,0,0,1.23-1.45h-2.66a9.77,9.77,0,0,1-2.43,2.46,5.53,5.53,0,0,0-1.27-1.71,7.67,7.67,0,0,0,3.17-4.07l2,.39a8,8,0,0,1-.38,1h2.78l.37-.06,0,0V34h-5.92v1.89H379.7v-4h3.87c-.15-.49-.33-1-.48-1.39l2.09-.72c.26.63.57,1.43.84,2.11h3.52v4h-1.72l.95.68a12.29,12.29,0,0,1-2.18,3.61c1.19.68,2.35,1.39,3.1,1.91Zm-.75,0C387,43,386,42.38,385,41.74a13.89,13.89,0,0,1-2.79,1.78Zm-1.48,4.21V45.55h-2.86v2.18ZM396.53,46a24.93,24.93,0,0,1,3.59,2.57l-1.5,1.78A26.41,26.41,0,0,0,395,47.44l1.3-1.47H393l1.56,1.62a26.48,26.48,0,0,1-4.73,2.84,12.21,12.21,0,0,0-1.08-1.91A20.47,20.47,0,0,0,392.9,46h-2.37V34.37h2.79c.09-.48.18-1,.24-1.52H390v-2.2h9.83v2.2h-3.87c-.13.53-.31,1.06-.46,1.52h3.78V46Zm-3.67-8.32h3.94V36.37h-3.94Zm0,3.17h3.94V39.5h-3.94Zm0,3.14h3.94V42.67h-3.94Z"/><rect class="e" x="484.83" y="1.5" width="276.84" height="80" rx="18.98" ry="18.98"/><path class="f" d="M525.53,42.25a13.1,13.1,0,0,0,4.29,2.55,9.34,9.34,0,0,0-1.74,2,14.67,14.67,0,0,1-3.45-2.31v1.63h-4v1.43h7.18v2.16H511.05V47.57H518V46.14h-3.89V44.78a15.39,15.39,0,0,1-3.5,2.24,10,10,0,0,0-1.67-2,13.36,13.36,0,0,0,4.44-2.77h-4.25V40.11h4.21V33.56h-3V31.44h3V29.79h2.62v1.65h6.88V29.79h2.69v1.65h3v2.12h-3v6.55h4.07v2.14Zm-1.39,1.82a13.47,13.47,0,0,1-1.58-1.82h-6.2a12.72,12.72,0,0,1-1.57,1.82H518V42.71h2.66v1.36Zm-8.22-10.51v1h6.88v-1Zm0,3.74h6.88v-1h-6.88Zm0,2.81h6.88v-1h-6.88Z"/><path class="f" d="M545.46,36.7a18.7,18.7,0,0,0,6.19,8A10.48,10.48,0,0,0,549.58,47a14.66,14.66,0,0,1-2.33-2.27V46.6h-4.54v3.72h-2.77V46.6h-4.62v-2a18.91,18.91,0,0,1-2.49,2.42,12.22,12.22,0,0,0-1.91-2.14,19,19,0,0,0,6.16-8.23h-5.39V34h8.25V29.79h2.77V34H551V36.7Zm-5.52,7.24V36.7h-.15a27,27,0,0,1-3.9,7.24Zm6.69,0a27.69,27.69,0,0,1-3.83-7.24h-.09v7.24Z"/><path class="f" d="M573.27,47.13v2.58H553.49V47.13H562V42.71h-6V40.18h6V36.31h-4.55a18.1,18.1,0,0,1-2,3.19A20.38,20.38,0,0,0,553,37.94a19.06,19.06,0,0,0,3.89-7.88l2.71.59c-.31,1.06-.66,2.09-1,3.1H562v-4h2.75v4h7.42v2.56h-7.42v3.87h6.58v2.53h-6.58v4.42Z"/><path class="f" d="M579.25,40.38c-.9-.64-2.79-1.67-4.09-2.38l1.41-1.94c1.21.6,3.17,1.55,4.14,2.14Zm-3.78,7.92a66.24,66.24,0,0,0,4.18-6.93l1.91,1.76c-1.16,2.31-2.55,4.82-3.89,6.95Zm4.73-13.93a46.39,46.39,0,0,0-4-2.42l1.48-1.89c1.23.61,3.15,1.58,4.09,2.2ZM590,38.66v2.77h4.49v8.78H592v-.79h-6.62v.9H583V41.43h4.49V38.66h-5.85V36.15h5.85V33.58c-1.45.22-2.9.37-4.29.5a9.17,9.17,0,0,0-.73-2.24,43,43,0,0,0,10.28-2.07l2,2.07a28.25,28.25,0,0,1-4.79,1.3v3h5.59v2.51Zm2,5.15h-6.62V47H592Z"/><path class="f" d="M612.41,47c1.8.61,3.59,1.27,4.75,1.8l-1.91,1.56A50.84,50.84,0,0,0,609,47.81l.83-.83h-5.36l1.6.75a28.17,28.17,0,0,1-6.89,2.64,13.55,13.55,0,0,0-1.89-1.9A27.55,27.55,0,0,0,603,47h-2.89V40.44c-.5.11-1,.22-1.63.31a8.81,8.81,0,0,0-1.25-2,11.51,11.51,0,0,0,5.13-1.54h-3.55a37,37,0,0,0,.64-4h4.21v-.88h-5V30.74h5v-1h2.37v1h2.44v-1H611v1h4.67v3.94H611v1h6.07s0,.41,0,.68a4.53,4.53,0,0,1-.61,2.53,1.73,1.73,0,0,1-1.26.53l-.35,0V47Zm-11-11.33h2.09a4.46,4.46,0,0,0,.15-1h-2.09ZM602.71,40v.88h9.46V40Zm0,2.26v.9h9.46v-.9Zm0,3.21h9.46v-.92h-9.46Zm2.83-8.33a4.79,4.79,0,0,1-1,1.38h4V37.17Zm3-2.49h-2.44c0,.33,0,.66-.09,1h2.53Zm-2.44-1.52h2.44v-.88h-2.44Zm4.93-.88v.88h2.29v-.88Zm0,4.89v1.38h2a3.18,3.18,0,0,0-.31-.72,7.45,7.45,0,0,0,1.23.06.55.55,0,0,0,.46-.13,1.24,1.24,0,0,0,.16-.59Z"/><path class="f" d="M622.53,42l-3.61-5.89h3.47l1.24,2.2c.35.68.72,1.38,1.1,2.07h.09c.28-.69.61-1.39.9-2.07l1-2.2h3.35l-3.61,6.27,3.85,6h-3.48l-1.36-2.25c-.4-.72-.79-1.47-1.19-2.17h-.11c-.35.7-.68,1.43-1,2.17L622,48.41h-3.34Z"/><path class="f" d="M649.88,39.39c-.88.68-1.88,1.38-2.84,2a9.09,9.09,0,0,0,5.15,5.79,9.34,9.34,0,0,0-1.74,2.14A11,11,0,0,1,645,42.75c-.22.16-.46.29-.68.42.61,2.64.09,5.17-1,6.1a3.24,3.24,0,0,1-2.61,1c-.49,0-1.15,0-1.79,0a5.86,5.86,0,0,0-.7-2.49,17.22,17.22,0,0,0,2,.11,1.19,1.19,0,0,0,1.19-.53,3.22,3.22,0,0,0,.64-2.22,34.74,34.74,0,0,1-8.89,4.23,10.42,10.42,0,0,0-1.37-2.18,25.73,25.73,0,0,0,9.88-4.49c-.09-.26-.2-.55-.33-.84a36.52,36.52,0,0,1-7.92,3.59,11.71,11.71,0,0,0-1.3-2,27.74,27.74,0,0,0,8.23-3.24c-.2-.24-.39-.48-.61-.72a29.6,29.6,0,0,1-6.12,2.31,12,12,0,0,0-1.34-2,26.73,26.73,0,0,0,7.08-2.42h-3.78V35.1h12.3v2.22h-4.89a10,10,0,0,1-1.32,1A8.52,8.52,0,0,1,643.54,41a29,29,0,0,0,4.16-3.32Zm-15-2.91h-2.58v-5h8a11.88,11.88,0,0,0-.53-1.17l2.77-.79a11.79,11.79,0,0,1,.95,2h7.83v5h-2.69V33.89H634.83Z"/><path class="f" d="M671.46,35.58v9.15h-2.69v-1.1H658.58a12.78,12.78,0,0,1-3.25,6.8,10.76,10.76,0,0,0-2-1.78c2.87-2.9,3.13-7.24,3.13-10.45V31.82a74.66,74.66,0,0,0,12.45-2l2.07,2a74.28,74.28,0,0,1-11.88,2v1.83Zm-2.69,5.63V38h-9.7v.22c0,.9,0,1.94-.13,3Z"/><path class="f" d="M687,29.79c0,.93-.07,2.12-.16,3.44.31,3,1.65,11.26,9.33,14.65a7,7,0,0,0-1.91,2.27c-4.89-2.34-7.33-6.63-8.6-10.41a17.94,17.94,0,0,1-8.1,10.54,8.39,8.39,0,0,0-2.18-2.14c8.93-4.77,8.52-14.63,8.6-18.35Z"/><path class="f" d="M716.36,31.93V49.84h-2.88V48.1H701.82v1.78h-2.76v-18Zm-2.88,13.46V34.59H701.82v10.8Z"/><path class="f" d="M738.49,36.06a29.8,29.8,0,0,1-1.89,8.3,9.36,9.36,0,0,0,3.48,3.89A6.8,6.8,0,0,0,738.6,50a10.58,10.58,0,0,1-3.19-3.48,12.65,12.65,0,0,1-3.94,3.9,8.1,8.1,0,0,0-1-1.59l-1.41,1.21a23.79,23.79,0,0,0-2.83-1.52,23.25,23.25,0,0,1-6.17,1.63,6.88,6.88,0,0,0-.94-1.67,27.32,27.32,0,0,0,4.64-1,28.39,28.39,0,0,0-2.93-1,11.85,11.85,0,0,0,1-1.28l-2,.11-.2-1.74,3.39-.15a13.5,13.5,0,0,0,.77-1.37h-3.23v-4h3.94V37.5h-3.35V35.18h-1.67V33.34h1.67V31.11h3.35V29.77h2v1.34H730v2.23h1.5v1.84H730V37.5h-3.54v.61h4v1.61c1.46-2.36,2.18-6.1,2.58-9.88l2.2.28c-.15,1.24-.33,2.47-.57,3.66h5.21v2.28Zm-15.8,4.45h1.81V39.7h-1.81Zm.62-7.75v.71h1.19v-.71Zm1.19,3.08v-.79h-1.19v.79Zm-.6,9.86c.73.24,1.48.51,2.2.79a3.72,3.72,0,0,0,1.54-1.56l-3.34.18Zm6-.9a4.73,4.73,0,0,1-1.67,2.6c.79.35,1.49.7,2.11,1a9.86,9.86,0,0,0,3.92-4.2,30.61,30.61,0,0,1-1.3-4.38,11.48,11.48,0,0,1-.84,1.6,13.54,13.54,0,0,0-1.61-1.6v2.26h-4.4c-.22.42-.46.84-.7,1.28l2.57-.13v-.77h2v.68l.7,0,0,1.65Zm-3.41-12v.71h1.27v-.71Zm1.27,3.08v-.79h-1.27v.79Zm-1.27,3.86v.81h1.76V39.7Zm7.74-3.64a37.91,37.91,0,0,0,1.12,5.29,28.77,28.77,0,0,0,.95-5.29Z"/><line class="g" x1="465.63" y1="52.71" x2="447.59" y2="52.71"/><line class="g" x1="465.63" y1="60.82" x2="447.59" y2="60.82"/><line class="g" x1="465.63" y1="37.83" x2="447.59" y2="31.58"/><line class="g" x1="465.63" y1="37.83" x2="447.59" y2="44.08"/></g></svg>