<svg xmlns="http://www.w3.org/2000/svg" viewBox="0 0 205.62 293.86"><defs><style>.a{isolation:isolate;}.b{fill:#333;}.b,.h{mix-blend-mode:multiply;}.c,.n{fill:#f66c00;}.c,.d,.f,.g,.i,.j,.k,.m,.n,.o{stroke:#000;}.c,.d,.f,.k,.n,.o{stroke-linecap:round;}.c,.d,.f,.n,.o{stroke-linejoin:round;}.c,.d{stroke-width:5px;}.d,.i,.l{fill:#fff;}.e{fill:#1a1a1a;}.f,.m{fill:#9cd9e2;}.f,.g,.i,.j,.k,.m,.n,.o{stroke-width:2px;}.g,.k,.o{fill:none;}.g,.i,.j,.k,.m{stroke-miterlimit:10;}.h{fill:#e6e6e6;}</style></defs><title>figure-5</title><g class="a"><rect class="b" x="-1397.09" y="-458.58" width="1920" height="1080"/><rect class="c" x="-1179.06" y="-348.58" width="1500" height="841.88" rx="38.55" ry="38.55"/><rect class="d" x="-665.65" y="-286.7" width="927.4" height="621.73" rx="42.06" ry="42.06"/><path class="e" d="M37.75,36.44V53.89H36V50c-1.67.29-3.32.59-4.66.84L31,49l1.23-.18V36.44h-1V34.59h7.29v1.85Zm-1.72,0H33.87v2.73H36Zm0,4.42H33.87v2.77H36Zm0,7.35V45.33H33.87v3.19Zm7.64-7.77c.39,1.17.88,2.71,1.07,3.61l-1.27.42c-.07-.31-.16-.7-.27-1.1-3.72.46-4.27.59-4.62.77-.09-.42-.28-1.32-.44-1.8a3.1,3.1,0,0,0,1.28-1.06,17.24,17.24,0,0,0,1.23-1.61,6,6,0,0,0-1.91.36c-.07-.42-.31-1.35-.47-1.87a2,2,0,0,0,.88-.75,17.37,17.37,0,0,0,2-3.59l1.52.66a24.53,24.53,0,0,1-2.42,3.9l1.39-.07c.39-.59.79-1.28,1.12-1.91l1.39.72a34.41,34.41,0,0,1-3.74,5.17l2.46-.24c-.11-.46-.26-.88-.4-1.3Zm.39,4.1v3.32A6.25,6.25,0,0,1,40.17,54a6.53,6.53,0,0,0-1.1-1.41,5,5,0,0,0,3.08-3.06h-3v-5h1.67v3.3h1.52v-3.3Zm6.07-.2c-.08-.31-.22-.73-.33-1.17-3.69.58-4.26.73-4.62.93a17.71,17.71,0,0,0-.44-1.78,2.38,2.38,0,0,0,1.15-1,13.21,13.21,0,0,0,1.23-1.76,5.67,5.67,0,0,0-2.16.4c-.08-.4-.3-1.28-.46-1.76.29,0,.55-.31.86-.71A15.92,15.92,0,0,0,47.3,34l1.36.69a23.85,23.85,0,0,1-2.2,3.6l1.47-.08c.31-.55.64-1.17.91-1.76l1.36.7A35.2,35.2,0,0,1,47,42.21l2.35-.31c-.15-.47-.33-.9-.48-1.32L50,40.2a34.92,34.92,0,0,1,1.37,3.63Zm-1.54.35h1.68v5.63H48.59v-.77H47.08v4.36H45.32V44.52h1.76v3.27h1.51Z"/><path class="e" d="M59.33,47.16c-.07-.36-.15-.77-.24-1.21-4.29.66-5,.85-5.42,1.07-.11-.39-.41-1.34-.61-1.84.48-.11,1-.66,1.65-1.46a23.5,23.5,0,0,0,1.67-2.18,12.06,12.06,0,0,0-2.86.51c-.11-.39-.4-1.3-.59-1.8.35-.09.74-.53,1.23-1.17A29.79,29.79,0,0,0,57,33.65l1.82.77a38.87,38.87,0,0,1-3.34,5.63l2-.18A32.85,32.85,0,0,0,59.06,37l1.74,1A41.49,41.49,0,0,1,56,44.78l2.66-.37c-.18-.66-.37-1.33-.59-1.94l1.45-.4a28.25,28.25,0,0,1,1.34,4.58Zm-3.7,1a28.93,28.93,0,0,1-1.05,5.32A9.84,9.84,0,0,0,53,52.85a21.47,21.47,0,0,0,1-5Zm2.27-.36a39.61,39.61,0,0,1,.61,4.73l-1.58.29a39.12,39.12,0,0,0-.55-4.73Zm2.18-.55a27.63,27.63,0,0,1,1.21,4.1l-1.5.5a30.51,30.51,0,0,0-1.14-4.16Zm12.3-10.73a17.16,17.16,0,0,1-3.59,5.63,15.57,15.57,0,0,0,4.75,2.71,8.88,8.88,0,0,0-1.3,1.71L72,46.45v7.33H70V53.1H64.59v.7H62.67V46.52a5.51,5.51,0,0,1-.61.28,6.84,6.84,0,0,0-1.21-1.58,18.77,18.77,0,0,0,5.21-3.13,15.8,15.8,0,0,1-2-2.68,16.57,16.57,0,0,1-1.92,1.92,9.73,9.73,0,0,0-1.54-1.44,14.76,14.76,0,0,0,4.74-6.27l2,.55c-.26.6-.55,1.19-.85,1.76h4.22l.37-.08Zm-1.63,9.35a16.13,16.13,0,0,1-3.35-2.4A21.5,21.5,0,0,1,64,45.86ZM70,51.29V47.66H64.59v3.63ZM65.18,38a15.18,15.18,0,0,0,2.18,2.86,13.27,13.27,0,0,0,2.33-3.17H65.38Z"/><path class="e" d="M77.35,48.12a27.84,27.84,0,0,1-1,5.31c-.35-.16-1.12-.42-1.49-.55a21.51,21.51,0,0,0,.92-5Zm4.31-6.22a18.75,18.75,0,0,1,1.49,4.33l-1.47.62a9.56,9.56,0,0,0-.22-1c-4.71.75-5.43.92-5.85,1.16A16.65,16.65,0,0,0,75,45.24c.51-.13,1-.68,1.63-1.49a22.12,22.12,0,0,0,1.58-2.21,10.2,10.2,0,0,0-2.75.51,11.72,11.72,0,0,0-.59-1.76c.4-.11.77-.55,1.17-1.21a26.67,26.67,0,0,0,2.68-5.46l1.72.75A36.09,36.09,0,0,1,77.32,40l1.94-.16a33,33,0,0,0,1.63-3.12l1.6,1a43.21,43.21,0,0,1-4.66,7L81,44.38q-.36-1.05-.75-2Zm-2.11,5.83a43.31,43.31,0,0,1,.59,4.62l-1.52.37a41.23,41.23,0,0,0-.5-4.66Zm2.26-.6a34,34,0,0,1,1.26,4.18l-1.39.53a35.7,35.7,0,0,0-1.21-4.24Zm12.68,4.4c0,1.08-.2,1.68-.91,2a9,9,0,0,1-3.45.38,6.78,6.78,0,0,0-.59-2c1.14.06,2.26,0,2.57,0s.46-.11.46-.44V47.62a9.63,9.63,0,0,0-1.12,1.58A9.85,9.85,0,0,1,89,44.67,10.64,10.64,0,0,1,86,49.29a8.57,8.57,0,0,0-.75-1.54v6.12H83.44V38.57h4.62c0-.79-.09-1.65-.09-2.5H84.8V34.31h4.78c0,1.49,0,2.94.15,4.26h4.76Zm-9.2-4.11c1.58-1.36,2.55-3.59,3-6.36,0-.2-.06-.39-.08-.62H85.29Zm4.62-7c.35,3.13,1.14,5.53,2.66,6.94V40.44Z"/><path class="e" d="M104,34.37a36.9,36.9,0,0,1-2.25,4.6V53.84h-2V42a19.4,19.4,0,0,1-1.93,2.29,12.27,12.27,0,0,0-1.15-2.07,23.41,23.41,0,0,0,5.37-8.42Zm3.87,13.14a30.93,30.93,0,0,1-3.57,5.37,9.28,9.28,0,0,0-1.58-1.15,21.06,21.06,0,0,0,3.3-4.79Zm3.3-1.45v7.85h-2V46.06H103V44.19h6.07V41.88h-4.53V34.7h11.38v7.18h-4.8v2.31h6v1.87Zm-4.67-6h7.42V36.51h-7.42Zm7.24,6.86a32.23,32.23,0,0,1,3.55,4.8l-1.65,1a29.76,29.76,0,0,0-3.44-4.95Z"/><path class="e" d="M138.46,35.67v4h-2.15V37.58H121.79V39.7h-2.05v-4h8.67a7.67,7.67,0,0,0-.64-1.63l2.09-.46a13.46,13.46,0,0,1,.88,2.09Zm-13.9,11.16h11.88v6.9h-2.09v-.81h-9.79v.92h-2.09V39.21h13.2V45H124.56Zm0-5.83v2.28h9.06V41Zm0,7.63v2.49h9.79V48.63Z"/><path d="M157.8,4.11a5.71,5.71,0,0,1,5.71,5.71V79.46a5.72,5.72,0,0,1-5.71,5.72h-67l-.87,1.5-6,10.41-6-10.41L77,85.18H10a5.72,5.72,0,0,1-5.71-5.72V9.82A5.71,5.71,0,0,1,10,4.11H157.8m0-3H10A8.74,8.74,0,0,0,1.32,9.82V79.46A8.74,8.74,0,0,0,10,88.18H75.3L82.69,101a1.4,1.4,0,0,0,2.44,0l7.4-12.8H157.8a8.74,8.74,0,0,0,8.71-8.72V9.82a8.74,8.74,0,0,0-8.71-8.71Z"/><path class="f" d="M157.77,189c6.53,8,20.89,28.17,18.49,49a4,4,0,0,1-.11.85v0h0a4.48,4.48,0,0,1-8.73,0,4.55,4.55,0,0,1,0-2.11h0v0c0-.08.05-.16.07-.24.6-2.4,1-16.72-12.21-33.4"/><path class="g" d="M170,235c0,.28.77,4.29-.79,6.27"/><path class="g" d="M172.89,235.31s.67,5.79-1,7.15"/><path class="h" d="M134.61,285c.06,4.54-21.2,8.52-47.5,8.88s-47.66-3-47.72-7.55,21.2-8.52,47.49-8.89S134.54,280.41,134.61,285Z"/><rect class="i" x="99.11" y="285.77" width="14.64" height="2.9" transform="translate(-4.01 1.52) rotate(-0.8)"/><line class="g" x1="103.41" y1="270.86" x2="115.8" y2="270.69"/><path class="j" d="M107,270.81c.07,2.24.12,4.5.15,6.75,0,0-8.79-.47-8.08,8.31l14.64-.2-.21-14.95Z"/><rect class="i" x="55.22" y="286.38" width="14.64" height="2.9" transform="translate(-4 0.9) rotate(-0.8)"/><line class="g" x1="60.34" y1="271.46" x2="72.73" y2="271.29"/><path class="j" d="M63.14,271.42c.06,2.24.12,4.5.15,6.75,0,0-8.79-.46-8.09,8.31l14.64-.2-.21-14.95Z"/><path class="f" d="M158,185.28a70.77,70.77,0,0,0-141.53,2c0,1.32.07,2.62.16,3.92l-.11-.08s-18,30.82-8.74,56.12a4.59,4.59,0,0,0,.29.81v0h0a4.47,4.47,0,0,0,8.48-2,4.55,4.55,0,0,0-.53-2.05h0v0c0-.07-.09-.14-.13-.22-1.14-2.19-4.89-16,4.09-35.32a71,71,0,0,0,42.31,44.13c.27,4.66.62,11.61.83,18.9l6.49-.09-.23-16.56a71.24,71.24,0,0,0,37-.35c.24,4.48.51,10.31.68,16.39l6.5-.09-.26-18.63A70.79,70.79,0,0,0,158,185.28Z"/><path class="i" d="M69,163.61c.44,1.94-1.65,4.06-4.67,4.74s-5.81-.34-6.25-2.28,1.65-4.06,4.67-4.74S68.53,161.67,69,163.61Z"/><path class="i" d="M95.3,166.26c-.63,1.88-3.52,2.61-6.45,1.62s-4.79-3.31-4.16-5.19,3.52-2.61,6.45-1.63S95.93,164.38,95.3,166.26Z"/><ellipse class="g" cx="62.23" cy="176.51" rx="11.14" ry="10.64"/><ellipse class="g" cx="91.12" cy="176.51" rx="11.14" ry="10.64"/><rect x="73.38" y="176.51" width="6.78" height="1.9"/><path d="M69.23,174a2.8,2.8,0,1,1-2.83-2.76A2.8,2.8,0,0,1,69.23,174Z"/><path d="M90.12,173.67a2.8,2.8,0,1,1-2.83-2.76A2.81,2.81,0,0,1,90.12,173.67Z"/><path class="g" d="M78.32,198a2.8,2.8,0,0,1-5.6.07"/><path class="g" d="M83.91,197.94a2.8,2.8,0,1,1-5.59.08"/><line class="g" x1="68.92" y1="194.16" x2="87.61" y2="193.9"/><path class="g" d="M13.16,242.91c.07.27.25,4.35,2.23,5.91"/><path class="g" d="M10.42,243.9s.7,5.78,2.63,6.71"/><path class="k" d="M64.4,253.27A70.89,70.89,0,0,1,18.47,203"/><path class="k" d="M104.8,254.84a71.27,71.27,0,0,1-35,0"/><path class="k" d="M110.05,253.28q-2.58.89-5.25,1.56"/><path class="k" d="M16.48,187.25a70.77,70.77,0,1,1,98,64.35"/><path class="l" d="M123,188.66a10.39,10.39,0,1,1-10.53-10.24A10.39,10.39,0,0,1,123,188.66Z"/><path class="l" d="M50.88,189.67a10.39,10.39,0,1,1-10.53-10.24A10.38,10.38,0,0,1,50.88,189.67Z"/><path class="m" d="M80.16,186.3l-18.2.32a3.76,3.76,0,0,1-3.8-3.69h0a3.76,3.76,0,0,1,3.7-3.8l18.55-.32"/><path class="n" d="M183.85,160.37,172.7,175.64a7,7,0,0,0,1.7,9.67l7.68,5.62c-.16.46-.34.93-.52,1.43a63.1,63.1,0,0,1-23.3,31.89l-1.17.92-5.16-3.77-2.54-1.85a7,7,0,0,0-9.73,1.33l-11.15,15.26a7,7,0,0,0,1.69,9.68l4.32,3.14.09-.12a22,22,0,0,0,5.89,2.23,23.07,23.07,0,0,0,5.7.51c14.72-.51,26.9-9.18,42-29.89,20.92-28.64,15.94-48.32,15.71-49.17a22.35,22.35,0,0,0-2.24-5.28,21.66,21.66,0,0,0-3.89-4.92l.06-.09L193.59,159A7,7,0,0,0,183.85,160.37Z"/><line class="o" x1="195.13" y1="160.19" x2="176.6" y2="185"/><line class="o" x1="149.7" y1="221.03" x2="131.17" y2="245.85"/></g></svg>