<?xml version="1.0" standalone="no"?>
<!DOCTYPE svg PUBLIC "-//W3C//DTD SVG 20010904//EN"
 "http://www.w3.org/TR/2001/REC-SVG-20010904/DTD/svg10.dtd">
<svg version="1.0" xmlns="http://www.w3.org/2000/svg"
 width="261.000000pt" height="261.000000pt" viewBox="0 0 261.000000 261.000000"
 preserveAspectRatio="xMidYMid meet">
<metadata>
Created by potrace 1.11, written by Peter Selinger 2001-2013
</metadata>
<g transform="translate(0.000000,261.000000) scale(0.100000,-0.100000)"
fill="#000000" stroke="none">
<path d="M1175 2430 c-473 -56 -852 -388 -976 -857 -30 -112 -37 -346 -15
-468 67 -361 290 -661 610 -818 186 -92 335 -122 559 -114 292 10 525 110 739
315 455 438 461 1168 13 1616 -160 160 -353 264 -575 310 -95 19 -264 27 -355
16z m235 -100 c241 -28 439 -121 612 -288 391 -378 422 -991 71 -1407 -138
-164 -330 -283 -548 -341 -105 -28 -390 -26 -497 4 -376 104 -651 379 -750
750 -26 99 -35 304 -18 410 73 459 436 812 895 871 98 12 138 12 235 1z"/>
<path d="M1639 1851 c-70 -23 -109 -72 -109 -136 0 -115 135 -216 291 -217 80
-1 134 22 166 71 57 85 0 198 -129 256 -66 30 -170 42 -219 26z m160 -76 c68
-21 141 -88 141 -132 0 -109 -240 -96 -320 18 -32 44 -24 89 20 111 43 22 91
23 159 3z"/>
<path d="M760 1820 c-181 -65 -224 -244 -76 -311 28 -12 65 -19 113 -19 221 0
368 184 238 299 -62 54 -174 67 -275 31z m217 -76 c61 -46 39 -108 -56 -156
-93 -48 -228 -33 -251 27 -19 50 35 112 123 141 58 19 150 13 184 -12z"/>
<path d="M1589 1399 c-64 -69 -18 -178 76 -179 49 0 83 22 101 66 31 73 -20
144 -103 144 -37 0 -50 -5 -74 -31z"/>
<path d="M881 1394 c-77 -65 -33 -184 68 -184 112 1 151 127 61 197 -28 22
-95 16 -129 -13z"/>
<path d="M1121 1196 c-75 -27 -131 -112 -131 -197 1 -79 72 -168 152 -189 25
-7 100 -10 192 -8 133 3 156 6 193 26 116 61 145 212 60 309 -56 64 -90 73
-272 72 -100 0 -173 -5 -194 -13z m363 -70 c70 -29 98 -115 61 -186 -27 -53
-56 -60 -241 -60 l-166 0 -33 33 c-64 64 -54 152 24 204 31 21 45 23 178 23
99 0 154 -4 177 -14z"/>
</g>
</svg>
